<svg xmlns="http://www.w3.org/2000/svg" viewBox="0 259.5 2000 311.4" enable-background="new 0 259.5 2000 311.4"><g fill="#0d3050"><path d="m1730.4 480.2h-1v-2.2h-10.8v2.2h-4.3v-14h-.9v-2.9h-4.2v1.6h-6.1v1.3h-2.4v-6.2h-2.2v-24.8h-2.5v-5.1l-10.8-2.6h-2.6v-4h-2.4v-2.1h-6.4v2.1h-6v-1.5h-6.8v1.5h-1.2v11.7h-8v24.8h-4.9v12h-.6v-4h-6.3v-2.7h-14.8v2.7h-5.5v-9.2h-7.8v9.2 64h-3.5v-69.6h-10.2v-2h-7v2h-8.1v-2.3h-17v2.3h-2.5v69.6h-12.7v-91.5h-22.9v-2.7h-3.6v2.7h-.9v91.5h-4.4v-116.8h-3.7v-2.8h-9.7v2.8h-9.4v-1.5h-16.2v1.5h-2.8v33.6h-2.5v-1.4h-6.4v1.4h-1v83.2h-10.1v-70.1h-8.2v-1.9h-13.4v1.9h-3.3v-8.4h-.8v8.4h-2.6v70.1h-10.4v-144.7h-30.1v144.7h-22.7v-51.3h-16.5v-1.8h-10.9v1.8h-2.7v51.3h-9.9v-88h-5.3v-1.3h-1.2v1.3h-8.7v-1.7h-5.3v1.7h-1.4v88h-45.5v-101.1h-10.6v-2.5h-9.9v2.5h-3.1v18.3h-7.4v-.9h-7.9v.9h-2.3v82.8h-30.2v-92.5h-5.9v-1.7h-10.3v1.7h-2.1v92.5h-3.4v-120h-5.5v-2h-3.1v2h-6.5v-2.8h-9.6v2.8h-20.1v120h-112.9v-101.4h-10v-4.9h-11.3v-6.8h-19.9v6.8h-21.3v4.9 101.4h-90.7v-82.2-24.1h-26.9v24.1h-7.6v-10.3h-78v10.3 38.3h-23.7v43.9h-60.1v-48.9-34.9h-15.1v-1.6h-10.9v1.6h-4.3v34.9h-24.1v-16.6h-3.2v-1.9h-18.1v1.9h-4v16.6h-10v-37h-3.7v-20.8h-2.2v-2.8h-24.1v2.8h-18.5v20.8 37 48.9h-66.8v-54-52.7h-37.4v-1.8h-5.6v1.8h-1.8v23.5h-11.2v-2.7h-6.5v-3.1h-2.5v5.8h-4.4v29.2h-32.1v54h-92.8v-21.9h-1.2v-121.9h-1.5v-1.1l-20.7-13.8h-.9l-20.7 13.8v1.1h-1.3v9h-1.8v15.4h-3.5v29.4h-1v2.3h1v22.2h-1v2.4h1v41.2h-15.2v12.7h-18.1v9.2h-1.4v38.8h1575.1v-38.8h-17.2z"/><path d="m1892 518.1v12.7h-21.6v19.4h21.6v10.7h80.2v-42.8z"/><path d="m84.8 530.8h-21.7v19.4h21.7v10.7h80.3v-42.8h-80.3z"/></g><g fill="#010101"><path d="m1254.1 339.7h44.2v224.5h-44.2z"/><path d="m1362.3 339.7h5.5v-13.3h26l12.7 13.3v224.5h-44.2z"/><path d="m179.3 532h64.7v25.3h-64.7z"/></g><g fill="#0d2034"><path d="m1235.4 477.1h-18.8v-3.2l-7-5.8h-.7l-6.9 5.8v3.2h-18.8l-8.9 9.4h-.9v1.1h.9v27.1h-5.6v-6.1h-16.1v6.1h-4.1v-2.8h-4.8v2.8h-4v42.7h34.6v.6h8.9 52.2 8.7v-70.4h1v-1.1h-1z"/><path d="m1059.5 477.3h-26.5v-5.5h-7.1v-27.6h-12.5v-1.9h-28.4v1.9h-3.1v63.4h-11.1v29.3h-8.3v-77.3h-14.2v77.3h-6.6v14.4h6.6v5.9h14.2v-5.9h8.3v5.5h93v-49.2h-4.3z"/><path d="m277 488.5h-15.1v2.2h-7v-7.9h-23.5v7.9h-4.7v30.3h-17.7v24h17.7 22 33.1v-54.3h-4.8z"/><path d="m436.6 494.1h-10.2v34.5h-3v-18.1h-16v11.4h-6.6v-8.7h-10.1v16.7h-7.5v-25.6h-34.9v42.5h34.9v-.9h13.8v.9h10.4 5.4v.8h13.6v.5h10.2v-.5h10.2v-19h-10.2z"/><path d="m514.6 474.8h28.2v63.5h-28.2z"/><path d="m560.6 483.2h42v26h-42z"/><path d="m641.2 506.1h-8.4v-14.9h-18.4v32.9h18.4v-5.6h8.4v16.7h22.5v-36.6h-22.5z"/><path d="m1269.6 523.4h-5.4v2.2h-12.7v29.7h18.1v7h460v-47.6h-460z"/><path d="m1527.4 510.8h15.5v-1.2l6.7 3.3 16.1-9.5 19.1 9.5 16.1-9.5 19.1 9.5 16.1-9.5 19.1 9.5 16.1-9.5 19.1 9.5 16.1-9.5 19.1 9.5 4.1-2.4v-10.3l-14.6-1.8c-12.4-3.3-18.3-9.8-19.8-18.5-5.5 8.3-13 13.4-22.5 15.8-7.5-3.5-11.5-9-12.7-15.8-5.5 8.3-13 13.4-22.5 16-7.5-3.5-11.5-9-12.7-16-5.5 8.3-13 13.4-22.5 16-7.5-3.5-11.5-9-12.7-16-5.5 8.3-13 13.4-22.5 16-7.5-3.5-11.5-9-12.7-16-7.8 12-20.1 17.4-36.1 17.4l18.9 9.5-9.6-1.8h-15.2v2.8l7.7 3h7.2"/><path d="m1994.1 498.7v-2.2h-18v2.2h-8.5v-8h-28v8h-5.8v30.5h-21.3v23.8h21.3 26.4 39.8v-54.3z"/><path d="m1777 502.1h50.4v26h-50.4z"/><path d="m1873.9 525h-10v-14.9h-22.3v33.1h22.3v-5.8h10v16.7h27.1v-36.5h-27.1z"/><path d="m187 496.5h-18.1v2.2h-8.4v-8h-28.1v8h-5.9v30.5h-21.1v23.8h21.1 26.5 39.7v-54.3h-5.7z"/><path d="m66.8 525h-10v-14.9h-22.4v33.1h22.4v-5.8h10v16.7h27v-36.5h-27z"/></g><g fill="#010101"><path d="m1255.2 336.7h41.4v7.2h-41.4z"/><path d="m1264.9 324.2h22.6v17.4h-22.6z"/><path d="m1365 328.2h28.7v25.4h-28.7z"/><path d="m1404.7 348.3h3.4v4.4h-3.4z"/><path d="m1404.7 357h3.4v4.4h-3.4z"/><path d="m1404.7 365.7h3.4v4.4h-3.4z"/><path d="m1404.7 374.6h3.4v4.4h-3.4z"/><path d="m1404.7 383.3h3.4v4.4h-3.4z"/><path d="m1404.7 392.2h3.4v4.4h-3.4z"/><path d="m1404.7 400.9h3.4v4.4h-3.4z"/><path d="m1404.7 409.6h3.4v4.4h-3.4z"/><path d="m1404.7 418.5h3.4v4.4h-3.4z"/><path d="m1404.7 427.2h3.4v4.4h-3.4z"/><path d="m1404.7 435.9h3.4v4.4h-3.4z"/><path d="m1404.7 444.8h3.4v4.4h-3.4z"/><path d="m1404.7 453.5h3.4v4.4h-3.4z"/><path d="m1404.7 462.2h3.4v4.4h-3.4z"/><path d="m1404.7 471.1h3.4v4.4h-3.4z"/><path d="m1404.7 479.8h3.4v4.4h-3.4z"/><path d="m1404.7 488.7h3.4v4.4h-3.4z"/><path d="m1404.7 497.4h3.4v4.4h-3.4z"/><path d="m1404.7 506.1h3.4v4.4h-3.4z"/><path d="m1404.7 515h3.4v4.4h-3.4z"/><path d="m1404.7 523.7h3.4v4.4h-3.4z"/><path d="m1404.7 532.4h3.4v4.4h-3.4z"/><path d="m1569.2 500.2h1.8v-10.8l17.9-6.8v1l15.6 6v10.6h1.8v-10.8l17.9-6.8v1l15.8 6v10.6h1.8v-10.8l17.7-6.8v1l15.8 6v10.6h1.8v-10.8l17.9-6.8v-.7l-19.1 4.7-16.4-4.1v-.6l-18.9 4.7-16.4-4.1v-.6l-19.1 4.7-16.2-4.1v-.6l-19.1 4.7-16.4-4.1v1.1l15.8 6z"/><path d="m2000 547h-45.4v-7h-77.9v8.7h-.9v-13.7h-21v-19.7h-23.5v-3.1h-24.8v3.3h-11.5v-7.5h-33.7v7.4h-10.8v33.4h-20.2v-11.1h-.4v-33h-1.9v-13h-2.5v10h-34.7v-10h-2.5v10h-34.7v-10h-2.5v10h-34.7v-10h-2.5v10h-34.9v-10h-2.5v10h-27v7.4h-5.6v-4.4h-1.9v-13h-2.5v13 4.4h-20.1v15.4h20.5v13h-32.7v-32.8h-1.9v-13h-2.5v13 32.8h-32.8v-32.8h-1.9v-13h-2.5v13 32.8h-32.7v-32.8h-1.9v-13h-2.5v13 32.8h-32.7v-32.8h-1.9v-13h-2.5v13 32.8h-32.7v-32.8h-1.9v-13h-2.5v13 32.8h-32.7v-32.8h-1.9v-13h-2.5v13 32.8h-70.8v12h-6.2v-11.1h-11.8v11.1h-14v-2.4h-10v-9.5h-27.6v11.8h-5.3v-.4h-13.6v-178.1-2.7h-5.6v-6.4-1.6h-24.8v1.6h-.9l-9.2 6.4v2.7h-3.7v9.5h-4.1v-5.8h-3.7v-1.6h-30v1.6h-17.4v5.8h-4.9v169.2h-7.5v-2.8h4l-24.1-9.9h-10.2v-1.9h.7v-2l-15.4-6.4-15.4 6.4v1.9h.7v1.9h-10.4l-24.1 9.9h4v2.8h-6.8v-164.1h-3.3v-5.5h-3.7v-2.1h-22.1v-1-3.7h-76.6v3.7h-7.4v10.6h-3.7v3.3h-1.8v3h1.9v2.8h-1.9v3h1.9v2.7h-1.9v3h1.9v2.7h-1.9v3h1.9v2.7h-1.9v3h1.9v2.7h-1.9v3h1.9v2.7h-1.9v3h1.9v2.7h-1.9v3h1.9v2.7h-1.9v3h1.9v2.7h-1.9v3h1.9v2.7h-1.9v3h1.9v2.7h-1.9v3h1.9v2.7h-1.9v3h1.9v2.7h-1.9v3h1.9v2.7h-1.9v3h1.9v2.7h-1.9v3h1.9v2.7h-1.9v3h1.9v2.7h-1.9v3h1.9v2.7h-1.9v3h1.9v2.7h-1.9v3h1.9v2.7h-1.9v3h1.9v2.7h-1.9v3h1.9v2.7h-1.9v3h1.9v2.7h-1.9v3h1.9v2.7h-1.9v3h1.9v1.5h-12.3v10.6h-4.7v-14.8h-3.8v-7.8h1.2v-2.5h-1.2v-2.5h1.2v-2.5h-1.2v-4.6h1.2v-2.5h-1.2v-2.5h1.2v-2.7h-1.2v-2.5h1.2v-2.5h-1.2v-2.5h1.2v-2.5h-1.2v-2.5h1.2v-2.5h-1.2v-2.7h1.2v-2.5h-1.2v-2.5h1.2v-2.5h-1.2v-2.5h1.2v-2.5h-1.2v-2.5h1.2v-2.7h-1.2v-2.5h1.2v-2.5h-1.2v-2.5h1.2v-2.5h-1.2v-2.5h1.2v-2.5h-1.2v-2.5h1.2v-2.5h-1.2v-2.5h1.2v-2.5h-1.2v-2.5h1.2v-2.5h-1.2v-2.5h1.2v-2.5h-1.2v-2.5h1.2v-2.5h-1.2v-2.5h1.2v-2.5h-1.2v-2.5h1.2v-2.5h-1.2v-2.5h1.2v-2.5h-1.2v-2.5h1.2v-2.8h-1.2v-2.5h1.2v-2.5h-1.2v-2.5h1.2v-2.5h-1.2v-2.5h1.2v-2.5h-1.2v-2.7h1.2v-2.9h-1.2v-2.5h1.2v-2.5h-1.2v-2.5h1.2v-2.5h-1.2v-2.5h1.2v-2.7h-1.2v-2.5h1.2v-2.5h-1.2v-3h-2.2v-3.4h2.2v-2.2h-9.8v-13.6h-1.8v-5.3h-12.4v2.8h-1.3l-18.5 13.9v2.1h-6.8v1.5.7 3.4 16.1h-4.1v61.5h-6.1v3.8h-1v2.5h1v2.5h-1v2.5h1v2.5h-1v2.5h1v2.5h-1v2.5h1v2.5h-1v2.5h1v2.5h-1v2.5h1v2.5h-1v2.5h1v2.5h-1v2.5h1v2.5h-1v2.5h1v2.5h-1v2.5h1v2.5h-1v2.5h1v2.5h-1v2.5h1v2.5h-1v2.5h1v2.5h-1v2.5h1v2.5h-1v2.5h1v2.5h-1v2.5h1v1.9h-14.8v8.9h-4v-131.7h-9.9v-4.9-1.5-1.5h-1.6v1.5h-1.6v-1.5h-1.6v1.5h-1.6v-1.5h-1.7v1.5h-1.6v-1.5h-1.6v1.5h-1.6v-1.5h-1.6v1.5h-1.6v-1.5h-1.6v1.5h-1.6v-1.5h-1.8v1.5h-1.6v-1.5h-1.6v1.5h-1.6v-1.5h-1.6v1.5h-1.6v-1.5h-1.6v1.5h-1.6v-1.5h-1.6v1.5h-1.6v-1.5h-1.6v1.5h-1.6v-1.5h-1.6v1.5h-1.6v-1.5h-1.6v1.5h-1.6v-1.5h-1.6v1.5h-1.6v-1.5h-1.6v1.5 1.5 4.9h-20.8v131.1h-8v-13.8h-17.4v-19.7h-19.7v-3.3h-20.7v3.3h-9.6v-7.3h-28.1v7.4h-9v33.4h-5.8v-200.4h-2.5l-13.4-45.5-54.5-24.4-8.9 21.7h-5.9v14.5l-13.9 33.7h-2.1v194.2h-23.5v24.1h-10v-15.4h-22.5v11.2h-6.9v-185.3-8.6-4h-1.9v4h-3.1v-2.2h.9l-17.4-43.3-50.7-5.6-18.9 48.9h.9v2.2h-5.6v-4h-1.9v4 8.6 180.9h-41.8v10.6h-33.1v-2.7h-48.2v-7h-75v-5h-38.9v14.6h-34.3v21.9h2000v-2.7-21.8m-307.4-9.4v-13h32.8v13h-32.8m-4.3 0h-32.8v-13h32.8v13m-37.2 0h-32.8v-13h32.8v13m-37.1 0h-32.7v-13h32.7v13m-37.1-13v13h-32.7v-13h32.7"/></g></svg>