<svg xmlns="http://www.w3.org/2000/svg" viewBox="0 0 28 40" enable-background="new 0 0 28 40"><path fill="#29abe2" d="m27.809 15.766c.078-.599.123-1.208.123-1.829-.001-7.697-6.253-13.937-13.966-13.937s-13.966 6.24-13.966 13.939c0 .621.045 1.229.123 1.829h-.123l.195.489c.336 2.01 1.1 3.869 2.197 5.489l11.607 18.254 11.718-18.535c.946-1.469 1.624-3.125 1.963-4.902l.32-.797c0 0-.191 0-.191 0m-13.81 3.9c-3.169 0-5.738-2.564-5.738-5.727s2.569-5.727 5.738-5.727 5.738 2.564 5.738 5.727-2.568 5.727-5.738 5.727"/></svg>