<svg xmlns="http://www.w3.org/2000/svg" viewBox="0 0 2000 560" enable-background="new 0 0 2000 560" xmlns:xlink="http://www.w3.org/1999/xlink"><defs><filter id="G" filterUnits="userSpaceOnUse" x="168.97" y="94.62" width="1662.06" height="465.38"><feColorMatrix type="matrix" values="-1 0 0 0 1  0 -1 0 0 1  0 0 -1 0 1  0 0 0 1 0" color-interpolation-filters="sRGB" result="source"/></filter><filter id="0" filterUnits="userSpaceOnUse" x="0" y="0" width="2000" height="560"><feColorMatrix type="matrix" values="-1 0 0 0 1  0 -1 0 0 1  0 0 -1 0 1  0 0 0 1 0" color-interpolation-filters="sRGB" result="source"/></filter><linearGradient id="B" gradientUnits="userSpaceOnUse" y1="560" x2="0" y2="0" xlink:href="#3"/><linearGradient id="C" gradientUnits="userSpaceOnUse" y1="560" x2="0" y2="0" xlink:href="#3"/><linearGradient id="D" gradientUnits="userSpaceOnUse" y1="560" x2="0" y2="0" xlink:href="#3"/><linearGradient id="E" gradientUnits="userSpaceOnUse" y1="560" x2="0" y2="0" xlink:href="#3"/><linearGradient id="F" gradientUnits="userSpaceOnUse" y1="560" x2="0" y2="0" xlink:href="#3"/><linearGradient id="H" gradientUnits="userSpaceOnUse" y1="560" x2="0" y2="94.62" xlink:href="#3"/><linearGradient id="9" gradientUnits="userSpaceOnUse" y1="560" x2="0" y2="0" xlink:href="#3"/><linearGradient id="A" gradientUnits="userSpaceOnUse" y1="560" x2="0" y2="0" xlink:href="#3"/><linearGradient id="4" gradientUnits="userSpaceOnUse" y1="560" x2="0" y2="0" xlink:href="#3"/><linearGradient id="5" gradientUnits="userSpaceOnUse" y1="560" x2="0" y2="0" xlink:href="#3"/><linearGradient id="3" gradientUnits="userSpaceOnUse" y1="560" x2="0" y2="0"><stop stop-color="#fff1da"/><stop offset=".399" stop-color="#f1debf"/><stop offset=".752" stop-color="#ead4ae"/><stop offset="1" stop-color="#e7d0a9"/></linearGradient><linearGradient id="8" gradientUnits="userSpaceOnUse" y1="560" x2="0" y2="0" xlink:href="#3"/><linearGradient id="6" gradientUnits="userSpaceOnUse" y1="560" x2="0" y2="0" xlink:href="#3"/><linearGradient id="7" gradientUnits="userSpaceOnUse" y1="560" x2="0" y2="0" xlink:href="#3"/><mask maskUnits="userSpaceOnUse" x="0" y="0" width="2000" height="560" id="1"><g filter="url(#0)"><path fill-rule="evenodd" fill="url(#I)" d="m.003 0h2000v560.94h-2000z"/></g></mask><mask maskUnits="userSpaceOnUse" x="168.97" y="94.62" width="1662.06" height="465.38" id="2"><g filter="url(#G)"><path fill-rule="evenodd" fill="url(#J)" d="m168.97 94.62h1662.06v466.15h-1662.06z"/></g></mask><radialGradient id="I" cx="628.85" cy="587.64" r="536.49" gradientTransform="matrix(1.8557 0 0 1.0393-154.51-51.908)" gradientUnits="userSpaceOnUse"><stop offset=".236" stop-color="#231f20"/><stop offset=".259" stop-color="#272425"/><stop offset=".295" stop-color="#333031"/><stop offset=".339" stop-color="#464344"/><stop offset=".388" stop-color="#626162"/><stop offset=".443" stop-color="#888a8d"/><stop offset=".449" stop-color="#8d8f92"/><stop offset=".55" stop-color="#9d9da0"/><stop offset=".758" stop-color="#cac9ca"/><stop offset=".933" stop-color="#fff"/></radialGradient><radialGradient id="J" cx="1541.4" cy="587.82" r="445.84" gradientTransform="matrix(-1.8557 0 0 1.0393 3850.06-51.908)" gradientUnits="userSpaceOnUse" xlink:href="#I"/></defs><g mask="url(#1)" fill-rule="evenodd"><g fill="url(#3)"><path d="m0 0h211.67v560h-211.67z"/><path opacity=".59" d="m114.55 0h211.67v560h-211.67z"/></g><path fill="url(#4)" d="m311.36 0h140.45v560h-140.45z"/><path fill="url(#5)" d="m1127.93 0h211.67v560h-211.67z"/><path opacity=".41" fill="url(#3)" d="m1242.48 0h211.67v560h-211.67z"/><path fill="url(#6)" d="m1439.29 0h140.45v560h-140.45z"/><path fill="url(#7)" d="m427.94 0h140.45v560h-140.45z"/><path opacity=".59" fill="url(#8)" d="m506.8 0h107.2v560h-107.2z"/><path opacity=".49" fill="url(#9)" d="m867.26 0h193.46v560h-193.46z"/><path opacity=".73" fill="url(#A)" d="m772.39 0h128.37v560h-128.37z"/><path opacity=".45" fill="url(#B)" d="m951.02 0h97.98v560h-97.98z"/><path opacity=".94" fill="url(#C)" d="m1031.85 0h193.71v560h-193.71z"/><path fill="url(#D)" d="m1726.58 0h238.45v560h-238.45z"/><path fill="url(#B)" d="m601.98 0h97.99v560h-97.99z"/><path opacity=".54" fill="url(#E)" d="m692.22 0h97.99v560h-97.99z"/><path opacity=".86" fill="url(#F)" d="m1683.14 0h128.37v560h-128.37z"/><g fill="url(#E)"><path opacity=".59" d="m1512.73 0h97.98v560h-97.98z"/><path opacity=".8" d="m1602.97 0h97.99v560h-97.99z"/><path opacity=".69" d="m1902.02 0h97.98v560h-97.98z"/></g></g><g mask="url(#2)" fill="url(#H)" fill-rule="evenodd"><path d="m1655.12 94.62h175.9v465.38h-175.9z"/><path opacity=".59" d="m1559.93 94.62h175.91v465.38h-175.91z"/><path d="m1455.56 94.62h116.72v465.38h-116.72z"/><path d="m717.78 94.62h175.9v465.38h-175.9z"/><path opacity=".41" d="m622.58 94.62h175.91v465.38h-175.91z"/><path d="m518.22 94.62h116.72v465.38h-116.72z"/><path d="m1358.68 94.62h116.72v465.38h-116.72z"/><path opacity=".59" d="m1320.78 94.62h89.09v465.38h-89.09z"/><path opacity=".49" d="m949.54 94.62h160.77v465.38h-160.77z"/><path opacity=".73" d="m1082.47 94.62h106.68v465.38h-106.68z"/><path opacity=".45" d="m959.27 94.62h81.43v465.38h-81.43z"/><path opacity=".94" d="m812.55 94.62h160.98v465.38h-160.98z"/><path d="m198.03 94.62h198.16v465.38h-198.16z"/><path d="m1249.34 94.62h81.42v465.38h-81.42z"/><path opacity=".54" d="m1174.34 94.62h81.43v465.38h-81.43z"/><path opacity=".86" d="m325.61 94.62h106.68v465.38h-106.68z"/><path opacity=".59" d="m492.48 94.62h81.43v465.38h-81.43z"/><path opacity=".8" d="m417.48 94.62h81.43v465.38h-81.43z"/><path opacity=".69" d="m168.97 94.62h81.43v465.38h-81.43z"/></g></svg>