<svg xmlns="http://www.w3.org/2000/svg" viewBox="0 0 2000 830" enable-background="new 0 0 2000 830"><g fill="#010101"><g stroke="#0d1f34" stroke-miterlimit="10"><path d="m1596.5 491.8h4.6v27.8h-4.6z"/><path d="m1584.6 491.8h4.6v27.8h-4.6z"/><path d="m1572 491.8h4.6v27.8h-4.6z"/><path d="m1559.4 491.8h4.6v27.8h-4.6z"/><path d="m1547.5 491.8h4.6v27.8h-4.6z"/><path d="m1534.9 491.8h4.6v27.8h-4.6z"/><path d="m1523 491.8h4.6v27.8h-4.6z"/><path d="m1510.4 491.8h4.6v27.8h-4.6z"/><path d="m1498.5 491.8h4.6v27.8h-4.6z"/><path d="m1485.9 491.8h4.6v27.8h-4.6z"/><path d="m1474 491.8h4.6v27.8h-4.6z"/><path d="m1461.4 491.8h4.6v27.8h-4.6z"/><path d="m1449.4 491.8h4.6v27.8h-4.6z"/><path d="m1436.9 491.8h4.6v27.8h-4.6z"/><path d="m1424.9 491.8h4.6v27.8h-4.6z"/><path d="m1412.4 491.8h4.6v31.1h-4.6z"/><path d="m1400.4 491.8h4.6v31.1h-4.6z"/><path d="m1387.8 491.8h4.6v31.1h-4.6z"/><path d="m1375.3 491.8h4.6v31.1h-4.6z"/><path d="m1363.3 491.8h4.6v31.1h-4.6z"/><path d="m1350.7 491.8h4.6v31.1h-4.6z"/><path d="m1338.8 491.8h4.6v31.1h-4.6z"/><path d="m1326.2 491.8h4.6v31.1h-4.6z"/><path d="m1301.7 491.8h4.6v31.1h-4.6z"/><path d="m1314.3 491.8h4.6v31.1h-4.6z"/><path d="m1289.8 491.8h4.6v31.1h-4.6z"/><path d="m1277.2 491.8h4.6v31.1h-4.6z"/><path d="m1265.3 491.8h4.6v31.1h-4.6z"/><path d="m1252.7 491.8h4.6v31.1h-4.6z"/><path d="m1240.8 491.8h4.6v31.1h-4.6z"/><path d="m1228.2 491.8h4.6v31.1h-4.6z"/><path d="m1216.3 491.8h4.6v31.1h-4.6z"/><path d="m1216.3 491.8h384.9v4.6h-384.9z"/><path d="m1216.3 510.4h384.9v4.6h-384.9z"/></g><path d="m43.1 609.8c0 0-33.8-4-33.8 27.2 0 33.1 23.2 50.3 41.1 56.3 18.5 6 124.5 47.7 124.5 47.7l111.3 59.6 107.3 29.1h1304.9c0 0 76.8 15.9 131.8-50.3 55-66.2 160.3-231.8 160.3-231.8h-18.5l-7.9 6.6h-19.2l-6-6h-56.3v-8.6h-32.5l-44.4 26.5h-76.7v-47l-159-96-2 6.6 132.5 88.1v49h-6.6v-26.5h-106.6v-22.5h-66.3v-35.8l39.7-39.7-32.5-32.5h-190.1v6.6h-92.1v-42.4h-39.7v41h-68.9l-48.4 84.1h-39v-35.1h-47v35.8h-72.9v-48.4l100-66.2-4-6-107.3 65.6v54.3h-57l-18.5-45h-64.9v7.9h-222.5v10.6h-27.9l-22.5 110h-98v-82.8l90.8-53-4-3.3-154.3 74.2v65.6h-35.1v7.3l11.9 4.6v15.9h-83.5v-43.1l88.1-60.3-2-6-100 59v50.3h-72.2v-18.5l128.5-71.5-2.6-5.3-139.1 74.2v21.2l-90.9-1.3"/><g stroke="#0d1f34" stroke-miterlimit="10"><path d="m1521.6 383.9h4.6v27.8h-4.6z"/><path d="m1509.1 383.9h4.6v27.8h-4.6z"/><path d="m1497.1 383.9h4.6v27.8h-4.6z"/><path d="m1484.6 383.9h4.6v27.8h-4.6z"/><path d="m1472.6 383.9h4.6v27.8h-4.6z"/><path d="m1460 383.9h4.6v27.8h-4.6z"/><path d="m1448.1 383.9h4.6v27.8h-4.6z"/><path d="m1435.5 383.9h4.6v27.8h-4.6z"/><path d="m1423.6 383.9h4.6v27.8h-4.6z"/><path d="m1411 383.9h4.6v27.8h-4.6z"/><path d="m1398.4 383.9h4.6v27.8h-4.6z"/><path d="m1386.5 383.9h4.6v27.8h-4.6z"/><path d="m1373.9 383.9h4.6v27.8h-4.6z"/><path d="m1362 383.9h4.6v27.8h-4.6z"/><path d="m1349.4 383.9h4.6v27.8h-4.6z"/><path d="m1337.5 383.9h4.6v31.1h-4.6z"/><path d="m1324.9 383.9h4.6v31.1h-4.6z"/><path d="m1313 383.9h4.6v31.1h-4.6z"/><path d="m1300.4 383.9h4.6v31.1h-4.6z"/><path d="m1288.5 383.9h4.6v31.1h-4.6z"/><path d="m1275.9 383.9h4.6v31.1h-4.6z"/><path d="m1264 383.9h4.6v31.1h-4.6z"/><path d="m1251.4 383.9h4.6v31.1h-4.6z"/><path d="m1226.9 383.9h4.6v31.1h-4.6z"/><path d="m1239.5 383.9h4.6v31.1h-4.6z"/><path d="m1215 383.9h4.6v31.1h-4.6z"/><path d="m1202.4 383.9h4.6v31.1h-4.6z"/><path d="m1189.8 383.9h4.6v31.1h-4.6z"/><path d="m1177.9 383.9h4.6v31.1h-4.6z"/><path d="m1165.3 383.9h4.6v31.1h-4.6z"/><path d="m1153.3 383.9h4.6v31.1h-4.6z"/><path d="m1140.8 383.9h4.6v31.1h-4.6z"/><path d="m1140.8 383.9h384.9v4.6h-384.9z"/><path d="m1140.8 401.8h384.9v4.6h-384.9z"/><path d="m1170.6 472h4.6v27.8h-4.6z"/><path d="m1158 472h4.6v27.8h-4.6z"/><path d="m1146.1 472h4.6v27.8h-4.6z"/><path d="m1133.5 472h4.6v27.8h-4.6z"/><path d="m1121.6 472h4.6v27.8h-4.6z"/><path d="m1109 472h4.6v27.8h-4.6z"/><path d="m1096.4 472h4.6v27.8h-4.6z"/><path d="m1084.5 472h4.6v27.8h-4.6z"/><path d="m1071.9 472h4.6v27.8h-4.6z"/><path d="m1059.9 472h4.6v27.8h-4.6z"/><path d="m1047.4 472h4.6v27.8h-4.6z"/><path d="m1035.4 472h4.6v27.8h-4.6z"/><path d="m1022.9 472h4.6v27.8h-4.6z"/><path d="m1010.9 472h4.6v27.8h-4.6z"/><path d="m998.3 472h4.6v27.8h-4.6z"/><path d="m986.4 472h4.6v31.1h-4.6z"/><path d="m973.8 472h4.6v31.1h-4.6z"/><path d="m961.9 472h4.6v31.1h-4.6z"/><path d="m949.3 472h4.6v31.1h-4.6z"/><path d="m937.4 472h4.6v31.1h-4.6z"/><path d="m924.8 472h4.6v31.1h-4.6z"/><path d="m912.9 472h4.6v31.1h-4.6z"/><path d="m900.3 472h4.6v31.1h-4.6z"/><path d="m875.8 472h4.6v31.1h-4.6z"/><path d="m887.7 472h4.6v31.1h-4.6z"/><path d="m863.2 472h4.6v31.1h-4.6z"/><path d="m851.3 472h4.6v31.1h-4.6z"/><path d="m838.7 472h4.6v31.1h-4.6z"/><path d="m826.8 472h4.6v31.1h-4.6z"/><path d="m814.2 472h4.6v31.1h-4.6z"/><path d="m802.3 472h4.6v31.1h-4.6z"/><path d="m789.7 472h4.6v31.1h-4.6z"/><path d="m789.7 472h384.9v4.6h-384.9z"/><path d="m789.7 489.9h384.9v4.6h-384.9z"/><path d="m686.3 551.5h4.6v27.8h-4.6z"/><path d="m674.4 551.5h4.6v27.8h-4.6z"/><path d="m661.8 551.5h4.6v27.8h-4.6z"/><path d="m649.9 551.5h4.6v27.8h-4.6z"/><path d="m637.3 551.5h4.6v27.8h-4.6z"/><path d="m625.4 551.5h4.6v27.8h-4.6z"/><path d="m612.8 551.5h4.6v27.8h-4.6z"/><path d="m600.2 551.5h4.6v27.8h-4.6z"/><path d="m588.3 551.5h4.6v27.8h-4.6z"/><path d="m575.7 551.5h4.6v27.8h-4.6z"/><path d="m563.8 551.5h4.6v27.8h-4.6z"/><path d="m551.2 551.5h4.6v27.8h-4.6z"/><path d="m539.3 551.5h4.6v27.8h-4.6z"/><path d="m526.7 551.5h4.6v27.8h-4.6z"/><path d="m514.8 551.5h4.6v27.8h-4.6z"/><path d="m502.2 551.5h4.6v31.1h-4.6z"/><path d="m490.3 551.5h4.6v31.1h-4.6z"/><path d="m477.7 551.5h4.6v31.1h-4.6z"/><path d="m465.8 551.5h4.6v31.1h-4.6z"/><path d="m453.2 551.5h4.6v31.1h-4.6z"/><path d="m441.3 551.5h4.6v31.1h-4.6z"/><path d="m428.7 551.5h4.6v31.1h-4.6z"/><path d="m416.7 551.5h4.6v31.1h-4.6z"/><path d="m391.6 551.5h4.6v31.1h-4.6z"/><path d="m404.2 551.5h4.6v31.1h-4.6z"/><path d="m379.7 551.5h4.6v31.1h-4.6z"/><path d="m367.1 551.5h4.6v31.1h-4.6z"/><path d="m355.1 551.5h4.6v31.1h-4.6z"/><path d="m342.6 551.5h4.6v31.1h-4.6z"/><path d="m330.6 551.5h4.6v31.1h-4.6z"/><path d="m318 551.5h4.6v31.1h-4.6z"/><path d="m306.1 551.5h4.6v31.1h-4.6z"/><path d="m306.1 551.5h384.9v4.6h-384.9z"/><path d="m306.1 569.3h384.9v4.6h-384.9z"/></g></g><g fill="none" stroke="#0d1f34" stroke-miterlimit="10"><g stroke-width=".695"><path d="m55.1 609.8v-121.3h47v121.9"/><path d="m55.1 502.4h45.7"/><path d="m57.1 528.3h11.9l15.9 82.1"/><path d="m104.1 528.3h7.3l31.8 84.8"/><path d="m275 519.7v29.8l-5.3 5.3"/><path d="m319.4 502.4v13.9c0 0 6 0 6 5.3s-7.9 6-7.9 6"/><path d="m482.3 454.1v17.9c0 0 5.3 2 5.3 6.6s-7.3 6.6-7.3 6.6"/><path d="m496.9 444.8v24.5"/><path d="m553.9 462.7v-20.5h39v19.2"/><path d="m580.4 460.1v-42.4"/><path d="m568.4 442.2v20.5"/><path d="m614.8 462.7v-27.2h12.6v24.6"/><path d="m592.9 461.4v-9.3h50.4v8"/><path d="m618.8 432.9v-19.2"/></g><path stroke-width="1.389" d="m724.1 460.1l15.2-316h33.8v318.6"/><g stroke-width=".695"><path d="m720.8 457.4l49-73.5-39.1-63.6 39.1-63.6-33.1-62.9 36.4-49.7"/><path d="m736.7 193.8h36.4"/><path d="m736.7 255.4h36.4"/><path d="m730.7 320.3h42.4"/><path d="m730.7 383.9h39.1"/></g><path stroke-width="1.389" d="m706.9 144.1h90.7"/><g stroke-width=".695"><path d="m702.2 128.8h92.1"/><path d="m702.2 114.3h100.1"/><path d="m789.7 140.8v-139.8"/><path d="m773.1 138.8v-31.8"/><path d="m730.7 140.8v-33.8"/><path d="m706.9 144.1v-37.1"/><path d="m1030.1 386.5v19.9"/><path d="m1109 461.4v-50.4"/><path d="m1118.2 448.8v-31.1"/><path d="m1165.3 415v-41.7h61.6"/><path d="m1175.2 415v-51.7"/><path d="m1158 363.3h81.5"/><path d="m1194.4 415v-59.6"/><path d="m1194.4 349.4c2 0 37.1 0 37.1 0"/><path d="m1231.5 383.9c0 0 5.3-64.9-27.2-122.5s-39.1-53.7-39.1-53.7"/><path d="m1167.9 207.7h59"/></g><path stroke-width="2.778" d="m1226.9 207.7h98"/><g stroke-width=".695"><path d="m1239.5 199.7v-64.2"/><path d="m1226.9 199.7v-35.1"/><path d="m1226.9 182.5h100.7"/><path d="m1226.9 193.8h98"/><path d="m1324.9 199.7v-17.2"/><path d="m1296.4 199.7v-17.2"/><path d="m1296.4 182.5v-17.9c0 0 9.3 13.2 20.5 17.9"/></g><path stroke-width="1.389" d="m1288.5 218.3v196.7"/><g stroke-width=".695"><path d="m1288.5 218.3l-12.6 196.7"/><path d="m1232.2 214.3l97.3 73.5"/><path d="m1317.6 214.3l-29.1 41.1"/><path d="m1329.5 287.8l-44.3 67.6 53.6 53.6"/><path d="m1349.4 406.4l-36.4-192.1"/></g></g><g fill="#0d1f34"><path d="m1271.9 227.5h13.2v11.3h-13.2z"/><path d="m1266 283.2h15.9v11.9h-15.9z"/><path d="m1333.5 255.4l-14.5 1.3v-15.9l14.5-2z"/><path d="m1342.1 348.8h9.9v14.6h-9.9z"/><path d="m1264 355.4h15.2v7.9h-15.2z"/></g><g fill="none" stroke="#0d1f34" stroke-width=".695" stroke-miterlimit="10"><path d="m1364 403.7v-137.1"/><path d="m1213 278.5c0 0-25.8 57-18.5 70.9 7.9 13.9 18.5 23.8 18.5 23.8"/><path d="m1568 430.2v15.2c0 0-8.6 4-8.6 11.9 0 7.9 13.2 11.3 18.5 0"/><path d="m1599.2 503.1v37.8"/></g><path fill="#0d1f34" d="M791,1c0,0-51.7,17.2-77.5,7.3c0,0,17.9,12.6,9.9,48.4s27.2-7.9,68.2-2.6V1H791z"/></svg>