<svg xmlns="http://www.w3.org/2000/svg" width="175.99" viewBox="101.995 24.555 175.985 39.987" enable-background="new 101.995 24.555 175.985 39.987"><path fill="#a7a9ac" d="m114.14 35.722c0 0-6.805 6.18-10.608 9.528-.223.213-.392.523-.392.889 0 .64.492 1.157 1.1 1.157h2.2v8.101c0 .64.492 1.157 1.1 1.157h3.3c.608 0 1.1-.518 1.1-1.157v-4.629h4.4v4.629c0 .639.492 1.157 1.1 1.157h3.3c.608 0 1.1-.517 1.1-1.157v-8.101h2.2c.608 0 1.1-.517 1.1-1.157 0-.366-.17-.676-.422-.889-3.776-3.348-10.578-9.528-10.578-9.528"/><path fill="#fff" d="m113 34.555c0 0-6.805 6.18-10.607 9.528-.224.213-.393.523-.393.889 0 .64.492 1.157 1.1 1.157h2.2v8.101c0 .64.491 1.157 1.1 1.157h3.3c.609 0 1.1-.518 1.1-1.157v-4.629h4.4v4.629c0 .639.492 1.157 1.1 1.157h3.3c.608 0 1.1-.517 1.1-1.157v-8.101h2.2c.608 0 1.1-.517 1.1-1.157 0-.366-.17-.676-.422-.889-3.776-3.348-10.578-9.528-10.578-9.528"/><g fill="#a7a9ac"><path d="m160.85 45.1c-1.258-3.124-2.518-6.323-3.777-9.562-2.031.641-4.062 1.865-6.094 2.513-2.032-.647-4.063-1.872-6.094-2.513-1.258 3.238-2.518 6.438-3.777 9.562h19.742"/><path d="m161.45 46.577l-.001-.003.001.003"/><path d="m163.05 48.04h-24.14c-1.313 1.18-2.624 2.31-3.931 3.374 10.613 1.503 21.387 1.503 32 0-1.306-1.064-2.617-2.194-3.931-3.374"/><path d="m140.51 46.575v.002z"/></g><g fill="#fff"><path d="m159.87 44.12c-1.258-3.124-2.519-6.323-3.777-9.562-2.031.641-4.062 1.865-6.094 2.513-2.032-.647-4.063-1.872-6.094-2.513-1.258 3.238-2.518 6.438-3.777 9.562h19.742"/><path d="m160.46 45.591l-.001-.003.001.003"/><path d="m162.06 47.05h-24.14c-1.313 1.18-2.624 2.311-3.931 3.374 10.613 1.503 21.387 1.503 32 0-1.307-1.063-2.618-2.194-3.931-3.374"/><path d="m139.53 45.589v.002z"/></g><path fill="#a7a9ac" d="m185.5 64.21c1.874.373 7.53 1.676 8.968-5.547 0 0 .503-1.99-.406-4.189s-.895-2.799.003-4.639c.898-1.84.385-3.181-.221-3.869s-2.127-1.592-1.693-3.772c.434-2.181 2.7-13.559 2.7-13.559s.652-2.385-.915-2.697c-1.568-.312-3.496-1.121-3.958 1.195-.461 2.316-2.21 13.409-2.21 13.409s.002 2.302-2.259 3.34c-2.261 1.037-2.628 2.7-2.633 4.328-.006 1.628-.12 2.208-1.768 4.076-1.647 1.868-2.584 5.507-1.895 7.38.691 1.872.597 3.412 6.287 4.544"/><path fill="#fff" d="m184.51 63.22c1.874.373 7.53 1.676 8.969-5.547 0 0 .503-1.989-.406-4.189s-.895-2.799.003-4.639c.897-1.84.385-3.181-.221-3.869-.607-.688-2.127-1.592-1.693-3.772.434-2.181 2.7-13.559 2.7-13.559s.652-2.385-.915-2.697c-1.567-.312-3.496-1.121-3.957 1.195-.462 2.316-2.21 13.409-2.21 13.409s.002 2.302-2.259 3.34c-2.261 1.037-2.628 2.7-2.633 4.328-.005 1.628-.12 2.208-1.768 4.076-1.647 1.868-2.584 5.507-1.895 7.38.689 1.871.595 3.411 6.285 4.544"/><g fill="#a7a9ac"><path d="m227.36 48.16v1.459c0 .073-.057.132-.129.132h-2.82c-.071 0-.129-.059-.129-.132v-1.456c-3.076-.067-6.147-.341-9.196-.826-.089-.014-.174-.038-.257-.069v7.503c0 .665.527 1.205 1.178 1.205h19.51c.65 0 1.178-.54 1.178-1.205v-7.503c-.083.032-.169.055-.258.069-3.01.479-6.04.752-9.08.823"/><path d="m235.58 38.18c-.301 0-.602 0-.903 0 .071 0 .129-.059.129-.132v-.556c0-.073-.057-.132-.129-.132h-2.038c-.071 0-.129.059-.129.132v.556c0 .072.057.132.129.132-.956 0-1.913 0-2.868 0-.032-.104-.063-.223-.085-.347-.046-.262.042-.903.102-1.278.078-.125.124-.272.124-.432 0-.444-.352-.803-.786-.803h-6.544c-.434 0-.786.36-.786.803 0 .173.053.332.144.463.059.379.142.991.096 1.246-.022.123-.053.242-.085.347-.979 0-1.959 0-2.938 0 .071 0 .129-.059.129-.132v-.556c0-.073-.058-.132-.129-.132h-2.039c-.071 0-.129.059-.129.132v.556c0 .072.058.132.129.132-.341 0-.682 0-1.024 0-.655.003-1.186.546-1.186 1.212 0 1.854 0 3.709 0 5.563 0 .666.527 1.305 1.178 1.411 2.766.44 5.553.691 8.343.756v-1.174h3.059v1.171c2.757-.069 5.51-.319 8.242-.754.651-.106 1.178-.745 1.178-1.411 0-1.854 0-3.709 0-5.563.001-.664-.53-1.207-1.184-1.21m-6.847 0c-1.915 0-3.831 0-5.745 0-.081-.285-.158-.656-.105-.926.035-.177.169-.274.327-.326h5.303c.158.052.292.149.327.326.051.271-.026.642-.107.926"/></g><g fill="#fff"><path d="m226.59 47.4v1.459c0 .073-.057.132-.129.132h-2.82c-.071 0-.129-.059-.129-.132v-1.455c-3.076-.067-6.148-.341-9.196-.826-.089-.014-.174-.038-.258-.069v7.503c0 .666.527 1.205 1.178 1.205h19.51c.65 0 1.178-.54 1.178-1.205v-7.503c-.083.031-.169.055-.258.069-3.01.478-6.04.751-9.08.822"/><path d="m234.81 37.414c-.301 0-.602 0-.903 0 .071 0 .129-.059.129-.132v-.555c0-.073-.057-.132-.129-.132h-2.038c-.071 0-.129.059-.129.132v.555c0 .073.057.132.129.132-.956 0-1.913 0-2.868 0-.032-.104-.063-.223-.085-.347-.046-.262.042-.902.102-1.277.078-.125.124-.273.124-.432 0-.444-.352-.803-.786-.803h-6.544c-.434 0-.786.36-.786.803 0 .173.053.332.144.463.059.378.142.991.096 1.246-.022.123-.053.242-.085.347-.979 0-1.958 0-2.938 0 .071 0 .129-.059.129-.132v-.555c0-.073-.057-.132-.129-.132h-2.038c-.071 0-.129.059-.129.132v.555c0 .073.057.132.129.132-.342 0-.683 0-1.024 0-.653.003-1.184.546-1.184 1.212 0 1.854 0 3.709 0 5.563 0 .666.526 1.305 1.178 1.411 2.766.44 5.553.691 8.343.756v-1.174h3.059v1.171c2.757-.069 5.51-.319 8.242-.754.651-.106 1.178-.745 1.178-1.411 0-1.854 0-3.709 0-5.563-.001-.665-.532-1.208-1.187-1.211m-6.846 0c-1.915 0-3.831 0-5.745 0-.081-.285-.158-.655-.105-.925.035-.177.169-.274.327-.326h5.303c.158.052.292.149.327.326.05.27-.026.641-.107.925"/></g><g fill="#a7a9ac"><path d="m265.69 34.02c0 0-.796-.482-1.714-.482-.919 0-1.681.417-1.681.417l-10.815 6.803 3.35 2.497h.089v-2.344c0-.484.389-.875.87-.875h16.238c.48 0 .871.392.871.875v2.344h.03l3.38-2.497-10.618-6.738"/><path d="m257.94 50.758l-6.194 5.283h24.458l-6.194-5.284c-.533-.455-.703-1.133-.38-1.516.323-.383 1.017-.325 1.549.13l6.795 5.797c0 0 0-.001 0-.002v-12.354c0-.483-.389-.875-.871-.875l-11.783 9.05c0 0-.718.601-1.526.601s-1.466-.601-1.466-.601l-11.484-9.05c-.48 0-.87.392-.87.875v12.355c0 0 0 .001 0 .002l6.795-5.797c.533-.455 1.227-.513 1.549-.13.325.383.155 1.061-.378 1.516"/></g><g fill="#fff"><path d="m264.7 33.04c0 0-.796-.481-1.714-.481-.918 0-1.68.417-1.68.417l-10.815 6.802 3.35 2.496h.089v-2.343c0-.483.389-.875.87-.875h16.238c.48 0 .871.392.871.875v2.343h.03l3.38-2.496-10.619-6.738"/><path d="m256.96 49.772l-6.194 5.284h24.458l-6.194-5.284c-.533-.454-.703-1.133-.38-1.517.323-.383 1.017-.324 1.549.13l6.796 5.797c0 0 0-.001 0-.002v-12.355c0-.484-.389-.875-.87-.875l-11.784 9.05c0 0-.718.602-1.525.602s-1.466-.602-1.466-.602l-11.485-9.05c-.48 0-.87.392-.87.875v12.355c0 0 0 .001 0 .002l6.795-5.797c.533-.455 1.227-.513 1.55-.13.323.383.153 1.062-.38 1.517"/></g></svg>