<svg xmlns="http://www.w3.org/2000/svg" width="298.57" viewBox="0 0 298.574 423.911" enable-background="new 0 0 298.574 423.911"><g fill="#010101" stroke="#010101" stroke-miterlimit="10"><path d="m104.58 406.41c0 9.389-7.611 17-17 17h-18.08c-9.389 0-17-7.611-17-17 0-9.389 7.611-17 17-17h18.08c9.389 0 17 7.611 17 17z"/><path d="m246.07 406.41c0 9.389-7.611 17-17 17h-18.08c-9.389 0-17-7.611-17-17 0-9.389 7.611-17 17-17h18.08c9.389 0 17 7.611 17 17z"/><path d="m288.23 356.82c-2.93 29.782-32.687 41.9-64 48.738-50.32 10.116-99.55 10.116-149.87 0-31.31-6.839-61.08-18.956-64-48.738-7.13-76.44-7.13-208.47 0-284.91 2.927-29.781 32.691-31.471 64-38.31 50.32-10.115 99.55-10.115 149.87 0 31.31 6.839 61.07 8.527 64 38.31 7.13 76.45 7.13 208.47 0 284.91z"/><path stroke-width="10" d="m288.23 356.82c-2.93 29.782-32.687 41.9-64 48.738-50.32 10.116-99.55 10.116-149.87 0-31.31-6.839-61.08-18.956-64-48.738-7.13-76.44-7.13-208.47 0-284.91 2.927-29.781 32.691-31.471 64-38.31 50.32-10.115 99.55-10.115 149.87 0 31.31 6.839 61.07 8.527 64 38.31 7.13 76.45 7.13 208.47 0 284.91z"/></g><path fill="#3d3e3e" d="m149.29 394.55c-23.326 0-47.18-2.413-70.901-7.169-40.929-8.967-47.29-21.354-48.25-31.15-6.983-74.876-6.983-206.41.01-281.38.874-8.897 5.237-11.984 36.27-18.15 3.874-.77 7.878-1.567 11.968-2.458 23.722-4.758 47.576-7.17 70.906-7.17 23.33 0 47.19 2.413 70.908 7.17 4.091.892 8.096 1.688 11.971 2.458 30.977 6.159 35.38 9.245 36.27 18.207 6.985 74.965 6.985 206.4 0 281.37-.979 9.789-7.381 22.15-48.25 31.11-23.719 4.757-47.57 7.169-70.897 7.169"/><path fill="#86898c" d="m149.29 376.9c-20.887 0-42.25-2.16-63.49-6.42-36.649-8.03-42.34-19.12-43.21-27.891-6.253-67.05-6.253-184.82.009-251.96.783-7.966 4.689-10.73 32.477-16.254 3.469-.69 7.05-1.403 10.716-2.201 21.241-4.26 42.6-6.42 63.49-6.42 20.89 0 42.25 2.16 63.49 6.42 3.663.798 7.249 1.512 10.719 2.201 27.738 5.515 31.677 8.279 32.477 16.303 6.255 67.13 6.255 184.82 0 251.94-.876 8.765-6.609 19.838-43.21 27.854-21.239 4.259-42.595 6.419-63.48 6.419"/><path opacity=".2" fill="#fff" d="m149.29 218.86c54.971 0 105.25-16.491 143.95-43.776-.673-38.28-2.341-74.61-5.01-103.17-2.929-29.782-32.689-31.47-64-38.31-50.32-10.116-99.55-10.115-149.87 0-31.31 6.838-61.08 8.528-64 38.31-2.664 28.564-4.333 64.89-5.01 103.17 38.692 27.29 88.974 43.776 143.95 43.776"/><path fill="#010101" d="m36.436 153.09c0 0 .901-.099 2.59-.286 1.689-.158 4.166-.45 7.319-.703 3.153-.27 6.981-.62 11.372-.933 4.391-.323 9.345-.648 14.75-.962 10.809-.624 23.42-1.171 36.931-1.537 3.378-.107 6.812-.175 10.288-.244 3.476-.076 6.995-.145 10.542-.178 7.093-.112 14.299-.127 21.505-.156 7.206.027 14.412.036 21.505.148 3.547.034 7.06.093 10.542.174 3.476.082 6.91.162 10.288.242 13.511.364 26.12.911 36.931 1.536 5.404.316 10.359.641 14.75.966 4.391.315 8.219.665 11.372.938 3.153.255 5.63.547 7.319.707 1.689.187 2.59.287 2.59.287s-.901.1-2.59.287c-1.689.16-4.166.452-7.319.707-3.153.272-6.981.623-11.372.938-4.391.325-9.345.649-14.75.966-10.809.626-23.42 1.173-36.931 1.536-3.378.079-6.812.16-10.288.242-3.476.081-6.995.14-10.542.174-7.093.112-14.299.121-21.505.148-7.206-.028-14.412-.044-21.505-.156-3.547-.033-7.06-.101-10.542-.178-3.476-.069-6.91-.136-10.288-.244-13.511-.366-26.12-.913-36.931-1.537-5.405-.315-10.359-.639-14.75-.962-4.391-.313-8.219-.663-11.372-.933-3.153-.254-5.63-.545-7.319-.703-1.689-.184-2.59-.284-2.59-.284"/><path fill="#3d3e3e" stroke="#010101" stroke-width="4" stroke-miterlimit="10" d="m121.02 31.425l-9.995-.32c.008-.292 1.255-29.11 41.683-29.11 14.885 0 25.916 3.688 32.787 10.964 7.375 7.808 6.947 16.868 6.925 17.25l-9.983-.57c.004-.158.115-5.35-4.358-9.967-4.866-5.02-13.639-7.677-25.371-7.677-30.403 0-31.65 18.632-31.688 19.425z"/><path fill="#010101" d="m36.436 283.45c0 0 .901-.099 2.59-.286 1.689-.158 4.166-.45 7.319-.703 3.153-.27 6.981-.62 11.372-.933 4.391-.323 9.345-.648 14.75-.962 10.809-.624 23.42-1.171 36.931-1.537 3.378-.107 6.812-.175 10.288-.244 3.476-.076 6.995-.145 10.542-.178 7.093-.112 14.299-.127 21.505-.156 7.206.027 14.412.036 21.505.148 3.547.034 7.06.093 10.542.174 3.476.082 6.91.162 10.288.242 13.511.364 26.12.911 36.931 1.536 5.404.316 10.359.641 14.75.966 4.391.315 8.219.665 11.372.938 3.153.255 5.63.547 7.319.707 1.689.188 2.59.287 2.59.287s-.901.1-2.59.287c-1.689.16-4.166.452-7.319.707-3.153.272-6.981.623-11.372.938-4.391.325-9.345.649-14.75.966-10.809.626-23.42 1.173-36.931 1.536-3.378.079-6.812.16-10.288.242-3.476.081-6.995.14-10.542.174-7.093.112-14.299.121-21.505.148-7.206-.028-14.412-.044-21.505-.156-3.547-.033-7.06-.101-10.542-.178-3.476-.069-6.91-.136-10.288-.244-13.511-.366-26.12-.913-36.931-1.537-5.405-.315-10.359-.639-14.75-.962-4.391-.313-8.219-.663-11.372-.933-3.153-.254-5.63-.545-7.319-.703-1.689-.185-2.59-.284-2.59-.284"/></svg>