<svg xmlns="http://www.w3.org/2000/svg" width="360.59" height="160.49" viewBox="0 0 360.587 160.486" enable-background="new 0 0 360.587 160.486" xmlns:xlink="http://www.w3.org/1999/xlink"><path fill="#010101" d="m204.4 158.54c0 1.073-.87 1.943-1.943 1.943h-42.527c-1.073 0-1.943-.87-1.943-1.943v-31.816c0-1.073.87-1.943 1.943-1.943h42.527c1.073 0 1.943.87 1.943 1.943v31.816"/><path fill="#010101" d="m341.16 0c-107.24 0-214.49 0-321.73 0-10.73.051-19.429 8.751-19.427 19.427 0 29.721 0 59.44 0 89.16.003 10.673 8.632 20.905 19.304 22.611 106.69 16.575 215.29 16.575 321.98 0 10.672-1.706 19.301-11.937 19.304-22.611 0-29.721 0-59.44 0-89.16.003-10.677-8.695-19.377-19.427-19.427" id="0"/><use xlink:href="#0"/><path fill="#3d3e3e" d="m328.31 5.737c-98.68 0-197.35 0-296.03 0-9.873.046-17.877 8.05-17.875 17.875 0 27.347 0 54.693 0 82.04.003 9.82 7.942 19.235 17.762 20.804 98.16 15.251 198.1 15.251 296.26 0 9.82-1.57 17.76-10.983 17.762-20.804 0-27.347 0-54.693 0-82.04.003-9.824-8-17.829-17.875-17.875" id="1"/><use xlink:href="#1"/><path fill="#86898c" d="m310.37 5.737c-86.72 0-173.44 0-260.15 0-8.676.041-15.71 7.08-15.708 15.708 0 24.03 0 48.06 0 72.1.002 8.63 6.979 16.903 15.609 18.283 86.27 13.403 174.09 13.402 260.35 0 8.629-1.379 15.607-9.652 15.609-18.283 0-24.03 0-48.06 0-72.1.001-8.633-7.03-15.668-15.709-15.708" id="2"/><use xlink:href="#2"/><path fill="#86898c" d="m204.4 143.29c0 1.073-.87 1.943-1.943 1.943h-42.527c-1.073 0-1.943-.87-1.943-1.943v-10.275c0-1.073.87-1.943 1.943-1.943h42.527c1.073 0 1.943.87 1.943 1.943v10.275"/><path opacity=".2" fill="#fff" d="M341.16,0H19.427C8.698,0,0,8.698,0,19.427v17.134
			C48.695,62.983,111.485,78.91,180.047,78.91c68.793,0,131.777-16.034,180.54-42.616V19.427C360.587,8.698,351.889,0,341.16,0z"/></svg>