<svg xmlns="http://www.w3.org/2000/svg" width="360.59" height="305.76" viewBox="0 0 360.587 305.761" enable-background="new 0 0 360.587 305.761" xmlns:xlink="http://www.w3.org/1999/xlink"><g fill="#1d1f1f"><path d="m121.78 13.994c0 0 3.283 17.437 2.262 23.05-1.021 5.618-3.356 10.652-3.356 10.652l19.844.657c0 0-5.18-12.476-3.721-19.844 1.459-7.369 14.781-5.399 14.781-5.399l-29.81-9.12"/><path d="m241.67 13.994c0 0-3.283 17.437-2.262 23.05s3.356 10.652 3.356 10.652l-19.844.657c0 0 5.18-12.476 3.721-19.844-1.459-7.369-14.781-5.399-14.781-5.399l29.81-9.12"/><path d="m233.22 44.05c6.48 0 12.336 1.129 16.541 2.947h-33.08c4.205-1.818 10.06-2.947 16.541-2.947"/></g><g fill="#3d3e3e"><path d="m242.8 11.85c0 6.545-5.306 11.85-11.85 11.85h-98.69c-6.545 0-11.85-5.306-11.85-11.85 0-6.545 5.306-11.85 11.85-11.85h98.69c6.544 0 11.85 5.306 11.85 11.85"/><path d="m130.23 44.05c-6.48 0-12.336 1.129-16.541 2.947h33.08c-4.205-1.818-10.06-2.947-16.541-2.947"/><path d="m80.41 50.973c0 1.073-.87 1.943-1.943 1.943h-30.743c-1.073 0-1.943-.87-1.943-1.943v-8.192c0-1.073.87-1.943 1.943-1.943h30.743c1.073 0 1.943.87 1.943 1.943v8.192"/><path d="m316.63 50.973c0 1.073-.87 1.943-1.943 1.943h-30.743c-1.073 0-1.943-.87-1.943-1.943v-8.192c0-1.073.87-1.943 1.943-1.943h30.743c1.073 0 1.943.87 1.943 1.943v8.192"/></g><path fill="#010101" d="m360.59 286.33c0 10.729-8.698 19.427-19.427 19.427h-321.73c-10.729 0-19.427-8.698-19.427-19.427v-219.73c0-10.729 8.698-19.427 19.427-19.427h321.73c10.729 0 19.427 8.698 19.427 19.427v219.73"/><path fill="#3d3e3e" d="m345.17 288c0 9.812-7.954 17.766-17.766 17.766h-294.22c-9.812 0-17.766-7.954-17.766-17.766v-200.94c0-9.812 7.954-17.766 17.766-17.766h294.22c9.812 0 17.766 7.954 17.766 17.766v200.94"/><path fill="#010101" d="m341.16 47.18c-107.24 0-214.49 0-321.73 0-10.73.051-19.429 8.75-19.427 19.427 0 29.721 0 59.44 0 89.16.003 10.673 8.632 20.905 19.304 22.611 106.69 16.575 215.29 16.575 321.98 0 10.672-1.706 19.301-11.937 19.304-22.611 0-29.721 0-59.44 0-89.16.003-10.677-8.695-19.377-19.427-19.427" id="0"/><use xlink:href="#0"/><path fill="#010101" d="m204.4 212.01c0 1.073-.87 1.943-1.943 1.943h-42.527c-1.073 0-1.943-.87-1.943-1.943v-31.816c0-1.073.87-1.943 1.943-1.943h42.527c1.073 0 1.943.87 1.943 1.943v31.816"/></svg>