<svg xmlns="http://www.w3.org/2000/svg" viewBox="-198.82 385.872 202 172" enable-background="new -198.82 385.872 202 172" xmlns:xlink="http://www.w3.org/1999/xlink"><g fill="#1d1f1f"><path d="m-130.81 393.69c0 0 1.833 9.737 1.263 12.874-.57 3.137-1.874 5.948-1.874 5.948l11.08.367c0 0-2.893-6.967-2.078-11.08.815-4.115 8.254-3.01 8.254-3.01l-16.646-5.093"/><path d="m-63.865 393.69c0 0-1.833 9.737-1.263 12.874.57 3.137 1.874 5.948 1.874 5.948l-11.08.367c0 0 2.893-6.967 2.078-11.08-.815-4.115-8.254-3.01-8.254-3.01l16.646-5.093"/><path d="m-68.58 410.47c3.619 0 6.889.63 9.237 1.645h-18.474c2.348-1.015 5.618-1.645 9.237-1.645"/></g><g fill="#3d3e3e"><path d="m-63.23 392.49c0 3.655-2.963 6.618-6.618 6.618h-55.11c-3.655 0-6.618-2.963-6.618-6.618 0-3.655 2.963-6.618 6.618-6.618h55.11c3.654 0 6.617 2.963 6.617 6.618"/><path d="m-126.09 410.47c-3.619 0-6.889.63-9.237 1.645h18.474c-2.349-1.015-5.618-1.645-9.237-1.645"/><path d="m-153.92 414.34c0 .599-.486 1.085-1.085 1.085h-17.17c-.599 0-1.085-.486-1.085-1.085v-4.574c0-.599.486-1.085 1.085-1.085h17.17c.599 0 1.085.486 1.085 1.085 0 0 0 4.574 0 4.574"/><path d="m-22 414.34c0 .599-.486 1.085-1.085 1.085h-17.17c-.599 0-1.085-.486-1.085-1.085v-4.574c0-.599.486-1.085 1.085-1.085h17.17c.599 0 1.085.486 1.085 1.085v4.574"/></g><path fill="#010101" d="m2.54 545.77c0 5.991-4.857 10.848-10.848 10.848h-179.66c-5.991.001-10.848-4.856-10.848-10.848v-122.7c0-5.991 4.857-10.848 10.848-10.848h179.66c5.991 0 10.848 4.857 10.848 10.848v122.7"/><path fill="#3d3e3e" d="m-6.07 546.7c0 5.479-4.442 9.921-9.921 9.921h-164.3c-5.479 0-9.921-4.442-9.921-9.921v-112.21c0-5.479 4.442-9.921 9.921-9.921h164.3c5.479 0 9.921 4.442 9.921 9.921v112.21h-.001"/><path fill="#010101" d="m-8.309 412.22c-59.888 0-119.78 0-179.66 0-5.992.028-10.849 4.886-10.848 10.848 0 16.597 0 33.19 0 49.79.002 5.96 4.82 11.674 10.78 12.626 59.58 9.256 120.22 9.256 179.8 0 5.959-.953 10.778-6.666 10.78-12.626 0-16.597 0-33.19 0-49.79.001-5.962-4.856-10.82-10.849-10.848" id="0"/><use xlink:href="#0"/><path fill="#3d3e3e" d="m-15.484 415.42c-55.1 0-110.21 0-165.31 0-5.513.026-9.983 4.496-9.982 9.982 0 15.271 0 30.542 0 45.813.001 5.484 4.435 10.741 9.919 11.618 54.817 8.517 110.62 8.516 165.44 0 5.483-.877 9.917-6.133 9.919-11.618 0-15.271 0-30.542 0-45.813 0-5.486-4.469-9.956-9.983-9.982" id="1"/><use xlink:href="#1"/><path fill="#86898c" d="m-25.503 415.42c-48.42 0-96.85 0-145.28 0-4.845.023-8.773 3.951-8.772 8.772 0 13.42 0 26.84 0 40.26.001 4.819 3.897 9.439 8.716 10.21 48.17 7.484 97.21 7.484 145.39 0 4.819-.77 8.715-5.39 8.716-10.21 0-13.42 0-26.84 0-40.26.003-4.821-3.925-8.749-8.771-8.772" id="2"/><use xlink:href="#2"/><path fill="#010101" d="m-84.68 504.26c0 .599-.486 1.085-1.085 1.085h-23.748c-.599 0-1.085-.486-1.085-1.085v-17.767c0-.599.486-1.085 1.085-1.085h23.748c.599 0 1.085.486 1.085 1.085v17.767"/><path fill="#86898c" d="m-84.68 492.24c0 .599-.486 1.085-1.085 1.085h-23.748c-.599 0-1.085-.486-1.085-1.085v-5.738c0-.599.486-1.085 1.085-1.085h23.748c.599 0 1.085.486 1.085 1.085v5.738"/><path opacity=".2" fill="#fff" d="m-8.309 412.22h-179.66c-5.991 0-10.848 4.857-10.848 10.848v9.568c27.19 14.755 62.26 23.649 100.54 23.649 38.42 0 73.59-8.954 100.82-23.798v-9.419c0-5.991-4.857-10.848-10.849-10.848"/></svg>