<svg xmlns="http://www.w3.org/2000/svg" width="230.85" viewBox="0 0 230.848 527.63" enable-background="new 0 0 230.848 527.63" xmlns:xlink="http://www.w3.org/1999/xlink"><g fill="#3d3e3e"><path transform="matrix(.1953-.9808.9808.1953-406.99 338.89)" d="m-3.824 415.74h13.669v3.417h-13.669z"/><path transform="matrix(.1953-.9808.9808.1953-6.946 225.95)" d="m127.38 115.5h13.669v3.417h-13.669z"/><path transform="matrix(.1953-.9808.9808.1953-232.14 284.37)" d="m50.38 281.93h13.669v3.417h-13.669z"/></g><path fill="none" stroke="#3d3e3e" stroke-width="7" stroke-linecap="round" stroke-linejoin="round" stroke-miterlimit="10" d="m208.03 298.5l19.32-15.32-26-35.37-18.51 11.17"/><g fill="#3d3e3e"><path transform="matrix(.1953-.9808.9808.1953 29.3 305.3)" d="m176.48 129.96h48.41v9.682h-48.41z"/><path transform="matrix(.1953-.9808.9808.1953-271.91 571.05)" d="m198.07 446.38h27.907v9.682h-27.907z"/><path transform="matrix(.1953-.9808.9808.1953-131.05 460.58)" d="m201.18 305.3h27.907v9.682h-27.907z"/></g><path fill="#010101" d="m89.52 523.11c25.35 5.05 101.86 22.675 121.31-75.04 0 0 6.797-26.918-5.487-56.676-12.284-29.758-12.11-37.869.037-62.764 12.144-24.895 5.216-43.05-2.995-52.35-8.211-9.301-28.774-21.541-22.902-51.04s36.52-183.44 36.52-183.44 8.819-32.27-12.382-36.486-47.29-15.166-53.53 16.18c-6.24 31.34-29.886 181.41-29.886 181.41s.027 31.15-30.559 45.19c-30.586 14.04-35.543 36.528-35.616 58.56-.073 22.03-1.633 29.863-23.914 55.13-22.282 25.27-34.957 74.5-25.626 99.84s8.06 46.17 85.03 61.49"/><path fill="#3d3e3e" d="m109.67 516.51c-6.379-.828-11.97-1.953-16.463-2.856l-1.732-.347c-29.609-5.895-49.25-13.03-60.03-21.821-8.797-7.169-11.331-14.811-14.838-25.387-.846-2.551-1.72-5.189-2.729-7.931-8.09-21.954 3.897-67.26 23.743-89.77 23.21-26.327 26.329-36.25 26.413-61.716.071-21.539 5.163-38.2 29.788-49.5 33.26-15.262 36.12-47.34 36.37-53.35 1.683-10.665 23.792-150.62 29.716-180.38 2.58-12.959 7.963-14.504 19.05-13.06 4.393.57 9.275 1.708 13.998 2.809 2.864.667 5.825 1.358 8.722 1.935 2.513.5 3.487 1.576 4.164 2.666 3.297 5.301 1.773 16.708.517 21.402l-.083.313-36.591 183.78c-5.941 29.84 10.733 45.663 20.695 55.12 1.747 1.659 3.398 3.225 4.516 4.492 4.198 4.754 12.746 18.3 1.505 41.34-13.48 27.631-13.526 38.905-.294 70.963 10.779 26.11 5.085 50.21 5.03 50.45l-.051.21-.052.249c-10.74 53.944-40.63 76.969-91.36 70.38" id="0"/><use xlink:href="#0"/><path fill="#86898c" d="m109.76 515.79c-6.03-.783-11.429-1.869-15.767-2.741l-1.753-.351c-27.593-5.493-46.32-12.144-55.678-19.768-6.539-5.329-8.359-10.818-11.663-20.783-.872-2.628-1.772-5.344-2.836-8.237-6.8-18.46 4.642-60.17 21.859-79.7 25.02-28.374 28.821-40.687 28.912-68.3.063-19.13 3.9-31.24 23.959-40.445 37.496-17.206 41.695-52.882 42.16-61.42 1.794-11.36 23.762-150.31 29.561-179.45.717-3.6 1.482-4.942 1.734-5.309.47-.123 1.997-.338 6.224.21 3.895.506 8.528 1.586 13.01 2.629 2.319.54 4.653 1.085 6.998 1.583.401 2.942.013 8.393-.978 12.1l-.168.638-36.653 184.09c-7.02 35.25 12.91 54.16 23.617 64.32 1.527 1.45 3.083 2.927 3.904 3.857 2.872 3.252 8.617 12.712.016 30.344-14.801 30.342-14.899 44.4-.549 79.16 9.375 22.712 4.588 44.12 4.539 44.33l-.109.471-.052.249c-4.877 24.496-13.954 41.965-26.997 52.01-13.02 10.03-30.448 13.465-53.28 10.5"/><path opacity=".2" fill="#fff" d="m202.39 276.29c-8.211-9.301-28.774-21.541-22.902-51.04 5.873-29.498 36.521-183.44 36.521-183.44s8.82-32.27-12.382-36.486c-21.2-4.221-47.29-15.166-53.53 16.18-6.24 31.34-29.887 181.41-29.887 181.41s.028 31.15-30.559 45.19c-30.586 14.04-35.543 36.528-35.616 58.56-.073 22.03-1.633 29.863-23.914 55.13-1.824 2.069-3.576 4.312-5.265 6.676 27.755 12.443 56.852 20.826 87.14 24.758 31.18 4.048 62.34 3.201 93.23-2.146-12.145-29.485-11.928-37.635.171-62.44 12.143-24.896 5.215-43.05-2.996-52.35"/></svg>