<svg xmlns="http://www.w3.org/2000/svg" viewBox="-53.1 687 1279.3 216" enable-background="new -53.1 687 1279.3 216"><g fill="none" stroke="#004160" stroke-width="4" stroke-miterlimit="10"><path d="m320.8 689h50.1v20.4h-50.1z"/><path d="m1174.1 880.6h50.1v20.4h-50.1z"/><path d="m1123.7 880.6h50.1v20.4h-50.1z"/><path d="m201.6 751.3h50.1v20.4h-50.1z"/><path d="m151.8 751.3h50.1v20.4h-50.1z"/><path d="m345.5 709.8h50.1v20.4h-50.1z"/><path d="m295.6 709.8h50.1v20.4h-50.1z"/><path d="m176.7 771.6h50.1v20.4h-50.1z"/><path d="m-1.3 792.2h50.1v20.4h-50.1z"/><path d="m23.6 812.5h50.1v20.4h-50.1z"/><path d="m382.3 854.5h50.1v20.4h-50.1z"/><path d="m407.2 874.8h50.1v20.4h-50.1z"/><path d="m151.8 791.9h50.1v20.4h-50.1z"/><path d="m102 791.9h50.1v20.4h-50.1z"/><path d="m126.9 812.2h50.1v20.4h-50.1z"/><path d="m-51.1 832.8h50.1v20.4h-50.1z"/><path d="m1102.5 702.8h50.1v20.4h-50.1z"/><path d="m1052.6 702.8h50.1v20.4h-50.1z"/><path d="m1077.6 723.1h50.1v20.4h-50.1z"/><path d="m813.4 854.5h50.1v20.4h-50.1z"/><path d="m763.6 854.5h50.1v20.4h-50.1z"/><path d="m788.5 874.8h50.1v20.4h-50.1z"/><path d="m900.4 751.3h50.1v20.4h-50.1z"/><path d="m925.6 772.1h50.1v20.4h-50.1z"/><path d="m850.6 751.3h50.1v20.4h-50.1z"/><path d="m875.5 771.6h50.1v20.4h-50.1z"/><path d="m1148.2 860.3h50.1v20.4h-50.1z"/><path d="m924.4 812.5h50.1v20.4h-50.1z"/></g></svg>