<svg xmlns="http://www.w3.org/2000/svg" viewBox="-118 519.5 363 438" enable-background="new -118 519.5 363 438" xmlns:xlink="http://www.w3.org/1999/xlink"><defs><radialGradient id="3" cx="303.22" cy="291.53" r="41.15" gradientTransform="matrix(1 0 0-1-218 1125.66)" gradientUnits="userSpaceOnUse" xlink:href="#0"/><radialGradient id="4" cx="-484.76" cy="291.53" r="41.15" gradientTransform="matrix(-1 0 0-1-448.86 1125.66)" gradientUnits="userSpaceOnUse" xlink:href="#0"/><radialGradient id="2" cx="305.73" cy="371.13" r="41.39" gradientTransform="matrix(1 0 0-1-218 1125.66)" gradientUnits="userSpaceOnUse" xlink:href="#0"/><radialGradient id="0" cx="250.43" cy="370.05" r="40.542" gradientTransform="matrix(1 0 0-1-218 1125.66)" gradientUnits="userSpaceOnUse"><stop offset=".537" stop-color="#fff"/><stop offset=".89" stop-color="#fbfbfc"/><stop offset="1" stop-color="#f6f6f7"/></radialGradient><radialGradient id="1" cx="250.74" cy="370.05" r="40.647" gradientTransform="matrix(1 0 0-1-218 1125.66)" gradientUnits="userSpaceOnUse" xlink:href="#0"/></defs><path fill="#1197d4" d="m8.545 705.02c0 0 8.527 51.5 51.34 62.62.293 0 .587 0 .88 0 38.29-10.814 48.713-54.26 50.49-63.33-.152-1.88-.197-3.869-.083-6.01 0 0-48.742 54.08-102.47-1.778"/><g fill="#010101"><path d="m115.49 718.27c-.878-1.909-1.271-3.082-1.271-3.082-.253 2.287-.511 4.555-.774 6.808-58.834 105.14-104.71-6.275-104.71-6.275-.417 1.597-1.402 3.221-2.829 4.851-.311-2.569-.466-3.963-.466-3.963-3.691 4.921-7.357 9.11-10.912 12.697-19.915 11.835-53.39 21.994-53.39 21.994-18.501 7.114-26.329 17.788-26.329 17.788-27.395 40.56-30.597 130.93-30.597 130.93.355 20.637 9.25 22.771 9.25 22.771 62.974 28.11 171.49 33.09 171.49 33.09 101.4 2.134 165.44-28.818 165.44-28.818 10.717-6.76 11.03-12.1 11.03-12.1 7.471-64.753-24.549-137.69-24.549-137.69-9.606-21.347-39.648-29.821-68.31-39.849-28.663-10.03-33.07-19.15-33.07-19.15"/><path d="m154.81 617.97h-185.73c-10.1 9.124-20.19 17.866-30.25 26.09 81.66 11.622 164.56 11.622 246.22 0-10.06-8.22-20.14-16.962-30.25-26.09"/></g><path fill="#1197d4" d="m-10.02 649.79c4.645 39.1 38.31 79.63 68.83 79.63 34.979 0 68.31-42.527 73.48-79.5-47.36 3.825-94.96 3.777-142.31-.137"/><path fill="url(#0)" d="m59.43 767.61c0 0-.217.001-.642.08-2.964.547-16.223 3.788-37.945 38.06-.092.146-.184.292-.278.439 0 0-15.654-70.36-15.12-89.57 0 0 3.104-9.189 3.104-11.59 0 .001 7.919 51.55 50.881 62.58"/><path fill="#0572ba" d="m8.773 696.64c13.546 19.11 32.32 32.783 50.04 32.783 19.244 0 37.98-12.879 51.812-30.615-5.107 5.311-51.24 50.29-101.85-2.168"/><path fill="url(#1)" d="m8.545 705.02c0 2.401-3.104 11.59-3.104 11.59-.534 19.213 15.12 89.57 15.12 89.57.093-.147.186-.293.278-.439 21.722-34.27 31.94-34.949 36.716-37.13 2.113-.966 2.499-.921 2.499-.921-42.962-11.03-51.51-62.67-51.51-62.67"/><path fill="url(#2)" d="m114.83 716.61c0 0-3.278-11.57-3.278-13.971 0 0-7.984 53.04-50.944 65.05 0 0 20.278 3.588 39.958 38.713.001 0 14.798-70.58 14.264-89.79"/><g fill="#3d3e3e"><path d="m-18.342 767.21l.167.157 4.313-2.282-22.592-14.848 15.74 14.751-.13-.068-23.261 16.15c0 0 38.87 103.11 90.46 153.68 0 0-58.59-71.18-89.19-154.36l24.496-13.18"/><path d="m75.75 937.81c50.17-50.41 90.72-155.51 90.72-155.51l-1.867-.732c-30.599 83.2-88.86 156.25-88.86 156.25"/><path d="m157.94 751.95l-21.97 14.89 2.99 1.18 27.52 14.27-23.81-15.12z"/></g><path fill="#fff" d="m154.82 617.97c-4.112-3.714-8.226-7.472-12.341-11.306-1.524-3.773-3.049-7.597-4.573-11.4h-151.92c-1.524 3.802-3.049 7.627-4.573 11.4-4.116 3.834-8.23 7.593-12.341 11.306h185.75"/><path fill="#010101" d="m137.9 595.26c-9.685-24.16-19.377-48.893-29.06-73.931-15.625 4.96-31.25 14.425-46.888 19.433-15.634-5.01-31.26-14.474-46.888-19.433-9.683 25.04-19.375 49.773-29.06 73.931h151.9"/><g fill="#e7e7e7"><path d="m60.866 767.69c0 0 13.391 4.307 25.755 19.388 0 0 10.375 12.228 13.948 19.326 0-.001-12.826-31.74-39.703-38.714"/><path d="m60.05 767.69c0 0-13.12 3.912-25.483 18.992 0 0-10.376 12.229-13.949 19.327 0 0 12.553-31.347 39.432-38.32"/></g><path fill="url(#3)" d="m78.48 777.97c.229.314.455.633.669.967.213.332.399.825.317 1.179-1.755 7.647-3.986 15.14-8.473 21.69-1.119 1.633-1.214 3.01-.891 4.808 1.888 10.512 3.832 21.02 5.436 31.576 1.479 9.737 2.648 19.525 3.767 29.31.575 5.03.741 10.11 1.103 15.16.027.384.138 1.58.209 1.961 0 2.16 0 3.502 0 5.662l.524-1.14c9.06-27.956 18.483-78.14 19.358-82.85-8.236-13.76-15.775-22.618-22.02-28.329"/><path fill="url(#4)" d="m42.642 777.97c-.229.314-.455.633-.669.967-.213.332-.399.825-.317 1.179 1.755 7.647 3.986 15.14 8.473 21.69 1.119 1.633 1.214 3.01.891 4.808-1.888 10.512-3.832 21.02-5.436 31.576-1.479 9.737-2.648 19.525-3.767 29.31-.575 5.03-.741 10.11-1.103 15.16-.027.384-.138 1.58-.209 1.961 0 2.16 0 3.502 0 5.662l-.524-1.14c-9.06-27.956-18.483-78.14-19.358-82.85 8.236-13.76 15.775-22.618 22.02-28.329"/></svg>