<svg xmlns="http://www.w3.org/2000/svg" width="149.41" viewBox="0 0 149.405 180.06" enable-background="new 0 0 149.405 180.06" xmlns:xlink="http://www.w3.org/1999/xlink"><defs><radialGradient id="0" cx="74.58" cy="136.36" r="27.553" gradientUnits="userSpaceOnUse"><stop offset=".537" stop-color="#fff"/><stop offset=".89" stop-color="#fbfbfc"/><stop offset="1" stop-color="#f6f6f7"/></radialGradient><radialGradient id="1" cx="62.838" cy="96.51" r="16.898" gradientUnits="userSpaceOnUse" xlink:href="#0"/><radialGradient id="2" cx="85.65" cy="96.06" r="17.346" gradientUnits="userSpaceOnUse" xlink:href="#0"/></defs><path fill="#1197d4" d="m52.939 71.876c0 0 1.78 8.751-6.675 14.09 0 0 4.895 18.84 28.18 19.285 0 0 18.395 2.373 29.372-18.988 0 0-8.752-2.522-8.159-13.647 0-.001-20.323 22.546-42.722-.742"/><path fill="#010101" d="m51.919 79.886c0 0 19.488 50.44 45.15-.149 0 0 .093 4.599 13.147 9.197 0 0 24.476 7.714 28.481 16.614 0 0 13.35 30.41 10.235 57.41 0 0-.13 2.225-4.599 5.04 0 0-26.701 12.905-68.978 12.01 0 0-45.24-2.077-71.5-13.795 0 0-3.709-.89-3.857-9.494 0 0 1.335-37.679 12.757-54.59 0 0 3.264-4.45 10.978-7.416 0 0 26.404-8.01 28.18-14.834"/><path fill="url(#0)" d="m57.89 117.5c0 0 9.01 48.06 16.799 54.07 0 0 13.339-30.484 16.571-54.07 0 0-8.116-15.575-17.02-16.354.001-.001-6.453-.112-16.354 16.354"/><path fill="url(#1)" d="m74.08 101.06c0 0-.091.001-.267.033-1.236.228-6.73 2.035-15.786 16.324-.038.061-.077.122-.116.183 0 0-6.527-29.334-6.304-37.34 0 0 1.294-3.831 1.294-4.832-.001.001 3.267 21.04 21.18 25.637"/><path fill="#1197d4" d="m104.78 48.44c0 16.16-15.06 37.16-30.929 37.16-13.703 0-28.926-19.595-28.926-36.937 0-21.378 2.979-41.33 29.371-41.33 38.06-.001 30.484 38.869 30.484 41.11"/><path fill="#0572ba" d="m52.993 71.929c5.648 7.968 13.474 13.668 20.862 13.668 8.02 0 15.835-5.37 21.602-12.765-2.129 2.215-21.364 20.968-42.464-.903"/><path fill="url(#2)" d="m74.08 101.06c0 0 6.73-.612 17.188 16.633 0 0 6.17-29.427 5.947-37.437 0 0-1.367-4.824-1.367-5.825.001 0-3.856 21.623-21.768 26.629"/><g fill="#e7e7e7"><path d="m74.4 101.06c0 0 5.896 2.076 11.05 8.456 0 0 4.326 5.173 5.815 8.175 0 0-5.66-13.681-16.866-16.631"/><path d="m74.8 100.9c0 0-5.896 2.076-11.05 8.455 0 0-4.326 5.173-5.816 8.176 0 0 5.66-13.681 16.867-16.631"/></g><g fill="#010101"><path d="m51.604 80.26c0 0 8.826 79.47 28.63 99.72 0 0-9.679-.482-10.569-.482 0 0-21.398-22.918-38.977-70.76l9.791-7.788-7.232-6.823c0 0 9.01-1.41 18.357-13.87"/><path d="m96.96 79.66c0 0 4.265 12.831 18.728 14.833l-7.121 7.344 9.791 7.342c0 0-16.243 48.06-38.27 70.54 0 0-4.154-3.411-5.489-7.416 0-.001 15.688-32.19 22.363-92.64"/><path d="m43.12 32.476l-8.162 11.732c0 0 16.323 2.551 52.37-8.502l17.684-6.291c0 0 1.36-5.781-1.02-14.963s-2.721-14.452-10.712-14.452-61.55 14.453-64.953 27.545c0 0-1.19 6.462 14.793 4.931"/></g><g fill="#fff"><circle cx="34.448" cy="26.695" r="1.53"/><circle cx="38.699" cy="28.23" r="1.02"/></g><g fill="#010101"><path d="m57.642 91.82l.828 17.73 16.1-8.87z"/><path d="m90.81 91.82l-.83 17.73-16.1-8.87z"/><path d="m71.33 100.68h5.799v22.782h-5.799z"/></g><g fill="#fff"><circle cx="74.22" cy="104.91" r="1.657"/><circle cx="74.22" cy="111.74" r="1.657"/><circle cx="74.22" cy="118.54" r="1.657"/></g><g fill="#010101"><circle cx="59.859" cy="48.838" r="8.869"/><circle cx="87.9" cy="48.838" r="8.869"/><path d="m63.55 47.649h20.659v3.167h-20.659z"/></g><g fill="#fff"><circle cx="56.06" cy="45.718" r="1.931"/><circle cx="57.996" cy="49.23" r=".965"/><circle cx="83.73" cy="45.718" r="1.931"/><circle cx="85.66" cy="49.23" r=".965"/></g></svg>