<svg xmlns="http://www.w3.org/2000/svg" viewBox="-240.076 377.276 122 156" enable-background="new -240.076 377.276 122 156"><defs><radialGradient id="0" cx="-178.66" cy="489.81" r="33.984" gradientUnits="userSpaceOnUse"><stop offset=".537" stop-color="#fff"/><stop offset=".89" stop-color="#fbfbfc"/><stop offset="1" stop-color="#f6f6f7"/></radialGradient></defs><path fill="#1197d4" d="m-196.94 448.88c.419 2.215 3.643 16.723 16.795 20.1 12.764-3.568 16.554-17.735 17.205-20.649-.05-.622-.074-1.271-.036-1.978 0 0-16.17 17.936-33.984-.59 0 .001.261 1.302.02 3.118"/><path fill="url(#0)" d="m-180.15 468.98c-14.249-3.658-16.848-20.393-16.848-20.393 0 .796-1.029 3.844-1.029 3.844-.003.1-.231.402-.46.81-.935 1.244-1.617 1.928-3.518 3.107v73.13c12.683 1.842 22.874 2.31 22.874 2.31 8.852.186 16.834-.391 23.808-1.338v-72.71c-4.844-2.286-6.097-4.353-6.422-5.25 0-.018 0-.041 0-.059 0 0-.044-.156-.113-.405 0-.001-.001-.008-.001-.008 0 .001-.001.001-.001.002-.278-1.01-.972-3.586-.972-4.223-.001 0-3.07 17.201-17.318 21.18"/><g fill="#010101"><path d="m-202 529.48v-73.13c-6.53 4.05-18.19 7.589-18.19 7.589-6.136 2.359-8.732 5.9-8.732 5.9-9.09 13.452-10.148 43.43-10.148 43.43.118 6.844 3.068 7.552 3.068 7.552 9.848 4.395 23.05 7.084 34.26 8.7-.085-.013-.169-.024-.255-.037"/><path d="m-128.75 472.55c-3.186-7.08-22.656-13.216-22.656-13.216-1.519-.535-2.812-1.07-3.922-1.594v72.71c19.521-2.65 31.06-8.22 31.06-8.22 3.554-2.242 3.658-4.01 3.658-4.01 2.477-21.475-8.143-45.666-8.143-45.666"/></g><path fill="#1197d4" d="m-166.84 430.14c-12.413 0-22.911-5.954-34.819-12.426-.423-.23-.82-.427-1.227-.637-.342 3.275-.447 6.724-.447 10.224 0 13.795 12.11 29.383 23.01 29.383 12.495 0 24.348-16.359 24.592-29.16-3.674 1.766-7.64 2.613-11.11 2.613"/><path fill="#3d3e3e" d="m-203.22 425.55c0 0-18.378-10.171-15.918-12.63 0 0 9.236-2.505 17.13-.693-.001 2.589-1.214 13.323-1.214 13.323"/><path fill="#0572ba" d="m-196.92 445.81c4.493 6.338 10.718 10.873 16.595 10.873 6.382 0 12.596-4.272 17.18-10.154-1.694 1.762-16.995 16.679-33.779-.719"/><path fill="#e7e7e7" d="m-202.43 398.17c-.677 5.842-.786 11.572-.786 11.572l47.895.854c0 0-.805-6.439-1.613-12.703-20.484-4.01-39.646-.885-45.496.277"/><g fill="#010101"><path d="m-158.3 387.68c-.777-5.307-3.624-5.05-3.624-5.05-12.686.906-12.168-1.036-20.323-3.754-8.155-2.718-12.814 4.401-16.698 7.378-1.957 1.5-2.844 5.837-3.424 11.372.038-.358-.023.177-.064.536 5.85-1.162 25.01-4.289 45.5-.277l-1.362-10.207"/><path d="m-219.14 412.92c0 0 5.566-1.683 17.474 4.789 11.908 6.472 22.406 12.426 34.819 12.426 10.162 0 24.593-7.249 23.428-23.687 0 0-5.05 3.495-20.71 3.624s-51.39-2.329-55.01 2.848"/></g><path d="m-186.63 510.07c0-1.52 0-3.04 0-4.56.111-.941.196-1.886.336-2.823 1.049-7.01 2.114-14.02 3.148-21.04.051-.346-.084-.751-.229-1.088-.813-1.895-1.767-3.738-2.457-5.676-.711-2-.447-2.665 1.339-3.878 1.133-.769 2.41-1.326 3.622-1.978.48 0 .96 0 1.44 0 .393.164.779.348 1.18.488 1.861.646 3.563 1.533 4.82 3.112 0 .32 0 .64 0 .96-.076.082-.197.152-.223.247-.685 2.51-1.516 4.952-3.035 7.113-.188.267-.162.772-.078 1.129 1.925 8.115 2.398 16.411 3.034 24.682.114 1.487.121 3.091-.31 4.491-.996 3.231-2.265 6.38-3.478 9.541-.634 1.653-1.384 3.263-2.164 5.085-.442-.636-.794-1.028-1.016-1.483-.876-1.788-1.794-3.563-2.541-5.405-1.194-2.947-2.265-5.944-3.388-8.92"/><g fill="#d1d3d4"><path d="m-180.15 468.98c0 0-.084.023-.24.066-.15.058-.37.143-.65.251-.277.101-.598.289-.97.468-.377.169-.771.431-1.208.694-.428.282-.924.517-1.391.878-.477.338-.98.694-1.501 1.063-.539.338-1.024.798-1.556 1.204-.526.417-1.059.84-1.593 1.264-.541.414-1.03.896-1.54 1.334-.499.451-1.01.873-1.496 1.293-.488.417-.967.812-1.386 1.228-.433.4-.843.779-1.221 1.129-.758.698-1.424 1.25-1.875 1.652-.459.395-.732.611-.732.611s.208-.276.59-.744c.39-.461.925-1.141 1.609-1.922.691-.773 1.448-1.726 2.414-2.596.473-.445.952-.916 1.458-1.374.511-.453.996-.95 1.542-1.38.552-.423 1.104-.846 1.647-1.262.547-.412 1.072-.832 1.642-1.16.559-.338 1.1-.665 1.613-.975.497-.331 1.049-.519 1.515-.751.473-.223.91-.418 1.327-.528.411-.121.753-.253 1.057-.312.303-.061.539-.095.698-.118.161-.008.247-.013.247-.013"/><path d="m-180.03 468.98c0 0 .086.004.248.013.159.023.395.057.698.118.304.059.646.191 1.057.312.417.11.854.304 1.327.528.466.232 1.018.42 1.515.751.513.31 1.053.637 1.613.975.57.328 1.095.748 1.642 1.16.543.416 1.095.839 1.647 1.262.546.43 1.032.927 1.542 1.38.506.457.985.929 1.458 1.374.966.87 1.724 1.823 2.414 2.596.683.781 1.219 1.461 1.609 1.922.382.468.59.744.59.744s-.273-.217-.732-.611c-.451-.402-1.117-.954-1.875-1.652-.378-.35-.787-.728-1.221-1.129-.419-.415-.898-.811-1.386-1.228-.485-.421-.996-.842-1.496-1.293-.51-.438-.999-.92-1.54-1.334-.534-.423-1.068-.847-1.593-1.264-.533-.407-1.017-.866-1.556-1.204-.521-.369-1.024-.725-1.501-1.063-.466-.362-.963-.596-1.391-.878-.438-.264-.831-.526-1.208-.694-.372-.178-.693-.367-.97-.468-.28-.108-.5-.193-.65-.251-.157-.042-.241-.066-.241-.066"/></g></svg>