<svg xmlns="http://www.w3.org/2000/svg" xmlns:xlink="http://www.w3.org/1999/xlink" width="183.42" height="212.06" viewBox="0 0 183.423 212.056" enable-background="new 0 0 183.423 212.056"><defs><use id="6" xlink:href="#0"/><path id="7" d="m129.37 41.16c.302-11.735-2.02-31.11-20.906-38.33l-3.387-1.112c0 .001-.044 29.963 24.293 39.439"/><clipPath id="5"><use xlink:href="#7"/></clipPath><clipPath id="4"><use xlink:href="#6"/></clipPath><radialGradient id="3" cx="105.43" cy="107.96" r="20.592" gradientUnits="userSpaceOnUse" xlink:href="#1"/><radialGradient id="2" cx="77.35" cy="109.49" r="20.81" gradientUnits="userSpaceOnUse" xlink:href="#1"/><radialGradient id="1" cx="90.95" cy="158.35" r="33.679" gradientUnits="userSpaceOnUse"><stop offset=".537" stop-color="#fff"/><stop offset=".852" stop-color="#fdfdfd"/><stop offset="1" stop-color="#f6f6f7"/></radialGradient></defs><path fill="#0097d6" d="m64.993 79.24c0 0 2.185 10.744-8.195 17.3 0 0 6.01 23.13 34.601 23.676 0 0 22.584 2.914 36.06-23.311 0 0-10.745-3.096-10.02-16.755 0 0-24.949 27.681-52.45-.91"/><path d="m63.74 89.07c0 0 23.926 61.919 55.43-.183 0 0 .114 5.647 16.14 11.291 0 0 30.05 9.471 34.966 20.397 0 0 16.39 37.34 12.566 70.48 0 0-.16 2.732-5.646 6.192 0 0-32.781 15.844-84.68 14.751 0 0-55.55-2.55-87.78-16.936 0 0-4.553-1.092-4.735-11.656 0 0 1.639-46.26 15.662-67.02 0 0 4.01-5.464 13.477-9.105.001 0 32.417-9.835 34.602-18.212"/><path fill="url(#1)" d="m71.07 135.25c0 0 11.06 59 20.625 66.38 0 0 14.308-39.13 19.14-68.65 0 0-8.76-16.375-19.496-17.909 0 .001-8.113-.035-20.269 20.18"/><path fill="url(#2)" d="m91.34 115.07c0 0-.307.201-.524.241-1.517.28-8.461 2.297-19.58 19.839-.047.075-.094.15-.142.225 0 0-5.785-34.76-7.739-45.848 0 0 1.589-4.703 1.589-5.932-.002-.001 4.405 25.829 26.396 31.475"/><path fill="#0097d6" d="m128.64 50.47c0 19.838-18.486 45.621-37.972 45.621-16.823 0-35.512-24.06-35.512-45.35 0-26.25 3.658-50.739 36.06-50.739 46.731 0 37.425 47.72 37.425 50.47"/><path fill="#0071b9" d="m65.06 79.31c6.934 9.782 16.541 16.781 25.612 16.781 9.85 0 19.441-6.593 26.521-15.671-2.614 2.718-26.23 25.741-52.13-1.11"/><path fill="url(#3)" d="m91.51 115.17c0 0 7.469-.317 19.323 18.363 0 0 8.785-34.17 8.512-44.01 0 0-1.678-5.922-1.678-7.151 0 0-7.884 27.458-26.16 32.796"/><path d="m81.4 178.89c0-1.68 0-3.36 0-5.04.067-.255.17-.506.194-.765.379-4.056.566-8.141 1.158-12.165 1.266-8.612 2.746-17.193 4.111-25.791.067-.424.001-.983-.232-1.322-1.953-2.838-3.15-5.997-4.051-9.287-.807-2.946-.553-3.666 1.916-5.532.159-.12.312-.26.489-.345 2-.963 4.01-1.917 6.02-2.873.4 0 .8 0 1.2 0 .082.075.152.192.247.219 3.565.979 6.843 2.461 9.353 5.301 0 .24 0 .48 0 .72-.14.365-.313.721-.416 1.097-1.077 3.941-2.302 7.812-4.803 11.145-.189.252-.164.736-.106 1.09.97 5.907 2.164 11.786 2.893 17.722.843 6.856 1.219 13.768 1.92 20.643.352 3.456-.011 6.753-1.323 9.961-2.915 7.125-5.818 14.255-8.726 21.383-.08 0-.16 0-.24 0-.708-1.242-1.593-2.418-2.092-3.739-1.704-4.513-3.326-9.06-4.871-13.628-.978-2.898-1.764-5.861-2.636-8.794"/><g fill="#e7e7e7"><path d="m91.34 115.07c0 0 7.238 2.549 13.567 10.381 0 0 4.1 4.397 5.929 8.08 0 0-5.739-14.842-19.496-18.464"/><path d="m90.37 115.17c0 0-5.774 2.243-12.1 10.08 0 0-5.311 6.351-7.14 10.04 0 0 5.484-16.491 19.242-20.11"/></g><path d="m91.22 0c-24.961 0-32.857 14.541-35.17 33.22 8.266.631 18.544.161 26.21-4.363 15.1-8.911 22.16-25.25 22.16-25.25l.667-1.883c-3.963-1.098-8.547-1.721-13.863-1.721" id="0"/><path d="m88.995 42.468h-26.363c0 0 1.361 14.728 12.377 14.728s13.986-14.728 13.986-14.728"/><g fill="#fff"><circle cx="67.09" cy="46.18" r="1.361"/><circle cx="68.45" cy="50.51" r=".743"/></g><path d="m122.98 42.468h-26.363c0 0 1.361 14.728 12.377 14.728s13.986-14.728 13.986-14.728"/><g fill="#fff"><circle cx="101.07" cy="46.18" r="1.361"/><circle cx="102.43" cy="50.51" r=".743"/></g><path d="m81.89 45.562h16.299v3.134h-16.299z"/><g fill="none" stroke="#0097d6" stroke-linejoin="round" stroke-linecap="round" stroke-miterlimit="10"><path clip-path="url(#4)" d="m48.1 24.274c0 0 10.644 6.188 28.31-2.464 12.182-5.968 25.409-21.423 25.409-21.423"/><path clip-path="url(#4)" d="m54.53 15.239c0 0 10.09 2.97 22.588-3.466s17.265-15.347 17.265-15.347"/></g><path clip-path="url(#5)" d="m129.37 41.16c.302-11.735-2.02-31.11-20.906-38.33l-3.387-1.112c0 .001-.044 29.963 24.293 39.439"/><path clip-path="url(#5)" fill="none" stroke="#0097d6" stroke-linecap="round" stroke-linejoin="round" stroke-miterlimit="10" d="m105.08 1.722c0 0 8.343 26.19 23.782 29.29"/><g fill="#3c3d3d"><path d="m52.706 131.8c4.994 2.161 9.956 4.392 14.934 6.59l.329.145-.09.363-6.04 24.335-.104-.61 10.376 15.184 5.188 7.592 5.117 7.64.123.184.02.213.719 7.493c.246 2.497.442 4.999.665 7.499l.194 2.173-1.473-1.586-18.474-19.882-9.311-9.87c-3.09-3.303-6.257-6.533-9.382-9.803l-.116-.121.025-.166c.888-5.867 1.736-11.74 2.56-17.617l2.488-17.628 2.525-17.623 2.585-17.613.04-.276.192-.215 6.811-7.637 1.312-1.471.394 1.94 3.02 14.883 2.922 14.903 2.905 14.906 2.808 14.925c.943 4.974 1.872 9.95 2.766 14.934.895 4.983 1.836 9.958 2.692 14.949l4.369 30.07-.198.03-2.439-14.99-1.219-7.495c-.417-2.489-.789-5.02-1.243-7.475-1.113-4.94-2.141-9.897-3.215-14.845-1.075-4.948-2.115-9.902-3.141-14.859l-3.099-14.868-3-14.887-2.985-14.89-2.885-14.91 1.705.469-6.871 7.582.232-.49-2.794 17.581-2.853 17.572-2.891 17.567c-.968 5.855-1.913 11.713-2.819 17.578l-.09-.287c3.118 3.276 6.194 6.593 9.347 9.835l9.418 9.768 18.984 19.394-1.279.588c-.277-2.494-.582-4.985-.836-7.482l-.782-7.487.143.396-5.177-7.599-5.107-7.647-10.213-15.294-.193-.289.088-.322 6.642-24.18.239.508c-4.883-2.4-9.782-4.766-14.648-7.203l.086-.179"/><path d="m130.3 131.98c-4.866 2.436-9.765 4.803-14.648 7.203l.239-.508 6.642 24.18.088.322-.193.289-10.213 15.294-5.107 7.647-5.177 7.599.143-.396-.782 7.487c-.254 2.496-.559 4.988-.836 7.482l-1.279-.588 18.984-19.394 9.418-9.768c3.153-3.243 6.229-6.559 9.347-9.835l-.09.287c-.905-5.864-1.85-11.723-2.819-17.578l-2.891-17.567-2.853-17.572-2.794-17.581.232.49-6.871-7.582 1.702-.455-2.335 11.267-2.405 11.253-4.859 22.495-5.01 22.462-2.573 11.217c-.86 3.738-1.706 7.48-2.602 11.21l.006-.036-3.445 29.334-.199-.022 2.926-29.39.001-.011.005-.026c.701-3.772 1.453-7.534 2.19-11.298l2.22-11.292 4.574-22.555 4.727-22.523 2.388-11.256 2.458-11.241.415-1.899 1.288 1.444 6.811 7.637.192.215.04.276 2.585 17.613 2.525 17.623 2.488 17.628c.824 5.877 1.672 11.75 2.56 17.617l.025.166-.116.121c-3.125 3.27-6.292 6.499-9.382 9.803l-9.311 9.87-18.474 19.882-1.473 1.586.194-2.173c.223-2.499.419-5 .665-7.499l.719-7.493.02-.213.123-.184 5.117-7.64 5.188-7.592 10.376-15.184-.104.61-6.04-24.335-.09-.363.329-.145c4.977-2.198 9.939-4.429 14.934-6.59l.084.178"/></g><path d="m89.08 67.45l-13.67 7.07h7.31l9.21-3.538z"/><path d="m94.34 67.45l13.67 7.07h-7.31l-9.21-3.538z"/></svg>