<svg xmlns="http://www.w3.org/2000/svg" viewBox="-239.849 374.948 120 150" enable-background="new -239.849 374.948 120 150" xmlns:xlink="http://www.w3.org/1999/xlink"><defs><radialGradient id="3" cx="-174.77" cy="396.91" r="19.03" gradientTransform="matrix(1 0 0-1-6 803.79)" gradientUnits="userSpaceOnUse" xlink:href="#0"/><radialGradient id="2" cx="-166.03" cy="346.86" r="13.851" gradientTransform="matrix(1 0 0-1-6 803.79)" gradientUnits="userSpaceOnUse" xlink:href="#0"/><radialGradient id="0" cx="-174.87" cy="314.68" r="22" gradientTransform="matrix(1 0 0-1-6 803.79)" gradientUnits="userSpaceOnUse"><stop offset=".537" stop-color="#fff"/><stop offset=".852" stop-color="#fdfdfd"/><stop offset="1" stop-color="#f6f6f7"/></radialGradient><radialGradient id="1" cx="-184.24" cy="346.5" r="13.493" gradientTransform="matrix(1 0 0-1-6 803.79)" gradientUnits="userSpaceOnUse" xlink:href="#0"/></defs><path fill="#0097d6" d="m-198.15 437.62c0 0 1.421 6.988-5.33 11.252 0 0 3.909 15.04 22.505 15.399 0 0 14.689 1.895 23.454-15.16 0 0-6.989-2.01-6.515-10.897 0 0-16.228 18-34.11-.592"/><path d="m-198.96 444.02c0 0 15.562 40.27 36.05-.119 0 0 .074 3.673 10.498 7.344 0 0 19.545 6.16 22.743 13.267 0 0 10.66 24.283 8.173 45.841 0 0-.104 1.777-3.672 4.03 0 0-21.321 10.305-55.08 9.594 0 0-36.13-1.658-57.09-11.02 0 0-2.961-.71-3.08-7.581 0 0 1.066-30.09 10.187-43.59 0 0 2.606-3.554 8.766-5.922 0 0 21.08-6.397 22.505-11.845"/><path fill="url(#0)" d="m-194.19 474.06c0 0 7.196 38.38 13.415 43.18 0 0 10.652-24.342 13.232-43.18 0 0-6.481-12.437-13.588-13.06.001 0-5.152-.089-13.06 13.06"/><path fill="url(#1)" d="m-181.27 460.93c0 0-.072 0-.214.027-.987.182-5.374 1.625-12.606 13.04-.031.049-.061.097-.092.146 0 0-5.212-23.424-5.03-29.82 0 0 1.033-3.059 1.033-3.858.001-.003 2.61 16.797 16.913 20.47"/><path fill="#0097d6" d="m-156.75 418.91c0 12.903-12.02 29.672-24.697 29.672-10.942 0-23.1-15.647-23.1-29.495 0-17.07 2.379-33 23.453-33 30.394.001 24.342 31.04 24.342 32.824"/><path fill="#0071b9" d="m-198.1 437.67c4.51 6.363 10.759 10.914 16.658 10.914 6.407 0 12.644-4.288 17.25-10.193-1.7 1.769-17.06 16.743-33.908-.721"/><path fill="url(#2)" d="m-181.27 460.93c0 0 5.374-.489 13.725 13.281 0 0 4.926-23.498 4.749-29.894 0 0-1.091-3.852-1.091-4.651 0-.001-3.08 17.265-17.383 21.264"/><path d="m-187.39 502.51c0-1.44 0-2.88 0-4.32.057-.103.158-.203.165-.309.567-8.01 1.872-15.917 3.371-23.797.058-.307-.088-.68-.217-.99-.869-2.086-1.731-4.175-2.653-6.238-.54-1.208-.16-2.156.821-2.793 1.452-.944 3-1.736 4.513-2.593.4 0 .8 0 1.2 0 .395.167.808.299 1.181.506 1.418.79 2.86 1.547 4.205 2.448.347.232.627 1.025.502 1.424-.628 2.01-1.142 4.133-2.199 5.918-.949 1.602-.977 2.951-.616 4.675 1.617 7.718 2.177 15.572 2.655 23.425.088 1.441.038 3.01-.437 4.344-1.645 4.619-3.505 9.162-5.291 13.73-.048.124-.186.213-.477.531-.867-1.699-1.776-3.204-2.428-4.812-1.499-3.689-2.872-7.428-4.295-11.149"/><g fill="#e7e7e7"><path d="m-181.01 460.93c0 0 4.708 1.658 8.824 6.752 0 0 3.454 4.131 4.644 6.528.001 0-4.519-10.924-13.468-13.28"/><path d="m-180.69 460.8c0 0-4.708 1.657-8.824 6.751 0 0-3.454 4.131-4.644 6.528-.001.001 4.519-10.924 13.468-13.279"/></g><path d="m-199.21 444.32c0 0 7.05 63.46 22.861 79.63 0 0-7.729-.385-8.44-.385 0 0-17.09-18.3-31.12-56.5l7.818-6.219-5.775-5.448c.001 0 7.196-1.125 14.659-11.08"/><g fill="#3c3d3d"><path d="m-215.71 465.77c0 0 12.941 34.33 30.12 51.16 0 0-19.515-23.708-29.702-51.41l-.415.244"/><path d="m-207.96 460.4l-7.75 5.37 8.89-4.77z"/><path d="m-213.16 455.51l6.09 5.7 1.43-.76z"/></g><path d="m-154.22 411.33l-2.191-22.683c0 0-1.547-7.475-6.315-9.924-4.769-2.449-9.15-3.609-12.372-3.609s-2.574 1.933-5.669 1.933c-3.095 0-2.447-1.933-5.669-1.933s-7.604 1.16-12.372 3.609c-4.768 2.449-6.315 9.924-6.315 9.924l-2.192 22.683"/><path d="m-154.74 410.91c0 0 6.742.549 14.346-2.029 7.604-2.578 1.933 1.418.516 2.449-1.418 1.031-13.14 4.511-41.37 4.511h.476c-28.23 0-39.951-3.48-41.37-4.511-1.418-1.031-7.088-5.03.516-2.449 7.604 2.577 14.346 2.029 14.346 2.029h52.54"/><path fill="url(#3)" d="m-207.31 411.33h53.09l-.86-8.89h-51.38z"/><path fill="#0097d6" d="m-155.99 491.24l6.606-9.795c0 0 1.675-1.289 3.995 1.031s5.671 8.764 5.671 8.764h-16.272"/><path fill="#3c3d3d" d="m-156.26 491.24h18.253v3.423h-18.253z"/><path d="m-163 443.84c0 0 3.406 10.245 14.954 11.844l-5.686 5.864 7.818 5.863c0 0-12.971 38.38-30.56 56.32 0 0-3.317-2.724-4.383-5.922 0 0 12.527-25.704 17.857-73.972"/><g fill="#3c3d3d"><path d="m-145.6 466.18c0 0-13.503 34.992-30.2 51.775 0 0 19.396-24.319 29.583-52.02l.622.244"/><path d="m-153.93 460.89l8.33 5.29-9.16-4.75z"/><path d="m-148.44 456.08l-5.64 5.62-1.68-.66z"/></g></svg>