<svg xmlns="http://www.w3.org/2000/svg" height="359.42" viewBox="0 0 279.881 359.422" enable-background="new 0 0 279.881 359.422" xmlns:xlink="http://www.w3.org/1999/xlink"><defs><radialGradient id="0" cx="145.7" cy="-13.13" r="51.614" gradientTransform="matrix(1 0 0-1-6 264.42)" gradientUnits="userSpaceOnUse"><stop offset=".537" stop-color="#fff"/><stop offset=".89" stop-color="#fbfbfc"/><stop offset="1" stop-color="#f6f6f7"/></radialGradient><radialGradient id="1" cx="123.71" cy="61.51" r="31.654" gradientTransform="matrix(1 0 0-1-6 264.42)" gradientUnits="userSpaceOnUse" xlink:href="#0"/><radialGradient id="2" cx="166.45" cy="62.35" r="32.495" gradientTransform="matrix(1 0 0-1-6 264.42)" gradientUnits="userSpaceOnUse" xlink:href="#0"/></defs><path fill="#1197d4" d="m99.17 156.76c0 0 3.335 16.394-12.504 26.398 0 0 9.17 35.29 52.797 36.13 0 0 34.46 4.446 55.02-35.57 0 0-16.395-4.724-15.285-25.565 0 0-38.07 42.24-80.03-1.389"/><path fill="#010101" d="m97.26 171.77c0 0 36.508 94.48 84.58-.279 0 0 .174 8.616 24.628 17.229 0 0 45.852 14.451 53.35 31.12 0 0 25.01 56.968 19.17 107.54 0 0-.244 4.168-8.615 9.448 0 0-50.02 24.18-129.22 22.508 0 0-84.76-3.891-133.94-25.843 0 0-6.948-1.667-7.225-17.785 0 0 2.501-70.58 23.898-102.26 0 0 6.114-8.337 20.564-13.893 0-.001 49.46-15.01 52.798-27.79"/><path fill="url(#0)" d="m108.44 242.23c0 0 16.881 90.03 31.47 101.29 0 0 24.988-57.11 31.04-101.29 0 0-15.204-29.18-31.876-30.636.001-.001-12.09-.21-30.637 30.636"/><path fill="url(#1)" d="m138.77 211.44c0 0-.17.001-.501.063-2.315.427-12.606 3.812-29.573 30.579-.072.114-.144.228-.217.343 0 0-12.227-54.952-11.809-69.958 0 0 2.424-7.177 2.424-9.05 0 0 6.121 39.41 39.676 48.03"/><path fill="#1197d4" d="m196.29 112.86c0 30.27-28.21 69.61-57.94 69.61-25.67 0-54.19-36.707-54.19-69.19 0-40.05 5.581-77.42 55.02-77.42 71.31 0 57.11 72.814 57.11 77"/><path fill="#0572ba" d="m99.27 156.86c10.58 14.926 25.24 25.605 39.08 25.605 15.03 0 29.664-10.06 40.468-23.912-3.989 4.149-40.02 39.28-79.55-1.693"/><path fill="url(#2)" d="m138.77 211.44c0 0 12.608-1.146 32.2 31.16 0 0 11.557-55.13 11.141-70.13 0 0-2.56-9.04-2.56-10.912 0 0-7.226 40.506-40.78 49.885"/><path d="m124.08 308.37c0-2 0-4 0-6 .103-1.259.185-2.521.313-3.777.691-6.787 1.284-13.585 2.123-20.354.785-6.329 1.763-12.636 2.793-18.931.971-5.938 2.127-11.846 3.173-17.772.075-.424.068-1-.162-1.32-3.874-5.35-5.779-11.499-7.271-17.812-.101-.429.044-1.028.29-1.408 1.459-2.259 3.409-4.052 5.793-5.253 2.469-1.243 5.05-2.258 7.588-3.372.48 0 .96 0 1.44 0 .477.173.949.363 1.432.516 5.247 1.668 10.326 3.61 13.688 8.364 0 .08 0 .16 0 .24-.467 1.554-.93 3.109-1.401 4.662-1.556 5.133-3.333 10.159-6.693 14.464-.241.309-.274.9-.193 1.319.217 1.133.629 2.23.82 3.366 1.096 6.526 2.29 13.04 3.179 19.596.874 6.445 1.489 12.928 2.095 19.406.546 5.844.969 11.7 1.359 17.557.153 2.298.285 4.636.024 6.91-.229 1.993-.87 3.979-1.588 5.87-3.198 8.418-6.475 16.807-9.758 25.19-.787 2.01-1.709 3.968-2.621 6.073-2.063-2.026-3.345-4.35-4.35-6.765-3.062-7.356-6-14.763-8.934-22.17-1.124-2.838-2.097-5.733-3.139-8.601"/><g fill="#e7e7e7"><path d="m139.37 211.44c0 0 11.04 3.89 20.702 15.84 0 0 8.104 9.69 10.894 15.315 0 0-10.604-25.628-31.596-31.16"/><path d="m140.12 211.13c0 0-11.04 3.888-20.702 15.839 0 0-8.104 9.691-10.895 15.316 0-.001 10.604-25.63 31.597-31.16"/></g><path fill="#010101" d="m96.67 172.46c0 0 16.533 148.88 53.632 186.81 0 0-18.13-.903-19.799-.903 0 0-40.09-42.932-73.02-132.55l18.341-14.589-13.547-12.782c0 0 16.881-2.642 34.388-25.983"/><g fill="#3d3e3e"><path d="m57.973 222.8c0 0 30.359 80.53 70.65 120.03 0 0-45.781-55.619-69.68-120.6l-.974.573"/><path d="m76.14 210.19l-18.17 12.61 20.847-11.21z"/><path d="m63.949 198.72l14.271 13.38 3.37-1.78z"/></g><path fill="#010101" d="m181.63 171.35c0 0 7.99 24.03 35.08 27.787l-13.339 13.757 18.341 13.754c0 0-30.429 90.04-71.69 132.13 0 0-7.782-6.39-10.283-13.893 0 .001 29.387-60.3 41.892-173.54"/><g fill="#3d3e3e"><path d="m222.45 223.76c0 0-31.678 82.09-70.86 121.46 0 0 45.503-57.05 69.4-122.04l1.458.572"/><path d="m202.89 211.34l19.56 12.42-21.5-11.15z"/><path d="m215.78 200.06l-13.24 13.19-3.92-1.56z"/></g><path fill="#010101" d="m96.46 41.706c0 0-41.974 1.764-38.447 15.167s31.392 23.28 91.36 23.28 72.66-13.756 65.959-22.574-15.52-9.523-15.52-9.523-9.105-28.11-16.16-35.17-5.808-11.05-34.22-2.926c0 0-12.833-5.629-19.18-9.156s-19.332 4.924-25.328 17.975-8.466 22.926-8.466 22.926"/><path fill="#fff" d="m148.49 53.698c28.926 1.477 44.524-2.885 51.31-5.657-.059-.147-2.682-6.639-6.169-13.938-11.341 6.141-22.632 7.27-46.38 7.422-18.817.121-37.968-5.918-47.72-9.531-2.128 5.945-3.072 9.711-3.072 9.711s-.412.018-1.132.061c7.561 3.878 24.345 10.461 53.16 11.932"/><g fill="#010101"><path d="m90.36 72.53c0 0-5.694 13.612-5.5 24.67 0 0-4.929-9.07-4.02-27.33 0 0 4.734 3.02 9.517 2.66"/><path d="m185.15 75.02c0 0 11.619 19.436 10.649 30.882 0 0 3.308-20.949 1.266-32.978l-11.915 2.096"/><path d="m195.74 71.78v33.95c0 0 7.678-16.937 6.462-34.949l-6.462.999"/><path d="m128.25 114.47c0 2.519-2.042 4.561-4.561 4.561h-25.987c-2.519 0-4.561-2.042-4.561-4.561v-21.619c0-2.519 2.042-4.561 4.561-4.561h25.988c2.519 0 4.561 2.042 4.561 4.561l-.001 21.619"/><path d="m128.25 100.21h18.24v5.702h-18.24z"/></g><g fill="#fff"><circle cx="99.74" cy="94.18" r="1.94"/><circle cx="99.74" cy="100.21" r="1.94"/></g><path fill="#010101" d="m181.6 114.47c0 2.519-2.042 4.561-4.561 4.561h-25.988c-2.519 0-4.561-2.042-4.561-4.561v-21.619c0-2.519 2.042-4.561 4.561-4.561h25.988c2.519 0 4.561 2.042 4.561 4.561v21.619"/><g fill="#fff"><circle cx="153.09" cy="94.18" r="1.94"/><circle cx="153.09" cy="100.21" r="1.94"/></g></svg>