<svg xmlns="http://www.w3.org/2000/svg" width="118.85" viewBox="0 0 118.848 153.52" enable-background="new 0 0 118.848 153.52" xmlns:xlink="http://www.w3.org/1999/xlink"><defs><radialGradient id="0" cx="59.42" cy="113.62" r="50.613" gradientUnits="userSpaceOnUse"><stop offset=".537" stop-color="#fff"/><stop offset=".89" stop-color="#fbfbfc"/><stop offset="1" stop-color="#f6f6f7"/></radialGradient><radialGradient id="1" cx="59.32" cy="118.76" r="21.918" gradientUnits="userSpaceOnUse" xlink:href="#0"/></defs><path fill="#1197d4" d="m42.11 67.46c0 0 1.416 6.962-5.31 11.21 0 0 3.894 14.986 22.42 15.341 0 0 14.633 1.888 23.364-15.1 0 0-6.962-2.01-6.491-10.856.001-.001-16.16 17.935-33.983-.591"/><path fill="url(#0)" d="m41.3 73.834c0 0 15.503 40.12 35.917-.118 0 0 .074 3.659 10.458 7.316 0 0 19.47 6.136 22.656 13.216 0 0 10.62 24.19 8.142 45.667 0 0-.104 1.77-3.658 4.01 0 0-21.24 10.266-54.871 9.558 0 0-35.991-1.652-56.877-10.974 0 0-2.95-.708-3.068-7.552 0 0 1.062-29.972 10.148-43.42 0 0 2.596-3.54 8.732-5.9.001 0 21.01-6.373 22.421-11.801"/><path fill="url(#1)" d="m46.05 103.75c0 0 7.168 38.23 13.364 43.01 0 0 10.611-24.25 13.182-43.01 0 0-6.456-12.39-13.536-13.01 0-.001-5.134-.089-13.01 13.01"/><path fill="#010101" d="m58.927 90.68c0 0-.072 0-.213.027-.983.181-5.353 1.619-12.558 12.985-.031.048-.061.097-.092.146 0 0-5.192-23.335-5.02-29.707 0 0 1.029-3.048 1.029-3.844.001-.001 2.6 16.735 16.849 20.393"/><path fill="#1197d4" d="m83.35 48.818c0 12.854-11.978 29.56-24.604 29.56-10.9 0-23.01-15.587-23.01-29.382 0-17.01 2.37-32.876 23.364-32.876 30.28-.001 24.25 30.919 24.25 32.698"/><path fill="#0572ba" d="m42.16 67.5c4.493 6.338 10.718 10.873 16.595 10.873 6.382 0 12.596-4.272 17.18-10.154-1.694 1.762-16.995 16.679-33.779-.719"/><path fill="#010101" d="m58.927 90.68c0 0 5.354-.487 13.673 13.231 0 0 4.908-23.408 4.731-29.781 0 0-1.087-3.837-1.087-4.634 0 0-3.069 17.201-17.317 21.18"/><path d="m52.827 132.27c0-1.6 0-3.2 0-4.8.11-.858.205-1.717.333-2.572 1.052-7.02 2.116-14.03 3.151-21.05.051-.347-.084-.75-.221-1.092-.914-2.281-1.87-4.545-2.764-6.833-.126-.324-.119-.818.043-1.116.737-1.358 1.733-2.478 3.206-3.101.684-.289 1.342-.638 2.01-.96.4 0 .8 0 1.2 0 2.351.84 4.538 1.946 6.24 3.84 0 .4 0 .8 0 1.2-.163.384-.333.766-.489 1.153-.671 1.658-1.144 3.437-2.067 4.941-.771 1.256-.987 2.349-.485 3.663.071.185.105.384.143.58 1.524 7.858 2.188 15.815 2.602 23.79.086 1.663-.211 3.445-.764 5.02-1.357 3.872-2.962 7.656-4.478 11.472-.197.497-.453.97-.754 1.608-.404-.588-.755-.982-.975-1.44-.95-1.974-1.94-3.934-2.768-5.959-1.126-2.754-2.117-5.563-3.165-8.349"/><g fill="#010101"><path d="m41.05 74.13c0 0 7.02 63.22 22.774 79.33 0 0-7.699-.383-8.408-.383 0 0-17.02-18.231-31-56.29l7.789-6.196-5.753-5.428c0 0 7.169-1.121 14.603-11.03"/><path d="m77.13 73.66c0 0 3.393 10.206 14.898 11.799l-5.664 5.842 7.788 5.841c0 0-12.921 38.23-30.444 56.11 0 0-3.304-2.714-4.367-5.9-.001 0 12.478-25.607 17.789-73.69"/><path d="m96.92 27.891c-5.358-1.894-10.841-4.08-16.4-6.46-6.204-6.942-12.5-14.13-18.835-21.431-4.051 3.097-7.628 7.514-11.677 10.626-5.103.181-10.675-.943-15.77-.749-.228 9.666-.502 19.216-.86 28.519-2.767 5.376-5.6 10.554-8.523 15.429 25.13-5.199 49.39-13.931 72.06-25.934"/></g><path fill="#fff" d="m85.33 23.44c-1.595-.654-3.195-1.321-4.803-2.01-.843-.944-1.692-1.903-2.539-2.855l-44.47 16c-.046 1.273-.089 2.554-.138 3.818-.801 1.556-1.609 3.089-2.421 4.609l54.37-19.566"/><path fill="#010101" d="m66.04 40.29c-1.322.499-2.212.958-2.212.958l2.212-.958"/></svg>