<svg xmlns="http://www.w3.org/2000/svg" viewBox="0 0 150 184" enable-background="new 0 0 150 184" xmlns:xlink="http://www.w3.org/1999/xlink"><defs><radialGradient id="3" cx="61.29" cy="-16.789" r="14.939" gradientTransform="matrix(1 0 0-1-6 89.01)" gradientUnits="userSpaceOnUse" xlink:href="#0"/><radialGradient id="4" cx="-5982.49" cy="-16.191" r="14.577" gradientTransform="matrix(-1 0 0-1-5889.36 89.01)" gradientUnits="userSpaceOnUse" xlink:href="#0"/><radialGradient id="2" cx="49.658" cy="70.38" r="1.969" gradientTransform="matrix(1 0 0-1-6 89.01)" gradientUnits="userSpaceOnUse" xlink:href="#0"/><radialGradient id="0" cx="80.7" cy="-44.918" r="63.6" gradientTransform="matrix(1 0 0-1-6 89.01)" gradientUnits="userSpaceOnUse"><stop offset=".537" stop-color="#fff"/><stop offset=".89" stop-color="#fbfbfc"/><stop offset="1" stop-color="#f6f6f7"/></radialGradient><radialGradient id="1" cx="46.932" cy="74.927" r="1.666" gradientTransform="matrix(1 0 0-1-6 89.01)" gradientUnits="userSpaceOnUse" xlink:href="#0"/></defs><path fill="url(#0)" d="m149.41 160.68c0 0-.009-.225-.026-.608.209-10.09-1.48-20.252-3.578-28.798-1.571-7.625-3.81-15.394-6.988-21.505-.07-.164-.114-.266-.114-.266-.199-.442-.461-.879-.755-1.314-.418-.726-.846-1.433-1.295-2.097 0 0-3.264-4.45-10.978-7.417 0 0-1.061-.303-2.759-.837-6.603-3.03-12.695-4.95-12.695-4.95-3.169-1.116-5.574-2.223-7.407-3.259-2.989-1.755-5.199-3.607-5.668-5.405 0 0-.015.039-.038.097-.106-.304-.114-.473-.114-.473-8.25 16.261-15.816 22.1-22.288 22.542-6.472-.445-14.04-6.281-22.288-22.542 0 0-.008.169-.114.473-.023-.059-.038-.097-.038-.097-.469 1.797-2.679 3.65-5.668 5.405-1.833 1.037-4.238 2.143-7.407 3.259 0 0-6.092 1.92-12.695 4.95-1.698.533-2.759.837-2.759.837-7.714 2.966-10.978 7.417-10.978 7.417-.449.665-.877 1.372-1.295 2.097-.294.435-.556.873-.755 1.314 0 0-.045.103-.114.266-3.177 6.111-5.416 13.88-6.988 21.505-2.099 8.547-3.787 18.708-3.578 28.799-.016.382-.025.607-.025.607.014.796.066 1.506.135 2.176.077 1.357.181 2.711.336 4.055 0 0 .13 2.225 4.599 5.04 0 0 26.701 12.905 68.978 12.01 0 0 .23-.011.655-.034.424.023.655.034.655.034 42.28.89 68.978-12.01 68.978-12.01 4.468-2.818 4.599-5.04 4.599-5.04.155-1.344.259-2.698.336-4.055.068-.67.121-1.38.134-2.176"/><g fill="#010101"><path d="m40.09 181.54c2.847.479 5.639.904 8.329 1.279v-94.91c-2.2 1.613-5.187 3.192-8.329 4.623 0 0 0 89.01 0 89.01"/><path d="m100.98 182.82c2.906-.326 5.68-.708 8.329-1.128v-89.14c-3.872-1.43-6.52-2.848-8.329-4.118v94.38"/></g><g fill="#1197d4"><path d="m100.89 88.4c.064-.313.089-.487.089-.487-1.696-1.071-2.885-2.27-3.713-3.501-.83-1.63-1.498-3.873-1.641-6.905.209-2.032.867-3.443.867-3.443-.291.302-.581.592-.871.879.002-.048 0-.089.003-.138 0 0-8.671 9.617-20.927 9.8-12.256-.183-20.927-9.8-20.927-9.8.003.048 0 .09.003.138-.29-.287-.58-.577-.871-.879 0 0 .657 1.41.867 3.443-.143 3.03-.811 5.274-1.641 6.905-.828 1.231-2.02 2.43-3.713 3.501 0 0 .025.174.089.487-.054.027-.089.043-.089.043.055.106.111.203.166.308.765 3.331 4.637 15.582 20.399 18.2 2.877.684 4.99.591 5.717.525.728.066 2.841.159 5.717-.525 15.762-2.614 19.634-14.866 20.399-18.2.055-.105.111-.202.166-.308.001 0-.035-.016-.089-.043"/><path d="m104.32 51.624c0 16.16-15.06 37.16-30.929 37.16-13.703 0-28.926-19.595-28.926-36.937 0-21.378 2.979-41.33 29.371-41.33 38.06-.001 30.484 38.869 30.484 41.11"/></g><path fill="#0572ba" d="m53.47 75.11c5.648 7.968 13.474 13.668 20.862 13.668 8.02 0 15.835-5.37 21.602-12.765-2.13 2.216-21.364 20.968-42.464-.903"/><path fill="#010101" d="m105.9 26.35c0 0 7.498-8.329 7.611-11.812s-10.337-14.538-38.807-14.538-38.919 11.05-38.807 14.538 7.611 11.812 7.611 11.812h62.39"/><path fill="#fff" d="m105.9 24.349c-15.295-10.146-31.2-9.389-31.2-9.389s-15.901-.757-31.2 9.389c0 0-13.02 15.295-4.998 16.658 8.03 1.363 25.14-11.207 36.19-11.207s28.17 12.569 36.19 11.206-4.998-16.657-4.998-16.657"/><path fill="#010101" d="m105.9 26.35c-15.295-10.146-31.2-9.389-31.2-9.389s-15.901-.757-31.2 9.389c0 0-13.02 15.295-4.998 16.658 8.03 1.363 25.14-11.206 36.19-11.206s28.17 12.569 36.19 11.206c8.03-1.362-4.998-16.658-4.998-16.658"/><circle fill="url(#1)" cx="40.932" cy="14.08" r="1.666"/><circle fill="url(#2)" cx="43.658" cy="18.627" r="1.969"/><path fill="url(#3)" d="m66.14 107.26c.177-.033.268-.033.268-.033-11.02-2.829-15.39-12.843-17.973-19.39-.966.618-3.133 2.029-4.261 2.624 1.157 11.08 6.06 33.31 6.06 33.31.039-.061.077-.122.116-.183 9.06-14.288 14.549-16.1 15.785-16.324"/><path fill="#e7e7e7" d="m67.13 107.06c0 0-5.896 2.076-11.05 8.455 0 0-4.326 5.173-5.816 8.176 0 0 5.66-13.682 16.867-16.631"/><path fill="url(#4)" d="m82.29 106.06c-.177-.033-.268-.033-.268-.033 11.02-2.829 16.4-11.645 18.983-18.19.966.618 2.105 1.167 3.233 1.762-1.157 11.08-6.05 32.97-6.05 32.97-.039-.061-.077-.122-.116-.183-9.06-14.289-14.549-16.1-15.785-16.324"/><path fill="#e7e7e7" d="m81.3 105.86c0 0 5.896 2.076 11.05 8.455 0 0 4.326 5.173 5.816 8.176 0 0-5.66-13.681-16.867-16.631"/><path fill="#1197d4" d="m63.28 103.31h22.84l-11.42 28.61z"/></svg>