<svg xmlns="http://www.w3.org/2000/svg" width="148.99" height="189.88" viewBox="0 0 148.989 189.885" enable-background="new 0 0 148.989 189.885" xmlns:xlink="http://www.w3.org/1999/xlink"><defs><radialGradient id="5" cx="75.69" cy="35.961" r="22.925" gradientTransform="matrix(.9972 0 0 1-1.145 0)" gradientUnits="userSpaceOnUse" xlink:href="#2"/><radialGradient id="4" cx="87.16" cy="105.89" r="17.47" gradientTransform="matrix(.9972 0 0 1-1.145 0)" gradientUnits="userSpaceOnUse" xlink:href="#2"/><radialGradient id="2" cx="75.72" cy="145.36" r="27.03" gradientTransform="matrix(.9972 0 0 1-1.145 0)" gradientUnits="userSpaceOnUse"><stop offset=".537" stop-color="#fff"/><stop offset=".89" stop-color="#fbfbfc"/><stop offset="1" stop-color="#f6f6f7"/></radialGradient><radialGradient id="3" cx="63.987" cy="106.34" r="16.898" gradientTransform="matrix(.9972 0 0 1-1.145 0)" gradientUnits="userSpaceOnUse" xlink:href="#2"/></defs><g fill="#3d3e3e"><path d="m103.53 46.905v6.888c0 0 28.15-9.707 27.13-13.777l-27.13 6.889"/><path d="m22.975 42.633c0 0 5.588 9.586 23.56 12.929l-.552-7.902-23.01-5.03"/></g><path fill="#010101" d="m51.774 89.71c0 0 19.434 50.43 45.03-.149 0 0 .093 4.599 13.11 9.197 0 0 24.408 7.714 28.402 16.614 0 0 13.313 30.41 10.207 57.41 0 0-.13 2.225-4.586 5.04 0 0-26.627 12.905-68.786 12.02 0 0-45.12-2.077-71.3-13.795 0 0-3.698-.89-3.846-9.494 0 0 1.331-37.679 12.721-54.59 0 0 3.255-4.45 10.947-7.416 0 0 26.331-8.01 28.11-14.834"/><path fill="#1197d4" d="m52.2 80.83c0 0 2.362 9.618-6.07 14.958 0 0 4.881 18.84 28.11 19.285 0 0 18.344 2.373 29.29-18.988 0 0-8.407-2.985-7.815-14.11-.001 0-21.17 22.14-43.511-1.144"/><path fill="#3d3e3e" d="m51.45 74.85l-40.924 6.904c12.09 3.241 17.935 9.839 18.887 13.668l-11.7 8.02c0 0 44.639 41.33 54.3 74.78 0 .002-14.284-50.896-20.558-103.37" id="0"/><path fill="#3d3e3e" d="m95.91 74.85l40.4 6.904c-12.09 3.241-17.935 9.839-18.887 13.668l11.7 8.02c0 0-32.3 27.25-51.698 74.78-.001.002 17.776-49.844 18.49-103.37" id="1"/><use xlink:href="#0"/><path fill="#010101" d="m60.804 151.82c-4.911-7.316-10.838-15.05-17.761-23.18-8.963-10.519-17.245-18.9-21.71-23.262l10.662-7.305-.638-2.565c-.939-3.774-4.352-8.232-10.218-11.913l26.523-4.475c-1.215 26.924 6.918 52.708 13.14 72.7"/><use xlink:href="#1"/><path fill="#010101" d="m90.47 148.85c4.408-19.21 12.303-43.913 9.495-69.805l25.76 4.403c-5.928 3.71-9.377 8.209-10.324 12.02l-.642 2.583 10.627 7.281c-6.627 6.275-21.04 21.14-34.916 43.521"/><path fill="url(#2)" d="m57.729 127.33c0 0 9.892 46.42 17.659 52.43 0 0 12.396-28.848 15.619-52.43 0 0-8.093-15.575-16.969-16.354 0 0-6.435-.112-16.309 16.354"/><path d="m73.63 111.5c.48 0 .96 0 1.44 0 .388.162.768.349 1.166.482 2.501.836 4.816 1.962 6.514 4.078 0 .24 0 .48 0 .72-.089.166-.214.322-.263.5-.887 3.242-1.913 6.418-3.886 9.21-.223.315-.151.908-.08 1.351.752 4.682 1.668 9.343 2.265 14.04.623 4.907.987 9.848 1.379 14.782.17 2.139.596 4.413.09 6.421-1.244 4.934-2.93 9.758-4.503 14.606-.743 2.29-1.635 4.531-2.46 6.794-.597-.618-.936-1.235-1.166-1.89-1.691-4.809-3.338-9.634-5.05-14.437-.833-2.345-1.764-4.654-2.651-6.98 0-1.84 0-3.68 0-5.52.082-.503.186-1 .242-1.51.451-4.04.776-8.094 1.366-12.11.711-4.843 1.656-9.652 2.464-14.482.077-.461.005-1.012-.181-1.442-.961-2.218-2.158-4.349-2.941-6.624-1.159-3.367-.76-4.199 2.309-6.087.909-.559 1.924-.948 2.892-1.412.348-.168.699-.328 1.049-.492"/><path fill="url(#3)" d="m73.872 110.89c0 0-.09.001-.267.033-1.232.228-6.711 2.035-15.742 16.324-.038.061-.077.122-.116.183 0 0-6.509-29.334-6.286-37.34 0 0 1.29-3.831 1.29-4.832 0 0 3.258 21.04 21.12 25.637"/><path fill="#1197d4" d="m104.49 58.26c0 16.16-15.02 37.16-30.843 37.16-13.665 0-28.846-19.595-28.846-36.937 0-21.378 2.971-41.33 29.29-41.33 37.958-.001 30.399 38.869 30.399 41.1"/><path fill="#0572ba" d="m52.846 81.75c5.632 7.968 13.436 13.668 20.804 13.668 8 0 15.791-5.37 21.542-12.765-2.124 2.216-21.305 20.968-42.35-.903"/><path fill="url(#4)" d="m73.872 110.89c0 0 6.712-.612 17.14 16.633 0 0 6.885-27.914 6.663-35.925 0 0-2.095-6.336-2.095-7.337 0-.001-3.847 21.622-21.708 26.629"/><g fill="#e7e7e7"><path d="m74.19 110.89c0 0 5.88 2.076 11.02 8.456 0 0 4.314 5.173 5.799 8.175 0 0-5.645-13.68-16.819-16.631"/><path d="m74.59 110.72c0 0-5.88 2.076-11.02 8.455 0 0-4.314 5.173-5.8 8.176 0 0 5.645-13.682 16.82-16.631"/></g><path fill="#010101" d="m71.67 9.06c0 0-10.29-9.01-16.523-8.284s-6.812 35.899-13.334 39.678c0 0-13.914 3.343-18.842 2.18 0 0 26.523 8.43 52.756 8.43s54.93-11.05 54.93-11.05.58-1.453-3.189-1.453c-3.768 0-20.291 5.378-22.32 1.599-2.029-3.779-9.421-38.22-12.754-39.968-3.332-1.745-20.724 8.864-20.724 8.864"/><path fill="url(#5)" d="m105.58 40.666c-.176-.147-.327-.311-.431-.504-.659-1.227-1.884-5.689-3.351-11.214-4.414-.611-12.699-1.286-27.81-1.286-14.14 0-22.609 1.182-27.514 2.335-.946 4.02-2.027 7.397-3.401 9.251 5.274 1.275 17.569 3.962 30.77 4.837 14.09.936 27.15-2.164 31.737-3.419"/></svg>