<svg xmlns="http://www.w3.org/2000/svg" viewBox="0 1000 400 200" enable-background="new 0 1000 400 200"><g fill="#0089cf"><path d="m50 1000c-27.6 0-50 22.4-50 50 0 27.6 22.4 50 50 50s50-22.4 50-50c0-27.6-22.4-50-50-50m10.7 50h-6.9c0 11.2 0 24.9 0 24.9h-10.5c0 0 0-13.6 0-24.9h-5v-8.9h5v-5.7c0-4 1.9-10.4 10.4-10.4h7.6v8.6c0 0-4.8 0-5.5 0-1 0-2.2.4-2.2 2.3v5.1h8l-.9 9"/><path d="m150 1000c-27.6 0-50 22.4-50 50 0 27.6 22.4 50 50 50s50-22.4 50-50c0-27.6-22.4-50-50-50m19.8 39.8c0 .4 0 .8 0 1.4 0 13.6-10.3 29.2-29.2 29.2-5.8 0-11.2-1.7-15.7-4.6.8.1 1.7.1 2.4.1 4.9 0 9.1-1.7 12.7-4.5-4.5-.1-8.4-3.1-9.6-7.1.5.1 1.3.1 1.9.1 1 0 1.8-.1 2.7-.4-4.8-1-8.2-5.1-8.2-10v-.1c1.4.8 3 1.3 4.6 1.3-2.8-1.8-4.6-5-4.6-8.5 0-1.9.5-3.6 1.4-5.1 5 6.3 12.6 10.3 21.1 10.7-.1-.6-.3-1.5-.3-2.3 0-5.7 4.6-10.3 10.3-10.3 3 0 5.5 1.3 7.5 3.2 2.3-.4 4.6-1.3 6.6-2.4-.8 2.3-2.3 4.5-4.5 5.7 2.1-.3 4-.8 5.8-1.7-1.2 2-2.8 3.8-4.9 5.3"/><path d="m253.1 1046.4c-.3-.1-.3-.1 0 0"/><path d="m250 1000c-27.6 0-50 22.4-50 50 0 27.6 22.4 50 50 50s50-22.4 50-50c0-27.6-22.4-50-50-50m-13.6 73.9h-10.7v-32.3h10.7v32.3m-5.4-36.8c-3.6 0-5.9-2.4-5.9-5.5 0-3.2 2.3-5.5 6.2-5.5 3.6 0 5.9 2.3 5.9 5.5-.2 3.1-2.5 5.5-6.2 5.5m43.9 36.8h-10.7v-17.2c0-4.2-1.5-7.3-5.4-7.3-3 0-4.8 1.9-5.5 3.9-.3.6-.4 1.7-.4 2.7v18h-10.7c0 0 .1-29.2 0-32.3h10.8v4.6c1.4-2.2 4-5.3 9.8-5.3 7.1 0 12.3 4.6 12.3 14.4v18.5h-.2"/></g><path fill="#0d74bb" d="m50 1100c-27.6 0-50 22.4-50 50s22.4 50 50 50 50-22.4 50-50-22.4-50-50-50"/><g opacity=".1"><path fill="#000101" d="m69.7 1159h-6.9c0 11.2 0 24.9 0 24.9h-10.5c0 0 0-13.6 0-24.9h-5v-8.9h5v-5.7c0-4 1.9-10.4 10.4-10.4h7.6v8.6c0 0-4.8 0-5.5 0-1 0-2.2.4-2.2 2.3v5.1h8l-.9 9"/></g><path fill="#fff" d="m60.7 1150h-6.9c0 11.2 0 24.9 0 24.9h-10.5c0 0 0-13.6 0-24.9h-5v-8.9h5v-5.7c0-4 1.9-10.4 10.4-10.4h7.6v8.6c0 0-4.8 0-5.5 0-1 0-2.2.4-2.2 2.3v5.1h8l-.9 9"/><path fill="#29abe2" d="m150 1100c-27.6 0-50 22.4-50 50s22.4 50 50 50 50-22.4 50-50-22.4-50-50-50"/><g opacity=".1"><path fill="#000101" d="m178.8 1148.8c0 .4 0 .8 0 1.4 0 13.6-10.3 29.2-29.2 29.2-5.8 0-11.2-1.7-15.7-4.6.8.1 1.7.1 2.4.1 4.9 0 9.1-1.7 12.7-4.5-4.5-.1-8.4-3.1-9.6-7.1.5.1 1.3.1 1.9.1 1 0 1.8-.1 2.7-.4-4.8-1-8.2-5.1-8.2-10v-.1c1.4.8 3 1.3 4.6 1.3-2.8-1.8-4.6-5-4.6-8.5 0-1.9.5-3.6 1.4-5.1 5 6.3 12.6 10.3 21.1 10.7-.1-.6-.3-1.5-.3-2.3 0-5.7 4.6-10.3 10.3-10.3 3 0 5.5 1.3 7.5 3.2 2.3-.4 4.6-1.3 6.6-2.4-.8 2.3-2.3 4.5-4.5 5.7 2.1-.3 4-.8 5.8-1.7-1.2 2-2.9 3.8-4.9 5.3"/></g><path fill="#fff" d="m169.8 1139.8c0 .4 0 .8 0 1.4 0 13.6-10.3 29.2-29.2 29.2-5.8 0-11.2-1.7-15.7-4.6.8.1 1.7.1 2.4.1 4.9 0 9.1-1.7 12.7-4.5-4.5-.1-8.4-3.1-9.6-7.1.5.1 1.3.1 1.9.1 1 0 1.8-.1 2.7-.4-4.8-1-8.2-5.1-8.2-10v-.1c1.4.8 3 1.3 4.6 1.3-2.8-1.8-4.6-5-4.6-8.5 0-1.9.5-3.6 1.4-5.1 5 6.3 12.6 10.3 21.1 10.7-.1-.6-.3-1.5-.3-2.3 0-5.7 4.6-10.3 10.3-10.3 3 0 5.5 1.3 7.5 3.2 2.3-.4 4.6-1.3 6.6-2.4-.8 2.3-2.3 4.5-4.5 5.7 2.1-.3 4-.8 5.8-1.7-1.2 2-2.8 3.8-4.9 5.3"/><path fill="#ed7523" d="m250 1100c-27.6 0-50 22.4-50 50s22.4 50 50 50 50-22.4 50-50-22.4-50-50-50"/><g opacity=".1"><path fill="#000101" d="m234.7 1150.6h10.7v32.3h-10.7z"/></g><path fill="#fff" d="m225.7 1141.6h10.7v32.3h-10.7z"/><g opacity=".1"><path fill="#000101" d="m240 1146.1c-3.6 0-5.9-2.4-5.9-5.5 0-3.2 2.3-5.5 6.2-5.5 3.6 0 5.9 2.3 5.9 5.5-.2 3.1-2.5 5.5-6.2 5.5"/></g><path fill="#fff" d="m231 1137.1c-3.6 0-5.9-2.4-5.9-5.5 0-3.2 2.3-5.5 6.2-5.5 3.6 0 5.9 2.3 5.9 5.5-.2 3.1-2.5 5.5-6.2 5.5"/><g opacity=".1"><path fill="#000101" d="m283.9 1182.9h-10.7v-17.2c0-4.2-1.5-7.3-5.4-7.3-3 0-4.8 1.9-5.5 3.9-.3.6-.4 1.7-.4 2.7v18h-10.7c0 0 .1-29.2 0-32.3h10.8v4.6c1.4-2.2 4-5.3 9.8-5.3 7.1 0 12.3 4.6 12.3 14.4v18.5h-.2"/></g><path fill="#fff" d="m274.9 1173.9h-10.7v-17.2c0-4.2-1.5-7.3-5.4-7.3-3 0-4.8 1.9-5.5 3.9-.3.6-.4 1.7-.4 2.7v18h-10.7c0 0 .1-29.2 0-32.3h10.8v4.6c1.4-2.2 4-5.3 9.8-5.3 7.1 0 12.3 4.6 12.3 14.4v18.5h-.2"/><path fill="#0089cf" d="m350 1000c-27.6 0-50 22.4-50 50 0 27.6 22.4 50 50 50s50-22.4 50-50c0-27.6-22.4-50-50-50m-26.2 31.5c.1 0 .3-.1.3-.1h51.9c.1 0 .4.1.5.1l-26.5 23.5-26.2-23.5m55.9 33.3c0 .6-.1 1.3-.4 1.8l-18.5-16.1 18.8-16.6c.1.4.3.8.3 1.3v29.6h-.2m-40.4-14.4l-18.6 15.9c-.3-.4-.3-1-.3-1.5v-29.7c0-.5.1-1 .3-1.4l18.6 16.7m36.5 18.2h-51.8-.1l18.4-15.7 8 7.1 8-7.1 17.5 15.7"/><path fill="#06ad4c" d="m350 1100c-27.6 0-50 22.5-50 50 0 27.6 22.4 50 50 50s50-22.5 50-50c0-27.6-22.4-50-50-50"/><g opacity=".1" fill="#000101"><path d="m332.6 1140.5c.1 0 .1-.1.3-.1h51.9c.1 0 .4.1.5.1l-26.3 23.5-26.4-23.5"/><path d="m388.7 1173.8c0 .6-.1 1.3-.4 1.8l-18.6-16.2 18.6-16.6c.1.4.3.8.3 1.3l.1 29.7"/><path d="m348.2 1159.4l-18.6 15.9c-.1-.4-.3-1-.3-1.5v-29.7c0-.5.1-1 .3-1.4l18.6 16.7"/><path d="m384.8 1177.6h-51.8-.1l18.1-15.8 7.9 7.2 7.8-7.2z"/></g><g fill="#fff"><path d="m323.7 1131.5c.1 0 .1-.1.3-.1h51.9c.1 0 .4.1.5.1l-26.4 23.5-26.3-23.5"/><path d="m379.7 1164.8c0 .6-.1 1.3-.4 1.8l-18.6-16.2 18.6-16.6c.1.4.3.8.3 1.3l.1 29.7"/><path d="m339.2 1150.4l-18.6 15.9c-.1-.4-.3-1-.3-1.5v-29.7c0-.5.1-1 .3-1.4l18.6 16.7"/><path d="m375.8 1168.6h-51.8-.1l18.1-15.8 7.9 7.2 7.8-7.2z"/></g></svg>