<svg xmlns="http://www.w3.org/2000/svg" viewBox="0 0 436.4 647.2" enable-background="new 0 0 436.4 647.2"><path fill="#001b46" d="m199.5 446.5c-4.8 6.3-4.9 24-14 26.4-9.6 2.6-12.2-3.9-20.1-4.1-5.7 4.2-11.5 8.5-17.2 12.7-4.2 1.7-11.4.8-16.8 1.7-2.5.7-5 1.4-7.5 2.2-.8.7-1.7 1.4-2.5 2.2 8.8-4.3 15.8-1.8 25.8-4.6 8.6-2.3 12.8-8.8 19.7-12.5 5.6.9 7.5 6.5 16.5 5 14.3-2.3 14.5-16.3 19.7-25 4.2-7 20.3-15.2 29.4-19.2.5 18.2 1 36.5 1.4 54.7-1.6 3.2-18.5 7.9-23.7 9.4-1.2 1-2.4 1.9-3.6 2.9 7.3-3.8 19.4-6.4 28-9.1 1.6 4.8-3.6 10.8-5.7 14.2-1.6 2.5-1.3 4.9-2.5 7.9-1.4 3.6-5.4 6.7-8.6 9.4-7.6 4.1-15.3 8.2-22.9 12.2-4.7 4-8.6 9.7-14.7 12.7-4.5 2.2-15.9-1.1-19 2.2 5.3-1.5 15-.3 20.1-1.7-7.1 7.2-12 13.9-11.8 26.4.1 0 .2 0 .4 0 .8-4.3 1.7-8.6 2.5-13 2.3-4.9 18.6-21.6 24-24.5 8.4-4.4 21.1-7.6 27.6-13.2 3.2-3.6 6.5-7.2 9.7-10.8.1-.2.2-.3.4-.5 4.3 6.9-3.5 12.7-6.1 16.8-3.9 6-5.5 12.9-7.5 20.2.1 0 .2 0 .4 0 1.3-3.8 2.6-7.5 3.9-11.3 2.9-4.6 5.7-9.1 8.6-13.7.2-.1.5-.2.7-.2.1 0 .2 0 .4 0-.4 20.2-.7 40.5-1.1 60.7 1.5 5.9 1.9 11.5 4.3 16.8 4.6 10.3 13.6 22.5 9.7 36.7-1.1 3.9-3.2 7.2-4.7 10.6 10.4-6.7 7.2-27.1 3.2-36.7-2.8-6.7-5-13.6-6.8-21.1-1.6-6.5-.3-14.9 1.1-20.6.8-8.9 1.7-17.8 2.5-26.6 1.4-17.1 2.9-34.2 4.3-51.4.1-.1.2-.2.4-.2.1 0 .2 0 .4 0 6.4 12.1 11.6 22.7 20.4 32.6 2.9 3.3 10.9 9.1 9.3 14.4-1 3.5-3.1 9.4-6.1 12-5.2 4.5-10.2 1.2-14.3 9.6 0 .2 0 .5 0 .7.1 0 .2 0 .4 0 2.5-5.8 9.4-5.9 15.1-9.4 3.9-2.4 5.5-8 7.2-11.8.1 0 .2 0 .4 0 4.5 3.6 2.6 10.9 4.3 16.3 3.6 11.6 3 28.8-1.1 39.8-3.6 9.7-8.7 19.1-6.8 30.7 1.9-3.3.1-10.4 1.8-14.2 8.7-19.1 16-50.6 5.7-73-2.6-5.6-7.1-10-11.1-14.6-10.4-11.9-22.2-32.6-21.9-51.1 2.4 1.9 4.8 3.8 7.2 5.8 7.5 3.6 19-1.5 21.1-5 0-.1 0-.2 0-.2-2.7 1.3-4.1 3.4-7.5 4.3-12.1 3.3-20-4.2-21.9-9.8.5-7.5 1-15 1.4-22.6-.6-9-1.2-18.1-1.8-27.1.2-.2.5-.3.7-.5.5 0 1 0 1.4 0 2.7 1.4 4.5 3.5 7.2 5 4-.4 6-2 9.3-2.9.1-.2.2-.3.4-.5-3.2.8-5.2 2-9.3 2.2-2.7-1.8-5.4-4.6-9.3-5.5-.3-1.7-1.1-3.6-.4-5.3 2.4-3.1 12.9-3.4 17.6-5 5.6-1.9 8-5 11.5-8.4 5.9.5 12 4.9 15.1 7.7-.2.7-.5 1.4-.7 2.2-1.1 1.5-5.1 2.8-7.5 3.4-.1.2-.2.5-.4.7 3.9-.5 9.6-2.1 10.8-4.6.2-.1.5-.2.7-.2 5.9 6.2 11.7 12.5 17.6 18.7 2.1 3 4.3 5.9 6.5 8.9 1.8 1.1 3.6 2.2 5.4 3.4 5.3 5.5 6.3 11.7 14.7 15.1 7.7 3.1 25.3.1 31.9 3.6 3.7 2 7.6 4.9 9 8.4 1.2 3.1.6 6.8 3.2 8.9 2 2.3 15.7 3.4 20.1 3.8-3.7-3.1-13-4-17.9-6.2-3.1-9-1.6-11.5-11.1-16.3-.1-.2-.2-.5-.4-.7.1-.1.2-.2.4-.2 4.1-.3 8.1-.6 12.2-1 4.1-1.1 5.4-4 10.4-4.6 4.1-.8 12.1 4.2 13.3 6.5.2.1.5.2.7.2-1.1-3.5-7.1-6.3-11.5-7.7-7.5.2-9.9 3.3-16.1 4.3-7.9 1.3-18.9-.2-26.9-.7 0-.1 0-.2 0-.2 7.5-5.9-.5-6.9 1.4-13-3.9 3 3.2 6.2 0 9.6-11.9 12.5-24.5-6.4-29-11.5 4.2-2.2 7.9-3.2 10.8-6.2 0-.1 0-.2 0-.2-3.1 1.4-6.2 2.9-9.3 4.3-5.3-.3-15.4-14.1-16.5-18 10.1-.5 30.8-11.7 35.1-16.1-8 2.5-25.8 17.8-37.3 13.9-8.4-4.2-18.4-25.5-36.2-22.8-9.4 1.4-8.6 9.9-25.4 10.1-.2-.1-.5-.2-.7-.2-1.1-2.9-.4-6.7-.4-10.3.4-9.9.7-19.8 1.1-29.8 8.6.5 9.5 1.4 18.3.2 1.6.6 3.1 1.3 4.7 1.9 0 .7 0 1.4 0 2.2 1.1-.8 1.5-1.5 1.4-3.1-1-.5-1.9-1-2.9-1.4-.2-.2-.5-.5-.7-.7 16.4-12.1 20.9.3 37.6 2.6 11 1.6 14.8-6.4 25.1-4.6 2.6 1.4 5.3 2.9 7.9 4.3-5.9-11.8-21.7 1.1-33.3-1.7-7.6-3.4-15.3-6.7-22.9-10.1-8.1-1.7-20.8-3.3-30.1-11.4l-1.3.3-2.6-3-2.6.7-2.6 3.8-2.6 3.8-2.6-.3-2.6-3.6-2.6 3.4-2.6-7.6-2.6 2.8-1.3.3c-1.2 6.2-3.8 16.6-5.3 17.9-2.7 2.5-5.2 6.5-10 7.4-16.2 3.2-29.1-13.3-46.2-1.4 5.9-1.3 12.5-3.4 19.7-1.4 7.6 2.1 16.4 9.9 29 7.2 5-1.1 9.3-4.1 13.3-6-2.8 15.3-.9 36.4-18.3 41.3-4.7 1.3-13.5 1.1-19.4 1.2 4.8 2 17.4 1 21.9-.2.1.1.2.2.4.2-6.8 6.2-18.9 7.2-29.4 11-3.2 1.4-6.5 2.9-9.7 4.3-2.3.2-6.9-2.4-7.9-3.4-4-3.8 2.6-8.2 2.1-12.2-.1 0-.2 0-.4 0-1.7 6.2-10.8 13.2 3.2 16.3-3.8 10.6-11.6-.3-22.2 3.1 1.8 0 3.6 0 5.4 0 4.1.5 6.4 1.8 9.3 2.9.1.2.2.5.4.7-5 5.8-10 11.5-15.1 17.3-5.4 6.9-10.8 13.8-16.1 20.6-3.3 3.3-8.4 5.6-11.8 8.6 10.8-3 15.4-11.3 21.1-17.8 10.2-11.5 20-26.3 35.5-34.3 6.9-3.6 16.2-4.2 25.1-6.5 10.1-2.6 20-9.1 24.4-15.4.4-.2.7-.3 1.1-.5.2 3.4.5 6.9.7 10.3.2 3.9.5 7.8.7 11.8-1 2.8-16.5 12.7-20.4 14.2-9.2-.2-10.3-3.8-9.7-9.6-6.8 4.5 1.2 9.2 6.1 11-1.6 3.8-6.7 6-8.9 8.9"/><path fill="#066f9e" d="m399.7 215c32.1-35.6 43-108.5 33.2-104.1 3.5-30-29-1.5-33.6 15.2-8 4.8-12.7 9.1-12.7 9.1-14.5 10.4-41.6 47.2-60 73.5 14.9-26.2 22-52.4 24.8-76.1 3.9-4.1 6.2-6.1 6.2-6.1 53.3-46.9 45.7-105 45.7-105-2.1 60.9-45.1 88.6-50.6 91.9 1.1-42.7-10.6-73.2-10.6-73.2 4.6 30.8 4.4 57.5 1.5 80.4-33.8 31.4-65.2 109.3-65.2 109.3 4.2-12 7.5-23.5 10-34.7 47.9-82.8 36.4-195.2 36.4-195.2-.2 62.8-14.2 113.6-29.8 150.8 2.7-38.6-3.1-70.2-10-92.8 14.9-21 28-33.8 28-33.8-11.8 8.2-21.9 16.8-30.6 25.7-6.8-19.5-13.5-30.2-13.5-30.2 4.6 11 8.2 22 10.9 33-10.8 11.4-19.2 23.2-25.8 35-.9 0-1.8.1-2.6.2-5-34.6-13.5-58.9-13.5-58.9 3.6 22.4 5.8 42.4 7 60.3-48 15.7-30.3 135.7-30.3 135.7-17.2-98.1-1.6-124.9-1.6-124.9 18.5-35.8 14.2-78.5 14.2-78.5.4 29.9-21.8 74.7-21.8 74.7-15 30.6-7.4 99.9-3.3 129.4-5.8-32.8-16.7-57-28.8-74.7 1.1-45.5 15.1-76.8 15.1-76.8-14.4 20.1-21.2 43-23.5 65.5-21.7-26-43.7-33.3-43.7-33.3 18.8 13.4 32.6 29.4 42.8 45.8-.6 17 1.1 33.5 3.6 47.9-14-23.3-33.4-27.3-33.4-27.3-25.8 2.2-48.3-37.2-48.3-37.2 10.3 37.3 37 44.2 37 44.2 55 22.8 48.2 89.6 48.2 89.6-4.8-42-27.6-56.2-54.4-57.5-43.5-48.2-90.7-64.8-90.7-64.8 34.4 19 59.5 42.8 77.4 65.1-8.6.8-17.4 2.6-26 4.9-41.9-26.2-77.4-25.3-77.4-25.3 26.9 4.8 49.7 15 68.9 27.9-29.1 9.5-53.1 24.1-53.1 24.1 23-10.2 42.3-16.6 58.6-20.2 12 8.7 35 29.1 54.9 48.3l32 35 13 .5 67.7 4.2 63.9-5.2m86.7-160.6c-23.1 57-70 93.1-70 93.1 24.1-47.1 48.1-75.9 70-93.1zm-54.1 1.5c-14.4 57.3-45.7 82.9-45.7 82.9 14.1-38.5 32.3-65.9 45.7-82.9m-95.3 18.3c.3-5.4.9-10.8 1.7-16.1-.4 5.8-1 11.2-1.7 16.1m11.1-50.6c2.9-7.6 6.1-15 9.7-21.9 9-1.5 15.8.1 15.8.1-4.9-2.1-9.4-3.5-13.6-4.4 5.1-9.6 10.5-18.5 15.9-26.3 9.4 47.1 3.5 92.1-3.8 123-13.6 24.5-25 37.4-25 37.4-3-7.1-5.3-14.1-6.9-21.2 8.4-29 9.7-59.5 7.9-86.7m-8.8-14c.1 1.3.1 2.6.1 3.8-16.5 39.3-14.6 76.8-11.2 98.6-4.8 13.6-9.4 19.1-9.4 19.1-11.8-76.7 3.2-108.6 20.5-121.5m-52.6 148c-12.6-28.1-18-55.3-19.3-79.5 19.7 41.2 19.3 79.5 19.3 79.5m-33.2 18.3c-1.6-.4-3.3-.8-5-1.1-8.6-16.3-18.3-30.7-28.4-43.2 26.5 8.3 32.3 31.3 33.4 44.3m-75.3-45.7c9.5-1.5 17.9-1.9 25.1-1.5 17 22.9 18.5 36.5 22.8 47.3h.1c0 0 0 .1-.1.1-15.6-20.2-32.1-35-47.9-45.9m243.7 31.9c50.4-43.7 70.8-85 78.2-117.2 13-7.8 23.8-28 22.5 6.9-29.1 78.9-100.7 110.3-100.7 110.3"/><path fill="#001b46" d="m229.1 343.9l25.8 1.2c-.4-18.3 25-31.2 51-38.8l-2.3-4.9-2.6-.7-2.6-.7-2.6 2.7-2.6 4.6-2.6-3.6-2.6 3.2-2.6-5.6-2.6 3.1-2.6.8-2.6 2-2.6-1.4-2.6-2.1-2.4-.7-2.6.2-2.6-1.9-2.6 1.2-2.6-3.2-2.6 2.4-2.6.7-2.6-3-2.6.7-2.6 3.8-2.6 3.8-2.6-.3-2.6-3.6-2.6 3.4-2.6-7.6-2.6 2.8-2.6.5-2.6-2.1-2.6-.3-2.6 3.7-2.6 1.9-2.6-6.8-2.6.6-2.6-1-2.6 8.4-2.6-1.6-2.6-6-2.6 5.8-2.6 1.8-2.6-5.6-2.6-1.1-2.6 3.5-2.6-.1-2.6 3.2-2.6-4.6-2.6-.4-2.6 3.6-2.6 1.5-2.6-7.6-2.6 1.5-2.6-.4-2.6-1.7-2.6 7.7c80.1 1.3 68.3 37.1 68.3 37.1"/></svg>