<svg xmlns="http://www.w3.org/2000/svg" viewBox="0 0 2000 560" enable-background="new 0 0 2000 560" xmlns:xlink="http://www.w3.org/1999/xlink"><path fill="#001b46" d="m2000 6.7l-1.7.9-2.6-5.4-2.6-.3-2.6 2.8-2.6 1.1-2.6 3.6-2.6-4.2-2.6 3.3-2.6-3.1-2.6 4.4-2.6-9.1-2.6 5.8-2.6 2.8-2.5-1.7-2.6-6-2.6 3.3-2.6-3.9-2.6 5.4-2.6-3.4-2.6 7.1-2.6-9.6-2.6.6-2.6 2.4-2.6 3.4-2.6.2-2.6 1.5-2.6-.9-2.6-3.3-2.6 4.9-2.6-1.5-2.6-4.7-2.6 4.8-2.5-7.5-2.6 5.5-2.6 1.9-2.6 2.1-2.6-5.8-2.6.8-2.6 4.2-2.6-8.6-2.6 5.1-2.6 1.3-2.6 1.9-2.6-5.5-2.6 7.6-2.5-3.1-2.6-1.3-2.6-1.6-2.6 3.9-2.6-.4-2.6-1.9-2.6-1.8-2.6 1.4-2.6-1.5-2.6 3.6-2.6-.9-2.6-1.8-2.6.3-2.6-2.9-2.6 7.4-2.5-10-2.6 10.5-2.6-9.8-2.6 6-2.6 2.3-2.6-6.2h-2.6l-2.6-2.6-2.6 4.3-2.6-3.5-2.6 4.2-2.6 1.7-2.6 3.4-2.6-.5-2.6-3.5-2.6-5.8-2.5 2.5-2.6 2.1-2.6 3.1-2.6-4.1-2.6-.5-2.6 1.6-2.6-4.4-2.6 9.3-2.6-7.1-2.6.4-2.6 5.4-2.6.2-2.6.2-2.6-1.3-2.6-2.2-2.5.4-2.6-1.8-2.6 5.2-2.6-6.5-2.6-2.6-2.6 9.6-2.6-5.9-2.6 5-2.6-8.8-2.6 4.5-2.6 2.6-2.6-2.8-2.6 4.3-2.6-5.4-2.5 2-2.6 1.9-2.6.1-2.6 1.5-2.6-.6-2.6-2.7-2.6-3-2.6-.7-2.6 4.4-2.6-.5-2.6-4.4-2.6 8.4-2.6-1.6-2.6-2.2-2.5-4.9-2.6 3.1-2.6 1.4-2.6-4.6-2.6-.2-2.6 4.8-2.6 2.6-2.6-5.2-2.6-1.5-2.6 3-2.6 1.2-2.5-6-2.6.8-2.6-.6-2.6 2.3-2.6 5.2-2.6-4.8-2.6 2.6-2.6 4.5-2.6.5-2.6-10.5-2.6 6.1-2.6.3-2.6 2.9-2.5-4-2.6-3.5-2.6 4.7-2.6-2.5-2.6 3.8-2.6 2.7-2.6-.7-2.6-8.8-2.6 9.3-2.6-8.4-2.5 6.4-2.6-7-2.6 1.9-2.6 4.7-2.6-5.4-2.6 4.2-2.6.3-2.6 2.1-2.6-7.6-2.6 8.3-2.5-7-2.6 3.2-2.6 4.6-2.6-5.7-2.6-3.6-2.6 5.7-2.6-3.8-2.6 5.8-2.6-1.4-2.6-5.4-2.6-1.3-2.6 7.3-2.5 2.1-2.6-6.1-2.6 3.9-2.6-2.9-2.6-2.7-2.6 5.7-2.6-7.3-2.6 5.2-2.6-4.2-2.5 3.6-2.6 5-2.6-7.4-2.6 6.3-2.6-7.6-2.6-1.3-2.6 8.5-2.6-2.2-2.5 3.4-2.6-7.3-2.6.2-2.6 4.4-2.6-3.9-2.6 1-2.6 5.2-2.6-9.7-2.6 3-2.6 3.1-2.6-2.9-2.5 2.2-2.6-1.3-2.6 3.1-2.6-3.2-2.6-3.9-2.6 3.7-2.6-3.9-2.6 4.7-2.6-1.5-2.6 2.1-2.5 4.5-2.6-6.9-2.6-.9-2.6-.8-2.6 3.3-2.6 5.7-2.6-4.5-2.6 4-2.6-6.9-2.5 3.8-2.6 1-2.6 2.5-2.6-1.7-2.6-2.6-2.6-.9-2.6.2-2.5-2.3-2.6 1.5-2.6-3.9-2.6 3-2.6.8-2.6-3.7-2.6.9-2.5 4.7-2.6 4.7-2.6-.4-2.6-4.4-2.6 4.1-2.6-9.4-2.6 3.5-2.5.7-2.6-2.7-2.6-.3-2.6 4.6-2.6 2.3-2.6-8.3-2.6.7-2.6-1.2-2.6 10.4-2.5-2-2.6-7.5-2.6 7.2-2.6 2.2-2.6-7-2.6-1.3-2.6 4.3-2.6-.1-2.6 3.9-2.6-5.7-2.6-.4-2.5 4.4-2.6 1.8-2.6-9.3-2.6 1.8-2.6-.5-2.6-2-2.6 9.5-2.6-.9-2.6.3-2.6-6.1-2.6.7-2.5-2.7-2.6 1.4-2.6 6.2-2.6 1.5-2.6-9.9-2.6 3.5-2.6 3.9-2.6.7-2.6 2.5-2.5-2.4-2.6-2.7-2.6-5.7-2.6 1.2-2.6 8.7-2.6.3-2.6-1.7-2.6 2-2.6-10-2.6 5-2.6-5.4-2.6 3.4-2.5-.9-2.6 5.4h-2.6l-2.6.2-2.6-4.3-2.6 5.9-2.6-5.2-2.6-.6-2.6 3.2-2.6 2.9-2.5.2-2.6-.7-2.6-8.6-2.6 9.6-2.6-6.2-2.6-3.3-2.6 5-2.6 2.7-2.6-.1-2.6-8.4-2.5 6.2-2.6 1.3-2.6-.4-2.6-.1-2.6-.8-2.6-6.4-2.6 5.9-2.6 2.9-2.6.7-2.6-.2-2.5-4.9-2.6 5.2-2.6.6-2.6-3.6-2.6-5.4-2.6 8.9-2.6-8.1h-2.6l-2.6 7.7-2.6-8.4-2.6 1.5-2.5 5.2-2.6-.1-2.6-.6-2.6-1.5-2.6-2.5-2.6-2.7-2.6 4.9-2.6 1.8-2.6-2.4-2.6-1-2.5 4.8-2.6-8.7-2.6 8.1-2.6-8.2-2.6 5.3h-2.6l-2.6-4.5-2.6 1.2-2.6 7.6-2.5 1.2-2.6-5.6-2.6-3-2.6 6.2-2.6.9-2.6-.2-2.6-.7-2.6.6-2.6-6.2-2.5 5-2.6.9-2.6-.8-2.6-3.9-2.6 6.4-2.6-7.6-2.6-2.7-2.6 10.6-2.6-8.3-2.6 4.2-2.6-6.5-2.5 4.6-2.6-3.9-2.6 2.8-2.6 3.3-2.6-.9-2.6 3.6-2.6-8.6-2.6 6.7-2.6-2-2.6-5.6-2.5 1.1-2.6 3.8-2.6-1.8-2.6 4.4-2.6-5.9-2.6 6.7-2.6-3.9-2.6 6.1-2.6-.8-2.5-9.8-2.6.9-2.6.8-2.6 7.6-2.6-.3-2.6-7.4-2.6-.4-2.6 7.6-2.6-8.7-2.5 8.7-2.6 1.8-2.6-.5-2.6-5.5-2.6 6-2.6-6.1-2.6-1.3-2.6 1.1-2.6 3.7-2.5-5.9-2.6 1-2.6 3.3-2.6-4.9-2.6-1-2.6 4.7h-2.6l-2.6 2.2-2.6.1-2.5-4.2-2.6 5.2-2.6-2.7-2.6 5-2.6-5.9-2.6 2.2-2.6-5.2-2.6-1.7-2.6-.1-2.6 2.6h-2.5l-2.6-1.5-2.6 3-2.6-.2-2.6.3-2.6 2.8-2.6-5.6-2.6 6.3-2.6 2.6-2.6-3.8-2.5-.7-2.6.4-2.6-5.9-2.6 6.5-2.6-5.5-2.6 3.6-2.6-2.9-2.6 6.2-2.6-6.9-2.6 3.5-2.5 5.9-2.6-5.5-2.6 4.1-2.6-.8-2.6-2.2-2.6-4.7-2.6-.7-2.6 5.2-2.5-6.3-2.6 7.3-2.6-2.7-2.6 5-2.6-.8-2.6-6.4-2.6 5.4-2.6-3.3-2.5-3.6-2.6 1.5-2.6 4.2-2.6 3.4-2.6-4.7-2.6-4.1h-2.6l-2.6 1.7-2.6 7.2-2.5.5-2.6-6.2-2.6 4-2.6-7.6-2.6.1-2.6 6.3-2.6-2-2.6-4.6-2.5 9.8-2.6-7.1-2.6 6.5-2.6-5.1-2.6-3.4-2.6 1-2.6-.9-2.6 9.4-2.6-7.6-2.5 2-2.6 2.2-2.6-3.2-2.6 6.7-2.6-8.6-2.6-2-2.6 1.4-2.6 3.2-2.6 4.5-2.5-7.8-2.6-.1-2.6 6.2-2.6.3-2.6-6.7-2.6 7.4-2.6.4-2.6-8.3-2.6-.4-2.6 5.8-2.6-3.5-2.5 1.2-2.6-1.3-2.6 4.5-2.6 1.5-2.6-5.8h-2.6l-2.6 1.1-2.6 5.2-2.6.7-2.5-6.7-2.6 2.8-2.6 4.4-2.6-2-2.6-.2-2.6-7.5-2.6 3.7-2.6-3.8-2.5 7.2-2.6 2.1-2.6.8-2.6-3.1-2.6-.5-2.6 3.6-2.6-4.7-2.6 3.7-2.5-5.1-2.6-3.8-2.6 6.9-2.6-3.7-2.6 5.7-2.6 1.1-2.6-1.2-2.5-6.9-2.6-2.1-2.6 5.3-2.6.3-2.6.9-2.6-5.4-2.6.2-2.6 4.9-2.5 3.9-2.6-3.9-2.6-6.3-2.6 5.3-2.6-4.7-2.6 1.6-2.6 1.1-2.6 3.7-2.5-6.5-2.6 5h-2.6l-2.6-2.9-2.6-2.1-2.6 6.9-2.6-2.3-2.5-4.2-2.6 6.5-2.6-7.7-2.6.6-2.6 8.7-2.6-1.9-2.6-7.3-2.6.6-2.5 9.1-2.6-9.5-2.6 8-2.6-3.8-2.6 2.6-2.6-1.3-2.6 4.4-2.6-9.2-2.6.2-2.5 9.5-2.6-7.8-2.6 5.9-2.6-.7-2.6-2.6-2.6-1-2.6-2-2.6 2.5-2.6 5.1-2.5-7.9-2.6 1-2.6 4-2.6-4.4-2.6 5.5-2.6-.6-2.6-5-2.6-1.1-2.6 2.2-2.6-2.4-2.5 3.8-2.6 2.4-2.6-4.8-2.6-2-2.6 6.1-2.6-4.8-2.6 7.5-2.6-9.4-2.6 3.2-2.5-.2-2.6-2.4-2.6 8.8-2.6-5.7-2.6-1.9-2.6-1.9-2.6 1.9-2.6.2-2.5.7-2.6 4.1-2.6-4.8-2.6 5.8-2.6 1.8-2.6.9-2.6-6.9-2.5-.4-2.6 3.8-2.6-3.7-2.6-2.9-2.6.7-2.6 7.4-2.6-3.3-2.6.8-2.5-.1-2.6-3.3-2.6 2.9-2.6 1.7-2.6.3-2.6 2.2-2.6-4.7-2.5-5.2-2.6 6.9-2.6-2.1-2.6-3.4-2.6 6.3-2.6-.3-2.5-1.3-2.6-4.2-2.6 2.9-2.6-1.4-2.6 5.8-2.6-5.2-2.6-2.1-2.5 6.7-2.6-8.4-2.6 7.9-2.6 1-2.6-6.7-2.6 7.8-2.6.4-2.5-5.5-2.6-2.3-2.6-2.7-2.6.9-2.6 5.9-2.6 3.5-2.6-5.4-2.5 3.6-2.6-7.9-2.6.3-2.6-.3-2.6 1.5-2.6 8.4-2.6-4.7-2.6 2.3-2.5-.1-2.6-5.5-2.6 5.9-2.6.2-2.6-1.1-2.6 1.3-2.6-5.2-2.5 6.4-2.6-8.6-2.6 4.6-2.6-3.1-2.6-2.6-2.6 9.9-2.6-.6-2.5-7-2.6 7.7-2.6-6-2.6-.8-2.6 2-2.6 3.3-2.6-4.8-2.6 2-2.6-2.5-2.5 2.8-2.6-4.7-2.6 7.6-2.6-8-2.6 1.5-2.6.7-2.6 2.5-2.6 2.8-2.6-6.7-2.5 4.9-2.6-.6-2.6 1-2.6-4-2.6-2.1-2.6 4.5-2.6-1.5-2.6.3-2.6 1.8-2.5-4-2.6-.2-2.6 2.5-2.6 2.2-2.6-.6-2.6-5.3-2.6 7.8-2.6-4.2-2.6 1-2.5-4.6-2.6-.9-2.6 1.7-2.6 4.2-2.6-3.4-2.6-.7-2.6 6.9-2.5-7.2-2.6 3.4-2.6 4-2.6-1.4-2.6-4.3-2.6-2.8-2.6 10.1-2.6-3.3-2.5-3.3-2.6 4.4-2.6-5.7-2.6 3.5-2.6 2.2-2.6-3.7-2.6.4-2.5-.2-2.6.4-2.6 4.4-2.6-5.6-2.6 1.1-2.6 5.2-2.6-7.4-2.5 5.8-2.6.8-2.6-5.9-2.6 2.3-2.6-5.2-2.6 8.8-2.5-1.2-2.6-8-2.6 10-2.6-10.1-2.6 5.5-2.6-4.6-2.5 7.7-2.6-.6h-2.6l-1.9-.4v276.3h2000z"/><path fill="#164382" d="m2000 6.7l-1.7.9-2.6-5.4-2.6-.3-2.6 2.8-2.6 1.1-2.6 3.6-2.6-4.2-2.6 3.3-2.6-3.1-2.6 4.4-2.6-9.1-2.6 5.8-2.6 2.8-2.5-1.7-2.6-6-2.6 3.3-2.6-3.9-2.6 5.4-2.6-3.4-2.6 7.1-2.6-9.6-2.6.6-2.6 2.4-2.6 3.4-2.6.2-2.6 1.5-2.6-.9-2.6-3.3-2.6 4.9-2.6-1.5-2.6-4.7-2.6 4.8-2.5-7.5-2.6 5.5-2.6 1.9-2.6 2.1-2.6-5.8-2.6.8-2.6 4.2-2.6-8.6-2.6 5.1-2.6 1.3-2.6 1.9-2.6-5.5-2.6 7.6-2.5-3.1-2.6-1.3-2.6-1.6-2.6 3.9-2.6-.4-2.6-1.9-2.6-1.8-2.6 1.4-2.6-1.5-2.6 3.6-2.6-.9-2.6-1.8-2.6.3-2.6-2.9-2.6 7.4-2.5-10-2.6 10.5-2.6-9.8-2.6 6-2.6 2.3-2.6-6.2h-2.6l-2.6-2.6-2.6 4.3-2.6-3.5-2.6 4.2-2.6 1.7-2.6 3.4-2.6-.5-2.6-3.5-2.6-5.8-2.5 2.5-2.6 2.1-2.6 3.1-2.6-4.1-2.6-.5-2.6 1.6-2.6-4.4-2.6 9.3-2.6-7.1-2.6.4-2.6 5.4-2.6.2-2.6.2-2.6-1.3-2.6-2.2-2.5.4-2.6-1.8-2.6 5.2-2.6-6.5-2.6-2.6-2.6 9.6-2.6-5.9-2.6 5-2.6-8.8-2.6 4.5-2.6 2.6-2.6-2.8-2.6 4.3-2.6-5.4-2.5 2-2.6 1.9-2.6.1-2.6 1.5-2.6-.6-2.6-2.7-2.6-3-2.6-.7-2.6 4.4-2.6-.5-2.6-4.4-2.6 8.4-2.6-1.6-2.6-2.2-2.5-4.9-2.6 3.1-2.6 1.4-2.6-4.6-2.6-.2-2.6 4.8-2.6 2.6-2.6-5.2-2.6-1.5-2.6 3-2.6 1.2-2.5-6-2.6.8-2.6-.6-2.6 2.3-2.6 5.2-2.6-4.8-2.6 2.6-2.6 4.5-2.6.5-2.6-10.5-2.6 6.1-2.6.3-2.6 2.9-2.5-4-2.6-3.5-2.6 4.7-2.6-2.5-2.6 3.8-2.6 2.7-2.6-.7-2.6-8.8-2.6 9.3-2.6-8.4-2.5 6.4-2.6-7-2.6 1.9-2.6 4.7-2.6-5.4-2.6 4.2-2.6.3-2.6 2.1-2.6-7.6-2.6 8.3-2.5-7-2.6 3.2-2.6 4.6-2.6-5.7-2.6-3.6-2.6 5.7-2.6-3.8-2.6 5.8-2.6-1.4-2.6-5.4-2.6-1.3-2.6 7.3-2.5 2.1-2.6-6.1-2.6 3.9-2.6-2.9-2.6-2.7-2.6 5.7-2.6-7.3-2.6 5.2-2.6-4.2-2.5 3.6-2.6 5-2.6-7.4-2.6 6.3-2.6-7.6-2.6-1.3-2.6 8.5-2.6-2.2-2.5 3.4-2.6-7.3-2.6.2-2.6 4.4-2.6-3.9-2.6 1-2.6 5.2-2.6-9.7-2.6 3-2.6 3.1-2.6-2.9-2.5 2.2-2.6-1.3-2.6 3.1-2.6-3.2-2.6-3.9-2.6 3.7-2.6-3.9-2.6 4.7-2.6-1.5-2.6 2.1-2.5 4.5-2.6-6.9-2.6-.9-2.6-.8-2.6 3.3-2.6 5.7-2.6-4.5-2.6 4-2.6-6.9-2.5 3.8-2.6 1-2.6 2.5-2.6-1.7-2.6-2.6-2.6-.9-2.6.2-2.5-2.3-2.6 1.5-2.6-3.9-2.6 3-2.6.8-2.6-3.7-2.6.9-2.5 4.7-2.6 4.7-2.6-.4-2.6-4.4-2.6 4.1-2.6-9.4-2.6 3.5-2.5.7-2.6-2.7-2.6-.3-2.6 4.6-2.6 2.3-2.6-8.3-2.6.7-2.6-1.2-2.6 10.4-2.5-2-2.6-7.5-2.6 7.2-2.6 2.2-2.6-7-2.6-1.3-2.6 4.3-2.6-.1-2.6 3.9-2.6-5.7-2.6-.4-2.5 4.4-2.6 1.8-2.6-9.3-2.6 1.8-2.6-.5-2.6-2-2.6 9.5-2.6-.9-2.6.3-2.6-6.1-2.6.7-2.5-2.7-2.6 1.4-2.6 6.2-2.6 1.5-2.6-9.9-2.6 3.5-2.6 3.9-2.6.7-2.6 2.5-2.5-2.4-2.6-2.7-2.6-5.7-2.6 1.2-2.6 8.7-2.6.3-2.6-1.7-2.6 2-2.6-10-2.6 5-2.6-5.4-2.6 3.4-2.5-.9-2.6 5.4h-2.6l-2.6.2-2.6-4.3-2.6 5.9-2.6-5.2-2.6-.6-2.6 3.2-2.6 2.9-2.5.2-2.6-.7-2.6-8.6-2.6 9.6-2.6-6.2-2.6-3.3-2.6 5-2.6 2.7-2.6-.1-2.6-8.4-2.5 6.2-2.6 1.3-2.6-.4-2.6-.1-2.6-.8-2.6-6.4-2.6 5.9-2.6 2.9-2.6.7-2.6-.2-2.5-4.9-2.6 5.2-2.6.6-2.6-3.6-2.6-5.4-2.6 8.9-2.6-8.1h-2.6l-2.6 7.7-2.6-8.4-2.6 1.5-2.5 5.2-2.6-.1-2.6-.6-2.6-1.5-2.6-2.5-2.6-2.7-2.6 4.9-2.6 1.8-2.6-2.4-2.6-1-2.5 4.8-2.6-8.7-2.6 8.1-2.6-8.2-2.6 5.3h-2.6l-2.6-4.5-2.6 1.2-2.6 7.6-2.5 1.2-2.6-5.6-2.6-3-2.6 6.2-2.6.9-2.6-.2-2.6-.7-2.6.6-2.6-6.2-2.5 5-2.6.9-2.6-.8-2.6-3.9-2.6 6.4-2.6-7.6-2.6-2.7-2.6 10.6-2.6-8.3-2.6 4.2-2.6-6.5-2.5 4.6-2.6-3.9-2.6 2.8-2.6 3.3-2.6-.9-2.6 3.6-2.6-8.6-2.6 6.7-2.6-2-2.6-5.6-2.5 1.1-2.6 3.8-2.6-1.8-2.6 4.4-2.6-5.9-2.6 6.7-2.6-3.9-2.6 6.1-2.6-.8-2.5-9.8-2.6.9-2.6.8-2.6 7.6-2.6-.3-2.6-7.4-2.6-.4-2.6 7.6-2.6-8.7-2.5 8.7-2.6 1.8-2.6-.5-2.6-5.5-2.6 6-2.6-6.1-2.6-1.3-2.6 1.1-2.6 3.7-2.5-5.9-2.6 1-2.6 3.3-2.6-4.9-2.6-1-2.6 4.7h-2.6l-2.6 2.2-2.6.1-2.5-4.2-2.6 5.2-2.6-2.7-2.6 5-2.6-5.9-2.6 2.2-2.6-5.2-2.6-1.7-2.6-.1-2.6 2.6h-2.5l-2.6-1.5-2.6 3-2.6-.2-2.6.3-2.6 2.8-2.6-5.6-2.6 6.3-2.6 2.6-2.6-3.8-2.5-.7-2.6.4-2.6-5.9-2.6 6.5-2.6-5.5-2.6 3.6-2.6-2.9-2.6 6.2-2.6-6.9-2.6 3.5-2.5 5.9-2.6-5.5-2.6 4.1-2.6-.8-2.6-2.2-2.6-4.7-2.6-.7-2.6 5.2-2.5-6.3-2.6 7.3-2.6-2.7-2.6 5-2.6-.8-2.6-6.4-2.6 5.4-2.6-3.3-2.5-3.6-2.6 1.5-2.6 4.2-2.6 3.4-2.6-4.7-2.6-4.1h-2.6l-2.6 1.7-2.6 7.2-2.5.5-2.6-6.2-2.6 4-2.6-7.6-2.6.1-2.6 6.3-2.6-2-2.6-4.6-2.5 9.8-2.6-7.1-2.6 6.5-2.6-5.1-2.6-3.4-2.6 1-2.6-.9-2.6 9.4-2.6-7.6-2.5 2-2.6 2.2-2.6-3.2-2.6 6.7-2.6-8.6-2.6-2-2.6 1.4-2.6 3.2-2.6 4.5-2.5-7.8-2.6-.1-2.6 6.2-2.6.3-2.6-6.7-2.6 7.4-2.6.4-2.6-8.3-2.6-.4-2.6 5.8-2.6-3.5-2.5 1.2-2.6-1.3-2.6 4.5-2.6 1.5-2.6-5.8h-2.6l-2.6 1.1-2.6 5.2-2.6.7-2.5-6.7-2.6 2.8-2.6 4.4-2.6-2-2.6-.2-2.6-7.5-2.6 3.7-2.6-3.8-2.5 7.2-2.6 2.1-2.6.8-2.6-3.1-2.6-.5-2.6 3.6-2.6-4.7-2.6 3.7-2.5-5.1-2.6-3.8-2.6 6.9-2.6-3.7-2.6 5.7-2.6 1.1-2.6-1.2-2.5-6.9-2.6-2.1-2.6 5.3-2.6.3-2.6.9-2.6-5.4-2.6.2-2.6 4.9-2.5 3.9-2.6-3.9-2.6-6.3-2.6 5.3-2.6-4.7-2.6 1.6-2.6 1.1-2.6 3.7-2.5-6.5-2.6 5h-2.6l-2.6-2.9-2.6-2.1-2.6 6.9-2.6-2.3-2.5-4.2-2.6 6.5-2.6-7.7-2.6.6-2.6 8.7-2.6-1.9-2.6-7.3-2.6.6-2.5 9.1-2.6-9.5-2.6 8-2.6-3.8-2.6 2.6-2.6-1.3-2.6 4.4-2.6-9.2-2.6.2-2.5 9.5-2.6-7.8-2.6 5.9-2.6-.7-2.6-2.6-2.6-1-2.6-2-2.6 2.5-2.6 5.1-2.5-7.9-2.6 1-2.6 4-2.6-4.4-2.6 5.5-2.6-.6-2.6-5-2.6-1.1-2.6 2.2-2.6-2.4-2.5 3.8-2.6 2.4-2.6-4.8-2.6-2-2.6 6.1-2.6-4.8-2.6 7.5-2.6-9.4-2.6 3.2-2.5-.2-2.6-2.4-2.6 8.8-2.6-5.7-2.6-1.9-2.6-1.9-2.6 1.9-2.6.2-2.5.7-2.6 4.1-2.6-4.8-2.6 5.8-2.6 1.8-2.6.9-2.6-6.9-2.5-.4-2.6 3.8-2.6-3.7-2.6-2.9-2.6.7-2.6 7.4-2.6-3.3-2.6.8-2.5-.1-2.6-3.3-2.6 2.9-2.6 1.7-2.6.3-2.6 2.2-2.6-4.7-2.5-5.2-2.6 6.9-2.6-2.1-2.6-3.4-2.6 6.3-2.6-.3-2.5-1.3-2.6-4.2-2.6 2.9-2.6-1.4-2.6 5.8-2.6-5.2-2.6-2.1-2.5 6.7-2.6-8.4-2.6 7.9-2.6 1-2.6-6.7-2.6 7.8-2.6.4-2.5-5.5-2.6-2.3-2.6-2.7-2.6.9-2.6 5.9-2.6 3.5-2.6-5.4-2.5 3.6-2.6-7.9-2.6.3-2.6-.3-2.6 1.5-2.6 8.4-2.6-4.7-2.6 2.3-2.5-.1-2.6-5.5-2.6 5.9-2.6.2-2.6-1.1-2.6 1.3-2.6-5.2-2.5 6.4-2.6-8.6-2.6 4.6-2.6-3.1-2.6-2.6-2.6 9.9-2.6-.6-2.5-7-2.6 7.7-2.6-6-2.6-.8-2.6 2-2.6 3.3-2.6-4.8-2.6 2-2.6-2.5-2.5 2.8-2.6-4.7-2.6 7.6-2.6-8-2.6 1.5-2.6.7-2.6 2.5-2.6 2.8-2.6-6.7-2.5 4.9-2.6-.6-2.6 1-2.6-4-2.6-2.1-2.6 4.5-2.6-1.5-2.6.3-2.6 1.8-2.5-4-2.6-.2-2.6 2.5-2.6 2.2-2.6-.6-2.6-5.3-2.6 7.8-2.6-4.2-2.6 1-2.5-4.6-2.6-.9-2.6 1.7-2.6 4.2-2.6-3.4-2.6-.7-2.6 6.9-2.5-7.2-2.6 3.4-2.6 4-2.6-1.4-2.6-4.3-2.6-2.8-2.6 10.1-2.6-3.3-2.5-3.3-2.6 4.4-2.6-5.7-2.6 3.5-2.6 2.2-2.6-3.7-2.6.4-2.5-.2-2.6.4-2.6 4.4-2.6-5.6-2.6 1.1-2.6 5.2-2.6-7.4-2.5 5.8-2.6.8-2.6-5.9-2.6 2.3-2.6-5.2-2.6 8.8-2.5-1.2-2.6-8-2.6 10-2.6-10.1-2.6 5.5-2.6-4.6-2.5 7.7-2.6-.6h-2.6l-1.9-.4v276.3h2000z"/><path fill="#13396d" d="m2000 271.6l-1.7.9-2.6-5.4-2.6-.3-2.6 2.7-2.6 1.1-2.6 3.7-2.6-4.2-2.6 3.3-2.6-3.2-2.6 4.5-2.6-9.2-2.6 5.8-2.6 2.9-2.5-1.7-2.6-6-2.6 3.2-2.6-3.9-2.6 5.4-2.6-3.3-2.6 7-2.6-9.5-2.6.6-2.6 2.4-2.6 3.4-2.6.1-2.6 1.6-2.6-.9-2.6-3.3-2.6 4.9-2.6-1.6-2.6-4.6-2.6 4.7-2.5-7.5-2.6 5.5-2.6 2-2.6 2-2.6-5.7-2.6.7-2.6 4.2-2.6-8.5-2.6 5.1-2.6 1.3-2.6 1.8-2.6-5.5-2.6 7.6-2.5-3.1-2.6-1.2-2.6-1.6-2.6 3.9-2.6-.4-2.6-2-2.6-1.8-2.6 1.5-2.6-1.5-2.6 3.5-2.6-.8-2.6-1.9-2.6.4-2.6-3-2.6 7.5-2.5-10.1-2.6 10.6-2.6-9.8-2.6 6-2.6 2.2-2.6-6.1h-2.6l-2.6-2.6-2.6 4.3-2.6-3.5-2.6 4.1-2.6 1.8-2.6 3.3-2.6-.4-2.6-3.6-2.6-5.8-2.5 2.6-2.6 2-2.6 3.2-2.6-4.1-2.6-.5-2.6 1.6-2.6-4.5-2.6 9.3-2.6-7.1-2.6.4-2.6 5.5-2.6.2-2.6.1-2.6-1.3-2.6-2.1-2.5.3-2.6-1.7-2.6 5.1-2.6-6.5-2.6-2.6-2.6 9.6-2.6-5.9-2.6 5.1-2.6-8.9-2.6 4.5-2.6 2.6-2.6-2.8-2.6 4.3-2.6-5.3-2.5 1.9-2.6 2h-2.6l-2.6 1.6-2.6-.7-2.6-2.6-2.6-3-2.6-.7-2.6 4.3-2.6-.4-2.6-4.4-2.6 8.4-2.6-1.7-2.6-2.1-2.5-4.9-2.6 3-2.6 1.4-2.6-4.6-2.6-.1-2.6 4.7-2.6 2.6-2.6-5.1-2.6-1.5-2.6 2.9-2.6 1.3-2.5-6-2.6.7-2.6-.6-2.6 2.3-2.6 5.3-2.6-4.8-2.6 2.6-2.6 4.4-2.6.6-2.6-10.6-2.6 6.2-2.6.3-2.6 2.9-2.5-4.1-2.6-3.5-2.6 4.8-2.6-2.5-2.6 3.8-2.6 2.7-2.6-.7-2.6-8.9-2.6 9.3-2.6-8.4-2.5 6.5-2.6-7.1-2.6 1.9-2.6 4.8-2.6-5.5-2.6 4.3-2.6.3-2.6 2-2.6-7.5-2.6 8.2-2.5-7-2.6 3.3-2.6 4.6-2.6-5.8-2.6-3.6-2.6 5.8-2.6-3.8-2.6 5.7-2.6-1.4-2.6-5.3-2.6-1.4-2.6 7.4-2.5 2-2.6-6-2.6 3.9-2.6-3-2.6-2.6-2.6 5.6-2.6-7.3-2.6 5.2-2.6-4.2-2.5 3.6-2.6 5.1-2.6-7.5-2.6 6.4-2.6-7.6-2.6-1.3-2.6 8.4-2.6-2.2-2.5 3.5-2.6-7.3-2.6.2-2.6 4.4-2.6-4-2.6 1-2.6 5.3-2.6-9.8-2.6 3.1-2.6 3.1-2.6-2.9-2.5 2.2-2.6-1.3-2.6 3.1-2.6-3.3-2.6-3.9-2.6 3.8-2.6-3.9-2.6 4.6-2.6-1.5-2.6 2.1-2.5 4.6-2.6-6.9-2.6-.9-2.6-.8-2.6 3.3-2.6 5.6-2.6-4.4-2.6 4-2.6-7-2.5 3.8-2.6 1-2.6 2.6-2.6-1.8-2.6-2.5-2.6-1-2.6.2-2.5-2.3-2.6 1.6-2.6-3.9-2.6 2.9-2.6.8-2.6-3.7-2.6.9-2.5 4.7-2.6 4.8-2.6-.5-2.6-4.4-2.6 4.2-2.6-9.4-2.6 3.5-2.5.6-2.6-2.6-2.6-.4-2.6 4.6-2.6 2.4-2.6-8.4-2.6.7-2.6-1.2-2.6 10.4-2.5-2-2.6-7.4-2.6 7.2-2.6 2.1-2.6-6.9-2.6-1.3-2.6 4.2-2.6-.1-2.6 3.9-2.6-5.6-2.6-.5-2.5 4.4-2.6 1.9-2.6-9.4-2.6 1.9-2.6-.6-2.6-2-2.6 9.5-2.6-.8-2.6.3-2.6-6.2-2.6.7-2.5-2.7-2.6 1.4-2.6 6.3-2.6 1.4-2.6-9.8-2.6 3.5-2.6 3.9-2.6.6-2.6 2.6-2.5-2.4-2.6-2.7-2.6-5.7-2.6 1.1-2.6 8.7-2.6.4-2.6-1.7-2.6 1.9-2.6-9.9-2.6 5-2.6-5.5-2.6 3.5-2.5-1-2.6 5.5-2.6-.1-2.6.2-2.6-4.2-2.6 5.8-2.6-5.1-2.6-.7-2.6 3.3-2.6 2.8-2.5.3-2.6-.8-2.6-8.5-2.6 9.5-2.6-6.2-2.6-3.2-2.6 4.9-2.6 2.8-2.6-.2-2.6-8.4-2.5 6.3-2.6 1.3-2.6-.5h-2.6l-2.6-.9-2.6-6.4-2.6 5.9-2.6 3-2.6.6-2.6-.1-2.5-4.9-2.6 5.2-2.6.5-2.6-3.5-2.6-5.4-2.6 8.9-2.6-8.2h-2.6l-2.6 7.7-2.6-8.3-2.6 1.5-2.5 5.2-2.6-.2-2.6-.6-2.6-1.5-2.6-2.5-2.6-2.6-2.6 4.9-2.6 1.8-2.6-2.5-2.6-1-2.5 4.9-2.6-8.7-2.6 8.1-2.6-8.3-2.6 5.3h-2.6l-2.6-4.5-2.6 1.2-2.6 7.6-2.5 1.2-2.6-5.5-2.6-3.1-2.6 6.3-2.6.9-2.6-.3-2.6-.6-2.6.5-2.6-6.2-2.5 5.1-2.6.8-2.6-.8-2.6-3.8-2.6 6.4-2.6-7.6-2.6-2.7-2.6 10.5-2.6-8.2-2.6 4.2-2.6-6.6-2.5 4.6-2.6-3.9-2.6 2.9-2.6 3.3-2.6-1-2.6 3.7-2.6-8.6-2.6 6.7-2.6-2-2.6-5.7-2.5 1.2-2.6 3.8-2.6-1.9-2.6 4.4-2.6-5.8-2.6 6.6-2.6-3.8-2.6 6.1-2.6-.9-2.5-9.8-2.6.9-2.6.8-2.6 7.6-2.6-.2-2.6-7.5-2.6-.3-2.6 7.6-2.6-8.8-2.5 8.8-2.6 1.8-2.6-.5-2.6-5.5-2.6 5.9-2.6-6-2.6-1.4-2.6 1.1-2.6 3.7-2.5-5.8-2.6 1-2.6 3.2-2.6-4.9-2.6-.9-2.6 4.6-2.6.1-2.6 2.1-2.6.2-2.5-4.2-2.6 5.1-2.6-2.6-2.6 4.9-2.6-5.9-2.6 2.2-2.6-5.2-2.6-1.7-2.6-.1-2.6 2.6h-2.5l-2.6-1.4-2.6 3-2.6-.2-2.6.3-2.6 2.8-2.6-5.6-2.6 6.2-2.6 2.6-2.6-3.7-2.5-.8-2.6.4-2.6-5.9-2.6 6.5-2.6-5.4-2.6 3.5-2.6-2.8-2.6 6.2-2.6-7-2.6 3.5-2.5 5.9-2.6-5.5-2.6 4.2-2.6-.8-2.6-2.2-2.6-4.7-2.6-.8-2.6 5.2-2.5-6.2-2.6 7.2-2.6-2.6-2.6 4.9-2.6-.8-2.6-6.4-2.6 5.4-2.6-3.2-2.5-3.6-2.6 1.5-2.6 4.2-2.6 3.3-2.6-4.7-2.6-4.1-2.6.1-2.6 1.6-2.6 7.2-2.5.6-2.6-6.3-2.6 4.1-2.6-7.7-2.6.2-2.6 6.3-2.6-2.1-2.6-4.6-2.5 9.8-2.6-7.1-2.6 6.5-2.6-5.1-2.6-3.3-2.6.9-2.6-.9-2.6 9.4-2.6-7.6-2.5 2-2.6 2.3-2.6-3.3-2.6 6.7-2.6-8.6-2.6-2-2.6 1.5-2.6 3.2-2.6 4.4-2.5-7.8h-2.6l-2.6 6.1-2.6.4-2.6-6.8-2.6 7.5-2.6.4-2.6-8.4-2.6-.4-2.6 5.8-2.6-3.4-2.5 1.1-2.6-1.2-2.6 4.4-2.6 1.6-2.6-5.8h-2.6l-2.6 1-2.6 5.2-2.6.7-2.5-6.6-2.6 2.7-2.6 4.5-2.6-2.1-2.6-.1-2.6-7.6-2.6 3.7-2.6-3.8-2.5 7.2-2.6 2.1-2.6.9-2.6-3.2-2.6-.5-2.6 3.7-2.6-4.7-2.6 3.6-2.5-5.1-2.6-3.8-2.6 6.9-2.6-3.6-2.6 5.6-2.6 1.2-2.6-1.2-2.5-7-2.6-2.1-2.6 5.3-2.6.3-2.6.9-2.6-5.3-2.6.1-2.6 4.9-2.5 4-2.6-3.9-2.6-6.4-2.6 5.3-2.6-4.6-2.6 1.5-2.6 1.2-2.6 3.6-2.5-6.4-2.6 4.9h-2.6l-2.6-2.9-2.6-2.1-2.6 6.9-2.6-2.3-2.5-4.2-2.6 6.6-2.6-7.8-2.6.7-2.6 8.6-2.6-1.8-2.6-7.3-2.6.6-2.5 9.1-2.6-9.6-2.6 8-2.6-3.7-2.6 2.5-2.6-1.2-2.6 4.3-2.6-9.2-2.6.3-2.5 9.4-2.6-7.7-2.6 5.9-2.6-.8-2.6-2.5-2.6-1.1-2.6-2-2.6 2.6-2.6 5.1-2.5-8-2.6 1-2.6 4-2.6-4.4-2.6 5.6-2.6-.7-2.6-5-2.6-1.1-2.6 2.2-2.6-2.3-2.5 3.7-2.6 2.4-2.6-4.7-2.6-2.1-2.6 6.2-2.6-4.8-2.6 7.4-2.6-9.3-2.6 3.2-2.5-.3-2.6-2.3-2.6 8.7-2.6-5.7-2.6-1.8-2.6-2-2.6 2-2.6.1-2.5.8-2.6 4-2.6-4.8-2.6 5.8-2.6 1.9-2.6.8-2.6-6.9-2.5-.4-2.6 3.8-2.6-3.7-2.6-2.9-2.6.8-2.6 7.4-2.6-3.3-2.6.7h-2.5l-2.6-3.3-2.6 2.8-2.6 1.8-2.6.3-2.6 2.2-2.6-4.8-2.5-5.2-2.6 7-2.6-2.1-2.6-3.4-2.6 6.3-2.6-.3-2.5-1.3-2.6-4.3-2.6 2.9-2.6-1.3-2.6 5.8-2.6-5.2-2.6-2.1-2.5 6.6-2.6-8.3-2.6 7.8-2.6 1.1-2.6-6.7-2.6 7.7-2.6.4-2.5-5.5-2.6-2.3-2.6-2.7-2.6 1-2.6 5.9-2.6 3.4-2.6-5.4-2.5 3.7-2.6-8-2.6.4-2.6-.4-2.6 1.5-2.6 8.5-2.6-4.7-2.6 2.2-2.5-.1-2.6-5.5-2.6 5.9-2.6.3-2.6-1.1-2.6 1.2-2.6-5.1-2.5 6.3-2.6-8.5-2.6 4.5-2.6-3-2.6-2.6-2.6 9.8-2.6-.6-2.5-6.9-2.6 7.7-2.6-6-2.6-.9-2.6 2-2.6 3.4-2.6-4.9-2.6 2.1-2.6-2.5-2.5 2.8-2.6-4.7-2.6 7.5-2.6-7.9-2.6 1.4-2.6.8-2.6 2.5-2.6 2.7-2.6-6.7-2.5 4.9-2.6-.5-2.6 1-2.6-4-2.6-2.1-2.6 4.4-2.6-1.4-2.6.3-2.6 1.8-2.5-4.1-2.6-.2-2.6 2.5-2.6 2.3-2.6-.7-2.6-5.3-2.6 7.9-2.6-4.3-2.6 1-2.5-4.6-2.6-.8-2.6 1.6-2.6 4.2-2.6-3.4-2.6-.7-2.6 7-2.5-7.2-2.6 3.4-2.6 4-2.6-1.5-2.6-4.3-2.6-2.8-2.6 10.1-2.6-3.3-2.5-3.2-2.6 4.3-2.6-5.7-2.6 3.5-2.6 2.3-2.6-3.8-2.6.4-2.5-.1-2.6.4-2.6 4.3-2.6-5.5-2.6 1.1-2.6 5.2-2.6-7.4-2.5 5.7-2.6.9-2.6-5.9-2.6 2.3-2.6-5.2-2.6 8.8-2.5-1.2-2.6-8.1-2.6 10-2.6-10.1-2.6 5.6-2.6-4.6-2.5 7.6-2.6-.6h-2.6l-1.9-.3v276.2h2000z"/><g fill="#001b46"><path d="m205.8 354.4c0 0 1.9-18.2 17.2-20.4 15.3-2.3 27.7-11.9 27.7-11.9s18.6-5.7 20.5-4c1.9 1.7 9.6 23.8 9.6 29.5s-2.9 13-14.8 13-59.2 6.9-60.2-6.2"/><path d="m193.7 450.6c-6.3-8.3-24.8-7.4-20.1 5.7 4.8 13.1 6.6 22.8 16.2 23.3 9.8.5 21.1-6.3 3.9-29"/><path d="m341.9 328.1c-6.4-.1-21-3.6-20.3 11.2.7 14.9 5.5 22.3 16 29.6 10.5 7.4 37.2 20.4 47.3 19.3 10-1.1 16.2-12.3 20.1-26.6 3.8-14.3 4.9-22.7-7.6-25s-55.5-8.5-55.5-8.5"/><path d="m412 427.5c-29.6 1.8-39.1-.6-43.9 18.2-4.8 18.7-11.9 19.3 5.2 29.5 17.2 10.2 34.4 21.6 45.4 17 11-4.5 21-15.4 15-31.8s-5.5-33.9-21.7-32.9"/><path d="m146.9 358.5c-9.8 2.5-22 26.7-13.4 31.2s35.2-2.3 33.3-13.1c-1.8-10.7-9-20.9-19.9-18.1"/><path d="m113 469.3c-4.1.1-15.2-1.1-16.6 6.2-1.4 7.4-6.2 30.1 4.3 24.4s23.4-8.3 23.1-15.5.9-15.5-10.8-15.1"/><path d="m308 392.2c-2.8.2-19.6 8.3-22.9 15.8s-3.8 23.4 6.7 19.4 28.6-2.2 26.3-17.3-1.1-18.5-10.1-17.9"/><path d="m440.2 377.3c-7 3.5-8.8 17.6-5.4 24.4 3.3 6.8 7.1 8 17.2 4.6 10-3.4 20.6-9.9 17.2-17.2-3.4-7.2-13-19.7-29-11.8"/><path d="m335.6 473.3c-7.6-.5-19.6-11.4-22.8 0-3.2 11.3-4.6 28.5 2.5 27.6 7.2-.9 20.7-7.1 23.9-13.7s4.7-13.4-3.6-13.9"/><path d="m73.8 336.6c0 0 21.9 1.7 18.4 12.5s-12.3 39.3-25.1 40.4-32.5-4.8-35.8-9.2-8.1-53.4 42.5-43.7"/><path d="m702.8 497.5c2.8 5.6 8.6 8.5 13.4 7.4s16.2-5.1 11.5-14.2c-4.8-9.1-21.5-22.1-24.8-21-3.4 1.1-9.1 9.6-.1 27.8"/><path d="m838.4 355.9c7.2 1.7 25.3 4 25.3-8.5s1.9-30.8-14.8-23.3c-16.7 7.5-24.8 14.3-19.1 23.3 5.7 9 8.6 8.5 8.6 8.5"/><path d="m735.9 345.8c2.4-2.3 16.7-11.3 10.5-18.2-6.2-6.8-12.4-7.9-21-4-8.6 4-17.7 4.5-15.3 15.3 2.4 10.8 4.3 16.5 9.6 16.5 5.2 0 16.2-9.6 16.2-9.6"/><path d="m610.2 369.8c6.4.1 21 3.7 20.3-11.2-.7-14.9-5.5-22.3-16-29.6-10.5-7.4-37.2-20.4-47.3-19.3-10 1.1-16.2 12.3-20 26.6s-4.9 22.7 7.6 25c12.6 2.3 55.4 8.5 55.4 8.5"/><path d="m524.3 427.1c6.7-1.5 12.2-.8 14.9-12.1 2.7-11.2 5.1-26-4.4-22s-24.8 14.2-23.4 19.3c1.4 5.2 6.8 16.1 12.9 14.8"/><path d="m516.5 502.8c9.2-5.2 11.7-29.7 3.1-29.7s-19.6 1.1-27.7 8.5-3.8 14.8 3.3 17.6c7.1 2.8 14.9 7.2 21.3 3.6"/><path d="m1498.8 514.5c0 0-21.9-1.7-18.4-12.5 3.6-10.8 12.3-39.3 25-40.4s32.5 4.8 35.8 9.2 8.2 53.3-42.4 43.7"/><path d="m1618.8 348.1c0 0-1.9 18.2-17.2 20.4-15.3 2.3-27.7 11.9-27.7 11.9s-18.6 5.7-20.5 4-9.6-23.8-9.6-29.5 2.9-13.1 14.8-13.1c12 .1 59.2-6.7 60.2 6.3"/><path d="m1434.4 505.1c6.7-2.3 13.1-2.9 7.6-11.9s-21-19.3-24.8-22.1c-3.8-2.8-15.8-6.8-27.2-8.5-11.5-1.7-20 13.6-18.1 21.3 1.9 7.7-1.9 21.8 4.8 21.3 6.7-.6 14.8-2.2 24.4 0 9.4 2.2 33.3-.1 33.3-.1"/><path d="m1570.8 497.5c2.8 5.6 8.6 8.5 13.4 7.4s16.2-5.1 11.5-14.2c-4.8-9.1-21.5-22.1-24.8-21-3.5 1.1-9.2 9.6-.1 27.8"/><path d="m1788 501.4c7.2 1.7 25.3 4 25.3-8.5s1.9-30.8-14.8-23.3c-16.7 7.5-24.8 14.3-19.1 23.3 5.7 9.1 8.6 8.5 8.6 8.5"/><path d="m1654.3 417.5c2.4-2.3 16.7-11.3 10.5-18.2-6.2-6.8-12.4-7.9-21-4-8.6 4-17.7 4.5-15.3 15.3 2.4 10.8 4.3 16.5 9.6 16.5s16.2-9.6 16.2-9.6"/><path d="m1730.3 353.7c3.2 5.4 12.9 4.5 19.1 0s14.3-38.1 0-30.7c-14.3 7.5-28.6 14.3-19.1 30.7"/><path d="m1510.2 440c6.4.1 20.9 3.7 20.3-11.2-.7-14.9-5.5-22.3-16-29.6-10.5-7.4-37.2-20.4-47.3-19.3-10 1.1-16.2 12.3-20 26.6-3.8 14.3-4.9 22.7 7.6 25 12.6 2.3 55.4 8.5 55.4 8.5"/><path d="m1894.7 457.3c6.4.1 20.9 3.7 20.3-11.2-.7-14.9-5.5-22.2-16-29.6s-37.2-20.4-47.3-19.3c-10 1.1-16.2 12.3-20 26.6s-4.9 22.7 7.6 25c12.6 2.4 55.4 8.5 55.4 8.5"/><path d="m1392.2 427.1c6.7-1.5 12.2-.8 14.9-12.1 2.7-11.2 5.1-26-4.4-22s-24.8 14.2-23.4 19.3c1.5 5.2 6.9 16.1 12.9 14.8"/><path d="m1325.7 483.4c9.2-5.2 11.7-29.7 3.1-29.7s-19.6 1.1-27.7 8.5-3.8 14.8 3.3 17.6c7.2 2.8 14.9 7.2 21.3 3.6"/><path d="m1859.3 365.9c0 0-21.9-1.7-18.4-12.5 3.6-10.8 12.3-39.3 25-40.4s32.5 4.8 35.8 9.2c3.4 4.6 8.2 53.4-42.4 43.7"/><path d="m996.4 299.3c-18.9 4.9-42.3 51.5-25.8 60.2 16.6 8.7 67.8-4.4 64.3-25.2s-17.4-40.4-38.5-35"/><path d="m1495 309.8c-2.8.2-19.6 8.3-22.9 15.8-3.3 7.5-3.8 23.4 6.7 19.4s28.6-2.2 26.3-17.3c-2.5-15-1-18.5-10.1-17.9"/><path d="m1308.2 377.3c-7 3.5-8.8 17.6-5.4 24.4 3.3 6.8 7.1 8 17.2 4.6s20.6-9.9 17.2-17.2c-3.4-7.2-13.1-19.7-29-11.8"/><path d="m203.4 72.4c-9.8 2.5-22 26.7-13.4 31.2s35.2-2.3 33.3-13.1c-1.8-10.7-9-20.9-19.9-18.1"/><path d="m169.5 163.1c-4.1.1-15.2-1.1-16.6 6.2-1.4 7.4-6.2 30.1 4.3 24.4 10.5-5.7 23.4-8.3 23.1-15.5-.3-7.2.9-15.5-10.8-15.1"/><path d="m758 96.7c3.2 5.4 12.9 4.5 19.1 0 6.2-4.5 14.3-38.1 0-30.7-14.3 7.4-28.6 14.2-19.1 30.7"/><path d="m653.2 121.3c6.4.1 21 3.7 20.3-11.2s-5.5-22.3-16-29.6c-10.5-7.4-37.2-20.4-47.3-19.3-10 1.1-16.2 12.3-20.1 26.6-3.8 14.3-4.9 22.7 7.6 25s55.5 8.5 55.5 8.5"/><path d="m669.5 196c6.7-1.5 12.2-.8 14.9-12s5.1-26-4.4-22-24.8 14.2-23.4 19.3c1.4 5 6.8 16 12.9 14.7"/><path d="m1256 126.3c0 0-21.9-1.7-18.4-12.5 3.6-10.8 12.3-39.3 25.1-40.4s32.5 4.8 35.8 9.2c3.3 4.6 8.1 53.4-42.5 43.7"/><path d="m1684.7 159.9c0 0-1.9 18.2-17.2 20.4-15.3 2.3-27.7 11.9-27.7 11.9s-18.6 5.7-20.5 4-9.5-23.8-9.5-29.5 2.9-13.1 14.8-13.1 59.2-6.8 60.1 6.3"/><path d="m547.9 151.9c0 0-1.9 18.2-17.2 20.4s-27.7 11.9-27.7 11.9-18.6 5.7-20.5 4-9.5-23.8-9.5-29.5 2.9-13.1 14.8-13.1c11.9 0 59.2-6.8 60.1 6.3"/><path d="m1823.6 115.2c2.8 5.6 8.6 8.5 13.4 7.4s16.2-5.1 11.5-14.2c-4.8-9.1-21.5-22.1-24.8-21-3.5 1.1-9.2 9.6-.1 27.8"/><path d="m1767.1 187.3c2.8 5.6 8.6 8.5 13.4 7.4s16.2-5.1 11.5-14.2c-4.8-9.1-21.5-22.1-24.8-21-3.5 1.1-9.2 9.7-.1 27.8"/><path d="m320.8 196.3c-.7-4-1.2-15.2-8.7-15.5s-30.7-1.6-23.5 7.9 11.8 21.8 18.8 20.5c7.1-1.3 15.5-1.4 13.4-12.9"/><path d="m1532.6 105.4c-7 3.5-8.8 17.6-5.4 24.4 3.3 6.8 7.1 8 17.2 4.6s20.6-9.9 17.2-17.2c-3.4-7.3-13.1-19.8-29-11.8"/><path d="m1690.1 476.1c-7.6-.5-19.6-11.3-22.8 0-3.2 11.3-4.6 28.5 2.5 27.6 7.2-.9 20.7-7.1 23.9-13.7 3.2-6.6 4.7-13.3-3.6-13.9"/><path d="m1333.7 215.1c1.2-.3 1.1.6 1.9.8-.2.8-1.4.3-1.5 1.1-.9 0-.2-1.4-.4-1.9"/><path d="m461.5 83.1c-3.1-11-.4-21.9-.4-21.9l-17.9 26.2c-2.5.5-5 .9-7.9 1.5.2-3.6.4-6.9.5-10-2.4 1.3-3 3-3.5 10.6-2.9.6-5.7 1.1-9 1.8-.1-2.8-.3-5.3-.2-7.8.1-2.5.7-5 1.1-7.8-5.6 4.3-6.2 10.2-5.6 16.5-4.3.8-8.6 1.7-13 2.5-1.1-6.9-.7-13.5 1.1-20.2-1.5 1.1-2.9 2.2-3.9 3.6-3.9 5.3-4.5 11.5-3.8 17.9-3.9.7-7.6 1.5-11.3 2.2-1.2-8.6-.7-16.8 1.6-24.9-9.3 6.6-10.7 16.1-10.1 26.6-3.2.6-6.3 1.2-9.5 1.8-.8-5.7-1.1-11.3-.3-16.8.6-4.4 1.7-8.6 2.6-12.9-.1 0-.2.1-.3.1-1.8 1.6-3.9 3.1-5.4 5-4.1 4.9-6 10.8-6.5 17.1-.3 3.2-.2 6.4-.2 9.6-2.4.5-5 1-7.6 1.5.4 3.6.9 7.1 1.3 10.7 3-.8 5.8-1.6 8.7-2.5 2 6.1 4.9 11.5 9 16.3 4.2 5 12 9.9 15.4 9.5-7.1-8.4-12-17.9-14.7-28.5 3.4-1 6.5-1.8 9.5-2.7 5.8 12.8 13.5 20.8 20.2 20.9-5.8-6.9-9.7-14.6-12.1-23.2 3.9-1.1 7.6-2.1 11.3-3.2 3.1 7.5 7.3 13.7 15.6 16.1-4.2-5.4-7.3-11.2-9.1-17.9 4.4-1.2 8.7-2.5 12.9-3.7 2.4 5.2 5.4 9.6 11.2 11.1-2.9-3.8-5.1-7.8-6.4-12.5 3-.9 6-1.7 8.9-2.5 1.6 2.8 3.4 5.3 6.7 6.4-1.4-2.5-2.6-4.8-3.9-7.2 2.2-.6 3.9-1.1 5.7-1.6 1-.3 1.7-.5 2-.8l29 13.2c-.2.1-8.6-9.1-11.7-20.1"/><path d="m336.9 97.7c-1.6-2.2-3.4-4.3-5.3-6.2-21.1 17.4-32.7 39.4-32.7 39.4s21.3 12.6 48.5 16.4c0-.1 0-.2.1-.4-20.6-3.8-36.7-12.6-39-13.9 2.4 1.3 18.3 10.1 38.9 13.9h.1c2.1-9.5 2-19.6-.8-29.5-2.1-7.4-5.5-14-9.8-19.7m-4.7 22.7c-3.1.9-6.4-.9-7.3-4.1-.9-3.1.9-6.4 4.1-7.3 3.1-.9 6.4.9 7.3 4.1.9 3.1-.9 6.4-4.1 7.3"/><path d="m1715.2 105.3c2.4-6.1 7.3-10.2 7.3-10.2l-17.2 5.8c-1.3-.6-2.6-1.3-4.1-2.1 1.3-1.6 2.5-3 3.7-4.4-1.5-.2-2.4.3-5.2 3.6-1.5-.7-3-1.5-4.7-2.3.9-1.3 1.7-2.5 2.6-3.6s2.1-2.1 3.2-3.2c-4 0-6.3 2.5-8.2 5.6-2.3-1.1-4.5-2.2-6.8-3.3 1.9-3.5 4.3-6.4 7.5-8.8-1 0-2.1 0-3 .3-3.6 1.1-6 3.7-7.9 6.9-2-1-4-1.9-5.9-2.9 2.4-4.3 5.4-7.9 9.3-10.8-6.5-.2-10.4 3.7-13.7 8.7-1.7-.8-3.3-1.6-5-2.4 1.6-2.9 3.4-5.5 5.6-7.8 1.8-1.8 3.8-3.4 5.6-5-.1 0-.1 0-.2-.1-1.4.1-2.8.1-4.2.4-3.6.8-6.4 2.9-8.8 5.5-1.2 1.3-2.3 2.8-3.4 4.3-1.3-.6-2.6-1.3-4-1.9-1 1.8-2 3.5-3.1 5.3 1.7.6 3.2 1.2 4.9 1.9-1.2 3.5-1.7 7-1.5 10.6.2 3.7 2.1 8.6 3.8 9.7-.4-6.3.7-12.3 3.1-18.1 1.9.7 3.6 1.4 5.3 2-1.7 7.8-1 14.2 2.1 16.5-.3-5.1.6-10 2.4-14.8 2.1.8 4.2 1.6 6.3 2.4-1.1 4.5-1.4 8.8 1.6 12.7-.1-3.9.5-7.6 2-11.3 2.4.9 4.8 1.9 7.2 2.8-.7 3.2-.8 6.2 1.3 8.9 0-2.7.4-5.3 1.4-7.9 1.7.7 3.3 1.3 4.9 1.9-.3 1.8-.3 3.6.9 5.2.2-1.6.4-3.1.7-4.7 1.2.5 2.2.8 3.1 1.2.6.2.9.4 1.2.3l8.7 16c-.4.2-1.1-6.8 1.2-12.9"/><path d="m1653.3 69.1c0-1.6-.1-3.1-.3-4.7-15.6.7-28.5 6.8-28.5 6.8s5.4 13.1 16.5 24.2c.1 0 .1-.1.2-.1-8.1-8.8-12.4-18.4-13-19.8.6 1.4 4.9 10.9 13 19.7h.1c4.2-3.6 7.6-8.3 9.8-13.8 1.5-4 2.2-8.2 2.2-12.3m-9.9 8.8c-1.7-.7-2.6-2.6-1.9-4.4s2.6-2.6 4.4-1.9c1.7.7 2.6 2.6 1.9 4.4-.7 1.7-2.7 2.5-4.4 1.9"/><path d="m563 486.6c-7-8.7-17.2-12.6-17.2-12.6l30.9.4c1.8-1.7 3.5-3.5 5.6-5.5-3-1.9-5.7-3.6-8.2-5.2 2.3-1.2 4-.7 10.4 3.2 2-2 4.1-3.9 6.5-6.2-2.2-1.6-4-3.2-6.1-4.5s-4.4-2.3-6.8-3.5c6.5-2.1 11.5.8 16.3 4.8 3.1-3 6.2-5.9 9.3-8.9-4.9-4.7-10.3-8.2-16.7-10.4 1.7-.5 3.4-1.1 5.1-1.1 6.4-.1 11.6 2.9 16.4 7 2.7-2.6 5.4-5.2 8.1-7.8-6.1-5.8-12.9-10-20.7-12.6 10.5-3.8 18.8.5 26.8 6.9 2.3-2.2 4.5-4.3 6.8-6.5-4.1-3.9-8.4-7.2-13.2-9.7-3.8-1.9-7.8-3.5-11.8-5.2.1-.1.2-.1.2-.2 2.3-.5 4.7-1.3 7-1.5 6.2-.5 11.9 1.3 17.2 4.4 2.7 1.5 5.1 3.4 7.8 5.2 1.8-1.7 3.6-3.4 5.5-5.2 2.6 2.4 5.1 4.6 7.8 7-2.3 1.9-4.5 3.7-6.9 5.6 3.7 5 6.4 10.4 8 16.3 1.6 6.1 1.2 15.1-1.1 17.6-2.7-10.4-7.5-19.6-14.4-27.7-2.6 2.1-5.1 4.1-7.5 6.1 6.9 11.8 8.9 22.5 5.3 27.8-2.2-8.4-6.1-15.9-11.7-22.6-3.1 2.5-6 4.8-8.9 7.2 4.2 6.6 6.8 13.5 4 21.4-1.9-6.3-4.8-12.1-9.1-17.3-3.5 2.8-6.8 5.5-10.2 8.2 2.8 4.8 4.6 9.7 2.5 15.1-1.4-4.4-3.4-8.5-6.3-12.1-2.4 1.9-4.7 3.8-7 5.7 1.4 2.8 2.3 5.6 1.3 8.9-1.2-2.5-2.3-4.7-3.5-7.2-1.7 1.4-3.1 2.5-4.4 3.6-.8.7-1.3 1.1-1.7 1.2l-5.8 30.4c0 0-2.6-11.8-9.6-20.5"/><path d="m644.4 395.8c2.2 6.6 5.5 13 10.2 18.7 6.3 7.8 14.3 13.6 23 17.2l.1-.1c8.5-18.5 10.5-36.1 10.7-38.7-.2 2.6-2.2 20.3-10.8 38.8.1 0 .2.1.3.1 12.2-23.7 14.2-47.7 14.2-47.7s-23.9-3.1-49.6 3.9c.4 2.7 1.1 5.3 1.9 7.8m12.6 8.1c-2-2.5-1.6-6.1.9-8.1s6.1-1.6 8.1.8 1.6 6.1-.9 8.1c-2.4 2.1-6.1 1.7-8.1-.8"/><path d="m1266.1 391.6c3.6-4.5 8.9-6.5 8.9-6.5l-15.9.2c-.9-.9-1.8-1.8-2.9-2.8 1.5-1 2.9-1.8 4.2-2.7-1.2-.6-2.1-.4-5.4 1.6-1.1-1-2.1-2-3.3-3.2 1.1-.8 2.1-1.7 3.1-2.3 1.1-.7 2.3-1.2 3.5-1.8-3.4-1.1-5.9.4-8.4 2.5-1.6-1.5-3.2-3-4.8-4.6 2.5-2.4 5.3-4.2 8.6-5.4-.9-.3-1.7-.6-2.6-.6-3.3 0-6 1.5-8.4 3.6-1.4-1.4-2.8-2.7-4.2-4 3.2-3 6.7-5.2 10.7-6.5-5.4-1.9-9.7.3-13.8 3.6-1.2-1.1-2.3-2.2-3.5-3.4 2.1-2 4.3-3.7 6.8-5 2-1 4-1.8 6.1-2.7l-.1-.1c-1.2-.3-2.4-.7-3.6-.8-3.2-.3-6.1.7-8.9 2.3-1.4.8-2.7 1.8-4 2.7-.9-.9-1.8-1.7-2.8-2.7-1.3 1.2-2.6 2.4-4 3.6 1.2 1 2.3 1.9 3.5 2.9-1.9 2.6-3.3 5.4-4.1 8.4-.8 3.2-.6 7.8.6 9.1 1.4-5.3 3.9-10.1 7.4-14.3 1.4 1.1 2.6 2.1 3.9 3.1-3.6 6.1-4.6 11.6-2.7 14.3 1.1-4.4 3.2-8.2 6-11.7 1.6 1.3 3.1 2.5 4.6 3.7-2.2 3.4-3.5 7-2.1 11.1 1-3.3 2.5-6.2 4.7-8.9 1.8 1.4 3.5 2.8 5.2 4.2-1.4 2.5-2.4 5-1.3 7.8.7-2.3 1.7-4.4 3.3-6.2 1.2 1 2.4 2 3.6 2.9-.7 1.4-1.2 2.9-.7 4.6.6-1.3 1.2-2.4 1.8-3.7.9.7 1.6 1.3 2.3 1.9.4.3.7.5.9.6l3 15.7c-.1 0 1.2-6.1 4.8-10.5"/><path d="m1224.1 344.7c.4-1.3.8-2.6 1-4-13.3-3.6-25.6-2-25.6-2s1 12.4 7.3 24.6c0 0 .1 0 .2-.1-4.4-9.6-5.4-18.7-5.6-20 .1 1.3 1.1 10.4 5.5 20 4.5-1.9 8.6-4.8 11.9-8.9 2.5-2.9 4.2-6.1 5.3-9.6m-10.6 4.7c-1.3-1-1.5-2.9-.4-4.2 1-1.3 2.9-1.5 4.2-.4 1.3 1 1.5 2.9.4 4.2-1.1 1.2-3 1.4-4.2.4"/><path d="m1720.6 449.6c-3.6-4.5-8.9-6.5-8.9-6.5l15.9.2c.9-.9 1.8-1.8 2.9-2.8-1.5-1-2.9-1.8-4.2-2.7 1.2-.6 2.1-.4 5.4 1.6 1.1-1 2.1-2 3.3-3.2-1.1-.8-2.1-1.7-3.1-2.3-1.1-.7-2.3-1.2-3.5-1.8 3.4-1.1 5.9.4 8.4 2.5 1.6-1.5 3.2-3 4.8-4.6-2.5-2.4-5.3-4.2-8.6-5.4.9-.3 1.7-.5 2.6-.6 3.3 0 6 1.5 8.4 3.6 1.4-1.4 2.8-2.7 4.2-4-3.2-3-6.7-5.2-10.7-6.5 5.4-1.9 9.7.3 13.8 3.6 1.2-1.1 2.3-2.2 3.5-3.4-2.1-2-4.3-3.7-6.8-5-2-1-4-1.8-6.1-2.7l.1-.1c1.2-.3 2.4-.7 3.6-.8 3.2-.3 6.2.7 8.9 2.3 1.4.8 2.7 1.8 4 2.7.9-.9 1.8-1.7 2.8-2.7 1.3 1.2 2.6 2.4 4 3.6-1.2 1-2.3 1.9-3.5 2.9 1.9 2.6 3.3 5.4 4.1 8.4.8 3.2.6 7.8-.6 9.1-1.4-5.3-3.9-10.1-7.4-14.3-1.4 1.1-2.6 2.1-3.9 3.1 3.6 6.1 4.6 11.6 2.7 14.3-1.1-4.4-3.2-8.2-6-11.7-1.6 1.3-3.1 2.5-4.6 3.7 2.2 3.4 3.5 7 2.1 11.1-1-3.3-2.5-6.2-4.7-8.9-1.8 1.4-3.5 2.8-5.2 4.2 1.4 2.5 2.3 5 1.3 7.8-.7-2.3-1.7-4.4-3.3-6.2-1.2 1-2.4 2-3.6 2.9.7 1.4 1.2 2.9.7 4.6-.6-1.3-1.2-2.4-1.8-3.7-.9.7-1.6 1.3-2.3 1.9-.4.3-.7.5-.9.6l-3 15.7c.1.1-1.2-6-4.8-10.5"/><path d="m1762.5 402.8c1.1 3.4 2.9 6.7 5.3 9.6 3.3 4 7.4 7 11.9 8.9v-.1c4.4-9.5 5.4-18.6 5.5-20-.1 1.4-1.1 10.5-5.6 20 0 0 .1 0 .2.1 6.3-12.2 7.3-24.6 7.3-24.6s-12.3-1.6-25.6 2c.3 1.4.6 2.8 1 4.1m6.6 4.2c-1-1.3-.8-3.1.4-4.2 1.3-1 3.1-.8 4.2.4 1 1.3.8 3.1-.4 4.2-1.3 1.1-3.2.8-4.2-.4"/></g><path fill="#001b46" d="m2000 542l-1.7.9-2.6-5.4-2.6-.3-2.6 2.7-2.6 1.1-2.6 3.7-2.6-4.2-2.6 3.3-2.6-3.2-2.6 4.5-2.6-9.1-2.6 5.7-2.6 2.9-2.5-1.7-2.6-6-2.6 3.2-2.6-3.8-2.6 5.4-2.6-3.4-2.6 7.1-2.6-9.6-2.6.6-2.6 2.4-2.6 3.4-2.6.1-2.6 1.6-2.6-.9-2.6-3.3-2.6 4.9-2.6-1.6-2.6-4.6-2.6 4.7-2.5-7.5-2.6 5.5-2.6 2-2.6 2.1-2.6-5.8-2.6.8-2.6 4.2-2.6-8.6-2.6 5.1-2.6 1.3-2.6 1.8-2.6-5.5-2.6 7.6-2.5-3.1-2.6-1.2-2.6-1.6-2.6 3.9-2.6-.4-2.6-1.9-2.6-1.9-2.6 1.5-2.6-1.5-2.6 3.6-2.6-.9-2.6-1.9-2.6.4-2.6-3-2.6 7.5-2.5-10-2.6 10.5-2.6-9.8-2.6 6-2.6 2.3-2.6-6.2h-2.6l-2.6-2.6-2.6 4.3-2.6-3.5-2.6 4.2-2.6 1.7-2.6 3.3-2.6-.4-2.6-3.6-2.6-5.8-2.5 2.6-2.6 2-2.6 3.2-2.6-4.1-2.6-.5-2.6 1.6-2.6-4.4-2.6 9.2-2.6-7-2.6.4-2.6 5.4-2.6.2-2.6.1-2.6-1.3-2.6-2.1-2.5.3-2.6-1.7-2.6 5.2-2.6-6.6-2.6-2.5-2.6 9.6-2.6-5.9-2.6 5-2.6-8.8-2.6 4.4-2.6 2.6-2.6-2.7-2.6 4.3-2.6-5.4-2.5 2-2.6 1.9-2.6.1-2.6 1.5-2.6-.7-2.6-2.6-2.6-3-2.6-.7-2.6 4.3-2.6-.4-2.6-4.4-2.6 8.4-2.6-1.7-2.6-2.1-2.5-4.9-2.6 3-2.6 1.4-2.6-4.5-2.6-.2-2.6 4.8-2.6 2.5-2.6-5.1-2.6-1.5-2.6 2.9-2.6 1.3-2.5-6-2.6.8-2.6-.6-2.6 2.2-2.6 5.3-2.6-4.8-2.6 2.6-2.6 4.5-2.6.5-2.6-10.5-2.6 6.1-2.6.3-2.6 2.9-2.5-4.1-2.6-3.4-2.6 4.7-2.6-2.5-2.6 3.8-2.6 2.7-2.6-.7-2.6-8.8-2.6 9.2-2.6-8.4-2.5 6.5-2.6-7-2.6 1.8-2.6 4.8-2.6-5.4-2.6 4.2-2.6.3-2.6 2-2.6-7.5-2.6 8.2-2.5-7-2.6 3.3-2.6 4.6-2.6-5.7-2.6-3.6-2.6 5.7-2.6-3.8-2.6 5.7-2.6-1.3-2.6-5.4-2.6-1.4-2.6 7.4-2.5 2.1-2.6-6.1-2.6 3.9-2.6-3-2.6-2.6-2.6 5.7-2.6-7.4-2.6 5.3-2.6-4.2-2.5 3.6-2.6 5-2.6-7.5-2.6 6.4-2.6-7.6-2.6-1.3-2.6 8.4-2.6-2.2-2.5 3.5-2.6-7.3-2.6.2-2.6 4.4-2.6-3.9-2.6.9-2.6 5.3-2.6-9.7-2.6 3-2.6 3.1-2.6-2.9-2.5 2.2-2.6-1.3-2.6 3.1-2.6-3.2-2.6-3.9-2.6 3.7-2.6-3.9-2.6 4.7-2.6-1.6-2.6 2.2-2.5 4.5-2.6-6.9-2.6-.9-2.6-.8-2.6 3.3-2.6 5.6-2.6-4.4-2.6 4-2.6-7-2.5 3.9-2.6 1-2.6 2.5-2.6-1.7-2.6-2.6-2.6-.9-2.6.2-2.5-2.3-2.6 1.5-2.6-3.9-2.6 2.9-2.6.9-2.6-3.8-2.6.9-2.5 4.8-2.6 4.7-2.6-.4-2.6-4.4-2.6 4.1-2.6-9.4-2.6 3.5-2.5.6-2.6-2.6-2.6-.4-2.6 4.7-2.6 2.3-2.6-8.4-2.6.8-2.6-1.3-2.6 10.4-2.5-1.9-2.6-7.5-2.6 7.2-2.6 2.2-2.6-7-2.6-1.3-2.6 4.3-2.6-.1-2.6 3.9-2.6-5.7-2.6-.5-2.5 4.5-2.6 1.8-2.6-9.4-2.6 1.9-2.6-.5-2.6-2.1-2.6 9.6-2.6-.9-2.6.3-2.6-6.1-2.6.7-2.5-2.7-2.6 1.3-2.6 6.3-2.6 1.4-2.6-9.8-2.6 3.5-2.6 3.9-2.6.7-2.6 2.5-2.5-2.4-2.6-2.7-2.6-5.7-2.6 1.2-2.6 8.7-2.6.3-2.6-1.7-2.6 1.9-2.6-9.9-2.6 5-2.6-5.5-2.6 3.5-2.5-1-2.6 5.5-2.6-.1-2.6.2-2.6-4.2-2.6 5.9-2.6-5.2-2.6-.7-2.6 3.3-2.6 2.8-2.5.3-2.6-.8-2.6-8.5-2.6 9.5-2.6-6.2-2.6-3.2-2.6 4.9-2.6 2.8-2.6-.1-2.6-8.4-2.5 6.2-2.6 1.3-2.6-.5h-2.6l-2.6-.8-2.6-6.4-2.6 5.8-2.6 3-2.6.6-2.6-.1-2.5-4.9-2.6 5.2-2.6.5-2.6-3.5-2.6-5.4-2.6 8.9-2.6-8.2h-2.6l-2.6 7.7-2.6-8.3-2.6 1.5-2.5 5.2-2.6-.1-2.6-.7-2.6-1.4-2.6-2.6-2.6-2.6-2.6 4.9-2.6 1.8-2.6-2.4-2.6-1.1-2.5 4.9-2.6-8.7-2.6 8.1-2.6-8.2-2.6 5.3h-2.6l-2.6-4.6-2.6 1.3-2.6 7.5-2.5 1.2-2.6-5.5-2.6-3-2.6 6.2-2.6.9-2.6-.3-2.6-.6-2.6.5-2.6-6.2-2.5 5.1-2.6.8-2.6-.8-2.6-3.8-2.6 6.4-2.6-7.6-2.6-2.7-2.6 10.6-2.6-8.3-2.6 4.2-2.6-6.6-2.5 4.7-2.6-4-2.6 2.9-2.6 3.3-2.6-.9-2.6 3.6-2.6-8.6-2.6 6.7-2.6-2-2.6-5.7-2.5 1.2-2.6 3.8-2.6-1.9-2.6 4.5-2.6-5.9-2.6 6.7-2.6-3.9-2.6 6.1-2.6-.8-2.5-9.9-2.6 1-2.6.8-2.6 7.6-2.6-.3-2.6-7.4-2.6-.4-2.6 7.6-2.6-8.8-2.5 8.8-2.6 1.8-2.6-.5-2.6-5.5-2.6 6-2.6-6.1-2.6-1.4-2.6 1.2-2.6 3.6-2.5-5.8-2.6 1-2.6 3.2-2.6-4.8-2.6-1-2.6 4.6-2.6.1-2.6 2.1-2.6.2-2.5-4.2-2.6 5.2-2.6-2.7-2.6 5-2.6-5.9-2.6 2.2-2.6-5.2-2.6-1.8-2.6-.1-2.6 2.7h-2.5l-2.6-1.5-2.6 3-2.6-.2-2.6.3-2.6 2.8-2.6-5.6-2.6 6.2-2.6 2.6-2.6-3.7-2.5-.7-2.6.3-2.6-5.9-2.6 6.5-2.6-5.4-2.6 3.6-2.6-2.9-2.6 6.2-2.6-6.9-2.6 3.5-2.5 5.8-2.6-5.5-2.6 4.2-2.6-.8-2.6-2.2-2.6-4.7-2.6-.8-2.6 5.2-2.5-6.2-2.6 7.2-2.6-2.6-2.6 4.9-2.6-.8-2.6-6.3-2.6 5.3-2.6-3.2-2.5-3.6-2.6 1.5-2.6 4.2-2.6 3.4-2.6-4.7-2.6-4.1h-2.6l-2.6 1.6-2.6 7.3-2.5.5-2.6-6.3-2.6 4.1-2.6-7.6-2.6.1-2.6 6.3-2.6-2-2.6-4.6-2.5 9.8-2.6-7.2-2.6 6.6-2.6-5.1-2.6-3.4-2.6.9-2.6-.9-2.6 9.4-2.6-7.6-2.5 2-2.6 2.3-2.6-3.3-2.6 6.8-2.6-8.7-2.6-1.9-2.6 1.4-2.6 3.2-2.6 4.4-2.5-7.7-2.6-.1-2.6 6.2-2.6.3-2.6-6.8-2.6 7.5-2.6.4-2.6-8.3-2.6-.5-2.6 5.9-2.6-3.5-2.5 1.2-2.6-1.3-2.6 4.4-2.6 1.6-2.6-5.8h-2.6l-2.6 1.1-2.6 5.1-2.6.7-2.5-6.6-2.6 2.8-2.6 4.4-2.6-2.1-2.6-.1-2.6-7.5-2.6 3.6-2.6-3.8-2.5 7.3-2.6 2.1-2.6.8-2.6-3.2-2.6-.4-2.6 3.6-2.6-4.7-2.6 3.6-2.5-5-2.6-3.9-2.6 6.9-2.6-3.6-2.6 5.6-2.6 1.2-2.6-1.2-2.5-6.9-2.6-2.2-2.6 5.3-2.6.4-2.6.8-2.6-5.3-2.6.1-2.6 4.9-2.5 4-2.6-3.9-2.6-6.3-2.6 5.3-2.6-4.7-2.6 1.6-2.6 1.1-2.6 3.6-2.5-6.4-2.6 5h-2.6l-2.6-2.9-2.6-2.2-2.6 6.9-2.6-2.2-2.5-4.3-2.6 6.6-2.6-7.8-2.6.7-2.6 8.6-2.6-1.8-2.6-7.3-2.6.6-2.5 9.1-2.6-9.6-2.6 8-2.6-3.7-2.6 2.5-2.6-1.2-2.6 4.3-2.6-9.1-2.6.2-2.5 9.5-2.6-7.8-2.6 5.9-2.6-.7-2.6-2.6-2.6-1.1-2.6-1.9-2.6 2.5-2.6 5.1-2.5-7.9-2.6.9-2.6 4-2.6-4.4-2.6 5.6-2.6-.6-2.6-5.1-2.6-1-2.6 2.1-2.6-2.3-2.5 3.8-2.6 2.3-2.6-4.7-2.6-2-2.6 6.1-2.6-4.8-2.6 7.5-2.6-9.4-2.6 3.2-2.5-.3-2.6-2.3-2.6 8.8-2.6-5.7-2.6-1.9-2.6-2-2.6 2-2.6.2-2.5.7-2.6 4.1-2.6-4.8-2.6 5.8-2.6 1.8-2.6.9-2.6-7-2.5-.4-2.6 3.9-2.6-3.7-2.6-2.9-2.6.7-2.6 7.4-2.6-3.3-2.6.8-2.5-.1-2.6-3.3-2.6 2.8-2.6 1.8-2.6.3-2.6 2.2-2.6-4.8-2.5-5.2-2.6 7-2.6-2.1-2.6-3.4-2.6 6.3-2.6-.3-2.5-1.3-2.6-4.3-2.6 2.9-2.6-1.3-2.6 5.8-2.6-5.2-2.6-2.1-2.5 6.7-2.6-8.4-2.6 7.8-2.6 1.1-2.6-6.7-2.6 7.8-2.6.4-2.5-5.6-2.6-2.2-2.6-2.8-2.6 1-2.6 5.9-2.6 3.5-2.6-5.4-2.5 3.6-2.6-8-2.6.4-2.6-.4-2.6 1.6-2.6 8.4-2.6-4.7-2.6 2.2-2.5-.1-2.6-5.5-2.6 6-2.6.2-2.6-1.1-2.6 1.2-2.6-5.1-2.5 6.4-2.6-8.6-2.6 4.6-2.6-3.1-2.6-2.6-2.6 9.8-2.6-.6-2.5-6.9-2.6 7.7-2.6-6-2.6-.8-2.6 1.9-2.6 3.4-2.6-4.8-2.6 2-2.6-2.5-2.5 2.8-2.6-4.7-2.6 7.6-2.6-8-2.6 1.5-2.6.7-2.6 2.5-2.6 2.8-2.6-6.7-2.5 4.9-2.6-.6-2.6 1-2.6-4-2.6-2.1-2.6 4.4-2.6-1.4-2.6.3-2.6 1.8-2.5-4.1-2.6-.2-2.6 2.6-2.6 2.2-2.6-.7-2.6-5.2-2.6 7.8-2.6-4.3-2.6 1.1-2.5-4.6-2.6-.9-2.6 1.6-2.6 4.3-2.6-3.4-2.6-.7-2.6 6.9-2.5-7.2-2.6 3.4-2.6 4-2.6-1.4-2.6-4.3-2.6-2.9-2.6 10.2-2.6-3.3-2.5-3.3-2.6 4.3-2.6-5.7-2.6 3.6-2.6 2.2-2.6-3.7-2.6.4-2.5-.2-2.6.4-2.6 4.4-2.6-5.6-2.6 1.1-2.6 5.2-2.6-7.4-2.5 5.7-2.6.9-2.6-5.9-2.6 2.3-2.6-5.2-2.6 8.8-2.5-1.2-2.6-8-2.6 9.9-2.6-10.1-2.6 5.6-2.6-4.6-2.5 7.7-2.6-.6-2.6-.1-1.9-.3v16.7h2000z" id="0"/><use xlink:href="#0"/></svg>