<?xml version="1.0" encoding="utf-8"?>
<!-- Generator: Adobe Illustrator 16.0.0, SVG Export Plug-In . SVG Version: 6.00 Build 0)  -->
<!DOCTYPE svg PUBLIC "-//W3C//DTD SVG 1.1//EN" "http://www.w3.org/Graphics/SVG/1.1/DTD/svg11.dtd">
<svg version="1.1" id="Layer_1" xmlns="http://www.w3.org/2000/svg" xmlns:xlink="http://www.w3.org/1999/xlink" x="0px" y="0px"
	 width="40px" height="40px" viewBox="0 0 40 40" style="enable-background:new 0 0 40 40;" xml:space="preserve">
<style type="text/css">
<![CDATA[
	.st0{opacity:0.1;fill:#010101;}
	.st1{fill:#222D41;}
]]>
</style>
<g>
	<path class="st0" d="M39.137,13.87v7.812c0,4.015-3.252,7.267-7.26,7.267H17.091l2.452,7.441l-9.359-7.501
		c-3.568-0.464-6.32-3.509-6.32-7.207V13.87c0-4.01,3.252-7.261,7.261-7.261h20.752C35.885,6.609,39.137,9.86,39.137,13.87z"/>
	<path class="st1" d="M36.137,10.87v7.812c0,4.015-3.252,7.267-7.26,7.267H14.091l2.452,7.441L7.184,25.89
		c-3.568-0.464-6.32-3.509-6.32-7.207V10.87c0-4.01,3.252-7.261,7.261-7.261h20.752C32.885,3.609,36.137,6.86,36.137,10.87z"/>
</g>
</svg>
