<?xml version="1.0" encoding="utf-8"?>
<!-- Generator: Adobe Illustrator 18.0.0, SVG Export Plug-In . SVG Version: 6.00 Build 0)  -->
<!DOCTYPE svg PUBLIC "-//W3C//DTD SVG 1.1//EN" "http://www.w3.org/Graphics/SVG/1.1/DTD/svg11.dtd">
<svg version="1.1" id="Layer_1" xmlns="http://www.w3.org/2000/svg" xmlns:xlink="http://www.w3.org/1999/xlink" x="0px" y="0px"
	 viewBox="320 13.5 612 919.2" style="enable-background:new 320 13.5 612 919.2;" xml:space="preserve">
<style type="text/css">
	.st0{fill:#78C6E1;}
	.st1{fill:#F14852;}
	.st2{opacity:0.1;}
	.st3{fill:#FEFFFB;}
	.st4{fill:#CBCBCB;}
	.st5{fill:#FFB56A;}
	.st6{fill:#77B950;}
	.st7{fill:#65CDF0;}
	.st8{fill:#F3F3F3;}
	.st9{fill:#FFFFFF;}
	.st10{fill:#4C4C4C;}
	.st11{fill:#CAC8C9;}
	.st12{opacity:0.75;enable-background:new    ;}
	.st13{font-family:'Gotham-Bold';}
	.st14{font-size:19.7102;}
	.st15{fill:#E6E7E8;}
	.st16{fill:#636363;}
	.st17{fill:#A8A8A8;}
	.st18{fill:#A9ABAE;}
	.st19{opacity:0.75;fill:#929598;enable-background:new    ;}
	.st20{fill:#F3EFED;}
	.st21{fill:#6C6D6C;}
	.st22{fill:#929598;}
	.st23{fill:#E49C60;}
	.st24{fill:#D8D8D8;}
	.st25{fill:#6B6C6B;}
	.st26{fill:#B4B4B5;}
	.st27{fill:#808285;}
	.st28{fill:#848384;}
	.st29{fill:#FCBB6C;}
	.st30{fill:#EE5158;}
	.st31{fill:#222D41;}
	.st32{fill:#646874;}
	.st33{fill:#000101;}
	.st34{fill:#757675;}
	.st35{fill:#009FE0;}
	.st36{fill:none;stroke:#000000;stroke-width:0.646;stroke-linecap:round;stroke-linejoin:round;stroke-miterlimit:10;}
	.st37{fill:none;stroke:#CBCBCB;stroke-width:0.646;stroke-linecap:round;stroke-linejoin:round;stroke-miterlimit:10;}
	.st38{font-size:45.6055;}
	.st39{fill:none;stroke:#000000;stroke-width:0.161;stroke-miterlimit:10;}
	.st40{fill:none;stroke:#FFFFFF;stroke-width:0.161;stroke-miterlimit:10;}
	.st41{fill:#DDDDDD;}
	.st42{fill:#8F8F90;}
	.st43{fill:#917EBA;}
	.st44{fill:#404040;}
	.st45{fill:#545454;}
	.st46{fill:#EAEAEB;}
	.st47{fill:#269BD2;}
	.st48{fill:#141414;}
	.st49{fill:#808B90;}
	.st50{fill:#231F20;}
	.st51{fill:#E4CDA5;}
	.st52{clip-path:url(#SVGID_6_);}
	.st53{clip-path:url(#SVGID_8_);}
	.st54{clip-path:url(#SVGID_18_);fill:#D6B012;}
	.st55{fill:#D85442;}
	.st56{clip-path:url(#SVGID_20_);fill:#AFB0B0;}
	.st57{fill:#26A6DD;}
	.st58{fill:#0B1F35;}
</style>
<circle class="st0" cx="855.5" cy="90" r="76.5"/>
<circle class="st1" cx="396.5" cy="243" r="76.5"/>
<g class="st2">
	<path d="M450.5,283.3c0,1.5-1.2,2.9-2.9,2.9h-82.1c-1.5,0-2.9-1.2-2.9-2.9V223c0-1.5,1.2-2.9,2.9-2.9h82.1c1.5,0,2.9,1.2,2.9,2.9
		V283.3"/>
	<path d="M362.6,230.8v-8.1c0-1.5,1.2-2.9,2.9-2.9h82.1c1.5,0,2.9,1.2,2.9,2.9v8.1H362.6"/>
	<circle cx="372.8" cy="225.4" r="3.1"/>
	<circle cx="383.8" cy="225.4" r="3.1"/>
	<circle cx="394.8" cy="225.4" r="3.1"/>
	<path d="M368.5,237.1h17.1v5.1h-17.1V237.1z"/>
	<path d="M387.9,237.1h34.2v5.1h-34.2V237.1z"/>
	<path d="M368.5,247h34.2v5.1h-34.2V247z"/>
	<path d="M405.1,247h34.2v5.1h-34.2V247z"/>
	<path d="M368.5,257.3h34.2v5.1h-34.2V257.3z"/>
	<path d="M405.1,257.3h17.1v5.1h-17.1V257.3z"/>
	<path d="M424.5,257.3h14.7v5.1h-14.7V257.3z"/>
	<path d="M368.5,268.5h34.2v5.1h-34.2V268.5z"/>
	<path d="M405.1,268.5h17.1v5.1h-17.1V268.5z"/>
	<path d="M424.5,268.5h14.7v5.1h-14.7V268.5z"/>
</g>
<path class="st3" d="M440.4,273.1c0,1.5-1.2,2.9-2.9,2.9h-82.1c-1.5,0-2.9-1.2-2.9-2.9v-60.2c0-1.5,1.2-2.9,2.9-2.9h82.1
	c1.5,0,2.9,1.2,2.9,2.9V273.1"/>
<path class="st4" d="M352.6,221v-8.1c0-1.5,1.2-2.9,2.9-2.9h82.1c1.5,0,2.9,1.2,2.9,2.9v8.1H352.6"/>
<circle class="st1" cx="362.8" cy="215.3" r="3.1"/>
<circle class="st5" cx="373.8" cy="215.3" r="3.1"/>
<circle class="st6" cx="384.7" cy="215.3" r="3.1"/>
<path class="st4" d="M358.4,227.1h17.1v5.1h-17.1V227.1z"/>
<g>
	<path class="st7" d="M377.9,227.1h34.2v5.1h-34.2V227.1z"/>
	<path class="st7" d="M358.4,237.1h34.2v5.1h-34.2V237.1z"/>
	<path class="st7" d="M395,237.1h34.2v5.1H395V237.1z"/>
	<path class="st7" d="M358.4,247.4h34.2v5.1h-34.2V247.4z"/>
	<path class="st7" d="M395,247.4h17.1v5.1H395V247.4z"/>
	<path class="st7" d="M414.6,247.4h14.7v5.1h-14.7V247.4z"/>
</g>
<path class="st4" d="M358.4,258.6h34.2v5.1h-34.2V258.6z"/>
<path class="st7" d="M395,258.6h17.1v5.1H395V258.6z"/>
<path class="st4" d="M414.6,258.6h14.7v5.1h-14.7V258.6z"/>
<circle class="st6" cx="549" cy="243" r="76.5"/>
<g class="st2">
	<path d="M577.2,244h-9h-6.4H559h-5.6h-9.9l-3.8,32.3c10.1,8.1,19.3,33.1,19.3,33.1v-29.1c-1.5-0.6-2.8-2.1-2.8-3.8
		c0-2.3,1.8-4.1,4.1-4.1c2.3,0,4.1,1.8,4.1,4.1c0,1.7-1.1,3.3-2.8,3.8v28.8c0,0,9.2-25,19.3-33.1L577.2,244"/>
	<path d="M585.9,244h-51.4l-1.5-7.1h54.3L585.9,244z"/>
	<path d="M585.7,236.9h-50.3l-5.8-40h61.8L585.7,236.9z"/>
	<path d="M568.1,244h-6.4H560v28.6c0.2,0,0.2,0,0.3,0c2.3,0,4.1,1.8,4.1,4.1c0,1.7-1.1,3.3-2.8,3.8v28.8c0,0,9.2-25,19.3-33.1
		l-3.8-32.3C577.2,244,568.1,244,568.1,244"/>
</g>
<path class="st8" d="M567.3,233.8h-9h-6.4h-2.8h-5.6h-9.9l-3.8,32.3c10.1,8.1,19.3,33.1,19.3,33.1v-28.8c-1.5-0.6-2.8-2.1-2.8-3.8
	c0-2.3,1.8-4.1,4.1-4.1c2.3,0,4.1,1.8,4.1,4.1c0,1.7-1.1,3.3-2.8,3.8v28.8c0,0,9.2-25,19.3-33.1L567.3,233.8"/>
<path class="st9" d="M576,233.8h-51.5l-1.4-7.1h54.3L576,233.8z"/>
<path class="st10" d="M575.7,226.7h-50.4l-5.6-39.9h61.7L575.7,226.7z"/>
<path class="st11" d="M558.1,233.8h-6.3h-1.7v28.6c0.2,0,0.2,0,0.3,0c2.3,0,4.1,1.8,4.1,4.1c0,1.7-1.1,3.3-2.8,3.8v28.8
	c0,0,9.2-25,19.3-33.1l-3.8-32.3L558.1,233.8"/>
<circle class="st5" cx="702.5" cy="243" r="76.5"/>
<g class="st2">
	<path d="M686.6,282.2c-5.2,0-9.4-4.3-9.4-9.4c0-5.2,4.3-9.4,9.4-9.4c5.2,0,9.4,4.3,9.4,9.4S692,282.2,686.6,282.2"/>
	<path d="M710.3,282.2c0-8.9-3.3-17.1-9.7-23.5c-6.3-6.3-14.3-9.7-23.2-9.7v-13.7c25.7,0,46.5,20.9,46.5,46.9H710.3"/>
	<path d="M734.2,282.2c0-31.6-25.5-57.2-56.9-57.2v-13.6c38.8,0,70.4,31.7,70.4,70.9L734.2,282.2"/>
</g>
<g>
	<path class="st9" d="M676.7,272.1c-5.2,0-9.4-4.3-9.4-9.4c0-5.2,4.3-9.4,9.4-9.4c5.2,0,9.4,4.3,9.4,9.4
		C686.1,267.8,681.8,272.1,676.7,272.1"/>
	<path class="st9" d="M700.2,272.1c0-8.9-3.3-17.1-9.7-23.5c-6.3-6.3-14.3-9.7-23.2-9.7v-13.6c25.7,0,46.5,20.9,46.5,46.9
		L700.2,272.1"/>
	<path class="st9" d="M724.2,272.3c0-31.6-25.5-57.2-56.9-57.2v-13.6c38.8,0,70.4,31.7,70.4,70.9L724.2,272.3L724.2,272.3z"/>
</g>
<circle class="st0" cx="855.5" cy="243" r="76.5"/>
<g class="st2">
	<path d="M822.4,213.7l4.8,4.8l5.9-4.8l5.5,4.8l5.5-4.8l5.5,4.8l5.6-4.8l5.9,4.8l5.4-4.8l5.5,4.8l5.8-4.8l5.5,4.8l5.6-4.8l5.4,4.8
		l5.8-4.8l5.4,4.8l5.2-4.8v56.4l-21.6,22.8H828c0,0-5.6-1-5.6-7.2C822.4,279.5,822.4,213.7,822.4,213.7"/>
	<path d="M830.5,229h73v8.4h-73V229z"/>
	<path d="M830.5,242.8h35v31.7h-35V242.8z"/>
	<path d="M869,242.8h34.6v3.6H869V242.8z"/>
	<path d="M869,249.7h34.6v3.6H869V249.7z"/>
	<path d="M869,256.8h34.6v3.6H869V256.8z"/>
	<path d="M869,263.8h34.6v3.6H869V263.8z"/>
	<path d="M869,270.8h34.6v3.6H869V270.8z"/>
	<path d="M869,277.4h30.6v3.6H869V277.4z"/>
	<path d="M830.5,277.4h34.6v3.6h-34.6V277.4z"/>
	<path d="M889.4,293.2v-22.4h22.1L889.4,293.2z"/>
	<path class="st12" d="M889.4,270.8l-21.5,22.4h21.5V270.8z"/>
	<text transform="matrix(1 0 0 1 834.1758 265.2617)" class="st13 st14">PR</text>
</g>
<path class="st15" d="M812.5,203.8l4.8,4.8l5.9-4.8l5.5,4.8l5.5-4.8l5.5,4.8l5.6-4.8l5.9,4.8l5.4-4.8l5.5,4.8l5.8-4.8l5.5,4.8
	l5.6-4.8l5.4,4.8l5.8-4.8l5.4,4.8l5.2-4.8v56.4l-21.4,23h-61.4c0,0-5.6-1-5.6-7.2C812.5,269.5,812.5,203.8,812.5,203.8"/>
<path class="st1" d="M820.5,219.1h73v8.4h-73V219.1z"/>
<path class="st16" d="M820.5,232.8h35v31.7h-35V232.8z"/>
<g>
	<path class="st17" d="M858.8,232.8h34.6v3.6h-34.6V232.8z"/>
	<path class="st17" d="M858.8,239.9h34.6v3.6h-34.6V239.9z"/>
	<path class="st17" d="M858.8,246.8h34.6v3.6h-34.6V246.8z"/>
	<path class="st17" d="M858.8,253.7h34.6v3.6h-34.6V253.7z"/>
	<path class="st17" d="M858.8,260.9h34.6v3.6h-34.6V260.9z"/>
	<path class="st17" d="M858.8,267.3h30.6v3.6h-30.6V267.3z"/>
	<path class="st17" d="M820.5,267.3h34.6v3.6h-34.6V267.3z"/>
</g>
<path class="st18" d="M879.5,283.3v-22.4h22.1L879.5,283.3z"/>
<path class="st19" d="M879.5,260.9l-21.4,22.4h21.4V260.9z"/>
<text transform="matrix(1 0 0 1 824.1641 255.2593)" class="st9 st13 st14">PR</text>
<circle class="st1" cx="396.5" cy="549" r="76.5"/>
<g class="st2">
	<path d="M382.7,607.4h44.2v-95.3h-63.6V588L382.7,607.4z"/>
</g>
<path class="st20" d="M372.8,597.5H417v-95.3h-63.8v75.9L372.8,597.5z"/>
<path class="st21" d="M372.8,514.4c0,3.3-2.8,5.9-5.9,5.9c-3.3,0-5.9-2.8-5.9-5.9c0-3.3,2.8-5.9,5.9-5.9
	C370,508.5,372.8,511,372.8,514.4"/>
<g>
	<path class="st22" d="M372.8,597.5v-19.4h-19.6L372.8,597.5z"/>
	<path class="st22" d="M360.7,525.9h50v4.6h-50V525.9z"/>
	<path class="st22" d="M360.7,536.8h50v4.6h-50V536.8z"/>
	<path class="st22" d="M360.7,547.7h50v4.6h-50V547.7z"/>
	<path class="st22" d="M360.7,558.4h50v4.6h-50V558.4z"/>
	<path class="st22" d="M360.7,569.2h50v4.6h-50V569.2z"/>
</g>
<g class="st2">
	<path d="M410.7,522.4h32.1v20.9h-32.1V522.4z"/>
</g>
<path class="st5" d="M400.8,512.5h32.1v20.9h-32.1V512.5z"/>
<g class="st2">
	<path d="M401.7,553.8h50v36.7h-50V553.8z"/>
</g>
<path class="st5" d="M391.7,543.8h50v36.7h-50V543.8z"/>
<path class="st23" d="M441.8,580.6l-25-25.4l-25.1,25.4H441.8z"/>
<path class="st21" d="M422.8,522.8c0,3.3-2.8,5.9-5.9,5.9c-3.3,0-5.9-2.8-5.9-5.9c0-3.3,2.8-5.9,5.9-5.9
	C420,516.7,422.8,519.5,422.8,522.8"/>
<path class="st9" d="M391.7,543.8l25.1,25.2l25-25.2H391.7z"/>
<path class="st21" d="M422.8,552.8c0,3.3-2.8,5.9-5.9,5.9c-3.3,0-5.9-2.8-5.9-5.9c0-3.3,2.8-5.9,5.9-5.9S422.8,549.6,422.8,552.8"/>
<circle class="st6" cx="549.5" cy="549" r="76.5"/>
<g class="st2">
	<path d="M603.3,589.3c0,1.5-1.2,2.9-2.9,2.9h-82.1c-1.5,0-2.9-1.2-2.9-2.9v-60.4c0-1.5,1.2-2.9,2.9-2.9h82.1c1.5,0,2.9,1.2,2.9,2.9
		V589.3"/>
	<path d="M515.6,537v-8.1c0-1.5,1.2-2.9,2.9-2.9h82.1c1.5,0,2.9,1.2,2.9,2.9v8.1H515.6"/>
	<circle cx="525.8" cy="531.4" r="3.1"/>
	<circle cx="536.8" cy="531.4" r="3.1"/>
	<circle cx="547.8" cy="531.4" r="3.1"/>
	<path d="M535.2,549.3h50V573h-50V549.3z"/>
	<path d="M535.2,541.5h11.3v3.8h-11.3V541.5z"/>
	<path d="M548,541.5h11.3v3.8H548V541.5z"/>
	<path d="M561,541.5h11.3v3.8H561V541.5z"/>
	<path d="M573.8,541.5h11.3v3.8h-11.3V541.5z"/>
	<path d="M535.2,576.8h14.2v8.9h-14.2V576.8z"/>
	<path d="M553,576.8h14.2v8.9H553V576.8z"/>
	<path d="M571.1,576.8h14.2v8.9h-14.2V576.8z"/>
</g>
<path class="st3" d="M593.4,579.3c0,1.5-1.2,2.9-2.9,2.9h-82.1c-1.5,0-2.9-1.2-2.9-2.9v-60.4c0-1.5,1.2-2.9,2.9-2.9h82.1
	c1.5,0,2.9,1.2,2.9,2.9V579.3"/>
<path class="st4" d="M505.6,526.8v-8.1c0-1.5,1.2-2.9,2.9-2.9h82.1c1.5,0,2.9,1.2,2.9,2.9v8.1H505.6"/>
<circle class="st1" cx="515.8" cy="521.5" r="3.1"/>
<circle class="st5" cx="526.7" cy="521.5" r="3.1"/>
<circle class="st6" cx="537.8" cy="521.5" r="3.1"/>
<path class="st1" d="M525,539.2h50V563h-50V539.2z"/>
<g>
	<path class="st5" d="M525,531.4h11.3v3.8H525V531.4z"/>
	<path class="st5" d="M538,531.4h11.3v3.8H538V531.4z"/>
	<path class="st5" d="M551,531.4h11.3v3.8H551V531.4z"/>
	<path class="st5" d="M563.8,531.4h11.3v3.8h-11.3V531.4z"/>
</g>
<g>
	<path class="st6" d="M525,566.8h14.2v8.9H525V566.8z"/>
	<path class="st6" d="M543.1,566.8h14.2v8.9h-14.2V566.8z"/>
	<path class="st6" d="M561,566.8h14.2v8.9H561V566.8z"/>
</g>
<circle class="st5" cx="702.5" cy="549" r="76.5"/>
<g class="st2">
	<path d="M740.2,599.7c0,2-1.5,3.5-3.5,3.5h-48.5c-2,0-3.5-1.5-3.5-3.5v-81.1c0-2,1.5-3.5,3.5-3.5h48.5c2,0,3.5,1.5,3.5,3.5V599.7"
		/>
	<path d="M692,523.8h41.1v70.2H692V523.8z"/>
	<path d="M691.8,523.8h41.3v70.2h-41.3V523.8z"/>
	<circle cx="712.4" cy="519.6" r="2.1"/>
	<circle cx="712.4" cy="597.7" r="2.1"/>
	<path d="M695.6,530.4h9.4v9.4h-9.4V530.4z"/>
	<path d="M707.6,530.4h9.4v9.4h-9.4V530.4z"/>
	<path d="M719.6,530.4h9.4v9.4h-9.4V530.4z"/>
	<path d="M695.6,542.4h9.4v9.4h-9.4V542.4z"/>
	<path d="M707.6,542.4h9.4v9.4h-9.4V542.4z"/>
	<path d="M719.6,542.4h9.4v9.4h-9.4V542.4z"/>
	<path d="M695.6,555.6h9.4v9.4h-9.4V555.6z"/>
	<path d="M707.6,555.6h9.4v9.4h-9.4V555.6z"/>
	<path d="M719.6,555.6h9.4v9.4h-9.4V555.6z"/>
	<path d="M695.6,567.6h9.4v9.4h-9.4V567.6z"/>
	<path d="M707.6,567.6h9.4v9.4h-9.4V567.6z"/>
	<path d="M719.6,567.6h9.4v9.4h-9.4V567.6z"/>
	<path d="M691.6,584.7h41.3v9.4h-41.3V584.7z"/>
</g>
<path class="st24" d="M730.3,589.7c0,2-1.5,3.5-3.5,3.5h-48.5c-2,0-3.5-1.5-3.5-3.5v-81.1c0-2,1.5-3.5,3.5-3.5h48.5
	c2,0,3.5,1.5,3.5,3.5V589.7"/>
<path class="st0" d="M681.8,513.8H723V584h-41.1V513.8z"/>
<path class="st9" d="M681.8,513.8h41.3V584h-41.3V513.8z"/>
<circle class="st25" cx="702.3" cy="509.5" r="2.1"/>
<circle class="st26" cx="702.3" cy="587.5" r="2.1"/>
<g>
	<path class="st0" d="M685.5,520.4h9.4v9.4h-9.4V520.4z"/>
	<path class="st0" d="M697.6,520.4h9.4v9.4h-9.4V520.4z"/>
</g>
<path class="st6" d="M709.7,520.4h9.4v9.4h-9.4V520.4z"/>
<path class="st1" d="M685.5,532.5h9.4v9.4h-9.4V532.5z"/>
<path class="st5" d="M697.6,532.5h9.4v9.4h-9.4V532.5z"/>
<path class="st1" d="M709.7,532.5h9.4v9.4h-9.4V532.5z"/>
<path class="st6" d="M685.5,545.7h9.4v9.4h-9.4V545.7z"/>
<g>
	<path class="st0" d="M697.6,545.7h9.4v9.4h-9.4V545.7z"/>
	<path class="st0" d="M709.7,545.7h9.4v9.4h-9.4V545.7z"/>
</g>
<g>
	<path class="st1" d="M685.5,557.9h9.4v9.4h-9.4V557.9z"/>
	<path class="st1" d="M697.6,557.9h9.4v9.4h-9.4V557.9z"/>
</g>
<path class="st5" d="M709.7,557.9h9.4v9.4h-9.4V557.9z"/>
<path class="st27" d="M681.7,574.7H723v9.4h-41.3V574.7z"/>
<circle class="st0" cx="855.5" cy="549" r="76.5"/>
<g class="st2">
	<path d="M828.7,577.5c-1.7,0-3.1-1.3-3.1-3.1v-52c0-1.7,1.3-3.1,3.1-3.1h73.6c1.7,0,3.1,1.3,3.1,3.1v52c0,1.7-1.3,3.1-3.1,3.1
		H828.7"/>
	<path d="M833.9,525.6h64v45.3h-64V525.6z"/>
	<path d="M833.9,525.6h64V571h-64V525.6z"/>
	<circle cx="901.7" cy="546.7" r="2"/>
	<circle cx="830.7" cy="546.7" r="2"/>
	<path d="M883,528.8h11.7v4.9H883V528.8z"/>
	<path d="M868,558.2h26.5v9H868V558.2z"/>
	<path d="M868,528.8h11.7v4.9H868V528.8z"/>
	<path d="M836.9,558.2h26.5v9h-26.5V558.2z"/>
	<path d="M851.9,528.8h11.7v4.9h-11.7V528.8z"/>
	<path d="M836.9,528.8h11.7v4.9h-11.7V528.8z"/>
	<path d="M836.9,538.6h26.6v16.3h-26.6V538.6z"/>
	<path d="M868,538.6h26.5v4.6H868V538.6z"/>
	<path d="M868,549h26.5v4.6H868V549z"/>
	<path d="M837.4,597.2c0,0,2.5-5.1,2.8-11.8c0.3-6.7,2.9-11.7,5.4-14.2c2.5-2.6,4-5.1,2.3-6.9c-1.7-1.7-4.3-2-6.9,1.2
		c-2.6,3.3-5.4,10.9-9,10.9c-3.5,0.2-6.1-2.9-6.1-4c0-1.1,0-15.5,0-15.5s-6.9,3.3-7.7,12.2c-1,9-0.6,23.1,0.8,25.2
		C820.3,596.5,830.4,598.2,837.4,597.2"/>
	<path d="M884.3,605.8c0,0-7.5-12.5-12.2-15.5c-4.8-3.1-5.5-5.8-3.6-7.5c1.9-1.6,4.8-1.2,7.5,1.7c2.9,2.9,4,3.1,2.9-0.3
		c-1-3.3-6.3-21.1-6.3-21.1s-0.5-1.5,2.1-2.6c2.6-1.1,3.8,0,4.6,2.6c0.8,2.6,4.9,13.2,4.9,13.2s0.2-2,2.8-1.8
		c2.6,0.3,2.9,1.5,2.9,1.5s0.8-1.5,2.9-1.3c2.1,0.2,2.9,1.5,2.9,1.5s1.2-1.5,3.6-1.2c2.6,0.3,6.7,8.7,5.6,25.7
		C905,600.5,900.9,605.9,884.3,605.8"/>
</g>
<path class="st24" d="M819.7,568.3c-1.7,0-3.1-1.3-3.1-3.1v-52c0-1.7,1.3-3.1,3.1-3.1h73.6c1.7,0,3.1,1.3,3.1,3.1v52
	c0,1.7-1.3,3.1-3.1,3.1H819.7"/>
<path class="st0" d="M824.9,516.6h64v45.3h-64V516.6z"/>
<path class="st9" d="M824.9,516.4h64v45.4h-64V516.4z"/>
<circle class="st25" cx="892.7" cy="537.7" r="2"/>
<circle class="st26" cx="821.6" cy="537.7" r="2"/>
<path class="st0" d="M874.1,519.7h11.7v4.9h-11.7V519.7z"/>
<path class="st6" d="M859,549.2h26.5v9H859V549.2z"/>
<path class="st0" d="M859,519.7h11.7v4.9H859V519.7z"/>
<path class="st6" d="M827.8,549.2h26.5v9h-26.5V549.2z"/>
<g>
	<path class="st0" d="M842.8,519.7h11.7v4.9h-11.7V519.7z"/>
	<path class="st0" d="M827.8,519.7h11.7v4.9h-11.7V519.7z"/>
</g>
<path class="st1" d="M827.8,529.4h26.6v16.3h-26.6V529.4z"/>
<g>
	<path class="st28" d="M859,529.4h26.5v4.6H859V529.4z"/>
	<path class="st28" d="M859,540h26.5v4.6H859V540z"/>
</g>
<g>
	<path class="st29" d="M828.2,588.2c0,0,2.5-5.1,2.8-11.8c0.3-6.7,2.9-11.7,5.4-14.2c2.5-2.6,4-5.1,2.3-6.9c-1.7-1.7-4.3-2-6.9,1.2
		c-2.8,3.3-5.4,10.9-9,10.9c-3.5,0.2-6.1-2.9-6.1-4c0-1.1,0-15.5,0-15.5s-6.9,3.3-7.6,12.2c-1,8.9-0.6,23.1,0.8,25.2
		C810.8,587.7,821.4,589,828.2,588.2"/>
	<path class="st29" d="M875.2,596.7c0,0-7.5-12.5-12.2-15.5c-4.8-2.9-5.5-5.8-3.6-7.5c1.8-1.7,4.8-1.2,7.5,1.7
		c2.8,2.9,4,3.1,2.9-0.3c-1-3.3-6.3-21.1-6.3-21.1s-0.5-1.5,2.1-2.6c2.6-1,3.8,0,4.6,2.6c0.8,2.6,4.9,13.2,4.9,13.2s0.2-2,2.8-1.8
		c2.6,0.2,2.9,1.5,2.9,1.5s0.8-1.5,2.9-1.3s2.9,1.5,2.9,1.5s1.2-1.5,3.6-1.2c2.5,0.3,6.7,8.7,5.6,25.7
		C896,591.4,891.9,596.9,875.2,596.7"/>
</g>
<circle class="st1" cx="396.5" cy="396" r="76.5"/>
<g class="st2">
	<path d="M424.5,440.8c0,1.7-1.2,3.1-3.1,3.1H371c-1.7,0-3.1-1.2-3.1-3.1v-68.6c0-1.7,1.2-3.1,3.1-3.1h50.7c1.7,0,3.1,1.2,3.1,3.1
		C424.5,372.3,424.5,440.8,424.5,440.8"/>
	<path d="M374,376.6h44.6v59.5H374V376.6z"/>
	<path d="M373.8,376.6h44.6v59.5h-44.6V376.6z"/>
	<circle cx="396.2" cy="372.9" r="1.8"/>
	<circle cx="396.2" cy="439.1" r="1.8"/>
	<path d="M377.4,381.3h37.3v22h-37.3V381.3z"/>
	<path d="M377.4,408h37.3v22h-37.3V408z"/>
</g>
<path class="st24" d="M414.4,430.9c0,1.7-1.2,3.1-3.1,3.1h-50.5c-1.7,0-3.1-1.2-3.1-3.1v-68.6c0-1.7,1.2-3.1,3.1-3.1h50.7
	c1.7,0,3.1,1.2,3.1,3.1L414.4,430.9"/>
<path class="st0" d="M363.9,366.5h44.6v59.5h-44.6V366.5z"/>
<path class="st9" d="M363.9,366.5h44.6v59.5h-44.6V366.5z"/>
<circle class="st25" cx="386.1" cy="362.9" r="1.8"/>
<circle class="st26" cx="386.1" cy="429.1" r="1.8"/>
<path class="st30" d="M367.4,371.3h37.3v22h-37.3V371.3z"/>
<path class="st6" d="M367.4,398h37.3v22h-37.3V398z"/>
<g class="st2">
	<path d="M398.8,426.6c-1.3,0-2.6-1.1-2.6-2.6v-35c0-1.3,1.1-2.6,2.6-2.6h58.4c1.3,0,2.6,1.1,2.6,2.6v35c0,1.3-1.1,2.6-2.6,2.6
		H398.8"/>
	<path d="M402.9,391.7h50.8v29.6h-50.8V391.7z"/>
	<path d="M402.9,391.6h50.8v29.8h-50.8V391.6z"/>
	<circle cx="456.6" cy="406.4" r="1.5"/>
	<circle cx="399.3" cy="406.4" r="1.5"/>
	<path d="M406.9,394.5h43.3v9.4h-43.3V394.5z"/>
	<path d="M406.9,409.2h43.3v9.4h-43.3V409.2z"/>
</g>
<path class="st24" d="M388.7,416.7c-1.3,0-2.6-1.1-2.6-2.6v-35c0-1.3,1.1-2.6,2.6-2.6h58.5c1.3,0,2.6,1.1,2.6,2.6v35
	c0,1.3-1.1,2.6-2.6,2.6H388.7"/>
<path class="st0" d="M392.9,381.7h50.8v29.6h-50.8V381.7z"/>
<path class="st9" d="M392.9,381.7h50.8v29.8h-50.8V381.7z"/>
<circle class="st25" cx="446.5" cy="396.5" r="1.5"/>
<circle class="st26" cx="389.1" cy="396.5" r="1.5"/>
<path class="st30" d="M397,384.5h43.3v9.4H397V384.5z"/>
<g>
	<path class="st6" d="M397,399.1h43.3v9.4H397V399.1z"/>
	<circle class="st6" cx="549.5" cy="396" r="76.5"/>
</g>
<g class="st2">
	<path d="M603.5,436.3c0,1.5-1.2,2.9-2.9,2.9h-82.1c-1.5,0-2.9-1.2-2.9-2.9v-60.4c0-1.5,1.2-2.9,2.9-2.9h82.1c1.5,0,2.9,1.2,2.9,2.9
		V436.3"/>
	<path d="M515.6,384v-8c0-1.5,1.2-2.9,2.9-2.9h82.1c1.5,0,2.9,1.2,2.9,2.9v7.9L515.6,384L515.6,384z"/>
	<circle cx="525.8" cy="378.4" r="3.1"/>
	<circle cx="536.8" cy="378.4" r="3.1"/>
	<circle cx="547.8" cy="378.4" r="3.1"/>
	<path d="M521.4,390.2h17.1v5.1h-17.1V390.2z"/>
	<path d="M540.8,390.2H575v5.1h-34.2V390.2z"/>
	<path d="M521.4,400.1h34.2v5.1h-34.2V400.1z"/>
	<path d="M557.9,400.1h34.2v5.1h-34.2V400.1z"/>
	<path d="M521.4,410.5h34.2v5.1h-34.2V410.5z"/>
	<path d="M557.9,410.5H575v5.1h-17.1V410.5z"/>
	<path d="M577.5,410.5h14.8v5.1h-14.8V410.5z"/>
	<path d="M521.4,421.5h34.2v5.1h-34.2V421.5z"/>
	<path d="M557.9,421.5H575v5.1h-17.1V421.5z"/>
	<path d="M577.5,421.5h14.8v5.1h-14.8V421.5z"/>
</g>
<path class="st31" d="M593.4,426.3c0,1.5-1.2,2.9-2.9,2.9h-82.1c-1.5,0-2.9-1.2-2.9-2.9v-60.4c0-1.5,1.2-2.9,2.9-2.9h82.1
	c1.5,0,2.9,1.2,2.9,2.9V426.3"/>
<path class="st4" d="M505.6,373.8v-7.9c0-1.5,1.2-2.9,2.9-2.9h82.1c1.5,0,2.9,1.2,2.9,2.9v7.9H505.6"/>
<circle class="st1" cx="515.6" cy="368.5" r="3.1"/>
<circle class="st5" cx="526.8" cy="368.5" r="3.1"/>
<circle class="st6" cx="537.8" cy="368.5" r="3.1"/>
<path class="st30" d="M511.4,380.1h17.1v5.1h-17.1V380.1z"/>
<path class="st7" d="M530.9,380.1h34.2v5.1h-34.2V380.1z"/>
<g>
	<path class="st32" d="M511.4,390.1h34.2v5.1h-34.2V390.1z"/>
	<path class="st32" d="M547.8,390.1H582v5.1h-34.2V390.1z"/>
	<path class="st32" d="M511.4,400.4h34.2v5.1h-34.2V400.4z"/>
	<path class="st32" d="M547.8,400.4h17.1v5.1h-17.1V400.4z"/>
</g>
<g>
	<path class="st4" d="M567.6,400.4h14.8v5.1h-14.8V400.4z"/>
	<path class="st4" d="M511.4,411.6h34.2v5.1h-34.2V411.6z"/>
</g>
<path class="st7" d="M547.8,411.6h17.1v5.1h-17.1V411.6z"/>
<path class="st30" d="M567.6,411.6h14.8v5.1h-14.8V411.6z"/>
<circle class="st5" cx="702.5" cy="396" r="76.5"/>
<g class="st2">
	<path class="st33" d="M748.2,371h-71.9l-2.3,76.7h77.2L748.2,371z"/>
	<path class="st33" d="M736.4,375.3c-0.8-5.6-4.8-29.4-23.7-29.4s-24.2,23.7-25.1,29.3c-0.5,0.3-0.8,1-0.8,1.2c0,1.1,1,1.8,1.8,1.8
		c1.1,0,1.8-1,1.8-1.8c0-0.3-0.2-0.8-0.3-1.1c1-5.1,5.6-27.3,22.7-27.3c16.8,0,20.5,21.9,21.1,27.1c-0.2,0.3-0.3,0.6-0.3,1.1
		c0,1.1,1,1.8,1.8,1.8c1.1,0,1.8-1,1.8-1.8C736.7,376.3,736.6,375.8,736.4,375.3"/>
	<path class="st33" d="M708.4,429.2c-1.5-0.3-3.5-1.1-4.6-1.5c-2-1.1-2.5-1.2-3.3-2.1c-4-3.1-6.4-7.2-7.2-12c-0.3-1.3-0.2-5.8,0-7.1
		c0.3-1.1,1.1-3.8,1.3-4.6c0.2-0.3,0.6-1.1,1-1.5c0.6-1.1,2.8-3.8,3.5-4.6c0.3-0.3,1.1-1,1.3-1.2c0.5-0.5,1-0.8,1-0.8s0.5-0.2,1-0.5
		c1.3-1,2.8-1.3,3.6-1.7c0.6-0.2,1.2-0.5,1.5-0.5c1-0.3,2.9-0.6,4.9-0.6c2.6,0,3.3,0.2,6.9,1.1c0.6,0.2,2.3,1.1,3.6,1.8
		c0.3,0.2,1,0.6,1.2,1c0.5,0.3,1,0.8,1.1,1c0.5,0.3,1.2,1.2,1.7,1.7c0.2,0.2,0.6,0.8,1,1.1c1.8,2.3,3.3,6.1,3.8,9.2
		c0.3,2.9,0.2,5.9-0.6,7.9c-0.3,0.8-0.5,1.3-0.5,1.7c-0.2,1.1-2,4-3.3,5.4c-1.3,1.7-3.5,3.5-5.1,4.4c-0.6,0.3-1.2,0.8-1.5,1
		c-0.6,0.3-4,1.3-4.6,1.3c-0.2,0-0.5,0-0.6,0.2C715.2,429.4,709.6,429.2,708.4,429.2 M712,427.7c0.2-0.2,0.2-6.7-0.2-7.1
		c-0.3-0.3-7.8-0.3-7.9,0c0,0.2,0.2,0.6,0.5,1.1c1.1,2.1,3.1,4.3,5.1,5.1C710.4,427.6,711.9,427.8,712,427.7 M713.8,427.6h0.6
		c1.7,0.2,5.1-2.8,6.4-5.4c0.2-0.5,0.5-0.8,0.5-1s0.2-0.2,0.2-0.3c0-0.3-0.2-0.3-3.1-0.3c-1.5,0-3.3,0-3.8-0.2c-0.8-0.2-1,0-1.1,0.2
		c0,0.2-0.2,1.7,0,3.5L713.8,427.6 M705.8,426.6c0,0-0.5-0.8-1.1-1.3c-0.6-0.8-1.3-2-1.7-2.8c-0.5-0.8-0.8-1.3-1-1.5
		c-0.2-0.2-3.5-0.3-3.6,0c-0.3,0.5,3.3,3.8,4.9,4.6c0.5,0.2,1.1,0.6,1.3,0.8C705.3,426.6,705.8,426.8,705.8,426.6 M723.2,424.5
		c1.1-0.8,3.3-3.1,3.3-3.3c0-0.2-0.3-0.2-1.5-0.2c-1.8,0-1.7-0.2-2.6,1.5c-0.3,0.6-1.1,1.5-1.3,2.3c-0.5,0.6-1,1.1-1.1,1.2
		C719.5,426.8,721.4,425.6,723.2,424.5 M725.9,419.1c2.1,0,2,0,2.9-1.3c1.1-2.1,2-6.6,1.3-7.1c-0.2,0-1.1-0.2-2.5-0.2
		c-1.7,0-2.3,0-2.3,0.2c-0.2,0.2-0.2,1-0.3,1.5c-0.2,1.3-0.8,5.1-1.1,5.9c-0.2,0.3-0.2,0.6-0.2,0.8
		C724.1,419.1,724.7,419.1,725.9,419.1 M713.8,419.1h4c2.3,0,4.1,0,4.3-0.2c0.6-0.3,1.2-3.6,1.5-6.4c0.2-1.3,0.2-1.7,0-1.8
		c-0.2,0-2.5-0.2-5.1-0.2h-4.9v3.8c0,2.3,0,4,0.2,4.3L713.8,419.1L713.8,419.1z M703.3,419.1h4.3h4.3l0.2-0.5c0.2-0.5,0-7.8-0.2-7.9
		c-0.2-0.1-9.8-0.2-9.9,0c-0.6,0.3,0.6,6.9,1.2,7.9L703.3,419.1 M699.2,419.1h2v-0.5c0-0.3-0.2-0.6-0.2-1c-0.3-0.8-0.8-3.3-1-5.2
		c-0.2-1.2-0.2-1.7-0.5-1.8c-0.3-0.2-4.8-0.3-5.1,0c-0.3,0.2,0,2.8,0.8,4.9c0.6,1.7,1.1,2.8,1.5,3.3
		C697.1,419.1,697.3,419.1,699.2,419.1 M727.7,409.2c1.8,0,2.3,0,2.5-0.2c0.3-0.3,0.2-2.1-0.2-3.1c-0.2-0.3-0.3-1.1-0.6-1.7
		c-0.5-1.2-1-2.3-1.2-2.8c-0.3-0.3-0.5-0.3-2.1-0.3c-2,0-2.1,0-1.8,0.6c0.3,0.6,1.1,4.6,1.1,5.9c0,0.6,0.2,1.1,0.2,1.2
		C725.6,409.2,725.9,409.2,727.7,409.2 M713.7,409h5.1c4.3,0,5.1,0,5.1-0.2c0.2-0.3-0.2-3.1-0.6-4.8c-0.3-1.5-0.8-2.8-1.1-2.9
		c-0.2,0-2-0.2-4.3-0.2c-3.1,0-4.1,0-4.3,0.2c0,0.2-0.2,1.8,0,3.8L713.7,409 M712,408.8c0-0.2,0.2-1.8,0-3.8v-3.6h-4.4h-4.4
		l-0.3,0.8c-0.8,1.7-1.2,6.6-1.1,7.1C702,409.2,711.7,409.2,712,408.8 M699.9,408.8c0.2-0.2,0.3-0.8,0.3-1.7c0-1,0.2-1.7,0.3-2
		c0.2-0.3,0.3-1.1,0.3-1.5c0.2-0.6,0.3-1.2,0.5-1.5c0.2-0.5,0.2-0.6,0.2-0.6c-0.2-0.2-4-0.3-4.1-0.2c-0.8,0.6-2,4.1-2.3,6.3
		c-0.2,1.1-0.2,1.2,0,1.3C695.1,409.2,699.7,409.2,699.9,408.8 M726.8,399.3c0.2-0.3-1.8-2.5-3.3-3.6c-1.1-1-3.3-2.1-3.3-2
		c0,0,0.3,0.8,1,1.3c0.6,0.8,1.2,1.8,1.7,2.8c0.5,0.8,1,1.5,1.1,1.5C723.9,399.6,726.7,399.6,726.8,399.3 M721.4,399.5
		c0.3-0.2-1-2.1-1.8-3.3c-1.1-1.3-2.6-2.8-3.8-3.3c-1.2-0.6-1.5-0.8-2-0.6l-0.3,0.2v3.3c0,2.8,0,3.3,0.2,3.5
		C713.9,399.6,721.1,399.6,721.4,399.5 M707.9,399.5c3.1,0,3.8,0,4-0.2c0.2-0.2,0.2-1.1,0-3.5c-0.2-3.1-0.2-3.3-0.3-3.3
		c-0.5-0.2-0.8,0-2,0.6s-2.8,1.8-3.6,3.1c-1,1.1-2,3.1-1.8,3.3C704,399.3,705.8,399.5,707.9,399.5 M701.9,399.3
		c0.2,0,0.6-0.8,1.1-1.5c0.5-1,1.1-2,1.5-2.6c1-1.1,1.3-1.8,1.2-1.8c0,0-0.3,0.2-0.6,0.3c-0.3,0.2-1,0.5-1.3,0.8
		c-1.1,0.6-1.5,1.1-3.1,2.1c-1.1,1-2.6,2.8-2.6,2.9C698.4,399.5,701.4,399.5,701.9,399.3"/>
</g>
<path class="st30" d="M738.3,361.1h-72l-2.2,76.7h77.2L738.3,361.1z"/>
<path d="M726.4,365.4c-0.8-5.6-4.8-29.4-23.7-29.4c-18.9,0-24.2,23.7-25.1,29.3c-0.5,0.3-0.8,1-0.8,1.2c0,1.1,1,1.8,1.8,1.8
	c1.1,0,1.8-1,1.8-1.8c0-0.3-0.2-0.8-0.3-1.1c1-5.1,5.6-27.3,22.7-27.3c16.8,0,20.5,21.9,21.1,27.1c-0.2,0.3-0.3,0.6-0.3,1.1
	c0,1.1,1,1.8,1.8,1.8s1.8-1,1.8-1.8C726.8,366.4,726.7,365.9,726.4,365.4"/>
<path class="st9" d="M698.5,419.1c-1.5-0.3-3.5-1.1-4.6-1.5c-2-1.1-2.5-1.2-3.3-2.1c-4-3.1-6.4-7.2-7.2-12c-0.3-1.3-0.2-5.8,0-7.1
	c0.3-1.1,1.1-3.8,1.3-4.6c0.2-0.3,0.6-1.1,1-1.5c0.6-1.1,2.8-3.8,3.5-4.6c0.3-0.3,1.1-1,1.3-1.2c0.5-0.5,1-0.8,1-0.8s0.5-0.2,1-0.5
	c1.3-1,2.8-1.3,3.6-1.7c0.6-0.2,1.2-0.5,1.5-0.5c1-0.3,2.9-0.6,4.9-0.6c2.6,0,3.3,0.2,6.9,1.1c0.6,0.2,2.3,1.1,3.6,1.8
	c0.3,0.2,1,0.6,1.2,1c0.5,0.3,1,0.8,1.1,1c0.5,0.3,1.2,1.2,1.7,1.7c0.2,0.2,0.6,0.8,1,1.1c1.8,2.3,3.3,6.1,3.8,9.2
	c0.3,2.9,0.2,5.9-0.6,7.9c-0.3,0.8-0.5,1.3-0.5,1.7c-0.2,1.1-2,4-3.3,5.4c-1.3,1.7-3.5,3.5-5.1,4.4c-0.6,0.3-1.2,0.8-1.5,1
	c-0.6,0.3-4,1.3-4.6,1.3c-0.2,0-0.5,0-0.6,0.2C705.3,419.4,699.6,419.2,698.5,419.1 M702,417.7c0.2-0.2,0.2-6.7-0.2-7.1
	s-7.8-0.3-7.9,0c0,0.2,0.2,0.6,0.5,1.1c1.1,2.1,3.1,4.3,5.1,5.1C700.4,417.6,701.9,417.9,702,417.7 M703.8,417.6h0.6
	c1.7,0.2,5.1-2.8,6.4-5.4c0.2-0.5,0.5-0.8,0.5-1c0-0.2,0.2-0.2,0.2-0.3c0-0.3-0.2-0.3-3.1-0.3c-1.5,0-3.3,0-3.8-0.2
	c-0.8-0.2-1,0-1.1,0.2c0,0.2-0.2,1.7,0,3.5L703.8,417.6 M695.8,416.7c0,0-0.5-0.8-1.1-1.3c-0.6-0.8-1.3-2-1.7-2.8
	c-0.5-0.8-0.8-1.3-1-1.5c-0.2-0.2-3.5-0.3-3.6,0c-0.3,0.5,3.3,3.8,4.9,4.6c0.5,0.2,1.1,0.6,1.3,0.8
	C695.3,416.7,695.8,416.8,695.8,416.7 M713.2,414.6c1.1-0.8,3.3-3.1,3.3-3.3c0-0.2-0.3-0.2-1.5-0.2c-1.8,0-1.7-0.2-2.6,1.5
	c-0.3,0.6-1.1,1.5-1.3,2.3c-0.5,0.6-1,1.1-1.1,1.2C709.6,416.8,711.5,415.7,713.2,414.6 M716,409.2c2.1,0,2,0,2.9-1.3
	c1.1-2.1,2-6.6,1.3-7.1c-0.2,0-1.1-0.2-2.5-0.2c-1.7,0-2.3,0-2.3,0.2c-0.2,0.2-0.2,1-0.3,1.5c-0.2,1.3-0.8,5.1-1.1,5.9
	c-0.2,0.3-0.2,0.6-0.2,0.8C714.2,409.2,714.7,409.2,716,409.2 M703.8,409.2h4c2.3,0,4.1,0,4.3-0.2c0.6-0.3,1.2-3.6,1.5-6.4
	c0.2-1.3,0.2-1.7,0-1.8c-0.2,0-2.5-0.2-5.1-0.2h-4.9v3.8c0,2.3,0,4,0.2,4.3L703.8,409.2L703.8,409.2z M693.3,409.2h4.3h4.3l0.2-0.5
	c0.2-0.5,0-7.8-0.2-7.9c-0.2-0.2-9.8-0.2-9.9,0c-0.6,0.3,0.6,6.9,1.2,7.9L693.3,409.2 M689.3,409.2h2v-0.5c0-0.3-0.2-0.6-0.2-1
	c-0.3-0.8-0.8-3.3-1-5.2c-0.2-1.2-0.2-1.7-0.5-1.8c-0.3-0.2-4.8-0.3-5.1,0c-0.3,0.2,0,2.8,0.8,4.9c0.6,1.7,1.1,2.8,1.5,3.3
	C687.2,409.2,687.4,409.2,689.3,409.2 M717.8,399.1c1.8,0,2.3,0,2.5-0.2c0.3-0.3,0.2-2.1-0.2-3.1c-0.2-0.3-0.3-1.1-0.6-1.7
	c-0.5-1.2-1-2.3-1.2-2.8c-0.3-0.3-0.5-0.3-2.1-0.3c-2,0-2.1,0-1.8,0.6s1.1,4.6,1.1,5.9c0,0.6,0.2,1.1,0.2,1.2
	C715.7,399.1,716,399.1,717.8,399.1 M703.7,399.1h5.1c4.3,0,5.1,0,5.1-0.2c0.2-0.3-0.2-3.1-0.6-4.8c-0.3-1.5-0.8-2.8-1.1-2.9
	c-0.2,0-2-0.2-4.3-0.2c-3.1,0-4.1,0-4.3,0.2c0,0.2-0.2,1.8,0,3.8L703.7,399.1 M702,398.9c0-0.2,0.2-1.8,0-3.8v-3.6h-4.4h-4.4
	l-0.3,0.8c-0.8,1.7-1.2,6.6-1.1,7.1C692.1,399.1,701.7,399.1,702,398.9 M690,398.9c0.2-0.2,0.3-0.8,0.3-1.7c0-1,0.2-1.7,0.3-2
	c0.2-0.3,0.3-1.1,0.3-1.5c0.2-0.6,0.3-1.2,0.5-1.5c0.2-0.5,0.2-0.6,0.2-0.6c-0.2-0.2-4-0.3-4.1-0.2c-0.8,0.6-2,4.1-2.3,6.3
	c-0.2,1.1-0.2,1.2,0,1.3C685.2,399.1,689.8,399.1,690,398.9 M716.8,389.4c0.2-0.3-1.8-2.5-3.3-3.6c-1.1-1-3.3-2.1-3.3-2
	c0,0,0.3,0.8,1,1.3c0.6,0.8,1.2,1.8,1.7,2.8c0.5,0.8,1,1.5,1.1,1.5C714,389.7,716.7,389.7,716.8,389.4 M711.5,389.6
	c0.3-0.2-1-2.1-1.8-3.3c-1.1-1.3-2.6-2.8-3.8-3.3c-1.2-0.6-1.5-0.8-2-0.6l-0.3,0.2v3.3c0,2.8,0,3.3,0.2,3.5
	C703.8,389.6,711.2,389.7,711.5,389.6 M697.9,389.6c3.1,0,3.8,0,4-0.2c0.2-0.2,0.2-1.1,0-3.5c-0.2-3.1-0.2-3.3-0.3-3.3
	c-0.5-0.2-0.8,0-2,0.6c-1.2,0.6-2.8,1.8-3.6,3.1c-1,1.1-2,3.1-1.8,3.3C694.1,389.4,695.8,389.6,697.9,389.6 M692,389.4
	c0.2,0,0.6-0.8,1.1-1.5c0.5-1,1.1-2,1.5-2.6c1-1.1,1.3-1.8,1.2-1.8c0,0-0.3,0.2-0.6,0.3c-0.3,0.1-1,0.5-1.3,0.8
	c-1.1,0.6-1.5,1.1-3.1,2.1c-1.1,1-2.6,2.8-2.6,2.9C688.3,389.6,691.5,389.6,692,389.4"/>
<circle class="st0" cx="855.5" cy="396" r="76.5"/>
<g class="st2">
	<ellipse cx="865.6" cy="432.5" rx="31.7" ry="7.8"/>
	<path d="M897.3,432.5c0,4.3-14.2,7.8-31.7,7.8c-17.4,0-31.7-3.3-31.7-7.8V445c0,4.3,14.2,7.8,31.7,7.8c17.4,0,31.7-3.3,31.7-7.8
		V432.5"/>
	<path d="M894.2,417.1c0,3.8-12.8,7.1-28.8,7.1c-15.9,0-28.8-3.1-28.8-7.1v11.2c0,3.8,12.8,7.1,28.8,7.1c15.9,0,28.8-3.1,28.8-7.1
		V417.1"/>
	<ellipse cx="865.6" cy="410.5" rx="31.7" ry="7.8"/>
	<path d="M897.3,410.5c0,4.3-14.2,7.8-31.7,7.8c-17.4,0-31.7-3.3-31.7-7.8V423c0,4.3,14.2,7.8,31.7,7.8c17.4,0,31.7-3.3,31.7-7.8
		V410.5"/>
	<path d="M894.2,395.5c0,3.8-12.8,7.1-28.8,7.1c-15.9,0-28.8-3.1-28.8-7.1v11.2c0,3.8,12.8,7.1,28.8,7.1c15.9,0,28.8-3.1,28.8-7.1
		V395.5"/>
	<ellipse cx="865.6" cy="387.9" rx="31.7" ry="7.8"/>
	<path d="M897.3,387.9c0,4.3-14.2,7.8-31.7,7.8c-17.4,0-31.7-3.3-31.7-7.8v12.4c0,4.3,14.2,7.8,31.7,7.8c17.4,0,31.7-3.3,31.7-7.8
		V387.9"/>
	<path d="M894.2,372.8c0,3.8-12.8,7.1-28.8,7.1c-15.9,0-28.8-3.1-28.8-7.1V384c0,3.8,12.8,7.1,28.8,7.1c15.9,0,28.8-3.1,28.8-7.1
		V372.8"/>
	<ellipse cx="865.6" cy="365.7" rx="31.7" ry="7.8"/>
	<path d="M897.3,365.7c0,4.3-14.2,7.8-31.7,7.8c-17.4,0-31.7-3.3-31.7-7.8v12.4c0,4.3,14.2,7.8,31.7,7.8c17.4,0,31.7-3.3,31.7-7.8
		V365.7"/>
</g>
<ellipse class="st34" cx="855.5" cy="422.6" rx="31.7" ry="7.8"/>
<path class="st24" d="M887.2,422.6c0,4.3-14.2,7.8-31.7,7.8c-17.4,0-31.7-3.3-31.7-7.8V435c0,4.3,14.2,7.8,31.7,7.8
	c17.4,0,31.7-3.3,31.7-7.8V422.6"/>
<path class="st35" d="M884.3,407.2c0,3.8-12.8,7.1-28.8,7.1c-15.8,0-28.8-3.1-28.8-7.1v11.2c0,3.8,12.8,7.1,28.8,7.1
	c15.8,0,28.8-3.1,28.8-7.1V407.2"/>
<ellipse class="st34" cx="855.5" cy="400.4" rx="31.7" ry="7.8"/>
<path class="st24" d="M887.2,400.4c0,4.3-14.2,7.8-31.7,7.8c-17.4,0-31.7-3.3-31.7-7.8v12.4c0,4.3,14.2,7.8,31.7,7.8
	c17.4,0,31.7-3.3,31.7-7.8V400.4"/>
<path class="st35" d="M884.3,385.6c0,3.8-12.8,7.1-28.8,7.1c-15.8,0-28.8-3.1-28.8-7.1v11.2c0,3.8,12.8,7.1,28.8,7.1
	c15.8,0,28.8-3.1,28.8-7.1V385.6"/>
<ellipse class="st34" cx="855.5" cy="377.8" rx="31.7" ry="7.8"/>
<path class="st24" d="M887.2,377.8c0,4.3-14.2,7.8-31.7,7.8c-17.4,0-31.7-3.3-31.7-7.8v12.4c0,4.3,14.2,7.8,31.7,7.8
	c17.4,0,31.7-3.3,31.7-7.8V377.8"/>
<path class="st35" d="M884.3,362.8c0,3.8-12.8,7.1-28.8,7.1c-15.8,0-28.8-3.1-28.8-7.1V374c0,3.8,12.8,7.1,28.8,7.1
	c15.8,0,28.8-3.1,28.8-7.1V362.8"/>
<ellipse class="st34" cx="855.5" cy="355.6" rx="31.7" ry="7.8"/>
<path class="st24" d="M887.2,355.6c0,4.3-14.2,7.8-31.7,7.8c-17.4,0-31.7-3.3-31.7-7.8v12.4c0,4.3,14.2,7.8,31.7,7.8
	c17.4,0,31.7-3.3,31.7-7.8V355.6"/>
<circle class="st1" cx="396.5" cy="702" r="76.5"/>
<g class="st2">
	<path class="st36" d="M382.2,759.2l24.5-60.5l23.3,60.5"/>
	<path d="M368.2,676h76.7v56h-76.7L368.2,676z"/>
	<path d="M412,692.5h8.4v28.6H412V692.5z"/>
	<path d="M420.4,698.7h8.4V721h-8.4V698.7z"/>
	<path d="M428.6,683.8h8.4v37.3h-8.4V683.8z"/>
	<circle cx="388.6" cy="705.8" r="14.3"/>
	<path d="M388.6,705.8h14.3c0-3.3-1.1-6.4-2.9-8.7L388.6,705.8"/>
	<path d="M388.6,705.8l11.3-8.7c-2.8-3.3-6.7-5.5-11.3-5.5c-3.3,0-6.3,1.1-8.6,2.9L388.6,705.8"/>
</g>
<path class="st37" d="M372.2,749.2l24.3-60.5l23.5,60.5"/>
<path class="st9" d="M358.2,666h76.7v56h-76.7V666z"/>
<path class="st1" d="M401.9,682.4h8.4V711h-8.4V682.4z"/>
<path class="st6" d="M410.3,688.7h8.4v22.4h-8.4V688.7z"/>
<path class="st0" d="M418.5,673.7h8.4V711h-8.4V673.7z"/>
<circle class="st5" cx="378.6" cy="695.7" r="14.3"/>
<path class="st6" d="M378.6,695.7H393c0-3.3-1.1-6.4-2.9-8.7L378.6,695.7"/>
<path class="st0" d="M378.6,695.7l11.3-8.7c-2.8-3.3-6.7-5.5-11.3-5.5c-3.3,0-6.3,1.1-8.6,2.9L378.6,695.7"/>
<circle class="st6" cx="549.5" cy="702" r="76.5"/>
<g class="st2">
	<path d="M603.5,742.3c0,1.5-1.2,2.9-2.9,2.9h-82.1c-1.5,0-2.9-1.2-2.9-2.9V682c0-1.5,1.2-2.9,2.9-2.9h82.1c1.5,0,2.9,1.2,2.9,2.9
		V742.3"/>
	<path d="M515.6,689.8v-8.1c0-1.5,1.2-2.9,2.9-2.9h82.1c1.5,0,2.9,1.2,2.9,2.9v8.1H515.6"/>
	<circle cx="525.8" cy="684.4" r="3.1"/>
	<circle cx="536.8" cy="684.4" r="3.1"/>
	<circle cx="547.8" cy="684.4" r="3.1"/>
	<text transform="matrix(1 0 0 1 532.6036 731.1562)" class="st13 st38">$</text>
	<path d="M574.5,725.5c-1.5,1.3-3.1,2.9-4.8,4.1c-0.3,0.3-1,0.5-1.2,0.6c-0.2-0.5-0.5-1-0.6-1.2c-1.3-10.2-2.5-17.1-3.3-24.3
		c0-0.3,0.2-0.8,0.3-1.1c0.5,0.2,1,0.2,1.1,0.5c5.9,4.6,11.8,9,17.8,13.6c0.6,0.5,1.1,1,1.7,1.2c1,1,1,1.1-0.3,1.7
		c-1.8,0.8-3.8,1.5-5.8,2.3c2,2.6,3.8,4.9,5.6,7.4c0.8,1,0.5,1.2-0.3,1.7c-1.2,1-2.8,1.7-4,2.6c-0.8,0.6-1.1,0.5-1.5-0.5
		C577.5,731.3,576.1,728.5,574.5,725.5"/>
</g>
<path class="st0" d="M593.4,732.1c0,1.5-1.2,2.9-2.9,2.9h-82.1c-1.5,0-2.9-1.2-2.9-2.9v-60.2c0-1.5,1.2-2.9,2.9-2.9h82.1
	c1.5,0,2.9,1.2,2.9,2.9V732.1"/>
<path class="st4" d="M505.6,680v-8.1c0-1.5,1.2-2.9,2.9-2.9h82.1c1.5,0,2.9,1.2,2.9,2.9v8.1H505.6"/>
<circle class="st1" cx="515.8" cy="674.3" r="3.1"/>
<circle class="st5" cx="526.8" cy="674.3" r="3.1"/>
<circle class="st6" cx="537.7" cy="674.3" r="3.1"/>
<text transform="matrix(1 0 0 1 522.5918 721.1445)" class="st1 st13 st38">$</text>
<path class="st9" d="M564.5,715.5c-1.5,1.3-3.1,2.9-4.8,4.1c-0.3,0.3-1,0.5-1.2,0.6c-0.2-0.5-0.5-1-0.6-1.2
	c-1.3-10.2-2.5-17.1-3.3-24.3c0-0.3,0.2-0.8,0.3-1.1c0.5,0.2,1,0.2,1.1,0.5c5.9,4.6,11.8,9,17.8,13.6c0.6,0.5,1.1,1,1.7,1.2
	c1,1,1,1.1-0.3,1.7c-1.8,0.8-3.8,1.5-5.8,2.3c2,2.6,3.8,4.9,5.6,7.4c0.8,1,0.5,1.2-0.3,1.7c-1.2,1-2.8,1.7-4,2.6
	c-0.8,0.6-1.1,0.5-1.5-0.5C567.7,721.3,566,718.4,564.5,715.5"/>
<circle class="st5" cx="702.5" cy="702" r="76.5"/>
<g class="st2">
	<path d="M723.9,737.5l-45.1-31.1l45.3-29.1l5.4,8.4l-32.6,21l32.7,22.6L723.9,737.5z"/>
	<path d="M740.9,681.6c0,7.8-6.4,14.2-14.2,14.2s-12.4-6.6-14.2-14.2c-2.8-11.3,5.2-15.6,14.2-14.2
		C734.4,668.5,740.9,673.9,740.9,681.6"/>
	<circle cx="726.7" cy="731.1" r="14.2"/>
	<circle cx="687.8" cy="706.6" r="14.2"/>
</g>
<g>
	<path class="st9" d="M717.6,731.4l-44.9-31.2l45.1-29l5.4,8.4l-32.6,20.8l32.8,22.7L717.6,731.4z"/>
	<path class="st9" d="M734.6,675.4c0,7.8-6.4,14.2-14.2,14.2s-12.4-6.6-14.2-14.2c-2.8-11.3,5.2-15.6,14.2-14.2
		C728.3,662.4,734.6,667.6,734.6,675.4"/>
	<circle class="st9" cx="720.6" cy="725" r="14.2"/>
	<circle class="st9" cx="681.7" cy="700.3" r="14.2"/>
</g>
<circle class="st0" cx="855.5" cy="702" r="76.5"/>
<g class="st2">
	<circle cx="863.9" cy="712.5" r="46.2"/>
	<circle cx="849.1" cy="707.8" r="6.9"/>
	<circle cx="901.4" cy="684.9" r="6.9"/>
	<circle cx="876.2" cy="741.8" r="6.9"/>
	<g>
		<circle class="st39" cx="863.9" cy="712.5" r="32.6"/>
		<circle class="st39" cx="863.9" cy="712.5" r="15.6"/>
	</g>
	<path d="M863.9,712.5l13.3-59.3L894,659L863.9,712.5z"/>
</g>
<circle class="st1" cx="853.8" cy="702.8" r="46.2"/>
<g>
	<circle class="st9" cx="839.1" cy="697.7" r="6.9"/>
	<circle class="st9" cx="891.3" cy="674.7" r="6.9"/>
	<circle class="st9" cx="866" cy="731.6" r="6.9"/>
</g>
<g>
	<circle class="st40" cx="853.8" cy="702.8" r="32.6"/>
	<circle class="st40" cx="853.8" cy="702.8" r="15.6"/>
</g>
<path class="st5" d="M853.8,702.8l13.5-59.5L884,649L853.8,702.8z"/>
<circle class="st6" cx="549.5" cy="90" r="76.5"/>
<g class="st2">
	<path d="M607.2,133c0,1.7-1.3,3.1-3.1,3.1h-87.8c-1.7,0-3.1-1.3-3.1-3.1V68.4c0-1.7,1.3-3.1,3.1-3.1h87.8c1.7,0,3.1,1.3,3.1,3.1
		V133"/>
	<path d="M513.3,77v-8.6c0-1.7,1.3-3.1,3.1-3.1h87.8c1.7,0,3.1,1.3,3.1,3.1V77H513.3"/>
	<circle cx="524.1" cy="71.2" r="3.3"/>
	<circle cx="535.9" cy="71.2" r="3.3"/>
	<circle cx="547.7" cy="71.2" r="3.3"/>
	<path d="M555,109.6h10.7v9.8H555V109.6z"/>
	<path d="M570.2,102.8c0-5.4-4.4-9.8-9.8-9.8s-9.8,4.4-9.8,9.8c0,1.8,0.5,3.5,1.3,5.1c4.8,8.2,2.9,10.7,2.9,10.7v0.8H566
		c-1.7-7.4,2.3-11.5,2.6-11.5C569.7,106.4,570.2,104.7,570.2,102.8"/>
	<path d="M554.1,120.8h12.5v2.8h-12.5V120.8z"/>
	<path d="M556.7,124.7h7.5v2.8h-7.5V124.7z"/>
	<path d="M559.2,82.1h2.3v7.5h-2.3V82.1z"/>
	<path d="M574,102h7.5v2.3H574V102z"/>
	<path d="M539.1,102h7.5v2.3h-7.5V102z"/>
	<path d="M571.4,87.1h2.3v7.5h-2.3V87.1z"/>
	<path d="M546.6,111.8h2.3v7.5h-2.3V111.8z"/>
	<path d="M571.3,111.7h2.3v7.5h-2.3V111.7z"/>
	<path d="M546.7,87h2.3v7.5h-2.3V87z"/>
</g>
<path class="st3" d="M596.5,122.3c0,1.7-1.3,3.1-3.1,3.1h-87.8c-1.7,0-3.1-1.3-3.1-3.1V57.7c0-1.7,1.3-3.1,3.1-3.1h87.8
	c1.7,0,3.1,1.3,3.1,3.1V122.3"/>
<path class="st4" d="M502.5,66.3v-8.6c0-1.7,1.3-3.1,3.1-3.1h87.8c1.7,0,3.1,1.3,3.1,3.1v8.6H502.5"/>
<circle class="st1" cx="513.4" cy="60.5" r="3.3"/>
<circle class="st5" cx="525.2" cy="60.5" r="3.3"/>
<circle class="st6" cx="537" cy="60.5" r="3.3"/>
<path class="st41" d="M544.3,98.9H555v9.8h-10.7V98.9z"/>
<path class="st5" d="M559.4,92.1c0-5.4-4.4-9.8-9.8-9.8c-5.4,0-9.8,4.4-9.8,9.8c0,1.8,0.5,3.5,1.3,5.1c4.8,8.2,2.9,10.7,2.9,10.7
	v0.8h11.2c-1.7-7.4,2.3-11.5,2.6-11.5C559,95.6,559.4,94,559.4,92.1"/>
<g>
	<path class="st4" d="M543.4,110.1h12.5v2.8h-12.5V110.1z"/>
	<path class="st4" d="M546,114h7.5v2.8H546V114z"/>
</g>
<g>
	<path class="st5" d="M548.4,71.4h2.3v7.5h-2.3V71.4z"/>
	<path class="st5" d="M563.3,91.3h7.5v2.3h-7.5V91.3z"/>
	<path class="st5" d="M528.4,91.3h7.5v2.3h-7.5V91.3z"/>
	<path class="st5" d="M560.7,76.4h2.3v7.5h-2.3V76.4z"/>
	<path class="st5" d="M535.9,101.1h2.3v7.5h-2.3V101.1z"/>
	<path class="st5" d="M560.6,101h2.3v7.5h-2.3V101z"/>
	<path class="st5" d="M536,76.3h2.3v7.5H536V76.3z"/>
	<circle class="st5" cx="702.5" cy="90" r="76.5"/>
</g>
<g class="st2">
	<path d="M760.2,133c0,1.7-1.3,3.1-3.1,3.1h-87.8c-1.7,0-3.1-1.3-3.1-3.1V68.4c0-1.7,1.3-3.1,3.1-3.1h87.8c1.7,0,3.1,1.3,3.1,3.1
		V133"/>
	<path d="M666.3,77v-8.6c0-1.7,1.3-3.1,3.1-3.1h87.8c1.7,0,3.1,1.3,3.1,3.1V77H666.3"/>
	<circle cx="677.1" cy="71.2" r="3.3"/>
	<circle cx="688.9" cy="71.2" r="3.3"/>
	<circle cx="700.7" cy="71.2" r="3.3"/>
	<path d="M672.4,83.7h18.4v5.5h-18.4V83.7z"/>
	<path d="M693.1,83.7h36.7v5.5h-36.7V83.7z"/>
	<path d="M672.4,94.3h36.7v5.5h-36.7V94.3z"/>
	<path d="M711.5,94.3h36.7v5.5h-36.7V94.3z"/>
	<path d="M672.4,105.5h36.7v5.5h-36.7V105.5z"/>
	<path d="M711.5,105.5h18.4v5.5h-18.4V105.5z"/>
	<path d="M732.5,105.5h15.8v5.5h-15.8V105.5z"/>
	<path d="M672.4,117.3h36.7v5.5h-36.7V117.3z"/>
	<path d="M711.5,117.3h18.4v5.5h-18.4V117.3z"/>
	<path d="M732.5,117.3h15.8v5.5h-15.8V117.3z"/>
</g>
<path class="st31" d="M749.5,122.3c0,1.7-1.3,3.1-3.1,3.1h-87.8c-1.7,0-3.1-1.3-3.1-3.1V57.7c0-1.7,1.3-3.1,3.1-3.1h87.8
	c1.7,0,3.1,1.3,3.1,3.1V122.3"/>
<path class="st4" d="M655.5,66.3v-8.6c0-1.7,1.3-3.1,3.1-3.1h87.8c1.7,0,3.1,1.3,3.1,3.1v8.6H655.5"/>
<circle class="st1" cx="666.4" cy="60.5" r="3.3"/>
<circle class="st5" cx="678.2" cy="60.5" r="3.3"/>
<circle class="st6" cx="690" cy="60.5" r="3.3"/>
<path class="st30" d="M661.7,73H680v5.5h-18.4V73z"/>
<path class="st7" d="M682.4,73h36.7v5.5h-36.7V73z"/>
<g>
	<path class="st32" d="M661.7,83.6h36.7v5.5h-36.7V83.6z"/>
	<path class="st32" d="M700.8,83.6h36.7v5.5h-36.7V83.6z"/>
	<path class="st32" d="M661.7,94.8h36.7v5.5h-36.7V94.8z"/>
	<path class="st32" d="M700.8,94.8h18.4v5.5h-18.4V94.8z"/>
</g>
<g>
	<path class="st4" d="M721.8,94.8h15.8v5.5h-15.8V94.8z"/>
	<path class="st4" d="M661.7,106.6h36.7v5.5h-36.7V106.6z"/>
</g>
<path class="st7" d="M700.8,106.6h18.4v5.5h-18.4V106.6z"/>
<path class="st30" d="M721.8,106.6h15.8v5.5h-15.8V106.6z"/>
<g class="st2">
	<path d="M913.1,133c0,1.7-1.3,3.1-3.1,3.1h-87.8c-1.7,0-3.1-1.3-3.1-3.1V68.4c0-1.7,1.3-3.1,3.1-3.1H910c1.7,0,3.1,1.3,3.1,3.1V133
		"/>
	<path d="M819.1,77v-8.6c0-1.7,1.3-3.1,3.1-3.1H910c1.7,0,3.1,1.3,3.1,3.1V77H819.1"/>
	<circle cx="830" cy="71.2" r="3.3"/>
	<circle cx="841.7" cy="71.2" r="3.3"/>
	<circle cx="853.5" cy="71.2" r="3.3"/>
	<path d="M825.2,83.7h18.4v5.5h-18.4V83.7z"/>
	<path d="M846,83.7h36.7v5.5H846V83.7z"/>
	<path d="M825.2,94.3h36.7v5.5h-36.7V94.3z"/>
	<path d="M864.4,94.3h36.7v5.5h-36.7V94.3z"/>
	<path d="M825.2,105.5h36.7v5.5h-36.7V105.5z"/>
	<path d="M864.4,105.5h18.4v5.5h-18.4V105.5z"/>
	<path d="M885.3,105.5h15.8v5.5h-15.8V105.5z"/>
	<path d="M825.2,117.3h36.7v5.5h-36.7V117.3z"/>
	<path d="M864.4,117.3h18.4v5.5h-18.4V117.3z"/>
	<path d="M885.3,117.3h15.8v5.5h-15.8V117.3z"/>
</g>
<path class="st3" d="M902.5,122.3c0,1.7-1.3,3.1-3.1,3.1h-87.8c-1.7,0-3.1-1.3-3.1-3.1V57.7c0-1.7,1.3-3.1,3.1-3.1h87.8
	c1.7,0,3.1,1.3,3.1,3.1V122.3"/>
<path class="st4" d="M808.5,66.3v-8.6c0-1.7,1.3-3.1,3.1-3.1h87.8c1.7,0,3.1,1.3,3.1,3.1v8.6H808.5"/>
<circle class="st1" cx="819.4" cy="60.5" r="3.3"/>
<circle class="st5" cx="831.2" cy="60.5" r="3.3"/>
<circle class="st6" cx="843" cy="60.5" r="3.3"/>
<path class="st1" d="M859.5,81.8h9v30.6h-9V81.8z"/>
<path class="st6" d="M868.5,88.5h9v24h-9V88.5z"/>
<path class="st0" d="M877.4,72.6h9v40h-9V72.6z"/>
<circle class="st5" cx="834.6" cy="96.1" r="15.5"/>
<path class="st6" d="M834.6,96.1H850c0-3.5-1.2-6.9-3.3-9.5L834.6,96.1"/>
<path class="st0" d="M834.6,96.1l12.2-9.5c-2.8-3.6-7.2-5.9-12.2-5.9c-3.3,0-6.6,1.1-9.2,3.1L834.6,96.1"/>
<circle class="st1" cx="396.5" cy="90" r="76.5"/>
<g class="st2">
	<path d="M454.2,133c0,1.7-1.3,3.1-3.1,3.1h-87.8c-1.7,0-3.1-1.3-3.1-3.1V68.4c0-1.7,1.3-3.1,3.1-3.1h87.8c1.7,0,3.1,1.3,3.1,3.1
		V133"/>
	<path d="M360.3,77v-8.6c0-1.7,1.3-3.1,3.1-3.1h87.8c1.7,0,3.1,1.3,3.1,3.1V77H360.3"/>
	<circle cx="371.1" cy="71.2" r="3.3"/>
	<circle cx="382.9" cy="71.2" r="3.3"/>
	<circle cx="394.7" cy="71.2" r="3.3"/>
	<path d="M392.4,102.5h-3.3h-2.3h-1.1h-2h-3.5l-1.3,11.7c3.6,2.9,6.9,12,6.9,12v-10.4c-0.6-0.2-1-0.8-1-1.3c0-0.8,0.6-1.5,1.5-1.5
		c0.8,0,1.5,0.6,1.5,1.5c0,0.6-0.5,1.2-1,1.3v10.4c0,0,3.3-9,6.9-12L392.4,102.5"/>
	<path d="M395.4,102.5h-18.6l-0.6-2.4h19.6L395.4,102.5z"/>
	<path d="M395.3,100.1h-18.1l-1.9-14.4h22.2L395.3,100.1z"/>
	<path d="M389,102.5h-2.3h-0.6v10.2c0,0,0,0,0.2,0c0.8,0,1.5,0.6,1.5,1.5c0,0.6-0.5,1.2-1,1.3v10.4c0,0,3.3-9,6.9-12l-1.3-11.7
		C392.4,102.5,389,102.5,389,102.5"/>
	<path d="M407.2,85.7h17.1v37.8h-17.1V85.7z"/>
	<path d="M424.3,100.1h17.1v23.4h-17.1V100.1z"/>
</g>
<path class="st9" d="M443.5,122.3c0,1.7-1.3,3.1-3.1,3.1h-87.8c-1.7,0-3.1-1.3-3.1-3.1V57.7c0-1.7,1.3-3.1,3.1-3.1h87.8
	c1.7,0,3.1,1.3,3.1,3.1L443.5,122.3"/>
<path class="st4" d="M349.5,66.3v-8.6c0-1.7,1.3-3.1,3.1-3.1h87.8c1.7,0,3.1,1.3,3.1,3.1v8.6H349.5"/>
<circle class="st1" cx="360.4" cy="60.5" r="3.3"/>
<circle class="st5" cx="372.2" cy="60.5" r="3.3"/>
<circle class="st6" cx="384" cy="60.5" r="3.3"/>
<path class="st11" d="M381.7,91.8h-3.3h-2.3h-1.1h-2h-3.5l-1.3,11.7c3.6,2.9,6.9,12,6.9,12V105c-0.6-0.2-1-0.8-1-1.3
	c0-0.8,0.6-1.5,1.5-1.5c0.8,0,1.5,0.6,1.5,1.5c0,0.6-0.5,1.2-1,1.3v10.4c0,0,3.3-9,6.9-12L381.7,91.8"/>
<path class="st9" d="M384.7,91.8h-18.6l-0.6-2.4h19.6L384.7,91.8z"/>
<path class="st10" d="M384.5,89.4h-18.1L364.6,75h22.2L384.5,89.4z"/>
<path class="st42" d="M378.3,91.8H376h-0.6V102c0,0,0,0,0.2,0c0.8,0,1.5,0.6,1.5,1.5c0,0.6-0.5,1.2-1,1.3v10.4c0,0,3.3-9,6.9-12
	l-1.3-11.7L378.3,91.8"/>
<path class="st6" d="M396.5,75h17.1v37.8h-17.1V75z"/>
<path class="st0" d="M413.6,89.4h17.1v23.4h-17.1V89.4z"/>
<g>
	<circle class="st43" cx="396.5" cy="855" r="76.5"/>
	<g>
		<g class="st2">
			<rect x="363.9" y="852.2" transform="matrix(0.9397 -0.3419 0.3419 0.9397 -274.3586 192.3994)" width="89.5" height="44.7"/>
			<polygon points="428.7,831.5 355.1,858.3 359,868.8 443,838.2 			"/>
			<polygon points="369.5,865 380,861.1 365.6,854.5 355.1,858.3 			"/>
			<polygon points="390.5,857.3 401,853.5 386.7,846.8 376.1,850.6 			"/>
			<polygon points="411.5,849.7 422,845.9 407.7,839.2 397.2,843 			"/>
			<polygon points="432.5,842 443,838.2 428.7,831.5 418.2,835.3 			"/>
			<polygon points="439.2,827.7 428.7,831.5 443,838.2 			"/>
			<polygon points="427.8,829.1 355.1,858.3 351,847.9 434,814.6 			"/>
			<polygon points="361.3,843.7 371.7,839.6 365.5,854.1 355.1,858.3 			"/>
			<polygon points="382.1,835.4 392.5,831.3 386.3,845.8 375.9,850 			"/>
			<polygon points="402.9,827.1 413.2,822.9 407,837.5 396.6,841.6 			"/>
			<polygon points="423.6,818.8 434,814.6 427.8,829.1 417.4,833.3 			"/>
			<polygon points="438.2,825 427.8,829.1 434,814.6 			"/>
			<path d="M435.8,853.7l7,19.3l-61.3,22.3l-7-19.3L435.8,853.7L435.8,853.7z M436.3,852.5l-63.1,22.9l7.6,21l63.1-22.9L436.3,852.5
				L436.3,852.5z"/>
			<rect x="374.1" y="871.4" transform="matrix(0.9397 -0.3419 0.3419 0.9397 -273.5182 191.9145)" width="67.1" height="0.9"/>
			<rect x="409.6" y="871.5" transform="matrix(0.9397 -0.3419 0.3419 0.9397 -275.6196 193.127)" width="0.9" height="14"/>
			<rect x="371.3" y="894.2" transform="matrix(0.9397 -0.3419 0.3419 0.9397 -280.8733 196.1587)" width="89.5" height="1.4"/>
			<rect x="352.3" y="851.3" transform="matrix(-0.9397 0.3419 -0.3419 -0.9397 982.2932 1543.4448)" width="5.6" height="14"/>
			<path d="M356.4,857.8c0.3,0.7-0.1,1.5-0.8,1.8c-0.7,0.3-1.5-0.1-1.8-0.8c-0.3-0.7,0.1-1.5,0.8-1.8
				C355.4,856.7,356.2,857.1,356.4,857.8z"/>
			<rect x="370.8" y="864.4" transform="matrix(0.9397 -0.3419 0.3419 0.9397 -272.6481 184.6844)" width="33.5" height="2.8"/>
		</g>
		<g>
			<g>
				<g>
					
						<rect x="356.2" y="844.4" transform="matrix(0.9397 -0.3419 0.3419 0.9397 -272.1864 189.2976)" class="st44" width="89.5" height="44.7"/>
				</g>
				<g>
					<g>
						<polygon class="st9" points="421,823.8 347.4,850.6 351.2,861.1 435.3,830.5 						"/>
					</g>
					<g>
						<polygon class="st44" points="361.7,857.3 372.3,853.4 357.9,846.8 347.4,850.6 						"/>
					</g>
					<g>
						<polygon class="st44" points="382.8,849.6 393.3,845.8 378.9,839.1 368.4,842.9 						"/>
					</g>
					<g>
						<polygon class="st44" points="403.8,842 414.3,838.1 400,831.5 389.5,835.3 						"/>
					</g>
					<g>
						<polygon class="st44" points="424.8,834.3 435.3,830.5 421,823.8 410.5,827.6 						"/>
					</g>
					<g>
						<polygon class="st9" points="431.5,820 421,823.8 435.3,830.5 						"/>
					</g>
				</g>
				<g>
					<g>
						<polygon class="st9" points="420.1,821.4 347.4,850.6 343.2,840.2 426.3,806.9 						"/>
					</g>
					<g>
						<polygon class="st44" points="353.6,836 364,831.9 357.8,846.4 347.4,850.6 						"/>
					</g>
					<g>
						<polygon class="st44" points="374.4,827.7 384.8,823.5 378.6,838.1 368.2,842.2 						"/>
					</g>
					<g>
						<polygon class="st44" points="395.1,819.4 405.5,815.2 399.3,829.8 388.9,833.9 						"/>
					</g>
					<g>
						<polygon class="st44" points="415.9,811 426.3,806.9 420.1,821.4 409.7,825.6 						"/>
					</g>
					<g>
						<polygon class="st9" points="430.4,817.3 420.1,821.4 426.3,806.9 						"/>
					</g>
				</g>
				<g>
					<path class="st9" d="M428.1,846l7,19.3l-61.3,22.3l-7-19.3L428.1,846L428.1,846z M428.6,844.8l-63.1,22.9l7.6,21l63.1-22.9
						L428.6,844.8L428.6,844.8z"/>
				</g>
				<g>
					
						<rect x="366.4" y="863.7" transform="matrix(0.9397 -0.3419 0.3419 0.9397 -271.346 188.8127)" class="st9" width="67.1" height="0.9"/>
				</g>
				<g>
					
						<rect x="401.9" y="863.8" transform="matrix(0.9397 -0.3419 0.3419 0.9397 -273.4473 190.0253)" class="st9" width="0.9" height="14"/>
				</g>
				<g>
					
						<rect x="363.6" y="886.5" transform="matrix(0.9397 -0.3419 0.3419 0.9397 -278.701 193.0569)" class="st45" width="89.5" height="1.4"/>
				</g>
				<g>
					
						<rect x="344.6" y="843.6" transform="matrix(-0.9397 0.3419 -0.3419 -0.9397 964.6945 1531.1201)" class="st45" width="5.6" height="14"/>
				</g>
				<g>
					<path class="st44" d="M348.7,850.1c0.3,0.7-0.1,1.5-0.8,1.8c-0.7,0.3-1.5-0.1-1.8-0.8c-0.3-0.7,0.1-1.5,0.8-1.8
						C347.7,849,348.5,849.4,348.7,850.1z"/>
				</g>
				<g>
					
						<rect x="363.1" y="856.7" transform="matrix(0.9397 -0.3419 0.3419 0.9397 -270.4759 181.5826)" class="st9" width="33.5" height="2.8"/>
				</g>
			</g>
		</g>
	</g>
</g>
<g>
	<circle class="st46" cx="549.5" cy="855" r="76.5"/>
	<g>
		<g class="st2">
			<rect x="519.8" y="849.2" transform="matrix(0.9574 -0.2887 0.2887 0.9574 -226.894 192.0559)" width="35.5" height="31.7"/>
			<path d="M519.8,879.8l-4.1,1.2c-4.2,1.3-9.3-15.8-5.2-17.1l4.1-1.2L519.8,879.8z"/>
			<polygon points="531.8,883.4 554.3,876.6 551.7,881 558.7,903.4 549.9,906.1 			"/>
			<rect x="554.4" y="885.7" transform="matrix(0.9574 -0.2887 0.2887 0.9574 -233.1218 198.4765)" width="3.7" height="7.5"/>
			<rect x="515.4" y="860.2" transform="matrix(0.9574 -0.2887 0.2887 0.9574 -229.4268 186.6668)" width="5.2" height="21.6"/>
			<polygon points="605.5,875.3 558.5,873.1 550.6,847.1 588.6,819.3 			"/>
			<rect x="544.8" y="884.7" transform="matrix(0.9574 -0.2887 0.2887 0.9574 -232.4931 196.2458)" width="8.3" height="2.9"/>
			<rect x="546.5" y="890.3" transform="matrix(0.9574 -0.2887 0.2887 0.9574 -234.043 196.9743)" width="8.3" height="2.9"/>
			<rect x="548.3" y="896.5" transform="matrix(0.9574 -0.2887 0.2887 0.9574 -235.7337 197.7689)" width="8.3" height="2.9"/>
			<polygon points="591,874.6 601.8,875.1 585.6,821.5 576.9,827.9 			"/>
			<polygon points="601.8,875.1 605.5,875.3 588.6,819.3 585.6,821.5 			"/>
		</g>
		<g>
			<g>
				
					<rect x="512.1" y="841.5" transform="matrix(0.9574 -0.2887 0.2887 0.9574 -224.9954 189.5003)" class="st47" width="35.5" height="31.7"/>
				<path class="st47" d="M512.1,872.1l-4.1,1.2c-4.2,1.3-9.3-15.8-5.2-17.1l4.1-1.2L512.1,872.1z"/>
				<polygon class="st48" points="524.1,875.7 546.5,868.9 544,873.3 551,895.7 542.2,898.4 				"/>
				
					<rect x="546.6" y="878" transform="matrix(0.9574 -0.2887 0.2887 0.9574 -231.2233 195.9209)" class="st47" width="3.7" height="7.5"/>
				
					<rect x="507.7" y="852.5" transform="matrix(0.9574 -0.2887 0.2887 0.9574 -227.5282 184.1112)" class="st9" width="5.2" height="21.6"/>
				<polygon class="st49" points="597.8,867.6 550.8,865.4 542.9,839.4 580.9,811.6 				"/>
				
					<rect x="537.1" y="877" transform="matrix(0.9574 -0.2887 0.2887 0.9574 -230.5945 193.6902)" class="st50" width="8.3" height="2.9"/>
				
					<rect x="538.8" y="882.6" transform="matrix(0.9574 -0.2887 0.2887 0.9574 -232.1444 194.4187)" class="st50" width="8.3" height="2.9"/>
				
					<rect x="540.6" y="888.7" transform="matrix(0.9574 -0.2887 0.2887 0.9574 -233.8351 195.2133)" class="st50" width="8.3" height="2.9"/>
				<polygon class="st21" points="583.3,866.9 594,867.4 577.9,813.8 569.2,820.2 				"/>
				<polygon class="st47" points="594,867.4 597.8,867.6 580.9,811.6 577.9,813.8 				"/>
			</g>
		</g>
	</g>
</g>
<g>
	<circle class="st51" cx="702.5" cy="855" r="76.5"/>
	<g>
		<g>
			<g class="st2">
				<g>
					<defs>
						<path id="SVGID_1_" d="M713.9,849.8l-42.1,15.7c-2.9,1.1-2.9,5.1,0,6.2l42,16.3c0.8,0.3,1.8,0.3,2.6-0.1l38.3-17.5
							c2.7-1.2,2.6-5.1-0.2-6.2l-38.2-14.5C715.5,849.5,714.7,849.5,713.9,849.8z"/>
					</defs>
					<clipPath id="SVGID_2_">
						<use xlink:href="#SVGID_1_"  style="overflow:visible;"/>
					</clipPath>
				</g>
				<g>
					<defs>
						<path id="SVGID_3_" d="M714,835.5l-42.1,15.7c-2.9,1.1-2.9,5.1,0,6.2l42,16.3c0.8,0.3,1.8,0.3,2.6-0.1l38.3-17.5
							c2.7-1.2,2.6-5.1-0.2-6.2l-38.2-14.5C715.6,835.3,714.7,835.2,714,835.5z"/>
					</defs>
					<clipPath id="SVGID_4_">
						<use xlink:href="#SVGID_3_"  style="overflow:visible;"/>
					</clipPath>
				</g>
				<g>
					<defs>
						<path id="SVGID_5_" d="M713.9,849.8l-42.1,15.7c-2.9,1.1-2.9,5.1,0,6.2l42,16.3c0.8,0.3,1.8,0.3,2.6-0.1l38.3-17.5
							c2.7-1.2,2.6-5.1-0.2-6.2l-38.2-14.5C715.5,849.5,714.7,849.5,713.9,849.8z"/>
					</defs>
					<use xlink:href="#SVGID_5_"  style="overflow:visible;"/>
					<clipPath id="SVGID_6_">
						<use xlink:href="#SVGID_5_"  style="overflow:visible;"/>
					</clipPath>
					<path class="st52" d="M713.9,842.1l-42.1,15.7c-2.9,1.1-2.9,5.1,0,6.2l42,16.3c0.8,0.3,1.8,0.3,2.6-0.1l38.3-17.5
						c2.7-1.2,2.6-5.1-0.2-6.2l-38.2-14.5C715.5,841.8,714.7,841.8,713.9,842.1z"/>
				</g>
				<path d="M714,835.5l-42.1,15.7c-2.9,1.1-2.9,5.1,0,6.2l42,16.3c0.8,0.3,1.8,0.3,2.6-0.1l38.3-17.5c2.7-1.2,2.6-5.1-0.2-6.2
					l-38.2-14.5C715.6,835.3,714.7,835.2,714,835.5z"/>
				<g>
					<defs>
						<path id="SVGID_7_" d="M714,835.5l-42.1,15.7c-2.9,1.1-2.9,5.1,0,6.2l42,16.3c0.8,0.3,1.8,0.3,2.6-0.1l38.3-17.5
							c2.7-1.2,2.6-5.1-0.2-6.2l-38.2-14.5C715.6,835.3,714.7,835.2,714,835.5z"/>
					</defs>
					<clipPath id="SVGID_8_">
						<use xlink:href="#SVGID_7_"  style="overflow:visible;"/>
					</clipPath>
					<path class="st53" d="M714,827.8l-42.1,15.7c-2.9,1.1-2.9,5.1,0,6.2l42,16.3c0.8,0.3,1.8,0.3,2.6-0.1l38.3-17.5
						c2.7-1.2,2.6-5.1-0.2-6.2l-38.2-14.5C715.6,827.5,714.7,827.5,714,827.8z"/>
				</g>
				<path d="M714,823.1l-42.1,15.7c-2.9,1.1-2.9,5.1,0,6.2l42,16.3c0.8,0.3,1.8,0.3,2.6-0.1l38.3-17.5c2.7-1.2,2.6-5.1-0.2-6.2
					l-38.2-14.5C715.6,822.8,714.7,822.8,714,823.1z"/>
				<g>
					<defs>
						<path id="SVGID_9_" d="M713.9,849.8l-42.1,15.7c-2.9,1.1-2.9,5.1,0,6.2l42,16.3c0.8,0.3,1.8,0.3,2.6-0.1l38.3-17.5
							c2.7-1.2,2.6-5.1-0.2-6.2l-38.2-14.5C715.5,849.5,714.7,849.5,713.9,849.8z"/>
					</defs>
					<clipPath id="SVGID_10_">
						<use xlink:href="#SVGID_9_"  style="overflow:visible;"/>
					</clipPath>
				</g>
				<g>
					<defs>
						<path id="SVGID_11_" d="M714,835.5l-42.1,15.7c-2.9,1.1-2.9,5.1,0,6.2l42,16.3c0.8,0.3,1.8,0.3,2.6-0.1l38.3-17.5
							c2.7-1.2,2.6-5.1-0.2-6.2l-38.2-14.5C715.6,835.3,714.7,835.2,714,835.5z"/>
					</defs>
					<clipPath id="SVGID_12_">
						<use xlink:href="#SVGID_11_"  style="overflow:visible;"/>
					</clipPath>
				</g>
			</g>
			<g>
				<g>
					<g>
						<defs>
							<path id="SVGID_13_" d="M706.2,842.1l-42.1,15.7c-2.9,1.1-2.9,5.1,0,6.2l42,16.3c0.8,0.3,1.8,0.3,2.6-0.1l38.3-17.5
								c2.7-1.2,2.6-5.1-0.2-6.2l-38.2-14.5C707.8,841.8,707,841.8,706.2,842.1z"/>
						</defs>
						<clipPath id="SVGID_14_">
							<use xlink:href="#SVGID_13_"  style="overflow:visible;"/>
						</clipPath>
					</g>
					<g>
						<defs>
							<path id="SVGID_15_" d="M706.3,827.8l-42.1,15.7c-2.9,1.1-2.9,5.1,0,6.2l42,16.3c0.8,0.3,1.8,0.3,2.6-0.1l38.3-17.5
								c2.7-1.2,2.6-5.1-0.2-6.2l-38.2-14.5C707.9,827.5,707,827.5,706.3,827.8z"/>
						</defs>
						<clipPath id="SVGID_16_">
							<use xlink:href="#SVGID_15_"  style="overflow:visible;"/>
						</clipPath>
					</g>
				</g>
				<g>
					<g>
						<defs>
							<path id="SVGID_17_" d="M706.2,842.1l-42.1,15.7c-2.9,1.1-2.9,5.1,0,6.2l42,16.3c0.8,0.3,1.8,0.3,2.6-0.1l38.3-17.5
								c2.7-1.2,2.6-5.1-0.2-6.2l-38.2-14.5C707.8,841.8,707,841.8,706.2,842.1z"/>
						</defs>
						<use xlink:href="#SVGID_17_"  style="overflow:visible;fill:#F5D112;"/>
						<clipPath id="SVGID_18_">
							<use xlink:href="#SVGID_17_"  style="overflow:visible;"/>
						</clipPath>
						<path class="st54" d="M706.2,834.3l-42.1,15.7c-2.9,1.1-2.9,5.1,0,6.2l42,16.3c0.8,0.3,1.8,0.3,2.6-0.1L747,855
							c2.7-1.2,2.6-5.1-0.2-6.2l-38.2-14.5C707.8,834.1,707,834.1,706.2,834.3z"/>
					</g>
					<path class="st55" d="M706.3,827.8l-42.1,15.7c-2.9,1.1-2.9,5.1,0,6.2l42,16.3c0.8,0.3,1.8,0.3,2.6-0.1l38.3-17.5
						c2.7-1.2,2.6-5.1-0.2-6.2l-38.2-14.5C707.9,827.5,707,827.5,706.3,827.8z"/>
					<g>
						<defs>
							<path id="SVGID_19_" d="M706.3,827.8l-42.1,15.7c-2.9,1.1-2.9,5.1,0,6.2l42,16.3c0.8,0.3,1.8,0.3,2.6-0.1l38.3-17.5
								c2.7-1.2,2.6-5.1-0.2-6.2l-38.2-14.5C707.9,827.5,707,827.5,706.3,827.8z"/>
						</defs>
						<clipPath id="SVGID_20_">
							<use xlink:href="#SVGID_19_"  style="overflow:visible;"/>
						</clipPath>
						<path class="st56" d="M706.3,820.1l-42.1,15.7c-2.9,1.1-2.9,5.1,0,6.2l42,16.3c0.8,0.3,1.8,0.3,2.6-0.1l38.3-17.5
							c2.7-1.2,2.6-5.1-0.2-6.2l-38.2-14.5C707.9,819.8,707,819.8,706.3,820.1z"/>
					</g>
					<path class="st57" d="M706.3,815.3l-42.1,15.7c-2.9,1.1-2.9,5.1,0,6.2l42,16.3c0.8,0.3,1.8,0.3,2.6-0.1L747,836
						c2.7-1.2,2.6-5.1-0.2-6.2l-38.2-14.5C707.9,815.1,707,815.1,706.3,815.3z"/>
				</g>
				<g>
					<g>
						<defs>
							<path id="SVGID_21_" d="M706.2,842.1l-42.1,15.7c-2.9,1.1-2.9,5.1,0,6.2l42,16.3c0.8,0.3,1.8,0.3,2.6-0.1l38.3-17.5
								c2.7-1.2,2.6-5.1-0.2-6.2l-38.2-14.5C707.8,841.8,707,841.8,706.2,842.1z"/>
						</defs>
						<clipPath id="SVGID_22_">
							<use xlink:href="#SVGID_21_"  style="overflow:visible;"/>
						</clipPath>
					</g>
					<g>
						<defs>
							<path id="SVGID_23_" d="M706.3,827.8l-42.1,15.7c-2.9,1.1-2.9,5.1,0,6.2l42,16.3c0.8,0.3,1.8,0.3,2.6-0.1l38.3-17.5
								c2.7-1.2,2.6-5.1-0.2-6.2l-38.2-14.5C707.9,827.5,707,827.5,706.3,827.8z"/>
						</defs>
						<clipPath id="SVGID_24_">
							<use xlink:href="#SVGID_23_"  style="overflow:visible;"/>
						</clipPath>
					</g>
				</g>
			</g>
		</g>
		<polygon class="st58" points="709,834.9 707.3,834.9 707.3,809.7 692.9,809.7 692.9,808.1 709,808.1 		"/>
		<polygon class="st58" points="693.7,886.1 675.2,886.1 675.2,884.4 692.1,884.4 692.1,869.2 693.7,869.2 		"/>
		<polygon class="st58" points="729.7,892.5 721.7,892.5 721.7,890.8 728.1,890.8 728.1,852.7 729.7,852.7 		"/>
		<g>
			<rect x="664.9" y="806.2" class="st58" width="20.5" height="3.3"/>
			<rect x="664.9" y="811.6" class="st58" width="13.9" height="1.7"/>
			<rect x="664.9" y="815" class="st58" width="17.5" height="1.7"/>
			<rect x="664.9" y="818.3" class="st58" width="13.9" height="1.7"/>
		</g>
		<g>
			<rect x="651.7" y="875.1" class="st58" width="20.5" height="3.3"/>
			<rect x="651.7" y="880.6" class="st58" width="13.9" height="1.7"/>
			<rect x="651.7" y="883.9" class="st58" width="17.5" height="1.7"/>
			<rect x="651.7" y="887.2" class="st58" width="13.9" height="1.7"/>
		</g>
		<g>
			<rect x="697" y="891.7" class="st58" width="20.5" height="3.3"/>
			<rect x="697" y="897.1" class="st58" width="13.9" height="1.7"/>
			<rect x="697" y="900.5" class="st58" width="17.5" height="1.7"/>
			<rect x="697" y="903.8" class="st58" width="13.9" height="1.7"/>
		</g>
	</g>
</g>
</svg>
