<svg xmlns="http://www.w3.org/2000/svg" viewBox="0.5 566.5 2000 300" enable-background="new 0.5 566.5 2000 300"><g fill="#0d3050"><path d="m1735.98 780.66h-.96v-2.12h-10.42v2.12h-4.27v-13.54h-.85v-2.93h-4.09v1.65h-5.88v1.28h-2.33v-6.04h-2.16v-24.17h-2.39v-4.8l-10.57-2.54h-2.59v-3.88h-2.27v-2.04h-6.19v2.04h-5.87v-1.5h-6.51v1.5h-1.19v11.22h-7.79v24.17h-4.75v11.53h-.55v-3.8h-6.14v-2.66h-14.33v2.66h-5.32v-8.88h-7.62v8.88 62.1h-3.38v-67.61h-9.95v-1.84h-6.81v1.84h-7.92v-2.14h-16.41v2.14h-2.47v67.61h-12.27v-88.77h-22.36v-2.54h-3.42v2.54h-.86v88.77h-4.23v-113.31h-3.62v-2.75h-9.54v2.75h-8.95v-1.4h-15.79v1.4h-2.7v32.58h-2.44v-1.39h-6.25v1.39h-1.04v80.73h-9.72v-68.03h-7.98v-1.84h-12.98v1.84h-3.3v-8.09h-.73v8.09h-2.51v68.03h-10.15v-140.4h-29.27v140.4h-21.9v-49.83h-16.07v-1.69h-10.57v1.69h-2.63v49.83h-9.64v-85.38h-5.08v-1.27h-1.27v1.27h-8.45v-1.69h-5.08v1.69h-1.36v85.38h-44.14v-80.35-17.7h-10.33v-2.57h-9.72v2.57h-2.95v17.7h-7.21v-.8h-7.61v.8h-2.19v80.35h-29.36v-89.77h-5.66v-1.54h-10.16v1.54h-1.96v89.77h-3.34v-116.51h-5.26v-1.88h-2.97v1.88h-6.34v-2.73h-9.3v2.73h-19.54v116.51h-109.67v-98.43h-9.8v-4.66h-10.93v-6.64h-19.28v6.64h-20.74v4.66 98.43h-88.04v-79.74-23.35h-26.2v23.35h-7.26v-10.06h-75.77v10.06 37.04h-22.97v42.7h-58.44v-47.53-33.81h-14.58v-1.58h-10.7v1.58h-4.14v33.81h-23.38v-16.1h-3.12v-1.8h-17.51v1.8h-3.96v16.1h-9.66v-35.84h-3.61v-20.12h-2.23v-2.76h-23.34v2.76h-17.88v20.12 35.84 47.53h-64.97v-52.31-28.5-22.68h-36.32v-1.78h-5.36v1.78h-1.77v22.68h-10.87v-2.59h-6.32v-2.92h-2.43v5.51h-4.38v28.5h-31.13v52.31h-90.15v-21.21h-1.17v-118.3h-1.3v-1.08l-20.13-13.4h-.87l-20.13 13.4v1.08h-1.3v8.64h-1.72v14.97h-3.47v28.49h-.95v2.38h.95v21.41h-.95v2.37h.95v40.04h-14.77v12.31h-17.5v8.9h-1.36v35.59h1529.55v-35.59h-16.74z"/><path d="m1892.95 817.45v12.31h-21.04v18.79h21.04v8.37h77.92v-39.47z"/><path d="m138.03 829.76h-21.04v18.79h21.04v8.37h77.92v-39.47h-77.92z"/></g><g fill="#010101"><path d="m1273.43 644.31h42.96v215.83h-42.96z"/><path d="m1274.48 641.45h40.18v7h-40.18z"/><path d="m1283.95 629.3h21.93v16.93h-21.93z"/><path d="m1381.1 633.1h27.82v24.67h-27.82z"/><path d="m1378.57 644.31h5.31v-12.89h25.22l12.42 12.89v215.83h-42.95z"/><path d="m1419.7 652.62h3.35v4.26h-3.35z"/><path d="m1419.7 661.13h3.35v4.26h-3.35z"/><path d="m1419.7 669.64h3.35v4.26h-3.35z"/><path d="m1419.7 678.15h3.35v4.26h-3.35z"/><path d="m1419.7 686.66h3.35v4.26h-3.35z"/><path d="m1419.7 695.17h3.35v4.26h-3.35z"/><path d="m1419.7 703.69h3.35v4.25h-3.35z"/><path d="m1419.7 712.2h3.35v4.25h-3.35z"/><path d="m1419.7 720.7h3.35v4.26h-3.35z"/><path d="m1419.7 729.22h3.35v4.25h-3.35z"/><path d="m1419.7 737.73h3.35v4.25h-3.35z"/><path d="m1419.7 746.24h3.35v4.25h-3.35z"/><path d="m1419.7 754.75h3.35v4.26h-3.35z"/><path d="m1419.7 763.26h3.35v4.26h-3.35z"/><path d="m1419.7 771.77h3.35v4.26h-3.35z"/><path d="m1419.7 780.28h3.35v4.26h-3.35z"/><path d="m1419.7 788.79h3.35v4.26h-3.35z"/><path d="m1419.7 797.3h3.35v4.25h-3.35z"/><path d="m1419.7 805.81h3.35v4.27h-3.35z"/><path d="m1419.7 814.33h3.35v4.25h-3.35z"/><path d="m1419.7 822.84h3.35v4.26h-3.35z"/><path d="m1419.7 831.35h3.35v4.25h-3.35z"/><path d="m1419.7 839.85h3.35v4.26h-3.35z"/><path d="m229.72 830.82h62.93v24.56h-62.93z"/></g><g fill="#0d2034"><path d="m1255.33 777.62h-18.25v-3.06l-6.85-5.64h-.58l-6.86 5.64v3.06h-18.24l-8.48 9.1h-1v1.13h1v26.22h-5.48v-5.89h-15.63v5.89h-4.09v-2.64h-4.62v2.64h-3.85v41.43h33.67v.65h8.48 50.78 8.48v-68.3h1v-1.13h-1z"/><path d="m1084.42 777.84h-25.62v-5.34h-6.88v-26.75h-12.24v-1.9h-27.53v1.9h-3.06v61.5h-10.71v28.27h-8.03v-74.86h-13.76v74.86h-6.5v14.13h6.5v5.73h13.76v-5.73h8.03v5.36h90.25v-47.76h-4.21z"/><path d="m324.56 788.67h-14.56v2.14h-6.85v-7.7h-22.7v7.7h-4.71v29.51h-17.13v23.12h17.13 21.41 32.12v-52.63h-4.71z"/><path d="m479.59 794.23h-9.84v33.37h-3v-17.53h-15.42v11.11h-6.42v-8.55h-9.85v16.26h-7.28v-24.81h-33.84v41.06h33.84v-.85h13.27v.85h10.28 5.15v.86h13.27v.43h9.84v-.43h9.86v-18.4h-9.86z"/><path d="m555.41 775.41h27.404v61.6h-27.404z"/><path d="m599.94 783.54h40.693v25.24h-40.693z"/><path d="m678.32 805.79h-8.14v-14.55h-17.98v32.09h17.98v-5.56h8.14v16.25h21.84v-35.51h-21.84z"/><path d="m1288.51 822.57h-5.28v2.06h-12.29v28.82h17.57v4.77h446.61v-44.17h-446.61z"/><path d="m1538.8 810.34h15.04v-1.082l6.408 3.188 15.582-9.23 18.559 9.23 15.578-9.229 18.55 9.229 15.582-9.23 18.559 9.23 15.575-9.227 18.553 9.227 15.582-9.228 18.549 9.228 3.978-2.358v-9.992l-14.24-1.79c-12.07-3.148-17.835-9.451-19.292-17.913-5.26 8.097-12.622 13.11-21.828 15.411-7.371-3.5-11.165-8.791-12.311-15.411-5.255 8.098-12.616 13.11-21.823 15.412-7.37-3.5-11.168-8.791-12.308-15.412-5.255 8.099-12.617 13.11-21.824 15.413-7.373-3.5-11.165-8.792-12.303-15.413-5.263 8.099-12.622 13.11-21.831 15.413-7.369-3.5-11.161-8.792-12.299-15.413-7.572 11.657-19.492 16.931-35.02 16.913l18.368 9.139-9.389-1.669h-14.828v2.674l7.419 2.89h7.408"/><path d="m1992.11 798.57v-2.15h-17.5v2.15h-8.23v-7.7h-27.27v7.7h-5.66v29.51h-20.59v23.11h20.59 25.72 38.6v-52.62z"/><path d="m1781.23 801.92h48.9v25.24h-48.9z"/><path d="m1875.4 824.17h-9.78v-14.55h-21.6v32.09h21.6v-5.57h9.78v16.26h26.25v-35.51h-26.25z"/><path d="m237.18 796.42h-17.49v2.15h-8.23v-7.7h-27.27v7.7h-5.66v29.51h-20.59v23.11h20.59 25.72 38.59v-52.62h-5.66z"/><path d="m26.315 801.92h48.891v25.24h-48.891z"/><path d="m120.48 824.17h-9.78v-14.55h-21.6v32.09h21.6v-5.57h9.78v16.26h26.25v-35.51h-26.25z"/></g><g fill="#010101"><path d="m1579.45 800.07h1.69v-10.53l17.35-6.56v.96l15.33 5.81v10.32h1.68v-10.53l17.34-6.56v.96l15.34 5.81v10.32h1.68v-10.53l17.35-6.56v.96l15.33 5.81v10.32h1.68v-10.53l17.35-6.56v-.73l-18.45 4.64-15.91-4v-.64l-18.45 4.64-15.92-4v-.64l-18.44 4.64-15.91-4v-.64l-18.45 4.64-15.91-4v1.05l15.32 5.81z"/><path d="m1953.77 845.42v-6.854h-75.61v8.525h-.916v-13.368h-20.408v-19.02h-22.877v-3.09h-24.12v3.09h-11.127v-7.198h-32.772v7.198h-10.513v32.389h-19.603v-10.717h-.451v-31.85h-1.889v-12.61h-2.371v9.759h-33.667v-9.759h-2.372v9.759h-33.677v-9.759h-2.369v9.759h-33.667v-9.759h-2.382v9.759h-33.667v-9.759h-2.369v9.759h-26.305v7.212h-5.483v-4.361h-1.881v-12.61h-2.379v12.61 4.361h-19.916v14.842h19.916v12.647h-31.777v-31.85h-1.889v-12.61h-2.371v12.61 31.85h-31.788v-31.85h-1.878v-12.61h-2.371v12.61 31.85h-31.785v-31.85h-1.889v-12.61h-2.371v12.61 31.85h-31.788v-31.85h-1.879v-12.61h-2.371v12.61 31.85h-31.788v-31.85h-1.889v-12.61h-2.369v12.61 31.85h-31.788v-31.85h-1.879v-12.61h-2.371v12.61 31.85h-68.769v17.482h-6.04v-16.587h-11.437v16.587h-2.708v-3.621h-10.868v-4.569h-9.733v-9.146h-26.885v17.337h-5.143v-6.48h-13.184v-172.74-2.558h-5.473v-6.157-1.524h-24.08v1.524h-.877l-8.866 6.157v2.558h-3.652v9.212h-4.04v-5.629h-3.583v-1.536h-29.21v1.536h-16.902v5.629h-4.692v170.01h-7.687l1.308-4.419h-.964v-4.177h3.873l-23.404-9.607h-9.962v-1.935h.78v-1.829l-14.926-6.133-14.936 6.133v1.829h.772v1.935h-9.954l-23.404 9.607h3.873v4.177h-.964l1.304 4.419h-6.921v-165.16h-3.18v-5.356h-3.583v-2.045h-21.526v-1.028-3.581h-74.29v3.581h-7.18v10.387h-3.583v3.111h-1.813v2.877h1.813v2.656h-1.813v2.879h1.813v2.648h-1.813v2.887h1.813v2.645h-1.813v2.879h1.813v2.648h-1.813v2.887h1.813v2.648h-1.813v2.887h1.813v2.637h-1.813v2.887h1.813v2.648h-1.813v2.877h1.813v2.648h-1.813v2.898h1.813v2.637h-1.813v2.887h1.813v2.648h-1.813v2.88h1.813v2.653h-1.813v2.879h1.813v2.648h-1.813v2.887h1.813v2.648h-1.813v2.887h1.813v2.648h-1.813v2.877h1.813v2.648h-1.813v2.887h1.813v2.648h-1.813v2.887h1.813v2.637h-1.813v2.887h1.813v2.648h-1.813v2.887h1.813v2.637h-1.813v2.887h1.813v2.648h-1.813v2.887h1.813v2.648h-1.813v2.887h1.813v2.648h-1.813v2.887h1.813v2.637h-1.813v2.887h1.813v2.648h-1.813v2.887h1.813v1.413h-11.833v10.281h-4.587v-14.284h-3.768v-9.499h1.099v-2.448h-1.099v-2.464h1.099v-2.442h-1.099v-2.456h1.099v-2.456h-1.099v-2.443h1.099v-2.466h-1.099v-2.445h1.099v-2.453h-1.099v-2.456h1.099v-2.445h-1.099v-2.464h1.099v-2.445h-1.099v-2.456h1.099v-2.442h-1.099v-2.456h1.099v-2.456h-1.099v-2.453h1.099v-2.445h-1.099v-2.456h1.099v-2.453h-1.099v-2.456h1.099v-2.456h-1.099v-2.443h1.099v-2.456h-1.099v-2.456h1.099v-2.453h-1.099v-2.453h1.099v-2.458h-1.099v-2.442h1.099v-2.456h-1.099v-2.445h1.099v-2.463h-1.099v-2.445h1.099v-2.456h-1.099v-2.453h1.099v-2.453h-1.099v-2.448h1.099v-2.453h-1.099v-2.453h1.099v-2.458h-1.099v-2.453h1.099v-2.445h-1.099v-2.456h1.099v-2.453h-1.099v-2.453h1.099v-2.448h-1.099v-2.453h1.099v-2.453h-1.099v-2.456h1.099v-2.45h-1.099v-2.448h1.099v-2.461h-1.099v-2.45h1.099v-2.454h-1.099v-2.449h1.099v-2.457h-1.099v-2.448h1.099v-2.454h-1.099v-2.452h1.099v-2.448h-1.099v-2.933h-2.187v-3.281h2.187v-2.185h-9.482v-13.144h-1.821v-5.111h-12.04v2.695h-1.283l-17.961 13.495v2.065h-6.647v1.458.727 3.287 15.697h-4.02v59.51h-5.839v3.753h-1.022v2.442h1.022v2.458h-1.022v2.453h1.022v2.453h-1.022v2.456h1.022v2.456h-1.022v2.443h1.022v2.456h-1.022v2.456h1.022v2.453h-1.022v2.456h1.022v2.445h-1.022v2.453h1.022v2.456h-1.022v2.456h1.022v2.442h-1.022v2.456h1.022v2.445h-1.022v2.464h1.022v2.445h-1.022v2.456h1.022v2.453h-1.022v2.445h1.022v2.466h-1.022v2.443h1.022v2.456h-1.022v2.456h1.022v2.442h-1.022v2.464h1.022v2.448h-1.022v2.442h1.022v1.916h-14.359v8.567h-3.863v-128.68h-9.569v-4.785-1.413-1.416h-1.57v1.416h-1.581v-1.416h-1.578v1.416h-1.581v-1.416h-1.57v1.416h-1.599v-1.416h-1.57v1.416h-1.581v-1.416h-1.581v1.416h-1.589v-1.416h-1.573v1.416h-1.589v-1.416h-1.57v1.416h-1.589v-1.416h-1.581v1.416h-1.581v-1.416h-1.581v1.416h-1.581v-1.416h-1.57v1.416h-1.589v-1.416h-1.581v1.416h-1.581v-1.416h-1.578v1.416h-1.581v-1.416h-1.581v1.416h-1.579v-1.416h-1.581v1.416h-1.578v-1.416h-1.581v1.416h-1.581v-1.416h-1.581v1.416 1.413 4.785h-20.242v127.15h-7.807v-13.368h-16.986v-19.02h-19.04v-3.09h-20.08v3.09h-9.261v-7.198h-27.28v7.198h-8.75v32.389h-5.667v-194.35h-2.447l-12.988-44.22-53.02-23.65-8.648 21.08h-5.758v14.03l-13.44 32.757h-2v188.45h-22.806v23.419h-9.725v-14.855h-21.737v10.849h-6.763v-179.97-8.276-3.889h-1.871v3.889h-3.046v-2.103h.859l-16.931-42.06-.163-.018v-4.356h-1.868v4.151l-45.28-4.976v-5.575h-1.881v5.368l-.095-.01-18.327 47.48h.856v2.103h-5.472v-3.889h-1.879v3.889 8.276 175.4h-40.575v16.192h-32.2v-8.436h-46.735v-6.854h-74.59v-4.842h-22.345v-19.02h-22.877v-3.09h-24.12v3.09h-11.127v-7.198h-32.772v7.198h-10.513v44.96 4.451 2.382h2000v-1.935-4.898-14.242h-46.735m-254.45-9.05v-12.647h31.788v12.647h-31.788m-4.25 0h-31.796v-12.647h31.796v12.647m-36.05 0h-31.788v-12.647h31.788v12.647m-36.05 0h-31.778v-12.647h31.778v12.647m-36.03-12.646v12.647h-31.788v-12.647h31.788"/></g></svg>