<svg xmlns="http://www.w3.org/2000/svg" viewBox="0 80 1280 640" enable-background="new 0 80 1280 640"><g fill="#0089cf"><path d="m160 80c-88.3 0-160 71.7-160 160s71.7 160 160 160 160-71.7 160-160-71.7-160-160-160m34.2 160h-22.1c0 35.8 0 80 0 80h-33.6c0 0 0-43.5 0-80h-16v-28.5h16v-18.2c0-12.8 6.1-33.3 33.3-33.3h24.3v27.5c0 0-15 0-17.9 0-3.2 0-7 1.3-7 7.7v16.3h25.3l-2.3 28.5"/><path d="m480 80c-88.3 0-160 71.7-160 160s71.7 160 160 160 160-71.7 160-160-71.7-160-160-160m63.7 127.7c0 1.3 0 2.6 0 4.5 0 43.5-33 93.4-93.4 93.4-18.6 0-35.8-5.4-50.2-14.7 2.6.3 5.4.3 8 .3 15.7 0 29.4-5.4 41-14.1-14.1-.3-26.6-9.9-30.7-22.7 1.9.3 3.8.3 6.1.3 3.2 0 5.8-.3 8.3-1.3-15-3.2-26.2-16.3-26.2-32v-.6c4.5 2.6 9.3 3.8 14.7 3.8-9-5.8-14.7-16-14.7-27.2 0-6.1 1.9-11.5 4.5-16.3 16 20.2 40.3 33 67.5 34.2-.3-2.2-1-4.8-1-7.7 0-18.2 14.7-33 33-33 9.3 0 17.9 3.8 24 10.2 7.7-1.3 14.7-3.8 20.8-8-2.6 7.7-7.7 14.1-14.1 18.2 6.7-1 12.8-2.6 18.6-5.4-4.4 7.2-9.8 13-16.2 18.1"/><path d="m809.9 228.5c-.6-.7-.6-.7 0 0"/><path d="m800 80c-88.3 0-160 71.7-160 160s71.7 160 160 160 160-71.7 160-160-71.7-160-160-160m-43.5 236.5h-34.2v-103h34.2v103m-17.3-117.5c-11.5 0-19.2-8-19.2-17.9 0-10.2 7.7-17.9 19.5-17.9 11.5 0 19.2 7.7 19.2 17.9 0 9.9-7.7 17.9-19.5 17.9m140.8 117.5h-34.2v-55c0-13.8-4.8-23.7-17.3-23.7-9.3 0-15 6.1-17.9 12.5-1 2.2-1.3 5.4-1.3 8.3v57.9h-34.3c0 0 .3-93.4 0-103h34.2v14.7c4.5-7 12.8-17 31-17 22.7 0 39.7 14.7 39.7 46.1v59.2h.1"/></g><path fill="#0d74bb" d="m160 400c-88.3 0-160 71.7-160 160s71.7 160 160 160 160-71.7 160-160-71.7-160-160-160"/><path fill="#29abe2" d="m480 400c-88.3 0-160 71.7-160 160s71.7 160 160 160 160-71.7 160-160-71.7-160-160-160"/><path fill="#ed7523" d="m800 400c-88.3 0-160 71.7-160 160s71.7 160 160 160 160-71.7 160-160-71.7-160-160-160"/><path fill="#0089cf" d="m1120 80c-88.3 0-160 71.7-160 160s71.7 160 160 160c88.3 0 160-71.7 160-160s-71.7-160-160-160m-83.8 100.8c.3 0 1-.3 1-.3h166.1c.3 0 1.3.3 1.9.3l-85.2 75.2-83.8-75.2m178.8 106.9c0 2.2-.3 3.8-1.3 5.8l-59.2-51.5 60.2-53.1c.3 1.3 1 2.6 1 3.8v94.7h-.6v.3zm-129.2-46.4l-59.5 51.2c-1-1.3-1-3.2-1-4.8v-95.4c0-1.9.3-3.2 1-4.5l59.5 53.5m116.8 58.2h-165.8-.3l58.6-50.2 25.3 22.7 25.3-22.7 56.9 50.2"/><path fill="#06ad4c" d="m1120 400c-88.3 0-160 72-160 160 0 88.3 71.7 160 160 160 88.3 0 160-72 160-160 0-88.3-71.7-160-160-160"/><g opacity=".1"><path d="m210.2 576h-22.1c0 36.2 0 80 0 80h-33.6c0 0 0-43.5 0-80h-16v-28.5h16v-18.2c0-12.8 6.1-33.3 33.3-33.3h24.3v27.5c0 0-15 0-17.9 0-3.2 0-7 1.3-7 7.7v16.3h25.3l-2.3 28.5"/></g><path fill="#fff" d="m194.2 560h-22.1c0 36.2 0 80 0 80h-33.6c0 0 0-43.5 0-80h-16v-28.5h16v-18.2c0-12.8 6.1-33.3 33.3-33.3h24.3v27.5c0 0-15 0-17.9 0-3.2 0-7 1.3-7 7.7v16.3h25.3l-2.3 28.5"/><g opacity=".1"><path d="m559.7 543.7c0 1.3 0 2.6 0 4.5 0 43.5-33 93.4-93.4 93.4-18.6 0-35.8-5.4-50.2-14.7 2.6.3 5.4.3 8 .3 15.7 0 29.4-5.4 41-14.1-14.1-.3-26.6-9.9-30.7-22.7 1.9.3 3.8.3 6.1.3 3.2 0 5.8-.3 8.3-1.3-15-3.2-26.2-16.3-26.2-32v-.6c4.5 2.6 9.3 3.8 14.7 3.8-9-5.8-14.7-16-14.7-27.2 0-6.1 1.9-11.5 4.5-16.3 16 19.8 40.3 33 67.5 34.2-.3-2.2-1-4.8-1-7.7 0-18.2 14.7-33 33-33 9.3 0 17.9 3.8 24 10.2 7.7-1.3 14.7-3.8 20.8-8-2.6 7.7-7.7 14.1-14.1 18.2 6.7-1 12.8-2.6 18.6-5.4-4.4 7.2-9.8 13-16.2 18.1"/></g><path fill="#fff" d="m543.7 527.7c0 1.3 0 2.6 0 4.5 0 43.5-33 93.4-93.4 93.4-18.6 0-35.8-5.4-50.2-14.7 2.6.3 5.4.3 8 .3 15.7 0 29.4-5.4 41-14.1-14.1-.3-26.6-9.9-30.7-22.7 1.9.3 3.8.3 6.1.3 3.2 0 5.8-.3 8.3-1.3-15-3.2-26.2-16.3-26.2-32v-.6c4.5 2.6 9.3 3.8 14.7 3.8-9-5.8-14.7-16-14.7-27.2 0-6.1 1.9-11.5 4.5-16.3 16 19.8 40.3 33 67.5 34.2-.3-2.2-1-4.8-1-7.7 0-18.2 14.7-33 33-33 9.3 0 17.9 3.8 24 10.2 7.7-1.3 14.7-3.8 20.8-8-2.6 7.7-7.7 14.1-14.1 18.2 6.7-1 12.8-2.6 18.6-5.4-4.4 7.2-9.8 13-16.2 18.1"/><g opacity=".1"><path d="m825.9 564.5c-.6-.7-.6-.7 0 0"/><path d="m738.2 549.4h34.2v103h-34.2z"/><path d="m755.2 535c-11.5 0-19.2-8-19.2-17.9 0-10.2 7.7-17.9 19.5-17.9 11.5 0 19.2 7.7 19.2 17.9 0 9.9-7.7 17.9-19.5 17.9"/><path d="m896 652.5h-34.2v-55c0-13.8-4.8-23.7-17.3-23.7-9.3 0-15 6.1-17.9 12.5-1 2.2-1.3 5.4-1.3 8.3v57.9h-34.3c0 0 .3-93.4 0-103h34.2v14.7c4.5-7 12.8-17 31-17 22.7 0 39.7 14.7 39.7 46.1v59.2h.1"/></g><g fill="#fff"><path d="m809.9 548.5c-.6-.7-.6-.7 0 0"/><path d="m722.2 533.4h34.2v103h-34.2z"/><path d="m739.2 519c-11.5 0-19.2-8-19.2-17.9 0-10.2 7.7-17.9 19.5-17.9 11.5 0 19.2 7.7 19.2 17.9 0 9.9-7.7 17.9-19.5 17.9"/><path d="m880 636.5h-34.2v-55c0-13.8-4.8-23.7-17.3-23.7-9.3 0-15 6.1-17.9 12.5-1 2.2-1.3 5.4-1.3 8.3v57.9h-34.3c0 0 .3-93.4 0-103h34.2v14.7c4.5-7 12.8-17 31-17 22.7 0 39.7 14.7 39.7 46.1v59.2h.1"/></g><g opacity=".1"><path d="m1051.5 516.8c.3 0 .3-.3 1-.3h166.1c.3 0 1.3.3 1.9.3l-84.5 75.2-84.5-75.2"/><path d="m1231 623.7c0 2.2-.3 3.8-1.3 5.8l-59.5-51.8 59.5-52.8c.3 1.3 1 2.6 1 3.8l.3 95"/><path d="m1101.4 577.3l-59.5 51.2c-.3-1.3-1-3.2-1-4.8v-95c0-1.9.3-3.2 1-4.5l59.5 53.1"/><path d="m1218.6 635.5h-165.8-.3l58.2-50.2 25 22.7 25.3-22.7z"/></g><g fill="#fff"><path d="m1035.5 500.8c.3 0 .3-.3 1-.3h166.1c.3 0 1.3.3 1.9.3l-84.5 75.2-84.5-75.2"/><path d="m1215 607.7c0 2.2-.3 3.8-1.3 5.8l-59.5-51.8 59.5-52.8c.3 1.3 1 2.6 1 3.8l.3 95"/><path d="m1085.4 561.3l-59.5 51.2c-.3-1.3-1-3.2-1-4.8v-95c0-1.9.3-3.2 1-4.5l59.5 53.1"/><path d="m1202.6 619.5h-165.8-.3l58.2-50.2 25 22.7 25.3-22.7z"/></g></svg>