<?xml version="1.0" encoding="utf-8"?>
<!-- Generator: Adobe Illustrator 16.0.0, SVG Export Plug-In . SVG Version: 6.00 Build 0)  -->
<!DOCTYPE svg PUBLIC "-//W3C//DTD SVG 1.1 Tiny//EN" "http://www.w3.org/Graphics/SVG/1.1/DTD/svg11-tiny.dtd">
<svg version="1.1" baseProfile="tiny" id="Layer_1" xmlns="http://www.w3.org/2000/svg" xmlns:xlink="http://www.w3.org/1999/xlink"
	 x="0px" y="0px" width="55.5px" height="45.5px" viewBox="0 0 55.5 45.5" xml:space="preserve">
<g>
	<g>
		<path fill-rule="evenodd" fill="#379ED8" d="M21.638,25.836c3.18-3.183,6.298-6.31,9.421-9.433
			c4.172-4.175,8.345-8.348,12.521-12.52c1.744-1.742,3.521-1.737,5.285,0.014c1.335,1.327,2.668,2.657,3.992,3.996
			c1.557,1.571,1.605,3.355,0.15,5.008c-0.145,0.163-0.303,0.312-0.456,0.465c-9.346,9.346-18.696,18.688-28.033,28.041
			c-1.081,1.082-2.25,1.885-3.846,1.335c-0.558-0.192-1.109-0.55-1.528-0.968C13.595,36.262,8.062,30.733,2.544,25.19
			c-1.492-1.499-1.469-3.376,0.026-4.906c1.393-1.424,2.8-2.833,4.227-4.223c1.641-1.598,3.435-1.593,5.062,0.021
			C15.098,19.292,18.315,22.521,21.638,25.836z"/>
	</g>
</g>
</svg>
