<?xml version="1.0" encoding="utf-8"?>
<!-- Generator: Adobe Illustrator 16.0.0, SVG Export Plug-In . SVG Version: 6.00 Build 0)  -->
<!DOCTYPE svg PUBLIC "-//W3C//DTD SVG 1.1//EN" "http://www.w3.org/Graphics/SVG/1.1/DTD/svg11.dtd">
<svg version="1.1" id="Layer_1" xmlns="http://www.w3.org/2000/svg" xmlns:xlink="http://www.w3.org/1999/xlink" x="0px" y="0px"
	 width="800px" height="600px" viewBox="0 0 800 600" enable-background="new 0 0 800 600" xml:space="preserve">
<path fill="#79BA51" d="M501.138,299.624c0,55.919-45.331,101.25-101.25,101.25c-55.92,0-101.251-45.331-101.251-101.25
	s45.331-101.25,101.251-101.25C455.807,198.374,501.138,243.705,501.138,299.624"/>
<g opacity="0.1">
	<g>
		<defs>
			<rect id="SVGID_1_" x="345.22" y="257.849" width="108.92" height="108.928"/>
		</defs>
		<clipPath id="SVGID_2_">
			<use xlink:href="#SVGID_1_"  overflow="visible"/>
		</clipPath>
		<path clip-path="url(#SVGID_2_)" d="M445.52,259.966c-8.102-4.507-18.306-1.575-22.788,6.51l-31.108,55.982l-17.804-17.803
			c-6.543-6.544-17.148-6.544-23.692,0c-6.543,6.543-6.543,17.149,0,23.692l33.513,33.513c3.166,3.175,7.438,4.918,11.846,4.918
			c0.771,0,1.55-0.05,2.321-0.168c5.203-0.729,9.769-3.854,12.324-8.453l41.89-75.403
			C456.52,274.661,453.604,264.465,445.52,259.966"/>
	</g>
</g>
<path fill="#FFFFFF" d="M438.52,252.966c-8.102-4.507-18.306-1.575-22.788,6.51l-31.108,55.982l-17.804-17.803
	c-6.543-6.544-17.148-6.544-23.692,0c-6.543,6.543-6.543,17.149,0,23.692l33.513,33.513c3.166,3.175,7.438,4.918,11.846,4.918
	c0.771,0,1.55-0.05,2.321-0.168c5.203-0.729,9.769-3.854,12.324-8.453l41.89-75.403C449.52,267.661,446.604,257.465,438.52,252.966"
	/>
</svg>
