<?xml version="1.0" encoding="utf-8"?>
<!-- Generator: Adobe Illustrator 16.0.0, SVG Export Plug-In . SVG Version: 6.00 Build 0)  -->
<!DOCTYPE svg PUBLIC "-//W3C//DTD SVG 1.1//EN" "http://www.w3.org/Graphics/SVG/1.1/DTD/svg11.dtd">
<svg version="1.1" id="Layer_1" xmlns="http://www.w3.org/2000/svg" xmlns:xlink="http://www.w3.org/1999/xlink" x="0px" y="0px"
	 width="800px" height="600px" viewBox="0 0 800 600" enable-background="new 0 0 800 600" xml:space="preserve">
<path fill="#369ED8" d="M400,299.453L0,53.846v492.308L400,299.453z"/>
<path fill="#1E7091" d="M400,299.453L800,53.846v492.308L400,299.453z"/>
<path fill="#298DC1" d="M399.18,300L45.675,546.154h710.837L399.18,300z"/>
<path opacity="0.2" enable-background="new    " d="M24.068,68.615L400,269.915L756.513,80.513L399.18,300L24.068,68.615z"/>
<g>
	<path fill="#0F3051" d="M400,300L0,546.154h46.632L400,300z"/>
	<path fill="#0F3051" d="M400,300l400,246.154h-46.633L400,300z"/>
</g>
<path fill="#298DC1" d="M400.82,301L754.324,54.846H43.487L400.82,301z"/>
<g>
	<path fill="#0F3051" d="M400,301L800,54.846h-46.633L400,301z"/>
	<path fill="#0F3051" d="M400,301L0,54.846h46.633L400,301z"/>
</g>
</svg>
