<svg xmlns="http://www.w3.org/2000/svg" xmlns:xlink="http://www.w3.org/1999/xlink" width="175.78" height="232.04" viewBox="0 0 175.775 232.037" enable-background="new 0 0 175.775 232.037"><defs><use id="1" xlink:href="#2"/><path id="2" d="m114.82 4.161c-37.37-8.955-70.834-2.978-74.75 13.349l-40.08 167.24.284.068c-.55 15.821 25.601 34.598 60.928 43.06 35.33 8.465 67.15 3.581 73.828-10.771l.284.068 40.08-167.24c3.912-16.328-23.21-36.823-60.58-45.778"/><clipPath id="0"><use xlink:href="#1"/></clipPath></defs><use clip-path="url(#0)" fill="#010101" xlink:href="#2"/><use clip-path="url(#0)" fill="#13264b" xlink:href="#2"/><path clip-path="url(#0)" fill="#1a1b1b" d="m63.54 218.15c-35.93-8.61-53.52-25.791-53.26-32.991l.016-.461 39.506-164.86c1.614-6.733 25.2-14.938 62.691-5.955 37.487 8.983 54.796 26.989 53.18 33.722l-39.507 164.86-.193.416c-3.04 6.531-26.503 13.877-62.43 5.267"/><path clip-path="url(#0)" fill="#066f9e" d="m60.4 231.26c-36.524-8.753-54.35-26.412-54.07-33.839l.018-.476 40.786-170.2c1.666-6.951 25.696-15.499 63.804-6.368 38.11 9.132 55.653 27.643 53.987 34.594l-40.786 170.2-.198.429c-3.117 6.749-27.01 14.41-63.54 5.658"/><path clip-path="url(#0)" fill="#29abe2" d="m60.4 231.26c-28.988-6.947-43.25-19.377-46.06-24.07l42.77-178.48c4.587-2.897 19.932 4.776 49.01 11.745 29.08 6.968 46.23 7.083 49.01 11.744l-42.769 178.48c-4.629 2.911-22.978 7.526-51.964.58"/><path clip-path="url(#0)" fill="#7cb8e5" d="m50.794 228.95c-13.441-3.221-22.709-7.708-28.23-11.195l43.11-179.91c7.332 2.26 17.14 5.249 28.98 8.09 11.838 2.837 21.937 4.618 29.497 5.927l-43.11 179.91c-6.507.604-16.803.403-30.24-2.818"/><ellipse transform="matrix(.9725.233-.233.9725 10.825-24.18)" clip-path="url(#0)" fill="#13264b" cx="107.74" cy="33.724" rx="63.25" ry="24.618"/><ellipse transform="matrix(.9725.233-.233.9725 10.03-24.473)" clip-path="url(#0)" fill="#066f9e" cx="108.58" cy="30.19" rx="53.923" ry="20.986"/><path clip-path="url(#0)" fill="#29abe2" d="m113.47 9.784c-10.904-2.613-21.34-3.743-30.26-3.537 7.978.16 16.944 1.305 26.26 3.537 28.961 6.94 50.25 21.703 47.548 32.975-1.684 7.03-12.297 11.04-27.07 11.379 16.83.337 29.24-3.733 31.07-11.379 2.701-11.272-18.587-26.04-47.548-32.975"/><ellipse transform="matrix(.9725.233-.233.9725 8.565-18.336)" clip-path="url(#0)" fill="#13264b" cx="81.88" cy="27.08" rx="16.971" ry="6.263"/><ellipse transform="matrix(.9725.233-.233.9725 8.4-18.527)" clip-path="url(#0)" fill="#010101" cx="82.61" cy="26.29" rx="12.57" ry="4.639"/><g fill="none" stroke="#a6a8ac" stroke-width="2.518" stroke-miterlimit="10"><path opacity=".5" clip-path="url(#0)" d="m26.706 70.42c-4.04 16.875 23.264 37.883 60.993 46.924s71.59 2.692 75.64-14.183"/><path opacity=".5" clip-path="url(#0)" d="m39.42 17.354c-4.04 16.875 23.264 37.883 60.993 46.924s71.59 2.692 75.64-14.183"/><path opacity=".5" clip-path="url(#0)" d="m14.387 121.83c-4.04 16.875 23.264 37.883 60.993 46.924s71.59 2.692 75.64-14.183"/><path opacity=".5" clip-path="url(#0)" d="m2.2 172.68c-4.04 16.875 23.264 37.883 60.993 46.924s71.59 2.692 75.64-14.183"/></g></svg>