<svg xmlns="http://www.w3.org/2000/svg" xmlns:xlink="http://www.w3.org/1999/xlink" width="120.21" height="96.35" viewBox="0 0 120.206 96.352" enable-background="new 0 0 120.206 96.352"><defs><path id="1" d="m11.624 51.45c2.543-4.953 1.205-6.02 0-10.441-.619-2.269-1.767-5.208-2.738-7.531-1.922-2.114-3.693-4.718-5.172-7.928 0 0 1.276 6.394 0 16.911-1.275 10.517-5.527 27.952-2.125 26.677 0 0 .004-2.119 4.767-6.172 1.439-3.337 3.67-8.404 5.268-11.516"/><clipPath id="0"><use xlink:href="#1"/></clipPath></defs><path fill="#066f9e" d="m31.3 42.39c0 0-18.872 2.08-27.59-16.843 0 0 1.276 6.394 0 16.911s-5.527 27.952-2.125 26.677c0 0 0-2.339 5.528-6.804 5.528-4.465 15.844-12.332 24.19-12.97v-6.971z"/><path fill="#29abe2" d="m10.955 36.99c0 0 7.362 9.04 5.756 11.415-1.606 2.373-5.756 9.468-5.756 9.468s8.969-7.958 17.268-9.468l-.803-2.848 1.74-1.611c0 0-10.441.139-18.205-6.956"/><path fill="#066f9e" d="m27.954 75.51c0 0 6.166-10.419 4.678-22.325l-3.827-7.654 4.059-5.103c0 0-4.909-8.505-7.461-16.585s1.302-21.649 19.71-23.474c18.13-1.796 27.492 1.999 52.581 31.766 0 0 11.482 15.734 21.688 15.734 0 0 3.402.638-3.615 2.764 0 0 5.528 1.276 1.063 2.551-4.465 1.276-7.654-1.488-28.07 22.325s-35.508 22.327-48.27 18.925-15.02-13.428-12.544-18.924"/><path fill="#13264a" d="m92.38 37.879c0 0-12.545-15.1-23.388-23.814s-19.987-12.12-33.17-3.827c0 0 8.505-4.465 15.734-1.488s21.687 15.734 29.767 22.75 7.867 6.379 11.06 6.379"/><g fill="#29abe2"><path d="m57.934 25.547c0 0 5.586-.638 14.487 4.465s14.642 11.482 14.642 11.482 1.276 2.977-1.488 1.488c-2.765-1.488-20.625-14.884-27.641-17.435"/><path d="m85.57 47.37c0 0-10.206-.777-18.711-2.904-8.505-2.126-15.947 2.904-15.947 2.904s8.93 1.987 17.329 1.774c8.399-.212 15.416.279 17.329-1.774"/><path d="m67.21 62.47c0 0-8.213 2.629-15.02 2.417s-11.482-1.469-9.568.01c1.914 1.479 3.189 9.266 19.561 4.309s24.664-11.548 26.79-16.01c0 0-8.584 4.558-21.766 9.277"/></g><path fill="#13264a" d="m37.08 75.5c0 0-3.935-3.935-2.936-1.292.998 2.643 4.522 12.1 13.331 13.331 8.809 1.233 16.326 1.409 29.19-9.338s21.14-23.667 26.486-25.311c5.344-1.644 7.223-2.349 7.165-3.054-.059-.705-5.931-.117-8.222.998-2.29 1.116-7.634 7.4-15.68 14.74s-22.61 18.558-34.14 18.853c-8.659.223-10.08-3.532-15.193-8.927"/><circle fill="#d6d5d5" cx="95.02" cy="46.555" r="6.633"/><circle fill="#010101" cx="93.99" cy="46.555" r="3.741"/><path fill="#29abe2" d="m95.68 29.771c-3.298-3.843-6.321-7.183-9.132-10.09l-3.041 5.393c0 0 1.74 5.087 6.158 6.827.342.135 1.409-2.336 6.02-2.132"/><g fill="#13264a"><path d="m91.67 31.909h3.35l2.71 5.985-.7.569z"/><path d="m51.957 41.598c3.255-10.887 6.285-23.23 1.684-27.497s-18.207-8.986-25.839 8.972c0 0 7.096 13.924 4.627 15.05-.239.108-.534.072-.871-.076.786 1.487 1.306 2.388 1.306 2.388l-4.059 5.103 3.827 7.654c1.488 11.907-4.678 22.325-4.678 22.325-1.382 3.066-1.286 7.542 1.283 11.491 1 .485 2.297.776 3.977.721 0 0-7.407-9.09-3.704-12.682 3.704-3.591 19.19-22.559 22.447-33.445"/></g><g fill="#13264a"><use xlink:href="#1"/><path clip-path="url(#0)" stroke="#1197d4" stroke-width=".595" stroke-miterlimit="10" d="m11.624 51.45c2.543-4.953 1.205-6.02 0-10.441-.619-2.269-1.767-5.208-2.738-7.531-1.922-2.114-3.693-4.718-5.172-7.928 0 0 1.276 6.394 0 16.911-1.275 10.517-5.527 27.952-2.125 26.677 0 0 .004-2.119 4.767-6.172 1.439-3.337 3.67-8.404 5.268-11.516z"/></g><g fill="none" stroke-width=".595" stroke-miterlimit="10"><g stroke="#29abe2"><path clip-path="url(#0)" d="m-1.526 64.65l15.514-11"/><path clip-path="url(#0)" d="m-.916 53.19l15.776-2.89-1.79 2.393-15.38 5.837"/><path clip-path="url(#0)" d="m-.654 39.922l16.455 7.448-.505 1.04-14.999-1.855"/><path clip-path="url(#0)" d="M 14.599,45.539 2.048,32.291"/></g><use xlink:href="#1" stroke="#1197d4"/></g></svg>