<svg xmlns="http://www.w3.org/2000/svg" width="164.88" viewBox="0 0 164.877 158.139" enable-background="new 0 0 164.877 158.139"><path fill="#066f9e" d="m157.77 84.997l7.111-.569c-18.203 8.249-51.2 46.931-51.2 46.931-32.425 18.204-54.33-16.496-64.56-31.571s-17.919-11.662-17.919-11.662 1.991-3.413 1.991-7.395-6.542-7.111-6.542-7.111 20.763-48.07 51.766-56.03 46.08 23.892 57.45 42.664 29.01 17.919 29.01 17.919c-1.138 3.698-7.111 6.827-7.111 6.826"/><path fill="#13264a" d="m31.2 88.13l-22.47 14.79c-11.09-11.377-9.67-31.572-6.257-41.24s8.248-3.413 8.248-3.413c7.68 12.515 15.928 15.359 15.928 15.359 13.289 4.158 4.551 14.505 4.551 14.506"/><g fill="#29abe2"><path d="m8.889 33.846c1.294-14.23 14.553-31.05 34.28-33.31s48.613 2.077 66.53 23.968c-8.262-6.652-18.396-10.226-31.28-6.915-27.25 6.999-46.58 44.965-50.867 54.07 0 0-20.324-19.449-18.655-37.809"/><path d="m111.3 132.6c0 0-5.394 23.487-48.08 25.427s-54.654-22.315-54.99-38.16 22.966-31.742 22.966-31.742 7.68-3.413 17.919 11.662c9.987 14.703 31.07 48.07 62.19 32.814"/></g><path fill="#13264a" d="m113.51 76.37c6.922 28.656 5.587 43.81 3.987 50.636-.4.45-.775.873-1.118 1.262 4.629-34.643-4.398-47.04-10.81-67.56-3.964-12.686-8.64-31.07-11.753-43.772 3.959.774 7.595 2.256 10.955 4.253.619 11.05 2.62 29.85 8.739 55.18"/><path fill="#29abe2" d="m157.77 84.998l7.111-.569c-9.727 4.407-23.676 17.504-34.559 28.745.089-1.775.737-4.125 2.43-7.212 5.498-10.03 12.289-21.02 10.672-27.812-.642-2.7-1.643-7.03-2.615-11.278 10.917 11.924 24.07 11.299 24.07 11.299-1.138 3.698-7.111 6.827-7.111 6.827"/><path fill="#13264a" d="m84.29 117.61c0 0 16.446-3.234-4.898-27.581s-40.748-29.66-40.748-29.66c20.05 6.468 45.646 57.24 45.646 57.24"/><path fill="#066f9e" d="m157.77 84.998l7.111-.569c-3.664 1.66-7.927 4.554-12.4 8.115 1.545-5.446 5.408-12.223 7.02-14.927 3.249.653 5.376.554 5.376.554-1.138 3.698-7.111 6.827-7.111 6.827"/><path fill="none" stroke="#1197d4" stroke-width=".647" stroke-miterlimit="10" d="m117.09 127.46c-.076.086-.154.174-.228.257.074-.084.151-.171.228-.257z"/><path fill="#066f9e" d="m143.31 83.45c-.701 8.463-7.496 16.978-10.988 23.313-.89 1.615-1.275 3.632-1.358 5.742-5.559 5.716-10.37 11.01-13.495 14.522.007-.009.014-.016.022-.025 1.6-6.826 2.935-21.98-3.987-50.636-6.119-25.332-8.12-44.13-8.739-55.18-1.262-.75-2.563-1.427-3.906-2.02-.003-.038-.006-.078-.009-.109 16.661 7.29 26.8 27.651 35.01 41.2 1.049 1.731 2.152 3.292 3.288 4.705 1.339 7.341 4.778 11.06 4.161 18.493"/><circle fill="#d6d5d5" cx="127.84" cy="78.946" r="12.406"/><circle fill="#010101" cx="130.53" cy="80.35" r="8.417"/><path fill="#1197d4" d="m102.41 67.53c-1.026 1.983-2.482 4.817-4.192 8.221-1.687 3.415-3.64 7.401-5.48 11.743-.928 2.166-1.771 4.444-2.521 6.753-.729 2.295-1.331 4.737-1.256 6.916.01.537.097 1.047.207 1.47.199.596.379 1.235.593 1.792l.673 1.582c.275.531.548 1.061.821 1.589 1.185 2.069 2.537 4.02 4.03 5.778 1.517 1.731 3.11 3.301 4.739 4.663.82.67 1.657 1.278 2.465 1.868.844.531 1.619 1.132 2.444 1.559 1.613.929 3.165 1.666 4.581 2.229.719.262 1.391.506 2.01.733.64.177 1.228.341 1.759.488.532.164 1.015.265 1.44.336.425.081.786.15 1.079.206.59.112.905.172.905.172s-.319-.002-.918-.006c-.301-.003-.673-.005-1.11-.008-.22-.002-.456-.005-.708-.007-.249-.029-.513-.059-.793-.091-.563-.068-1.186-.143-1.864-.225-.672-.12-1.387-.307-2.163-.478-1.534-.392-3.248-.954-5.03-1.781-.914-.368-1.783-.91-2.734-1.389-.912-.54-1.835-1.139-2.761-1.785-1.831-1.322-3.667-2.865-5.358-4.677-1.664-1.83-3.287-3.839-4.597-6.126-.311-.582-.623-1.166-.936-1.752l-.834-1.904c-.247-.624-.418-1.21-.631-1.818-.237-.8-.356-1.554-.379-2.292-.04-2.932.707-5.5 1.506-7.96.813-2.458 1.851-4.751 2.879-6.942 1.027-2.193 2.146-4.241 3.226-6.165 1.073-1.929 2.161-3.707 3.184-5.333 2.041-3.255 3.885-5.871 5.206-7.679 1.326-1.805 2.132-2.8 2.132-2.8s-.587 1.134-1.615 3.12"/></svg>