<svg xmlns="http://www.w3.org/2000/svg" width="142.12" height="105.53" viewBox="0 0 142.121 105.526" enable-background="new 0 0 142.121 105.526"><path fill="#29abe2" d="M15.948,58.734L5.012,73.099c0,0,1.253-10.17,1.002-14.365S0,36.87,0,36.87l12.027,14.032L15.948,58.734z"/><path fill="#13264a" d="m16.43 58.673l-3.01 3.387-4.397-5.05 1.343-8.05 1.667 1.942z"/><g fill="#29abe2"><path d="m59.6 89.88l-6.731 4.37-32.32-25.06v-5.51z"/><path d="m108.58 83.81l-29.9 21.72-1.61-6.05z"/><path d="m90.2 17l-11.519-17h-4.206c0 0 .949 2.543.949 5.549s0 7.66 0 7.66l14.776 3.796"/><path d="m20.547 45.39l-4.117-2.446c13.924-18.983 38.444-28.2 38.444-28.2l5.178 3.718-39.505 26.929"/></g><path fill="#066f9e" d="m136.81 61.927l4.01 1.253c0 0-48.11 31.571-56.629 34.578s-10.273 1.253-10.273 1.253-46.35-29.32-53.37-35.33-8.519-12.779-8.519-12.779c16.788-17.79 39.59-29.567 53.872-34.741s17.789-3.346 29.32 3.921 46.905 36.583 46.905 36.583l-5.31 5.262"/><g fill="#13264a"><path d="m29.339 35.82c13.07-9.508 26.804-16.12 36.56-19.659 7.921-2.87 12.528-3.582 17.03-2.41l-5.853 22.07-30.969 8.55-16.765-8.549"/><path d="m44.852 51.928c-2.989 2.225-17.396 8.5-24.536 11.55-1.56-1.364-2.84-2.762-3.886-4.107 4.436-1.982 13.494-6.206 13.664-7.718.168-1.497-8.877-4.112-13.465-5.34 2.844-2.681 5.809-5.208 8.836-7.574l16.881 7.402c0 0 6.514 2.803 2.506 5.787"/></g><path fill="#29abe2" d="m68.01 68.72v6.987c-23.19-6.765-15.644-22.551-15.644-22.551 5.512.25 15.644 10.32 15.644 10.32v5.244"/><path fill="#13264a" d="m84.19 97.76c-8.519 3.01-10.273 1.253-10.273 1.253s-27.549-17.422-43.38-28.16c-.022-2.718 4.941-1.864 6.802-1.657 2.256.25 28.315 11.275 37.14 13.28 8.823 2 16.233-30.07 19.992-43.02 2.347-8.09 8.504-10.232 12.798-10.705 14.828 11.314 34.858 27.912 34.858 27.912l-5.31 5.262 4.01 1.253c0 0-48.11 31.571-56.629 34.578"/><circle fill="#d6d5d5" cx="89.2" cy="28.753" r="7.975"/><circle fill="#010101" cx="90.69" cy="28.753" r="4.627"/><path fill="#066f9e" d="m142.12 56.665l-5.31 5.262 4.01 1.253c0 0-2.102 1.379-5.499 3.585-1.249-7.343.245-11.76 1.796-14.218 3.086 2.529 5 4.118 5 4.118"/><path fill="#13264a" d="m70.27 67.94l-3.615 1.253c-2-2.756 0-5.716 0-5.716h3.615c-.895 1.3 0 4.463 0 4.463"/><path fill="#1197d4" d="m72.55 53.47c-.078.202-.162.512-.286.893-.221.773-.531 1.869-.739 3.202-.141.657-.163 1.391-.276 2.141-.006.765-.101 1.56-.044 2.385.017.411.02.829.048 1.25.06.42.117.843.159 1.271l.071.643.143.636.283 1.277c.242.838.501 1.677.789 2.49.377.779.65 1.594 1.018 2.338.414.72.783 1.438 1.141 2.122.418.65.814 1.265 1.18 1.833.362.577.696 1.11 1.05 1.539.34.439.623.84.861 1.168.472.661.732 1.057.732 1.057s-.378-.267-1.025-.767c-.321-.252-.717-.557-1.155-.925-.217-.186-.465-.369-.697-.591-.221-.233-.452-.479-.694-.735-.478-.52-1.025-1.067-1.53-1.706-.471-.664-.976-1.367-1.465-2.118-.445-.775-.864-1.611-1.272-2.465-.341-.882-.656-1.8-.94-2.722l-.278-1.424-.136-.708-.063-.715c-.044-.475-.072-.947-.095-1.412.005-.466.037-.927.055-1.378-.005-.905.225-1.762.34-2.573.209-.799.38-1.555.656-2.218.226-.676.513-1.265.769-1.781.257-.515.522-.943.744-1.289.451-.69.773-1.033.773-1.033s-.047.107-.117.315"/></svg>