<?xml version="1.0" encoding="utf-8"?>
<!-- Generator: Adobe Illustrator 16.0.0, SVG Export Plug-In . SVG Version: 6.00 Build 0)  -->
<!DOCTYPE svg PUBLIC "-//W3C//DTD SVG 1.1//EN" "http://www.w3.org/Graphics/SVG/1.1/DTD/svg11.dtd">
<svg version="1.1" id="Layer_1" xmlns="http://www.w3.org/2000/svg" xmlns:xlink="http://www.w3.org/1999/xlink" x="0px" y="0px"
	 width="156.59px" height="183.34px" viewBox="0 0 156.59 183.34" enable-background="new 0 0 156.59 183.34" xml:space="preserve">
<path fill="#066F9E" d="M25.692,90.501l-3.805-2.482c0,0-4.963,0.496-4.963,9.927c0,9.431,5.46,7.28,5.46,7.28
	s3.474-6.287,6.618-5.957c3.144,0.332,11.416,11.252,19.523,19.854c8.107,8.604,15.387,17.87,21.508,19.03
	c6.122,1.158,9.927-0.331,17.041,2.482c7.113,2.812,13.898,0.662,21.01-1.654c7.112-2.316,31.602-17.372,36.73-21.01
	c5.129-3.639,10.754-12.08,10.754-12.08l-3.971,0.992l4.963-5.129c0,0,0.993-7.279-9.265-20.847
	c-10.259-13.567-27.962-31.932-37.061-38.22s-12.243-10.09-20.847-9.928c-8.603,0.165-24.321,3.144-36.07,21.18
	s-20.847,34.25-23.16,35.902c-2.313,1.652-3.655,1.192-4.467,0.662"/>
<g>
	<path fill="#29ABE2" d="M48.521,67.011c0,0-5.294,7.114,0,13.07c5.294,5.956,13.567,18.53,16.71,24.817
		c3.144,6.287,4.302,1.984,5.129-2.979s2.813-31.435,1.654-39.38c-1.158-7.942-5.294-16.05-9.927-12.409
		c-4.633,3.641-13.566,16.876-13.566,16.876"/>
	<path fill="#29ABE2" d="M86.762,83.061c0,0-11.101,16.544-2.992,30.774c8.109,14.229,20.191,15.884,20.191,15.884
		s9.596-15.061,2.646-27.466c-6.949-12.409-19.842-19.19-19.842-19.19"/>
</g>
<path fill="#13264A" d="M115.701,96.291c0,0-0.43,0.479-1.099,1.359c-0.343,0.434-0.718,0.99-1.156,1.611
	c-0.416,0.641-0.864,1.368-1.315,2.178c-0.434,0.818-0.879,1.713-1.261,2.686c-0.218,0.477-0.37,0.989-0.526,1.512
	c-0.082,0.258-0.164,0.52-0.248,0.783c-0.057,0.27-0.116,0.542-0.176,0.816c-0.06,0.273-0.119,0.549-0.181,0.826
	c-0.055,0.277-0.062,0.564-0.095,0.849c-0.045,0.571-0.145,1.142-0.108,1.726c0.032,0.578-0.046,1.168,0.068,1.748
	c0.092,0.582,0.159,1.168,0.265,1.746l0.46,1.715c0.13,0.578,0.435,1.102,0.64,1.65c0.414,1.072,1,2.194,1.509,3.262
	c1.014,2.143,1.961,4.141,2.772,5.854c0.41,0.854,0.785,1.638,1.118,2.333c0.354,0.68,0.625,1.305,0.898,1.78
	c0.257,0.491,0.469,0.868,0.631,1.118c0.163,0.244,0.285,0.352,0.285,0.352s-0.146-0.068-0.377-0.27
	c-0.222-0.203-0.556-0.508-0.911-0.941c-0.747-0.848-1.712-2.13-2.779-3.725c-0.546-0.791-1.092-1.672-1.667-2.608
	c-0.587-0.935-1.169-1.923-1.746-2.963c-0.562-1.054-1.239-2.048-1.741-3.302c-0.246-0.612-0.586-1.19-0.756-1.844
	c-0.186-0.646-0.373-1.295-0.561-1.943c-0.111-0.668-0.178-1.346-0.266-2.01c-0.107-0.668-0.021-1.348-0.037-2.011
	c-0.03-0.67,0.112-1.319,0.211-1.964c0.059-0.32,0.091-0.643,0.172-0.953c0.087-0.309,0.174-0.613,0.259-0.916
	c0.086-0.302,0.172-0.602,0.257-0.896c0.107-0.289,0.23-0.567,0.348-0.845c0.23-0.556,0.457-1.095,0.746-1.587
	c0.508-1.017,1.123-1.896,1.705-2.684c0.307-0.381,0.582-0.76,0.877-1.092c0.303-0.326,0.588-0.634,0.857-0.924
	c0.559-0.559,1.066-1.02,1.503-1.376c0.429-0.366,0.795-0.616,1.041-0.79c0.251-0.168,0.384-0.257,0.384-0.257"/>
<g id="Eye">
	<ellipse id="eye" fill="#D6D5D5" cx="135.961" cy="92.491" rx="11.001" ry="12.74"/>
	<ellipse id="iris" fill="#010101" cx="139.521" cy="94.221" rx="6.122" ry="7.693"/>
</g>
<g>
	<path fill="#29ABE2" d="M108.092,138.981c-7.115,2.315-13.898,4.468-21.011,1.655c-7.114-2.813-10.92-1.324-17.04-2.482
		c-0.172-0.031-0.345-0.072-0.518-0.117c-0.931,0.11-1.867,0.256-2.791,0.448c-7.942,1.654-13.567,1.489-12.574,9.763
		c0.993,8.271,7.114,34.25,21.01,35.07c13.898,0.826,26.771-24.16,33.24-28.955c6.469-4.798,19.061-25.428,25-29.12l-0.002,0.001
		c-9.148,5.578-20.771,12.25-25.312,13.729"/>
	<path fill="#29ABE2" d="M48.521,119.121c-4.801-5.095-9.659-11-13.477-15.04l-0.626-0.655c0,0-5.089-1.677-7.571,6.266
		c-2.482,7.941-11.748,22.17,2.813,25.645c14.559,3.475,36.2,0.985,36.2,0.985c-5.168-3.346-11-10.476-17.336-17.199"/>
	<path fill="#29ABE2" d="M16.923,97.951c0-9.431,4.963-9.927,4.963-9.927l-8.934-11.216c0,0-14.89,8.07-12.74,20.15
		c2.151,12.08,15.221,20.021,15.221,20.021l6.949-11.748C22.383,105.232,16.923,107.383,16.923,97.951"/>
</g>
<g>
	<path fill="#13264B" d="M25.872,112.401c-3.196,8.12-9.228,19.827,3.792,22.935c0.021,0.004,0.043,0.009,0.064,0.014
		C25.787,126.998,25.494,118.1,25.872,112.401"/>
	<path fill="#13264B" d="M92.041,173.781c-28.547,2.268-36.06-22.603-37.64-29.855c-0.37,1.109-0.469,2.513-0.252,4.318
		c0.993,8.272,7.114,34.251,21.01,35.081c5.956,0.356,11.724-4.03,16.88-9.538"/>
</g>
<path fill="#29ABE2" d="M40.865,73.721c3.566-5.782,7.803-12.638,12.458-19.785c11.747-18.03,27.464-21.01,36.07-21.18
	c8.604-0.166,11.748,3.64,20.848,9.927c2.723,1.881,6.217,4.848,10.051,8.439c1.268-0.001-1.978-3.607-1.978-3.607
	c-5.845-8.387-15.187-21.708-23.347-33.291C86.805,2.642,81.946-0.005,81.946-0.005c-8.936,3.64-39.875,51.291-45.171,60.551
	C31.479,69.806,23.54,74.94,23.54,74.94c3.474,4.798,17.323-1.227,17.323-1.227"/>
<path fill="#13264B" d="M81.946,0c-6.182,2.519-22.897,26.11-34.361,43.471c5.8-5.564,12.924-15.17,21.625-21.629
	C77.59,15.62,83.184,9.015,90.102,7.847c-5.188-6.23-8.151-7.846-8.151-7.846"/>
</svg>
