<svg xmlns="http://www.w3.org/2000/svg" width="260.22" height="118.79" viewBox="0 0 260.219 118.789" enable-background="new 0 0 260.219 118.789"><path fill="#066f9e" d="m41.06 95.11c-17.357 4.098-31.622 10.414-31.622 10.414 13.705-4.428 25.22-7.207 34.905-8.749 12.588 6.607 22.398 14.547 29.802 22.02h7.805c-10.246-10.285-21.21-17.613-31.684-22.832 5.674-.655 10.639-.84 14.979-.657 10.139 9.937 15.761 18.811 18.315 23.489h11.05c-5.718-8.572-12.394-15.939-19.403-22.24 19.484 4.417 20.22 18.554 20.06 22.24h111.05c18.807-15.08 21.828-4.196 8.131 0h20.11c18.04-8.391 45.51-35.11 3.593-25.703 19.13-15.399 25.603-46.984 19.782-45.07 2.114-13.01-17.29-.636-20.03 6.576-4.766 2.058-7.58 3.932-7.58 3.932-8.644 4.505-24.785 20.423-35.757 31.816 8.879-11.359 13.13-22.709 14.775-32.955 2.325-1.758 3.722-2.636 3.722-2.636 31.769-20.31 27.26-45.46 27.26-45.46-1.23 26.377-26.873 38.34-30.17 39.775.658-18.477-6.337-31.682-6.337-31.682 2.742 13.346 2.649 24.913.889 34.817-20.15 13.595-38.82 47.33-38.82 47.33 2.49-5.179 4.452-10.193 5.97-15.03 28.504-35.822 21.695-84.51 21.695-84.51-.122 27.19-8.468 49.2-17.743 65.31 1.624-16.719-1.853-30.417-5.937-40.17 8.843-9.1 16.629-14.66 16.629-14.66-7.01 3.548-13.03 7.284-18.207 11.131-4.02-8.44-8.07-13.08-8.07-13.08 2.753 4.75 4.879 9.531 6.484 14.284-6.404 4.947-11.443 10.06-15.375 15.179-.529.017-1.044.051-1.552.094-2.988-14.991-8.03-25.511-8.03-25.511 2.144 9.704 3.466 18.377 4.173 26.12-28.579 6.755-18.08 58.725-18.08 58.725-10.244-42.474-.944-54.1-.944-54.1 11.04-15.521 8.45-33.973 8.45-33.973.229 12.935-13 32.34-13 32.34-8.909 13.266-4.417 43.27-1.968 56.01-3.453-14.195-9.97-24.674-17.14-32.33.66-19.71 8.984-33.24 8.984-33.24-8.602 8.685-12.637 18.606-14.01 28.363-12.9-11.264-26.02-14.437-26.02-14.437 11.183 5.818 19.421 12.741 25.515 19.811-.35 7.379.649 14.502 2.155 20.749-8.359-10.08-19.923-11.841-19.923-11.841-15.37.953-28.791-16.09-28.791-16.09 6.167 16.16 22.05 19.13 22.05 19.13 32.752 9.875 28.732 38.814 28.732 38.814-2.853-18.18-16.462-24.331-32.401-24.909-25.951-20.852-54.04-28.05-54.04-28.05 20.507 8.229 35.45 18.528 46.12 28.19-5.149.334-10.389 1.108-15.468 2.13-24.998-11.331-46.15-10.955-46.15-10.955 16.01 2.063 29.618 6.494 41.06 12.07m154.42 14.644c30.01-18.926 42.21-36.818 46.568-50.731 7.745-3.395 14.177-12.11 13.408 2.999-17.296 34.15-59.976 47.732-59.976 47.732m-3.278-6.312c14.38-20.403 28.696-32.861 41.704-40.31-13.779 24.695-41.704 40.31-41.704 40.31m-17.711-3.786c8.395-16.647 19.18-28.532 27.22-35.882-8.597 24.813-27.22 35.882-27.22 35.882m-27.719-12.261c5.05-12.617 5.814-25.83 4.728-37.581 1.713-3.305 3.663-6.48 5.751-9.491 5.354-.66 9.412.048 9.412.048-2.9-.888-5.589-1.5-8.103-1.888 3.03-4.165 6.276-7.991 9.455-11.39 5.61 20.403 2.083 39.869-2.235 53.27-8.126 10.616-14.876 16.212-14.876 16.212-1.805-3.062-3.156-6.125-4.132-9.179m-1.861-15.668c.164-2.353.509-4.683 1.018-6.976-.27 2.493-.615 4.819-1.018 6.976m1.392-28.01c.033.557.063 1.104.09 1.651-9.812 17.03-8.703 33.26-6.654 42.693-2.88 5.889-5.577 8.276-5.577 8.276-7.143-33.18 1.829-47 12.141-52.62m-42.892 29.683c11.768 17.815 11.496 34.418 11.496 34.418-7.515-12.16-10.698-23.925-11.496-34.418"/></svg>