<svg xmlns="http://www.w3.org/2000/svg" width="154.8" height="70.66" viewBox="0 0 154.797 70.664" enable-background="new 0 0 154.797 70.664"><path fill="#066f9e" d="m24.428 56.58c-10.325 2.438-18.811 6.195-18.811 6.195 8.153-2.634 15-4.287 20.764-5.204 7.488 3.93 13.324 8.653 17.728 13.1h4.643c-6.095-6.118-12.618-10.477-18.848-13.582 3.375-.39 6.329-.5 8.91-.391 6.03 5.911 9.376 11.19 10.895 13.973h6.574c-3.402-5.099-7.373-9.482-11.542-13.228 11.59 2.628 12.02 11.04 11.936 13.228h66.06c11.188-8.968 12.985-2.496 4.837 0h11.964c10.731-4.991 27.07-20.884 2.137-15.29 11.38-9.16 15.231-27.949 11.768-26.812 1.258-7.74-10.285-.378-11.916 3.912-2.835 1.224-4.509 2.339-4.509 2.339-5.142 2.68-14.744 12.149-21.271 18.927 5.282-6.757 7.813-13.509 8.789-19.604 1.383-1.046 2.214-1.568 2.214-1.568 18.898-12.08 16.215-27.04 16.215-27.04-.732 15.691-15.986 22.81-17.947 23.661.391-10.991-3.77-18.847-3.77-18.847 1.631 7.939 1.576 14.82.529 20.712-11.988 8.09-23.09 28.16-23.09 28.16 1.481-3.081 2.649-6.06 3.552-8.941 16.955-21.311 12.905-50.27 12.905-50.27-.073 16.17-5.04 29.27-10.555 38.848.966-9.946-1.103-18.09-3.531-23.893 5.261-5.413 9.892-8.721 9.892-8.721-4.169 2.111-7.749 4.333-10.831 6.621-2.394-5.02-4.802-7.782-4.802-7.782 1.637 2.826 2.903 5.67 3.857 8.497-3.81 2.943-6.807 5.984-9.146 9.03-.314.01-.621.031-.923.056-1.778-8.918-4.78-15.176-4.78-15.176 1.275 5.773 2.062 10.932 2.482 15.539-17 4.02-10.752 34.934-10.752 34.934-6.094-25.27-.562-32.18-.562-32.18 6.566-9.233 5.03-20.21 5.03-20.21.136 7.694-7.736 19.239-7.736 19.239-5.3 7.891-2.628 25.743-1.171 33.32-2.054-8.444-5.931-14.678-10.194-19.23.393-11.725 5.344-19.772 5.344-19.772-5.117 5.167-7.518 11.07-8.336 16.872-7.674-6.701-15.476-8.588-15.476-8.588 6.652 3.461 11.553 7.579 15.178 11.785-.208 4.389.386 8.627 1.282 12.343-4.972-5.996-11.852-7.04-11.852-7.04-9.143.567-17.13-9.569-17.13-9.569 3.669 9.61 13.12 11.378 13.12 11.378 19.483 5.875 17.09 23.09 17.09 23.09-1.696-10.813-9.792-14.474-19.273-14.818-15.437-12.404-32.15-16.689-32.15-16.689 12.199 4.895 21.09 11.02 27.435 16.769-3.063.199-6.18.659-9.202 1.267-14.87-6.74-27.452-6.516-27.452-6.516 9.526 1.227 17.619 3.863 24.428 7.178m91.86 8.711c17.855-11.259 25.11-21.902 27.702-30.18 4.607-2.02 8.434-7.203 7.976 1.784-10.289 20.317-35.678 28.394-35.678 28.394m-1.95-3.755c8.554-12.137 17.07-19.548 24.809-23.978-8.197 14.691-24.809 23.978-24.809 23.978m-10.535-2.252c4.994-9.903 11.412-16.973 16.191-21.345-5.114 14.76-16.191 21.345-16.191 21.345m-16.49-7.293c3-7.506 3.459-15.365 2.812-22.356 1.019-1.966 2.179-3.855 3.421-5.646 3.185-.393 5.599.029 5.599.029-1.725-.528-3.325-.892-4.82-1.123 1.8-2.478 3.734-4.754 5.625-6.775 3.337 12.137 1.239 23.717-1.329 31.688-4.834 6.315-8.849 9.644-8.849 9.644-1.075-1.823-1.878-3.645-2.459-5.461m-1.107-9.321c.098-1.4.303-2.786.606-4.15-.161 1.483-.366 2.867-.606 4.15m.828-16.663c.02.332.037.657.053.982-5.837 10.132-5.177 19.787-3.959 25.397-1.713 3.503-3.317 4.923-3.317 4.923-4.248-19.739 1.089-27.96 7.223-31.3m-25.515 17.658c7 10.598 6.839 20.474 6.839 20.474-4.471-7.234-6.364-14.233-6.839-20.474"/></svg>