<svg xmlns="http://www.w3.org/2000/svg" width="239.94" viewBox="0 0 239.936 169.11" enable-background="new 0 0 239.936 169.11"><path fill="#066f9e" d="m219.78 118.21c17.653-19.554 23.627-59.662 18.255-57.23 1.951-16.523-15.956-.808-18.485 8.351-4.398 2.613-6.995 4.993-6.995 4.993-7.976 5.72-22.872 25.935-32.997 40.4 8.194-14.424 12.12-28.837 13.634-41.848 2.145-2.232 3.435-3.347 3.435-3.347 29.32-25.79 25.15-57.722 25.15-57.722-1.135 33.495-24.799 48.692-27.841 50.51.607-23.463-5.848-40.23-5.848-40.23 2.53 16.948 2.444 31.635.82 44.21-18.597 17.264-35.824 60.11-35.824 60.11 2.297-6.576 4.109-12.943 5.51-19.09 26.304-45.49 20.02-107.31 20.02-107.31-.113 34.523-7.814 62.47-16.374 82.927 1.499-21.23-1.71-38.625-5.478-51 8.161-11.554 15.345-18.616 15.345-18.616-6.467 4.505-12.02 9.25-16.802 14.13-3.713-10.718-7.449-16.613-7.449-16.613 2.54 6.03 4.503 12.1 5.983 18.14-5.91 6.282-10.56 12.773-14.188 19.275-.488.022-.964.065-1.432.12-2.758-19.04-7.413-32.395-7.413-32.395 1.978 12.323 3.198 23.337 3.851 33.17-26.373 8.577-16.68 74.57-16.68 74.57-9.453-53.936-.871-68.69-.871-68.69 10.186-19.709 7.798-43.14 7.798-43.14.212 16.425-12 41.07-12 41.07-8.221 16.845-4.076 54.953-1.816 71.13-3.187-18.03-9.2-31.33-15.814-41.05.609-25.03 8.29-42.21 8.29-42.21-7.938 11.03-11.662 23.627-12.932 36.02-11.905-14.304-24.01-18.333-24.01-18.333 10.32 7.388 17.922 16.179 23.546 25.16-.323 9.37.599 18.416 1.989 26.348-7.713-12.799-18.386-15.04-18.386-15.04-14.184 1.211-26.568-20.427-26.568-20.427 5.691 20.515 20.35 24.288 20.35 24.288 30.22 12.54 26.514 49.29 26.514 49.29-2.631-23.08-15.19-30.897-29.898-31.631-23.949-26.479-49.872-35.626-49.872-35.626 18.924 10.45 32.714 23.528 42.559 35.797-4.752.424-9.588 1.407-14.274 2.704-23.07-14.387-42.586-13.91-42.586-13.91 14.778 2.62 27.332 8.246 37.895 15.323-16.02 5.204-29.18 13.224-29.18 13.224 12.647-5.622 23.269-9.152 32.21-11.11 6.613 4.776 19.244 16.02 30.16 26.569l18.48 19.654 80.07-.468m46.22-88.47c-12.716 31.359-38.485 51.19-38.485 51.19 13.27-25.908 26.481-41.728 38.485-51.19zm-29.712.813c-7.934 31.509-25.12 45.565-25.12 45.565 7.747-21.14 17.703-36.23 25.12-45.565m-52.41 10.1c.151-2.988.47-5.947.94-8.858-.25 3.166-.568 6.118-.94 8.858m6.081-27.827c1.58-4.196 3.38-8.229 5.307-12.05 4.941-.838 8.685.061 8.685.061-2.676-1.128-5.158-1.905-7.477-2.398 2.793-5.289 5.792-10.147 8.725-14.463 5.177 25.908 1.922 50.628-2.062 67.64-7.499 13.481-13.728 20.586-13.728 20.586-1.667-3.887-2.913-7.776-3.813-11.654 4.656-16.02 5.365-32.799 4.363-47.722m-4.796-7.743c.031.708.058 1.402.083 2.097-9.05 21.628-8.03 42.24-6.141 54.21-2.657 7.478-5.146 10.509-5.146 10.509-6.592-42.14 1.688-59.687 11.204-66.82m-28.973 81.4c-6.935-15.441-9.872-30.381-10.609-43.706 10.86 22.622 10.609 43.706 10.609 43.706m-18.238 10.05c-.902-.205-1.839-.415-2.775-.62-4.737-8.984-10.06-16.86-15.622-23.731 14.593 4.552 17.786 17.233 18.397 24.351m-41.41-25.11c5.236-.832 9.818-1.067 13.822-.834 9.357 12.619 10.194 20.07 12.551 26.01l.079.021c-.012.014-.026.028-.038.042-8.629-11.11-17.705-19.266-26.414-25.24m134 17.518c27.697-24.03 38.95-46.754 42.973-64.42 7.147-4.312 13.08-15.376 12.373 3.808-15.961 43.37-55.35 60.61-55.35 60.61"/></svg>