<svg xmlns="http://www.w3.org/2000/svg" viewBox="0 0 126.3 66.5" enable-background="new 0 0 126.3 66.5"><path fill="#f14852" d="m.8 37c0 0 21.2-12.4 45.8-12.2 0 0 3.6 1.1 2.7-1.3 0 0-16.8-19.7-20.4-20.8 0 0-4.5-3.7 1.8-2.6 0 0 27.3 9.3 35.9 22.3 0 0 1.3 2.5 3.9 1.1 0 0 28.7-9.9 31.2-13.9 0 0 4.2-3.6 4 .5 0 0-5.6 15.2-20.4 21.9 0 0-3.8 1.5-1.3 2.5 0 0 26.9 12.2 38.9 10.1 0 0 3.9-1.1 3.4.7 0 0-27.2 6.4-54-2.3 0 0-3.4-1.3-3.9 1.1 0 0-12.1 17.4-11.8 20.7 0 0-1 3-3.4.9 0 0-6.4-18.4-3.9-27.4 0 0 1.6-2.3-1-2.5 0 0-30.9-3.7-45.2 3.2-.1.2-4.9.5-2.3-2"/></svg>