<svg xmlns="http://www.w3.org/2000/svg" viewBox="0 0 28 15" enable-background="new 0 0 28 15"><circle fill="#fff" cx="7" cy="7" r="5.5"/><circle fill="#010101" cx="5.74" cy="8.429" r="3.339"/><circle fill="#1c75bc" cx="21" cy="7" r="5.5"/><path fill="#010101" d="m15.51 7.106c0 0 .179.053.485.16.309.084.729.322 1.249.434.258.064.532.132.813.218.272.105.609.096.922.169.321.051.648.128.99.127.339.019.683.039 1.027.059.344-.02.688-.04 1.027-.059.342-.001.668-.075.99-.127.315-.074.645-.064.926-.171.287-.088.564-.159.824-.224.526-.118.918-.338 1.231-.425.31-.102.488-.16.488-.16s-.132.126-.38.338c-.258.189-.592.553-1.1.796-.249.132-.522.275-.819.414-.288.165-.63.223-.972.329-.346.084-.698.226-1.078.231-.376.033-.757.067-1.139.101-.382-.034-.763-.068-1.139-.101-.379-.007-.731-.147-1.077-.232-.343-.106-.679-.163-.976-.331-.302-.14-.579-.286-.83-.419-.514-.248-.819-.595-1.082-.787-.244-.211-.38-.34-.38-.34"/></svg>