<svg xmlns="http://www.w3.org/2000/svg" width="66.47" height="80.41" viewBox="0 0 66.472 80.408" enable-background="new 0 0 66.472 80.408"><path fill="#010101" d="m54.76 0c-2.628 0-4.806 2.403-4.806 5.632s2.478 8.71 2.478 8.71v36.418c0 0-1.952 14.943-15.694 14.943s-8.208-25.727-8.208-25.727l4.216 1.541-3.818-15.783c0 0-8.26 25.627-5.406 33.436 2.853 7.809 6.383 10.362 13.441 10.362 7.06 0 18.923-6.758 18.923-19.373 0-12.615 0-35.29 0-35.29s3.304-6.157 3.304-9.08-1.802-5.782-4.43-5.782m-.751 10.813c0 0-3.905-8.635-.375-8.635 3.529 0 .375 8.635.375 8.635"/><path fill="#1197d4" d="m1.073 36.756c.395 1.486 1.34 2.287 2.499 2.798 1.183.486 2.545.772 3.977.925 2.862.344 5.921.351 9.05.565 3.144.211 6.394.508 9.815 1.436 1.7.475 3.472 1.095 5.214 2.083 1.732.977 3.497 2.319 4.878 4.125 1.398 1.783 2.384 3.94 2.841 6.06.461 2.117.531 4.171.393 6.089-.175 1.919-.546 3.711-1.01 5.422l-.275 1.016c-.007.061-.003.062-.017.095-.012.027-.015.126-.03.185-.034.265-.027.451-.003.604.034.284.132.642.661 1.138.505.485 1.344 1.014 2.358 1.377 2.034.758 4.606.985 7.05.666 2.451-.325 4.818-1.214 6.666-2.603 1.859-1.384 3.188-3.25 3.86-5.511.153-.57.302-1.15.378-1.761.057-.299.067-.614.105-.922.021-.241.048-.768.057-1.058.054-1.292-.008-2.68-.19-3.933-.363-2.553-1.31-4.752-3.05-6.547-.866-.906-1.924-1.72-3.124-2.503-1.201-.793-2.539-1.529-3.972-2.496-.712-.497-1.455-1.049-2.17-1.79-.708-.729-1.39-1.685-1.763-2.791-.385-1.084-.444-2.276-.331-3.204.004-.138.074-.539.129-.818.054-.32.145-.563.23-.828.175-.52.421-1.019.707-1.469 1.184-1.823 2.776-2.788 4.164-3.616 1.418-.817 2.774-1.479 3.997-2.233 1.224-.746 2.291-1.582 3.082-2.592.785-1.01 1.264-2.216 1.455-3.554l-.005.153c.024-1.504-.269-2.94-1.114-4-.827-1.078-2.203-1.793-3.729-2.242-1.53-.461-3.189-.682-4.881-.988-.848-.163-1.713-.323-2.59-.689-.433-.187-.887-.434-1.255-.85-.38-.407-.568-.996-.564-1.509.002-.276.228-.499.505-.496.256.002.466.197.493.445v.012c.036.331.152.588.372.787.214.204.532.358.884.472.71.229 1.532.321 2.354.403 1.656.156 3.381.228 5.137.591.877.183 1.766.437 2.633.842.864.402 1.699.98 2.382 1.731.686.748 1.196 1.659 1.511 2.595.326.938.467 1.896.528 2.834v.053l-.006.101c-.096 1.731-.63 3.539-1.632 5.05-.998 1.513-2.332 2.697-3.664 3.662-1.334.972-2.699 1.775-3.892 2.598-1.192.813-2.208 1.688-2.623 2.539-.108.211-.188.419-.236.636-.02.105-.061.227-.052.291 0 .102-.031.078-.027.327-.028.606.091.986.258 1.343.31.661 1.147 1.32 2.355 1.978 2.395 1.317 5.641 2.575 8.409 5.01 1.383 1.204 2.623 2.685 3.551 4.327.935 1.639 1.583 3.404 1.99 5.158.416 1.774.592 3.476.653 5.266.014.481.021.725.019 1.255-.018.461-.012.919-.06 1.384-.056.927-.212 1.862-.402 2.794-.794 3.74-2.958 7.333-5.901 9.828-2.936 2.528-6.435 4.095-10.03 4.925-3.61.814-7.374.978-11.282.046-1.945-.484-3.966-1.26-5.891-2.683-.953-.716-1.877-1.602-2.664-2.682-.783-1.077-1.427-2.352-1.776-3.695-.36-1.34-.46-2.713-.372-3.984.03-.323.046-.611.101-.963.055-.347.123-.726.189-1.043l.132-.563.176-.66c.358-1.26.62-2.499.738-3.651.154-1.149.167-2.209.041-3.122-.157-.9-.354-1.669-.787-2.374-.784-1.417-2.63-2.814-5.058-3.9-2.41-1.105-5.249-1.951-8.173-2.809-1.47-.425-2.969-.856-4.488-1.351-1.515-.498-3.069-.978-4.601-1.679-1.519-.703-3.108-1.48-4.444-2.792-.659-.649-1.254-1.435-1.588-2.329-.17-.444-.262-.907-.312-1.357-.016-.232-.019-.472-.02-.7l.077-.588.003-.025c.036-.277.291-.473.568-.437.21.028.373.18.425.373"/><g fill="#010101"><path d="m52.43 36.416v14.354c0 0-.282 2.147-1.379 4.813h4.046c.503-1.664.787-3.468.787-5.414 0-6.421 0-6.437 0-13.754h-3.454"/><path d="m51.11 10.964c.645 1.884 1.318 3.378 1.318 3.378v5.799h3.454c0-3.212 0-5.273 0-5.273s.96-1.794 1.846-3.904h-6.618"/><path d="m42.847 64.51c-1.721.737-3.735 1.19-6.109 1.19-4.537 0-6.964-2.811-8.192-6.567h-4.104v2.295c2.71 6.04 6.198 8.102 12.521 8.102 1.75 0 3.796-.417 5.883-1.234v-3.786"/></g></svg>