<svg xmlns="http://www.w3.org/2000/svg" viewBox="0 539.2 1300 598" enable-background="new 0 539.2 1300 598"><defs><linearGradient id="0" gradientUnits="userSpaceOnUse" x1="-1.65" x2="1298.35"><stop stop-color="#005195"/><stop offset="1" stop-color="#00aaeb"/></linearGradient></defs><path fill="url(#0)" d="M0,539.2v598h1300v-598H0z M1093.6,932.3H830V738.5h263.5v191.2V932.3z"/><path opacity=".1" fill="#fff" d="m955.6 830.1l128 102.9h10v-188.1h-253.5z"/><g fill="#006e9d" stroke="#000" stroke-width="5.2" stroke-miterlimit="10"><path d="m798.3 937.4h327v36.1h-327z"/><path d="m798.3 710.8h327v17.5h-327z"/></g><g fill="#00bcf0"><path opacity=".6" d="m1122.9 971.3h-14l-278.5-32.2h292.9z"/><path opacity=".6" d="m1123.7 725.9h-76l-249.4-13h325.4z"/></g><path d="m1134.1 1111.5c.1.3-.3.3-.3.4-.3 0-.3-.4-.1-.5.3-.1.3.1.4.1"/><path opacity=".68" fill="#243362" d="m812.9 728.2v206.7h-16.3z"/><path fill="#006e9d" d="m575 703.5h182.3v431.2h-182.3z"/><path d="m754.7 706v426.1h-177.2v-426.1h177.2m5-5h-187.2v436.1h187.2v-436.1z"/><path opacity=".6" fill="#00bcf0" d="m754.8 963.4l-177.3-210.9v-46.9h177.3z"/><path fill="#89c5ea" stroke="#010000" stroke-width="1.859" stroke-linecap="round" stroke-linejoin="round" stroke-miterlimit="10" d="m602 732.5v211.2h50.4v-211.2h-50.4z"/><path fill="#006e9d" d="m607.9 738.5h38.6v199.4h-38.6z"/><path fill="#89c5ea" stroke="#010000" stroke-width="1.859" stroke-linecap="round" stroke-linejoin="round" stroke-miterlimit="10" d="m679.8 732.5v211.2h50.4v-211.2h-50.4z"/><path fill="#006e9d" d="m685.8 738.5h38.6v199.4h-38.6z"/><path fill="#89c5ea" stroke="#010000" stroke-width="1.859" stroke-linecap="round" stroke-linejoin="round" stroke-miterlimit="10" d="m602 958.6v132h50.4v-132h-50.4z"/><path fill="#006e9d" d="m607.9 964.4h38.6v120.2h-38.6z"/><path fill="#89c5ea" stroke="#010000" stroke-width="1.859" stroke-linecap="round" stroke-linejoin="round" stroke-miterlimit="10" d="m679.8 958.6v132h50.4v-132h-50.4z"/><path fill="#006e9d" d="m685.8 964.4h38.6v120.2h-38.6z"/><g fill="#151314"><path d="m736.7 920.2v23.7c0 4.9 4.2 9.1 9.1 9.1 4.9 0 9.1-4.2 9.1-9.1v-23.7c0-4.9-4.2-9.1-9.1-9.1-5.1.2-9.1 4.2-9.1 9.1"/><path d="m756.9 930c1.3 7.7-5.3 14.3-13 13-4.7-.8-8.4-4.5-9.2-9.2-1.3-7.7 5.3-14.3 13-13 4.6.9 8.4 4.6 9.2 9.2"/></g><path opacity=".6" fill="#00bcf0" d="m741.3 939.7l-4.5-7.8 4.5-7.6h8.9l4.5 7.6-4.5 7.8z"/><g fill="#243362"><path opacity=".68" d="m572.5 706v431.2h-31.7z"/><path opacity=".68" d="m1125.2 975.5h-328.8v19.4z"/></g><path fill="#006e9d" stroke="#000" stroke-width="5.2" stroke-miterlimit="10" d="m814.6 725.9v225.8h294.3v-225.8h-294.3zm279 191.5v15.6h-263.6v-188.1h263.5v188.1-15.6z"/><path opacity=".6" fill="#00bcf0" d="m814.6 725.9l25.5 19h253.5v188.1h-10l23.3 18.7v-225.8z"/></svg>