<svg xmlns="http://www.w3.org/2000/svg" viewBox="0 0 811.9 1000" enable-background="new 0 0 811.9 1000"><path fill="#222d41" d="m0 0h812v1000h-812z"/><path fill="#ef5359" d="m70.1 21.2h69.4v21.9h-69.4z"/><path fill="#ed987a" d="m137.3 157.6h69.4v21.9h-69.4z"/><path fill="#a0a29f" d="m237 157.6h141.5v21.9h-141.5z"/><path fill="#ef5359" d="m473.8 190.8h141.5v21.9h-141.5z"/><path fill="#a0a29f" d="m441.3 226.1h306.8v21.9h-306.8z"/><path fill="#ed987a" d="m70.1 56.4h101v21.9h-101z"/><path fill="#a0a29f" d="m85.6 325.2h155.6v21.9h-155.6z"/><path fill="#ef5359" d="m70.1 392.4h101v21.9h-101z"/><path fill="#ed987a" d="m70.1 594.6h70.1v21.9h-70.1z"/><path fill="#ef5359" d="m99 630h142.8v21.9h-142.8z"/><path fill="#a0a29f" d="m271.5 930.6h142.8v21.9h-142.8z"/><path fill="#ef5359" d="m70.1 894.6h199.4v21.9h-199.4z"/><path fill="#a0a29f" d="m272.4 630h404.6v21.9h-404.6z"/><path fill="#656975" d="m173.3 798.2h166.2v21.9h-166.2z"/><path fill="#a0a29f" d="m372.1 798.2h82.7v21.9h-82.7z"/><path fill="#ed987a" d="m473.8 798.2h269.5v21.9h-269.5z"/><path fill="#656975" d="m205.2 392.4h231.9v21.9h-231.9z"/><path fill="#a0a29f" d="m127.3 460.2h113.9v21.9h-113.9z"/><path fill="#ed987a" d="m270.2 460.2h145v21.9h-145z"/><path fill="#ef5359" d="m163.4 494.3h41.1v21.9h-41.1z"/><path fill="#a0a29f" d="m205.2 526.1h241.2v21.9h-241.2z"/><g fill="#656975"><path d="m85.6 422.9h257.5v21.9h-257.5z"/><path d="m171.8 190.8h169.1v21.9h-169.1z"/><path d="m203.6 226.1h209.4v21.9h-209.4z"/><path d="m369.9 190.8h67.9v21.9h-67.9z"/><path d="m70.1 294h141.5v21.9h-141.5z"/><path d="m99 930.6h142.8v21.9h-142.8z"/><path d="m169.8 696.5h270.8v21.9h-270.8z"/><path d="m136.4 765h338v21.9h-338z"/><path d="m140.8 664h198.7v21.9h-198.7z"/><path d="m173.3 836.4h204.5v21.9h-204.5z"/><path d="m398.2 836.4h109.7v21.9h-109.7z"/><path d="m539.6 836.4h70.7v21.9h-70.7z"/><path d="m369.2 664h171.8v21.9h-171.8z"/><path d="m237.7 494.3h139.9v21.9h-139.9z"/><path d="m405.9 494.3h203.6v21.9h-203.6z"/><path d="m441.3 460.2h99.7v21.9h-99.7z"/><path d="m105.5 120.9h201.6v21.9h-201.6z"/></g><path fill="#a0a29f" d="m336.7 120.9h201.6v21.9h-201.6z"/></svg>