<svg xmlns="http://www.w3.org/2000/svg" viewBox="0 187.5 567 354.4" enable-background="new 0 187.5 567 354.4"><defs><linearGradient id="0" gradientUnits="userSpaceOnUse" y1="553.49" x2="0" y2="185.53"><stop stop-color="#010101"/><stop offset="1" stop-color="#181818"/></linearGradient></defs><path fill="url(#0)" d="m0 187.5h567v354.4h-567z"/><path fill="#066f9e" d="m.3 463.9l498.5-.6-41.9-48.2-456.6.6z"/><g fill="#e9ebee"><path d="m102.5 391.9v14.6c0 2.3 1.9 4.1 4.1 4.1h167.2c2.3 0 4.1-1.9 4.3-4.1v-14.6h-175.6"/><path d="m220.6 428.5c.8-.3-7.5-1.6-7.5-1.6-1.4.1-2.7-16.2-2.7-16.2l-39.8-.1c-1.3 17-2.4 16.3-2.4 16.3-6.2.7-7.7 1.4-7.7 1.4-.6.8 3 .7 3 .7h53.7c4.2-.1 3.4-.5 3.4-.5"/></g><path fill="#d8dbe1" d="m210.5 410.6h-39.9l-.1 3.3h40.2z"/><path fill="#373c47" d="m273.8 284.2h-167.1c-2.3 0-4.1 1.9-4.1 4.1v101.9c0 2.3 0 4.1 0 4.1h175.6c0 0 0-1.9 0-4.1v-101.9c-.2-2.2-2.1-4.1-4.4-4.1"/><path fill="#222d41" d="m109.9 291.2h160.7v96.2h-160.7z"/><path fill="#e9ebee" d="m279.2 454.5h-143.3l-12.4-19h136.6z"/><g fill="#a6a8ac"><path d="m142.5 440.1h-8.2l-3.6-3.6h8.4z"/><path d="m154.1 440.1h-8.2l-3.6-3.6h8.3z"/><path d="m165.7 440.1h-8.4l-3.3-3.6h8.2z"/><path d="m177.2 440.1h-8.2l-3.4-3.6h8.2z"/><path d="m188.8 440.1h-8.2l-3.5-3.6h8.3z"/><path d="m200.4 440.1h-8.2l-3.5-3.6h8.2z"/><path d="m212 440.1h-8.3l-3.4-3.6h8.2z"/><path d="m146.2 445.9h-8.3l-3.4-3.6h8.3z"/><path d="m157.8 445.9h-8.3l-3.5-3.6h8.4z"/><path d="m169.4 445.9h-8.2l-3.5-3.6h8.1z"/><path d="m181 445.9h-8.3l-3.4-3.6h8.2z"/><path d="m192.5 445.9h-8.2l-3.4-3.6h8.2z"/><path d="m204.1 445.9h-8.2l-3.5-3.6h8.3z"/><path d="m215.8 445.9h-8.3l-3.5-3.6h8.2z"/><path d="m220 451.5h-8.2l-3.5-3.5h8.2z"/><path d="m223.8 440.1h-8.3l-3.5-3.6h8.3z"/><path d="m227.5 445.9h-8.2l-3.5-3.6h8.2z"/><path d="m231.8 451.5h-8.2l-3.6-3.5h8.3z"/><path d="m235.6 440.1h-8.4l-3.4-3.6h8.2z"/><path d="m239.3 445.9h-8.2l-3.6-3.6h8.2z"/><path d="m243.5 451.5h-8.2l-3.5-3.5h8.2z"/><path d="m247.4 440.1h-8.4l-3.4-3.6h8.2z"/><path d="m251 445.9h-8.2l-3.5-3.6h8.2z"/><path d="m255.3 451.5h-8.2l-3.6-3.5h8.3z"/><path d="m259.4 440.1h-8.3l-3.4-3.6h8.2z"/><path d="m263.1 445.9h-8.2l-3.6-3.6h8.3z"/><path d="m267.4 451.5h-8.2l-3.6-3.5h8.3z"/><path d="m150.6 451.7h-8.3l-3.5-3.6h8.2z"/><path d="m162.2 451.7h-8.4l-3.4-3.6h8.2z"/><path d="m173.6 451.7h-8.2l-3.4-3.6h8.3z"/><path d="m185.3 451.7h-8.2l-3.6-3.6h8.4z"/><path d="m196.9 451.7h-8.2l-3.6-3.6h8.3z"/><path d="m208.5 451.7h-8.3l-3.4-3.6h8.2z"/></g><path fill="#0c1529" d="m0 463.3h498.6v78.5h-498.6z"/><path fill="#1197d4" d="m149.4 448.4c0 0-4.7-8.9 1.9-11.2 6.4-2.1 7.8-5.1 10.4-5 2.4.1 4.5 2.1 7.1.8 3.3-1.6 9.2-.3 10.6.8 1.4 1.2 3.8 2 5.1 4 .6.8 1.4 2.8 1.3 4.8-.1 2.4-31.7 10.9-36.4 5.8"/><path fill="#e9ebee" d="m147.9 446.9l3.7 4.8 36.3-1.9-2-5.8c0 0-6.5-7.4-22.1-4.5-15.5 2.8-15.9 7.4-15.9 7.4"/><path fill="#010101" d="m219.8 490.5c5.2-13.4-11.3-24.1-21.2-34.2l-8.9-7c0 0-1.8-7.2-20-7.2s-21.1 8-21.1 8 13.1 56.7 40.7 65.5c3.2 2.1 6.1-2.5 13.3-4.7l17.2-20.4"/></svg>