<svg xmlns="http://www.w3.org/2000/svg" viewBox="358.6 2.4 106 500" enable-background="new 358.6 2.4 106 500"><path fill="#0971a0" d="m412.5 501.9c-5.8 0-9.2-1.2-9.3-1.3l-.3-.1v-458.8h17l3.7 457.6-.1.1c-.1.2-1.3 2.1-8.6 2.5-.7 0-1.6 0-2.4 0"/><path fill="#010101" d="m419.4 42.2l3.7 456.9c0 0-.9 1.8-8.1 2.2-.9.1-1.6.1-2.3.1-5.8 0-9.2-1.2-9.2-1.2v-458h15.9m.9-1h-1-15.8-1v.9 458 .7l.7.3c.2.1 3.6 1.3 9.5 1.3.8 0 1.6 0 2.4-.1 7.2-.4 8.7-2.2 9-2.8l.1-.3v-.2l-3.7-456.8-.2-1z"/><path fill="#1bbcee" d="m404.9 42.2h9.7l3 459.1c-.5 0-.9.1-1.5.1-4.9.2-8.6-.2-11.1-.5-.1-.1-.1-458.7-.1-458.7"/><path fill="#d6eef6" d="m410.9 501.4c-1.3 0-2.5-.1-3.4-.3v-459h3.4v459.3"/><path fill="#0971a0" stroke="#010101" stroke-width=".588" stroke-miterlimit="10" d="m462.1 26.7c-11.9-14.3-30.4-24.2-51.5-24.2-20.6 0-40.9 6.7-50.5 22.9-16.8 28.2 120.7 23.5 102 1.3z"/><path fill="#d6eef6" d="M396.3,46c0,6.6,5.3,11.9,11.9,11.9h6c6.6,0,11.9-5.3,11.9-11.9V26.7h-29.8V46z"/><path fill="#0971a0" d="m396.3 46c0 1.3.3 2.6.7 3.9.4 1.2 1 2.4 1.9 3.4.8 1 1.8 1.9 2.8 2.7 1.1.7 2.3 1.2 3.6 1.5 1.3.3 2.6.4 3.9.3h3.9c1.3 0 2.6-.1 3.9-.3 1.3-.3 2.5-.9 3.5-1.5 1.1-.7 2.1-1.5 2.8-2.6.8-1 1.4-2.1 1.8-3.3s.7-2.5.7-3.8c0-1.3 0-2.6 0-3.9v-7.9-7.9l.3.3c-5 0-9.9 0-14.9-.1l-14.9-.1.1-.1c-.1 6.5-.1 13-.1 19.4m0 0c0-6.4 0-12.9-.1-19.4v-.1h.1l14.9-.2c5-.1 9.9-.1 14.9-.1h.3v.3 7.9 7.9c0 1.3 0 2.6 0 3.9 0 1.4-.3 2.7-.8 3.9-.5 1.3-1.1 2.4-2 3.4-.9 1-1.9 1.9-3 2.7-1.1.7-2.4 1.2-3.7 1.5-1.3.3-2.7.3-3.9.3h-3.9c-1.3 0-2.7-.1-3.9-.4-1.3-.3-2.5-.9-3.6-1.6-1.1-.8-2.1-1.6-2.8-2.7-.8-1-1.5-2.2-1.9-3.4-.5-1.3-.6-2.6-.6-3.9"/><path fill="#010101" d="m463.6 29.8c-5.7-13.7-31.3-27.3-53.1-27.3-21.1 0-45.6 9.3-51.9 26l105 1.3"/></svg>