<svg xmlns="http://www.w3.org/2000/svg" viewBox="1572.8 179.6 508.5 613.8" enable-background="new 1572.8 179.6 508.5 613.8"><path fill="#1197d4" d="m1930.2 342.4c0 53.1-49.3 121.9-101.4 121.9-45.1 0-95-64.3-95-121.2 0-70.1 9.9-135.6 96.3-135.6 125-.1 100.1 127.6 100.1 134.9"/><path fill="#010101" d="m2001.5 347.5c-19.2-15.7-38.7-33-58.2-51.2-15.4-38.1-30.7-77.1-46.1-116.8-21.4 6.7-42.9 19.8-64 26.6-21.4-6.7-42.9-19.8-64.3-26.6-15.4 39.7-30.7 78.7-46.1 116.8-19.5 18.2-39 35.2-58.2 51.2 111.7 15.7 225 15.7 336.9 0"/><g fill="#fff"><path d="m1959.9 311.7c-5.8-5.1-11.2-10.2-17-15.4-2.2-5.1-4.2-10.2-6.4-15.7h-207.9c-2.2 5.1-4.2 10.6-6.4 15.7-5.8 5.1-11.2 10.2-17 15.4h254.7"/><path d="m1902.9 496h-146.2v-54.7c0-17.9 146.2-17.9 146.2 0v54.7"/></g><path fill="#010101" d="m2045.6 537.8c-7.4-16.3-27.5-26.6-42.6-34.3-15.6-7.9-31.9-14.5-48.4-20.2-15.5-5.3-32.3-11-44.2-22.8-2.6-2.6-5.4-5.9-6.2-9.6-.3-1.6-1.4-1.9-3.1-2.3-10.6-2.7-22.4-2.5-33.2-2.9-17.2-.6-34.4-.7-51.7-.5-15.6.2-31.2.6-46.8 1.9-4.8.4-9.6.8-14.3 1.8-1.2.3-2.5.5-3.6 1.1-1.6.8-3.4 7.5-3.9 5.3-1.7 6.5-12.7 12.3-18.7 15.8-9.4 5.4-19.3 9.9-29.4 14.1-14.4 6-29.1 11.3-43.9 15.9-10 3.1-19.8 8.9-27.9 15.5-11 9-16.8 20.1-22.7 32.9-12 26-18.6 54.6-23.5 82.8-4.3 24.9-7.1 50.2-8.6 75.5-.3 5.4-.4 10.6.4 16.1.4 3.3 2.2 15.4 5.5 16.8 1.9.8 3.4 4 5.5 5.2 1.6.8 3.4 1.5 5 2.2 5.7 2.4 11.5 4.7 17.3 6.8 11.9 4.2 23.9 7.9 36.1 11.1 24.9 6.6 50.2 11.5 75.6 15.5 34.5 5.4 69.3 9.3 104.2 11.3 48.9 2.8 99.5-2.7 147.3-12.7 29.3-6.1 58.9-14.2 86.4-26.3 2.6-1.2 5.2-2.4 7.8-3.6 5.6-2.6 15.2-10.3 15.8-17.3 2.5-29.8 1.4-58.8-3.6-88.3-6.1-36.2-16.2-72.7-30.8-106.4.2-.3.2-.4.2-.4"/></svg>