<svg xmlns="http://www.w3.org/2000/svg" viewBox="0 0 148.7 207.2" enable-background="new 0 0 148.7 207.2"><path d="m44.6.2c.3 0 .4.1.3.4-.3.1-.4-.1-.3-.4"/><ellipse opacity=".68" fill="#243362" cx="68.5" cy="192.4" rx="68.5" ry="13.9"/><path fill="#89c5ea" stroke="#010000" stroke-width="2" stroke-linecap="round" stroke-linejoin="round" stroke-miterlimit="10" d="m96.3 12.7l.8-7.9-8.3-3.8-27.5 4.7-.7 7.2c-20.9 1.9-38.5 6.9-48.7 13.6 0 .1 0 .1 0 .2 0 0-.1 0-.1 0v12.8c0 0 14.6 5.1 68.2 5.1 53.5 0 67.5-5.1 67.5-5.1v-12.6c.1 0 .1-.1.2-.1-10.5-7.1-29.2-12.3-51.4-14.1zm-16.7-.7c-3.7 0-7.4.1-11 .3l.2-2 19.2-1.9-.4 3.8c-2.6-.1-5.3-.2-8-.2z"/><g fill="#006e9d"><path d="m136.6 191.5c0 0-16.1 13.7-56.6 13.7s-56.6-13.7-56.6-13.7l-7.7-151.3c0 0 36.4 5.1 63.7 5.1s62.4-5.1 62.4-5.1l-5.2 151.3"/><path d="m80 206.2c-40.4 0-56.6-13.4-57.3-14l-.3-.3-7.8-152.9 1.2.2c.4.1 36.6 5.1 63.5 5.1 26.9 0 61.9-5.1 62.3-5.1l1.2-.2-5.2 153-.3.3c-.7.5-16.9 13.9-57.3 13.9"/></g><path d="m141.8 40.2l-5.1 151.3c0 0-16.1 13.7-56.6 13.7-40.5 0-56.6-13.7-56.6-13.7l-7.8-151.3c0 0 36.4 5.1 63.7 5.1s62.4-5.1 62.4-5.1m2.1-2.4l-2.4.3c-.3.1-35.3 5.1-62.1 5.1-26.8 0-63-5.1-63.4-5.1l-2.4-.3.1 2.4 7.7 151.3v.9l.7.6c.7.6 17.1 14.2 57.9 14.2 40.8 0 57.2-13.6 57.9-14.2l.7-.6v-.9l5.1-151.3.2-2.4z"/><path fill="#89c5ea" d="m80.4 205.2c40.3-.1 56.3-13.7 56.3-13.7l5.1-151.3c0 0-34.3 5-61.4 5.1v159.9"/><g fill="#0097d6"><path opacity=".8" d="m85 205.2c33.6 5.1 52-13.7 52-13.7l4.8-151.3c0 0-6.5 1.2-9.2 2.1 0 0 11.8 175.4-47.6 162.9"/><path d="m141.8 42.6c0 0-13 5.1-62.7 5.1s-63.3-5.1-63.3-5.1v-12.8c0 0 20.9 5.1 63.3 5.1s62.7-5.1 62.7-5.1v12.8"/></g><path fill="#006e9d" d="m146.3 39.5c0 0-13.7 5.1-66.3 5.1s-66.9-5.1-66.9-5.1v-12.8c0 0 22.1 5.1 66.9 5.1s66.3-5.1 66.3-5.1v12.8"/><path fill="#0097d6" d="m60.9 192.4c0 1.4-1.1 2.6-2.6 2.6h-3.9c-1.4 0-2.6-1.1-2.6-2.6l-1.1-139.4c0-1.4 1.1-2.6 2.6-2.6h3.9c1.4 0 2.6 1.1 2.6 2.6l1.1 139.4"/><g fill="#010000"><path d="m60.9 192.4c0 0 0 .1 0 .2 0 .1 0 .4-.1.6-.2.5-.7 1.4-1.8 1.7-.5.1-1.2.1-1.8.1-.7 0-1.4 0-2.2 0-.8 0-1.7-.1-2.4-.9-.3-.3-.5-.8-.6-1.3-.1-.5 0-1-.1-1.5-.1-8.3-.2-20.1-.4-34.3-.2-14.2-.4-30.8-.7-48.5-.1-8.9-.2-18-.4-27.4-.1-9.3-.2-18.8-.3-28.3v-.4c0-.1.1-.4.1-.6.1-.4.3-.7.5-1 .5-.6 1.1-1 1.9-1.1l.5-.1c.2 0 .3 0 .5 0h.9 1.8.4.2.1c.2 0 .1 0 .2 0h.4c.2 0 .4.1.6.2.7.3 1.3.8 1.6 1.4.2.3.3.7.4 1 0 .2 0 .4.1.5v.4 1.8c0 4.7.1 9.4.1 14.1 0 9.3.1 18.5.1 27.4 0 17.7.1 34.3.1 48.5.2 28.6.3 47.5.3 47.5m0 0c0 0-.2-18.9-.5-47.3-.2-14.2-.4-30.8-.7-48.5-.1-8.9-.2-18-.4-27.4-.1-4.7-.1-9.4-.2-14.1v-1.8-.4-.3c0-.2-.1-.4-.2-.6-.2-.4-.6-.7-1-.9-.1 0-.2-.1-.3-.1h-.4c0 0-.1 0 0 0h-.2-.2-.4-1.8-.9c-.1 0-.3 0-.4 0h-.3c-.4.1-.8.3-1.1.7-.1.2-.3.4-.3.6 0 .1-.1.1-.1.3v.4c.1 9.4.1 18.9.2 28.2 0 9.3.1 18.5.1 27.4 0 17.7.1 34.3.1 48.5.1 14.2.1 26 .2 34.3 0 .5 0 1 .1 1.5.1.5.3.9.6 1.2.6.7 1.5.9 2.3.9.8 0 1.5 0 2.2 0 .7 0 1.3 0 1.8-.1 1.1-.3 1.6-1.1 1.8-1.6.1-.3.1-.5.1-.6-.1-.2-.1-.3-.1-.3"/><path d="m76.8 194.5c0 0 0 .3-.1.9-.1.3-.2.6-.4 1-.3.3-.6.7-1.2.8-.5.1-1.2 0-1.8.1-.3 0-.7 0-1.1 0-.4 0-.8 0-1.1-.2-.7-.4-1.2-1.2-1.2-2.1 0-.9 0-1.9-.1-2.9-.1-8.2-.2-19.9-.4-34-.2-14.1-.4-30.4-.7-48-.1-8.8-.2-17.9-.4-27.1-.1-9.2-.2-18.6-.3-28 0-.6.2-1.4.6-2 .4-.6 1.1-1.1 1.9-1.2.7 0 1.2 0 1.8 0h.9.4c.2 0 .1 0 .2 0h.1.2c1.8.5 2.2 2.2 2.2 3.4v3.5c0 4.7.1 9.3.1 13.9 0 9.2.1 18.3.1 27.1 0 17.6.1 34 .1 48 .1 28.1.2 46.8.2 46.8m0 0c0 0-.2-18.7-.5-46.8-.2-14.1-.4-30.4-.7-48-.1-8.8-.2-17.9-.3-27.1 0-4.6-.1-9.3-.2-13.9-.2-2.2.4-5.2-1.1-5.7h-.4-.4-.9c-.6 0-1.2 0-1.7 0-.3 0-.7.3-.9.6-.2.4-.3.8-.4 1.3.1 9.4.1 18.7.2 28 0 9.2.1 18.3.1 27.1 0 17.6.1 34 .1 48 .1 14.1.1 25.8.2 34 0 1 0 2 0 2.9.1.9.5 1.7 1.2 2.1.4.2.7.2 1.1.2.4 0 .7 0 1.1 0 .7 0 1.3 0 1.8 0 .5-.1.9-.4 1.2-.8.2-.3.4-.7.4-.9.1-.7 0-1 .1-1"/><path d="m91.7 194.6c0 0 0 .3-.1.8-.1.3-.2.6-.5.9-.3.3-.7.7-1.2.8-.5.1-1.2 0-1.8 0-.3 0-.7 0-1.1 0-.4 0-.8 0-1.1-.2-.7-.4-1.2-1.2-1.2-2.2 0-.9 0-1.9 0-2.9 0-8.2 0-19.9 0-34 0-14.1-.1-30.4-.1-48 0-8.8 0-17.9 0-27.1 0-9.2 0-18.6.1-28 0-1.2.8-3 2.5-3.1.7 0 1.2 0 1.8 0h.9.4c.2 0 .1 0 .2 0h.1.2c1.8.5 2.2 2.3 2.1 3.5v3.5c0 4.7-.1 9.3-.1 13.9-.1 9.2-.2 18.3-.2 27.1-.2 17.6-.4 34-.5 48-.3 28.2-.4 47-.4 47m0 0c0 0 0-18.7.1-46.8 0-14.1-.1-30.4-.1-48 0-8.8 0-17.9 0-27.1 0-4.6 0-9.3 0-13.9-.1-2.2.5-5.2-1-5.7h-.4-.4-.9c-.6 0-1.2 0-1.7 0-.3 0-.7.3-.9.6-.1.2-.2.4-.3.6 0 .1-.1.2-.1.3v.4c-.1 9.4-.1 18.7-.2 27.9-.1 9.2-.2 18.3-.2 27.1-.2 17.6-.4 34-.5 48-.1 14.1-.2 25.8-.3 34 0 1 0 2 0 2.9 0 .9.5 1.7 1.2 2.1.4.2.7.2 1.1.2.4 0 .7 0 1.1 0 .7 0 1.3 0 1.8 0 .5-.1.9-.4 1.2-.7.2-.3.4-.7.5-.9 0-.7-.1-1 0-1"/><path d="m107.3 192.5c0 0 0 .3-.1.8-.1.3-.2.6-.5 1-.3.3-.7.7-1.2.8-.6.1-1.2 0-1.8 0-.3 0-.7 0-1 0-.4 0-.8 0-1.1-.2-.7-.4-1.2-1.2-1.3-2.1 0-.9 0-1.9 0-2.9 0-8.1 0-19.6.1-33.5 0-13.9 0-30 0-47.3 0-17.3.1-35.8.1-54.3 0-.6.2-1.4.6-1.9.4-.6 1-1.1 1.8-1.1.6 0 1.2 0 1.8 0h.9.4c.1 0 0 0 .2 0h.1.2c1.7.4 2.2 2.1 2.1 3.3v3.5c0 4.6 0 9.2 0 13.7 0 9.1-.1 18-.1 26.7-.1 8.7 0 17-.1 25-.1 7.9-.2 15.4-.3 22.4-.2 13.9-.4 25.4-.5 33.5l-.3 12.6m-.1 0c0 0 0-4.6 0-12.7 0-8.1-.1-19.6-.2-33.5 0-6.9 0-14.4-.1-22.4 0-7.9.1-16.3.1-25 .1-8.7.1-17.6.2-26.7 0-4.5.1-9.1.1-13.7-.1-2.2.6-5.2-1.1-5.7h-.2-.1c.1 0 0 0 0 0h-.4-.9c-.6 0-1.2 0-1.7 0-.4 0-.8.3-1 .6-.3.4-.4.8-.4 1.3-.1 18.5-.3 37-.4 54.3-.1 17.3-.3 33.5-.4 47.3-.1 13.9-.2 25.4-.2 33.5 0 1 0 2 0 2.9.1.9.5 1.7 1.2 2 .2.1.3.1.5.1.2 0 .4 0 .5 0 .4 0 .7 0 1 0 .7 0 1.3 0 1.8 0 .5-.1.9-.4 1.1-.7.2-.3.4-.6.4-.9.2-.4.2-.7.2-.7"/></g><g fill="#0097d6"><path d="m122.2 189c0 1.4-.9 2.5-2.1 2.5h-3.1c-1.2 0-2.1-1.1-2.1-2.5l.6-136.1c0-1.4.9-2.5 2.1-2.5h3.1c1.2 0 2.1 1.1 2.1 2.5l-.6 136.1"/><path d="m42.5 189.8c0 1.4-.9 2.6-2 2.6h-3c-1.1 0-2-1.1-2-2.5l-1.9-139.5c0-1.4.9-2.6 2-2.6h3c1.1 0 2 1.1 2 2.5l1.9 139.5"/></g><path fill="#173546" d="m28.9 50.2c0-1.4-.9-2.5-1.8-2.5l-2.7.1c-1 0-1.8 1.2-1.7 2.6l1.9 99.6 2.1 40.7c.2.1.3.1.5.1l2.7-.1c.3 0 .5-.1.8-.3v-55.7l-1.8-84.5"/><path fill="#0e254b" d="m30.5 134.7v-92.7c-5-.6-9-1.1-11.6-1.4l5.6 109.3.7 38.3c0 1.2.6 2.1 1.4 2.4.2.1.3.1.5.1l2.7-.1c.3 0 .5-.1.8-.3.6-.4 1-1.3 1-2.3l-1.1-53.3"/><g fill="#010000"><path d="m42.5 189.8c0 0 0 .3-.1.8-.1.3-.2.6-.4 1-.3.3-.6.7-1.2.8-.5.1-1.2 0-1.8.1-.3 0-.7 0-1.1 0-.4 0-.8 0-1.1-.2-.7-.4-1.2-1.2-1.3-2.1-.1-.9 0-1.9-.1-2.9-.1-8.2-.3-19.9-.6-33.9-.3-14-.6-30.4-.9-47.9-.2-8.8-.3-17.8-.5-27-.1-9.2-.3-18.6-.4-28 0-1.2.7-3 2.5-3.2.7 0 1.2 0 1.8 0h.9.4c0 0 .2 0 .2 0h.1.2c1.8.5 2.2 2.2 2.2 3.4v3.5c0 4.7.1 9.3.1 13.9.1 9.2.2 18.3.2 27 .1 17.5.2 33.9.3 47.9.4 28 .6 46.8.6 46.8m0 0c0 0-.3-18.7-.8-46.8-.3-14-.6-30.4-.9-47.9-.2-8.8-.3-17.8-.5-27-.1-4.6-.1-9.2-.2-13.9-.2-2.2.4-5.2-1.1-5.7h-.4-.4-.9c-.6 0-1.2 0-1.7 0-.3 0-.7.3-.9.6-.1.2-.2.4-.3.6 0 .1-.1.2-.1.3v.4c.1 9.3.2 18.7.3 27.9.1 9.2.2 18.3.2 27 .1 17.5.2 33.9.3 47.9.1 14 .3 25.7.3 33.9 0 1 0 2 .1 2.9.1.9.5 1.7 1.2 2.1.4.2.7.2 1.1.2.4 0 .7 0 1.1 0 .7 0 1.3 0 1.8-.1.5-.1.9-.4 1.2-.8.2-.3.4-.7.4-.9.2-.4.1-.7.2-.7"/><path d="m122.3 189c0 0 0 .3-.1.8-.1.3-.2.6-.5.9-.3.3-.7.6-1.2.8-.6.1-1.1 0-1.8 0-.3 0-.7 0-1 0-.4 0-.7 0-1.1-.1-.4-.1-.8-.4-1-.7-.3-.3-.5-.7-.6-1.2-.1-.5-.1-.9-.1-1.4 0-.5 0-1 0-1.5 0-8 0-19.5.1-33.2 0-13.7 0-29.8 0-46.9 0-17.2.1-35.5.1-53.8 0-1.3.8-2.8 2.4-3 1.3 0 2.3 0 3.5 0 .2 0 .2 0 .5.1.2.1.4.1.5.2.3.2.6.4.8.7.4.6.6 1.2.7 1.9v3.4c0 4.6 0 9.1 0 13.6 0 9-.1 17.9-.1 26.5-.1 8.6 0 16.9-.1 24.7-.1 7.9-.2 15.3-.3 22.2-.2 13.7-.4 25.2-.5 33.2-.2 8.2-.2 12.8-.2 12.8m-.2 0c0 0 0-4.6 0-12.6 0-8-.1-19.5-.2-33.2 0-6.9 0-14.3-.1-22.2 0-7.9.1-16.2.1-24.7 0-8.6.1-17.4.2-26.5 0-4.5.1-9 .1-13.6v-3.4c0-.9-.6-1.9-1.5-1.9-1 0-2.3 0-3.3 0-.4 0-.8.3-1 .6-.3.4-.4.8-.4 1.3-.1 18.3-.3 36.6-.4 53.8-.1 17.2-.3 33.2-.4 46.9-.1 13.7-.2 25.2-.2 33.2 0 .5 0 1 0 1.5 0 .5 0 .9.1 1.4.1.4.3.8.5 1.1.3.3.6.5.9.6.4.1.7.1 1.1.1.4 0 .7 0 1 0 .7 0 1.3 0 1.8 0 1-.2 1.5-1.1 1.6-1.6.2-.5.1-.8.1-.8"/></g><path fill="#0097d6" d="m132.5 184.7c0 1.4-.7 2.5-1.4 2.5h-2.1c-.8 0-1.4-1.1-1.4-2.5l.6-134.5c0-1.4.7-2.5 1.4-2.5h2.1c.8 0 1.4 1.1 1.4 2.5l-.6 134.5"/><path fill="#010000" d="m132.5 184.7c0 0 0 .3-.1.8 0 .3-.2.6-.3.9-.2.3-.5.8-1.1.7-.5 0-1.1 0-1.8 0-.3 0-.7 0-.9-.3-.3-.2-.4-.6-.6-.9-.3-.7-.2-1.6-.2-2.4 0-.9 0-1.8 0-2.8 0-7.8 0-19 0-32.4 0-13.4-.1-29-.1-45.8 0-8.4 0-17 0-25.8 0-8.8 0-17.7.1-26.7 0-.3 0-.5.1-.9.1-.3.2-.6.3-1 .1-.3.4-.6.7-.9.2-.1.4-.2.6-.3.1 0 .3 0 .3 0h.2 1.7.2c0 0 .3 0 .2 0h.1c.1 0 .4.1.6.3.3.3.6.6.7.9.3.6.4 1.3.4 1.9v1.7 3.3c0 4.4-.1 8.9-.1 13.3-.1 8.8-.2 17.4-.2 25.8-.2 16.7-.4 32.4-.5 45.8-.2 27-.3 44.8-.3 44.8m0 0c0 0 0-17.9.1-44.7 0-13.4-.1-29-.1-45.8 0-8.4 0-17 0-25.8 0-4.4 0-8.8 0-13.3v-3.3-1.7c0-.5-.1-1-.3-1.3-.1-.2-.2-.3-.3-.4h-.1-.1c-.1 0 .1 0 0 0h-.2-1.7-.2c0 0 0 0-.1 0 0 0-.1.1-.1.1-.1.1-.2.2-.3.4-.1.2-.2.4-.2.6 0 .2-.1.5-.1.7-.1 8.9-.1 17.8-.2 26.6-.1 8.8-.2 17.4-.2 25.8-.2 16.7-.4 32.4-.5 45.8-.1 13.4-.2 24.6-.3 32.4 0 1 0 1.9 0 2.8 0 .9-.1 1.7.2 2.4.1.3.3.7.6.9.3.2.6.3.9.3.6 0 1.2 0 1.8 0 .6 0 .9-.4 1.1-.7.2-.4.3-.7.3-.9 0-.6 0-.9 0-.9"/><path fill="#89c5ea" d="m76.6 31.8v12.8c1.1 0 2.2 0 3.4 0 52.6 0 66.3-5.1 66.3-5.1v-12.8c0 0-21.5 5.1-66.3 5.1-1.2 0-2.3 0-3.4 0"/><path fill="#0e254b" d="m15.7 40.1c2.4.5 6.5 1.4 13.2 2.1v-13.1c-6.3-.7-10.7-1.5-13.2-1.9v12.9"/></svg>